<svg width="359" height="166" viewBox="0 0 359 166" fill="none" xmlns="http://www.w3.org/2000/svg"><g opacity=".9" filter="url(#filter0_d_5262_59137)"><rect x="50" y="30" width="378" height="78" rx="8" fill="#F0FDF2" shape-rendering="crispEdges"/><rect x="50.753" y="30.753" width="376.493" height="76.493" rx="7.247" stroke="#36C95B" stroke-width="1.507" shape-rendering="crispEdges"/><path d="M84.205 75.866c6.44 0 11.66-5.22 11.66-11.66s-5.22-11.66-11.66-11.66-11.66 5.22-11.66 11.66 5.22 11.66 11.66 11.66z" stroke="#078A2E" stroke-width="2.012" stroke-linecap="round" stroke-linejoin="round"/><path d="M78.879 65.094l3.551 4.439 7.103-8.879" stroke="#078A2E" stroke-width="1.776" stroke-linecap="round" stroke-linejoin="round"/><path d="M108.902 53.727h1.563l3.127 5.262h.132l3.126-5.262h1.564l-4.074 6.627V65h-1.365v-4.646l-4.073-6.627zm13.34 11.45c-.764 0-1.433-.183-2.009-.546-.573-.363-1.02-.871-1.343-1.525-.32-.653-.479-1.416-.479-2.29 0-.88.159-1.649.479-2.306.323-.656.77-1.166 1.343-1.53.576-.363 1.245-.545 2.009-.545.763 0 1.431.182 2.003.545.576.364 1.024.874 1.343 1.53.323.657.485 1.426.485 2.307 0 .873-.162 1.636-.485 2.29a3.65 3.65 0 01-1.343 1.524c-.572.364-1.24.545-2.003.545zm0-1.168c.58 0 1.057-.148 1.431-.446.374-.297.651-.688.831-1.172.18-.484.27-1.01.27-1.574a4.53 4.53 0 00-.27-1.58 2.666 2.666 0 00-.831-1.183c-.374-.301-.851-.452-1.431-.452-.58 0-1.057.15-1.431.452a2.66 2.66 0 00-.832 1.183 4.554 4.554 0 00-.269 1.58c0 .565.09 1.09.269 1.574.18.484.457.875.832 1.172.374.298.851.446 1.431.446zm11.142-2.466v-4.998h1.299V65h-1.299v-1.431h-.088c-.198.43-.507.794-.925 1.095-.418.297-.947.446-1.585.446-.529 0-.998-.115-1.409-.347-.411-.235-.734-.587-.969-1.057-.235-.473-.352-1.07-.352-1.788v-5.373h1.299v5.285c0 .616.172 1.108.517 1.475.349.367.793.55 1.332.55.323 0 .651-.082.985-.248.338-.165.62-.418.848-.76.231-.34.347-.775.347-1.304zM137.062 65v-8.455h1.255v1.277h.088c.154-.418.433-.757.837-1.018.403-.26.858-.39 1.365-.39.095 0 .214.001.357.005.144.004.252.009.325.016v1.321a3.883 3.883 0 00-.302-.05 2.991 2.991 0 00-.49-.038c-.411 0-.778.087-1.101.259a1.953 1.953 0 00-.76.705 1.903 1.903 0 00-.275 1.018V65h-1.299zm13.891-8.455v1.101h-4.557v-1.1h4.557zM147.761 65v-9.621c0-.485.114-.889.341-1.211.228-.323.523-.566.886-.727a2.805 2.805 0 011.151-.242c.319 0 .579.026.781.077.202.051.353.099.452.143l-.375 1.123a6.23 6.23 0 00-.275-.083 1.67 1.67 0 00-.451-.05c-.43 0-.74.11-.93.326-.188.216-.281.534-.281.952V65h-1.299zm5.013 0v-8.455h1.299V65h-1.299zm.66-9.864a.925.925 0 01-.655-.258.833.833 0 01-.269-.622c0-.242.09-.45.269-.622a.925.925 0 01.655-.259c.254 0 .47.086.65.259.183.172.275.38.275.622s-.092.45-.275.622a.905.905 0 01-.65.258zm4.317-1.409V65h-1.299V53.727h1.299zm5.924 11.45c-.815 0-1.517-.18-2.108-.54a3.628 3.628 0 01-1.36-1.52c-.315-.653-.473-1.412-.473-2.278 0-.866.158-1.63.473-2.29.32-.664.764-1.182 1.332-1.552.573-.374 1.241-.562 2.004-.562.44 0 .875.074 1.304.22.43.147.821.386 1.173.716.352.327.633.76.842 1.3.209.538.314 1.203.314 1.992v.55h-6.517V60.09h5.196c0-.477-.096-.903-.286-1.277a2.16 2.16 0 00-.804-.886c-.345-.216-.752-.325-1.222-.325-.517 0-.965.129-1.343.386a2.538 2.538 0 00-.864.99 2.909 2.909 0 00-.303 1.31v.749c0 .638.11 1.18.33 1.624.224.44.534.776.931 1.007.396.227.856.341 1.381.341.341 0 .65-.047.925-.143.279-.099.519-.246.721-.44.202-.198.358-.444.468-.738l1.255.352c-.132.426-.354.8-.666 1.123-.312.32-.698.57-1.156.749a4.286 4.286 0 01-1.547.264zm11.465-6.738l-1.166.33a2.19 2.19 0 00-.325-.567 1.576 1.576 0 00-.573-.462c-.242-.121-.552-.182-.93-.182-.517 0-.948.12-1.293.358-.342.235-.512.534-.512.897 0 .323.117.578.352.765.235.187.602.343 1.101.468l1.255.308c.756.184 1.319.465 1.69.843.37.374.556.856.556 1.447 0 .485-.14.918-.419 1.3-.275.38-.66.682-1.156.902-.495.22-1.071.33-1.728.33-.862 0-1.576-.187-2.141-.561-.565-.375-.923-.921-1.073-1.64l1.232-.309c.118.455.34.797.666 1.024.331.227.762.341 1.294.341.605 0 1.086-.128 1.442-.385.36-.26.54-.572.54-.936a.982.982 0 00-.309-.737c-.205-.202-.521-.353-.946-.452l-1.41-.33c-.774-.183-1.343-.468-1.706-.853-.359-.39-.539-.875-.539-1.459 0-.477.134-.899.402-1.266a2.73 2.73 0 011.106-.864c.47-.209 1.002-.314 1.596-.314.837 0 1.494.184 1.971.55.48.368.822.852 1.023 1.454zm8.957 6.76a3.433 3.433 0 01-1.458-.304 2.504 2.504 0 01-1.041-.886c-.257-.389-.385-.858-.385-1.409 0-.484.095-.877.286-1.178.191-.304.446-.543.765-.715.32-.173.672-.301 1.057-.386.389-.088.78-.157 1.173-.209.513-.066.93-.115 1.249-.148.323-.037.558-.098.705-.182.15-.084.225-.231.225-.44v-.044c0-.544-.148-.965-.446-1.266-.293-.301-.739-.452-1.337-.452-.62 0-1.106.136-1.459.408-.352.271-.6.561-.743.87l-1.233-.441c.22-.514.514-.914.881-1.2.371-.29.774-.492 1.211-.605.44-.118.873-.177 1.299-.177.271 0 .583.033.936.1.356.062.699.192 1.029.39.334.198.611.498.831.897.22.4.33.936.33 1.608V65h-1.299v-1.145h-.066c-.088.184-.235.38-.44.59a2.55 2.55 0 01-.82.533c-.342.147-.758.22-1.25.22zm.198-1.168c.514 0 .947-.1 1.299-.303a2.062 2.062 0 001.079-1.788v-1.19c-.055.067-.176.127-.363.182a6.151 6.151 0 01-.639.138 28.039 28.039 0 01-1.243.165 4.944 4.944 0 00-.947.215c-.29.095-.525.24-.705.435-.176.19-.264.45-.264.781 0 .452.167.793.501 1.024.338.227.765.341 1.282.341zm6.048.969v-8.455h1.255v1.277h.088c.154-.418.433-.757.837-1.018.404-.26.859-.39 1.365-.39.095 0 .215.001.358.005s.251.009.324.016v1.321a3.795 3.795 0 00-.302-.05 2.982 2.982 0 00-.49-.038c-.411 0-.778.087-1.101.259a1.96 1.96 0 00-.76.705 1.903 1.903 0 00-.275 1.018V65h-1.299zm9.055.176c-.815 0-1.518-.18-2.108-.54a3.614 3.614 0 01-1.36-1.518c-.316-.654-.473-1.413-.473-2.28 0-.865.157-1.629.473-2.289.319-.664.763-1.182 1.332-1.552.573-.374 1.24-.562 2.004-.562.44 0 .875.074 1.304.22.429.147.82.386 1.173.716.352.327.633.76.842 1.3.209.538.313 1.203.313 1.992v.55h-6.517V60.09h5.196a2.77 2.77 0 00-.286-1.277 2.158 2.158 0 00-.803-.886c-.345-.216-.753-.325-1.222-.325-.518 0-.965.129-1.343.386a2.532 2.532 0 00-.865.99 2.921 2.921 0 00-.302 1.31v.749c0 .638.11 1.18.33 1.624.224.44.534.776.93 1.007.396.227.857.341 1.382.341.341 0 .649-.047.924-.143.279-.099.52-.246.722-.44.201-.198.357-.444.467-.738l1.255.352c-.132.426-.354.8-.666 1.123-.312.32-.697.57-1.156.749a4.28 4.28 0 01-1.546.264zM209.41 65V53.727h1.299v4.162h.11c.095-.147.228-.334.396-.562.173-.231.419-.437.738-.616.323-.184.76-.276 1.31-.276.712 0 1.339.178 1.882.534.544.356.967.86 1.272 1.514.304.653.457 1.424.457 2.312 0 .895-.153 1.671-.457 2.328-.305.653-.727 1.16-1.266 1.52-.539.355-1.161.533-1.866.533-.543 0-.978-.09-1.305-.27a2.433 2.433 0 01-.754-.622 8.213 8.213 0 01-.407-.583h-.154V65h-1.255zm1.277-4.227c0 .638.094 1.201.281 1.69.187.484.46.864.82 1.139.359.272.8.407 1.321.407.543 0 .996-.143 1.359-.43.367-.289.643-.678.826-1.166a4.582 4.582 0 00.281-1.64c0-.595-.092-1.13-.275-1.608-.18-.48-.454-.86-.821-1.139-.363-.283-.82-.424-1.37-.424-.529 0-.973.134-1.332.402-.36.264-.631.635-.815 1.112-.183.473-.275 1.026-.275 1.657zm11.719 4.403c-.815 0-1.518-.18-2.109-.54a3.619 3.619 0 01-1.359-1.518c-.316-.654-.474-1.413-.474-2.28 0-.865.158-1.629.474-2.289.319-.664.763-1.182 1.332-1.552.572-.374 1.24-.562 2.003-.562.441 0 .876.074 1.305.22.429.147.82.386 1.172.716.353.327.633.76.843 1.3.209.538.313 1.203.313 1.992v.55h-6.517V60.09h5.196a2.77 2.77 0 00-.286-1.277 2.154 2.154 0 00-.804-.886c-.345-.216-.752-.325-1.222-.325-.517 0-.965.129-1.343.386a2.538 2.538 0 00-.864.99 2.909 2.909 0 00-.303 1.31v.749c0 .638.111 1.18.331 1.624.224.44.534.776.93 1.007.396.227.857.341 1.382.341.341 0 .649-.047.924-.143.279-.099.519-.246.721-.44.202-.198.358-.444.468-.738l1.255.352c-.132.426-.354.8-.666 1.123-.312.32-.697.57-1.156.749a4.28 4.28 0 01-1.546.264zm5.476-.176v-8.455h1.299V65h-1.299zm.661-9.864a.923.923 0 01-.655-.258.83.83 0 01-.27-.622c0-.242.09-.45.27-.622a.923.923 0 01.655-.259c.253 0 .469.086.649.259.184.172.276.38.276.622s-.092.45-.276.622a.904.904 0 01-.649.258zm4.317 4.778V65h-1.299v-8.455h1.254v1.322h.111c.198-.43.499-.775.902-1.035.404-.264.925-.397 1.563-.397.573 0 1.074.118 1.503.353.429.23.763.583 1.002 1.056.238.47.358 1.065.358 1.784V65h-1.299v-5.284c0-.664-.173-1.182-.518-1.552-.345-.375-.818-.562-1.42-.562-.414 0-.785.09-1.112.27-.323.18-.578.442-.765.787-.187.345-.28.763-.28 1.255zm11.18 8.433c-.627 0-1.167-.081-1.618-.243a3.43 3.43 0 01-1.129-.627 3.434 3.434 0 01-.71-.826l1.035-.726c.118.154.266.33.446.528.18.202.426.376.738.523.315.15.728.226 1.238.226.683 0 1.246-.165 1.69-.496.444-.33.666-.847.666-1.552v-1.717h-.11a6.965 6.965 0 01-.408.572c-.172.224-.422.424-.748.6-.323.173-.76.259-1.31.259a3.531 3.531 0 01-1.839-.484c-.539-.323-.966-.793-1.282-1.41-.312-.616-.468-1.365-.468-2.245 0-.866.152-1.62.457-2.263.305-.645.728-1.144 1.271-1.497.544-.356 1.171-.534 1.883-.534.55 0 .987.092 1.31.276.326.18.576.385.748.616.177.228.312.415.408.562h.132v-1.344h1.255v8.697c0 .727-.165 1.317-.496 1.773a2.814 2.814 0 01-1.321 1.007 4.98 4.98 0 01-1.838.325zm-.044-4.646c.521 0 .961-.12 1.321-.358s.633-.581.82-1.03c.187-.447.281-.983.281-1.606 0-.61-.092-1.147-.275-1.613-.184-.466-.455-.831-.815-1.095-.36-.265-.804-.397-1.332-.397-.55 0-1.009.14-1.376.419a2.546 2.546 0 00-.82 1.123c-.18.47-.27.99-.27 1.563 0 .587.092 1.106.275 1.557.187.448.463.8.826 1.057.367.253.822.38 1.365.38zm10.436 4.47V56.545h1.255v1.343h.154c.096-.146.228-.333.396-.56.173-.232.419-.438.738-.617.323-.184.76-.276 1.31-.276.712 0 1.339.178 1.883.534.543.356.966.86 1.271 1.514.305.653.457 1.424.457 2.312 0 .895-.152 1.671-.457 2.328-.305.653-.727 1.16-1.266 1.52-.539.355-1.161.533-1.866.533-.543 0-.978-.09-1.304-.27a2.426 2.426 0 01-.755-.622 8.56 8.56 0 01-.407-.583h-.11v4.47h-1.299zm1.277-7.398c0 .638.094 1.201.281 1.69.187.484.46.864.82 1.139.36.272.8.407 1.321.407.543 0 .996-.143 1.36-.43.366-.289.642-.678.825-1.166a4.582 4.582 0 00.281-1.64c0-.595-.092-1.13-.275-1.608-.18-.48-.454-.86-.82-1.139-.364-.283-.821-.424-1.371-.424-.528 0-.972.134-1.332.402-.36.264-.631.635-.815 1.112-.183.473-.275 1.026-.275 1.657zM263.877 65v-8.455h1.255v1.277h.088c.155-.418.433-.757.837-1.018.404-.26.859-.39 1.365-.39.096 0 .215.001.358.005s.251.009.325.016v1.321a3.852 3.852 0 00-.303-.05 2.973 2.973 0 00-.49-.038c-.411 0-.778.087-1.101.259a1.894 1.894 0 00-1.035 1.723V65h-1.299zm8.945.176c-.763 0-1.433-.181-2.009-.545-.573-.363-1.02-.871-1.343-1.525-.32-.653-.479-1.416-.479-2.29 0-.88.159-1.649.479-2.306.323-.656.77-1.166 1.343-1.53.576-.363 1.246-.545 2.009-.545.763 0 1.431.182 2.003.545.576.364 1.024.874 1.343 1.53.323.657.485 1.426.485 2.307 0 .873-.162 1.636-.485 2.29a3.65 3.65 0 01-1.343 1.524c-.572.364-1.24.545-2.003.545zm0-1.167c.58 0 1.057-.148 1.431-.446.374-.297.651-.688.831-1.172.18-.484.27-1.01.27-1.574a4.53 4.53 0 00-.27-1.58 2.666 2.666 0 00-.831-1.183c-.374-.301-.851-.452-1.431-.452-.58 0-1.057.15-1.431.452a2.65 2.65 0 00-.831 1.183 4.53 4.53 0 00-.27 1.58c0 .565.09 1.09.27 1.574.179.484.456.875.831 1.172.374.298.851.446 1.431.446zm9.248 1.167c-.792 0-1.475-.187-2.047-.561a3.654 3.654 0 01-1.321-1.547c-.308-.657-.463-1.407-.463-2.251 0-.859.158-1.617.474-2.273.319-.661.763-1.177 1.332-1.547.572-.374 1.24-.562 2.003-.562.595 0 1.131.11 1.608.33.477.22.867.529 1.172.925.305.397.494.859.567 1.387h-1.299c-.099-.385-.319-.726-.661-1.023-.337-.301-.792-.452-1.365-.452-.506 0-.95.132-1.332.397-.378.26-.673.629-.886 1.106-.209.473-.314 1.03-.314 1.668 0 .653.103 1.222.309 1.706.209.484.502.86.88 1.128.382.268.83.402 1.343.402.338 0 .644-.059.92-.176.275-.117.508-.286.699-.506.19-.22.326-.485.407-.793h1.299a3.003 3.003 0 01-1.684 2.295c-.47.232-1.017.347-1.641.347zm8.769 0c-.815 0-1.518-.18-2.108-.54a3.614 3.614 0 01-1.36-1.518c-.316-.654-.473-1.413-.473-2.28 0-.865.157-1.629.473-2.289.319-.664.763-1.182 1.332-1.552.572-.374 1.24-.562 2.004-.562.44 0 .875.074 1.304.22.429.147.82.386 1.172.716.353.327.633.76.843 1.3.209.538.313 1.203.313 1.992v.55h-6.517V60.09h5.196a2.77 2.77 0 00-.286-1.277 2.154 2.154 0 00-.804-.886c-.344-.216-.752-.325-1.221-.325-.518 0-.966.129-1.343.386a2.532 2.532 0 00-.865.99 2.921 2.921 0 00-.302 1.31v.749c0 .638.11 1.18.33 1.624.224.44.534.776.93 1.007.396.227.857.341 1.382.341.341 0 .649-.047.924-.143.279-.099.52-.246.721-.44.202-.198.358-.444.468-.738l1.255.352c-.132.426-.354.8-.666 1.123-.312.32-.697.57-1.156.749a4.28 4.28 0 01-1.546.264zm11.465-6.737l-1.167.33a2.161 2.161 0 00-.325-.567 1.573 1.573 0 00-.572-.462c-.242-.121-.552-.182-.93-.182-.518 0-.949.12-1.294.358-.341.235-.512.534-.512.897 0 .323.118.578.353.765.234.187.601.343 1.1.468l1.255.308c.756.184 1.32.465 1.69.843.371.374.556.856.556 1.447 0 .485-.139.918-.418 1.3-.275.38-.661.682-1.156.902-.495.22-1.072.33-1.728.33-.863 0-1.576-.187-2.142-.561-.565-.375-.922-.921-1.073-1.64l1.233-.309c.117.455.339.797.666 1.024.33.227.761.341 1.294.341.605 0 1.086-.128 1.442-.385.359-.26.539-.572.539-.936a.985.985 0 00-.308-.737c-.206-.202-.521-.353-.947-.452l-1.409-.33c-.774-.183-1.343-.468-1.706-.853-.36-.39-.54-.875-.54-1.459 0-.477.134-.899.402-1.266.272-.367.64-.655 1.106-.864.47-.209 1.002-.314 1.597-.314.836 0 1.493.184 1.97.55.481.368.822.852 1.024 1.454zm8.098 0l-1.167.33a2.157 2.157 0 00-.324-.567 1.585 1.585 0 00-.573-.462c-.242-.121-.552-.182-.93-.182-.518 0-.949.12-1.294.358-.341.235-.512.534-.512.897 0 .323.118.578.353.765.235.187.602.343 1.101.468l1.255.308c.755.184 1.319.465 1.689.843.371.374.556.856.556 1.447 0 .485-.139.918-.418 1.3-.275.38-.661.682-1.156.902-.495.22-1.071.33-1.728.33-.863 0-1.576-.187-2.141-.561-.566-.375-.923-.921-1.074-1.64l1.233-.309c.118.455.34.797.666 1.024.33.227.762.341 1.294.341.605 0 1.086-.128 1.442-.385.359-.26.539-.572.539-.936a.985.985 0 00-.308-.737c-.205-.202-.521-.353-.947-.452l-1.409-.33c-.774-.183-1.343-.468-1.706-.853-.36-.39-.54-.875-.54-1.459 0-.477.134-.899.402-1.266a2.74 2.74 0 011.107-.864c.469-.209 1.001-.314 1.596-.314.836 0 1.493.184 1.97.55.481.368.822.852 1.024 1.454zm5.654 6.737c-.814 0-1.517-.18-2.108-.54a3.619 3.619 0 01-1.359-1.518c-.316-.654-.474-1.413-.474-2.28 0-.865.158-1.629.474-2.289.319-.664.763-1.182 1.332-1.552.572-.374 1.24-.562 2.003-.562.441 0 .875.074 1.305.22.429.147.82.386 1.172.716.353.327.633.76.842 1.3.21.538.314 1.203.314 1.992v.55h-6.517V60.09h5.196a2.77 2.77 0 00-.286-1.277 2.154 2.154 0 00-.804-.886c-.345-.216-.752-.325-1.222-.325-.517 0-.965.129-1.343.386a2.538 2.538 0 00-.864.99 2.909 2.909 0 00-.303 1.31v.749c0 .638.11 1.18.331 1.624.223.44.534.776.93 1.007.396.227.857.341 1.381.341.342 0 .65-.047.925-.143.279-.099.519-.246.721-.44.202-.198.358-.444.468-.738l1.255.352c-.132.426-.354.8-.666 1.123-.312.32-.697.57-1.156.749a4.286 4.286 0 01-1.547.264zm8.67 0c-.705 0-1.327-.178-1.866-.534-.54-.36-.962-.866-1.266-1.519-.305-.657-.457-1.433-.457-2.328 0-.888.152-1.659.457-2.312.304-.653.728-1.158 1.271-1.514.543-.356 1.171-.534 1.883-.534.55 0 .985.092 1.304.276.323.18.569.385.738.616.172.228.306.415.402.562h.11v-4.162h1.299V65h-1.255v-1.299h-.154a8.631 8.631 0 01-.408.583c-.176.232-.427.439-.754.622-.326.18-.761.27-1.304.27zm.176-1.167c.521 0 .961-.136 1.321-.407.359-.275.633-.655.82-1.14.187-.488.281-1.05.281-1.69 0-.63-.092-1.183-.276-1.656-.183-.477-.455-.848-.814-1.112-.36-.268-.804-.402-1.332-.402-.551 0-1.009.142-1.376.424-.364.279-.637.659-.82 1.14a4.525 4.525 0 00-.27 1.607c0 .601.092 1.148.275 1.64.187.488.462.877.826 1.167.367.286.822.43 1.365.43zm8.196-.55l-.088.594c-.063.419-.158.866-.287 1.343-.124.477-.255.927-.39 1.349-.136.422-.248.758-.336 1.007h-.991l.187-.93c.077-.385.154-.817.231-1.294.081-.473.147-.957.198-1.453l.067-.616h1.409zM109.695 84v-8.454h1.255v1.276h.088c.154-.418.433-.757.836-1.018.404-.26.859-.39 1.366-.39.095 0 .214.001.357.005s.252.009.325.016v1.321a3.852 3.852 0 00-.303-.05 2.973 2.973 0 00-.49-.038c-.411 0-.777.087-1.1.259-.32.169-.573.404-.76.705a1.903 1.903 0 00-.275 1.018V84h-1.299zm9.054.176c-.814 0-1.517-.18-2.108-.54a3.619 3.619 0 01-1.359-1.518c-.316-.654-.474-1.413-.474-2.28 0-.865.158-1.628.474-2.289.319-.664.763-1.182 1.332-1.552.572-.374 1.24-.562 2.003-.562.441 0 .875.074 1.305.22.429.147.82.386 1.172.716.352.327.633.76.842 1.3.209.538.314 1.203.314 1.992v.55h-6.517V79.09h5.196a2.77 2.77 0 00-.286-1.277 2.154 2.154 0 00-.804-.886c-.345-.217-.752-.325-1.222-.325-.517 0-.965.129-1.343.386a2.538 2.538 0 00-.864.99 2.909 2.909 0 00-.303 1.31v.749c0 .638.11 1.18.331 1.624.223.44.533.776.93 1.007.396.227.857.341 1.381.341.342 0 .65-.047.925-.143.279-.099.519-.246.721-.44.202-.198.358-.444.468-.738l1.255.352c-.132.426-.354.8-.666 1.123-.312.32-.697.57-1.156.749a4.286 4.286 0 01-1.547.264zm11.466-6.737l-1.167.33a2.19 2.19 0 00-.325-.567 1.573 1.573 0 00-.572-.462c-.243-.121-.553-.182-.931-.182-.517 0-.948.12-1.293.358-.341.235-.512.534-.512.897 0 .323.117.578.352.765.235.187.602.343 1.101.468l1.255.308c.756.184 1.319.465 1.69.843.37.374.556.856.556 1.447 0 .485-.14.918-.419 1.3-.275.38-.66.682-1.155.902-.496.22-1.072.33-1.729.33-.862 0-1.576-.187-2.141-.561-.565-.375-.923-.921-1.073-1.64l1.233-.309c.117.455.339.797.666 1.024.33.228.761.341 1.293.341.606 0 1.086-.128 1.442-.385.36-.26.54-.573.54-.936a.985.985 0 00-.308-.737c-.206-.202-.522-.353-.947-.452l-1.409-.33c-.775-.183-1.343-.468-1.707-.853-.359-.39-.539-.875-.539-1.459 0-.477.134-.899.402-1.266a2.73 2.73 0 011.106-.864c.47-.209 1.002-.314 1.596-.314.837 0 1.494.184 1.971.55.481.368.822.852 1.024 1.454zm7.437 3.104v-4.998h1.299V84h-1.299v-1.431h-.088c-.198.43-.506.794-.924 1.095-.419.297-.947.446-1.586.446-.528 0-.998-.115-1.409-.347-.411-.235-.734-.587-.969-1.056-.234-.474-.352-1.07-.352-1.79v-5.371h1.299v5.283c0 .617.173 1.109.518 1.476.348.367.792.55 1.332.55.323 0 .651-.083.985-.248.337-.165.62-.418.848-.76.231-.34.346-.775.346-1.304zm4.978-7.816V84h-1.299V72.727h1.299zm6.056 2.819v1.1h-4.382v-1.1h4.382zm-3.105-2.026h1.299v8.058c0 .367.053.642.16.826.11.18.249.3.418.363.173.059.354.088.545.088.143 0 .261-.007.352-.022l.221-.044.264 1.167a2.639 2.639 0 01-.369.099 2.717 2.717 0 01-.6.055c-.367 0-.727-.079-1.079-.237a2.153 2.153 0 01-.87-.72c-.227-.324-.341-.73-.341-1.223v-8.41zm10.896 3.919l-1.167.33a2.161 2.161 0 00-.325-.567 1.573 1.573 0 00-.572-.462c-.242-.121-.552-.182-.93-.182-.518 0-.949.12-1.294.358-.341.235-.512.534-.512.897 0 .323.118.578.352.765.235.187.602.343 1.101.468l1.255.308c.756.184 1.319.465 1.69.843.371.374.556.856.556 1.447 0 .485-.139.918-.418 1.3-.276.38-.661.682-1.156.902-.496.22-1.072.33-1.729.33-.862 0-1.576-.187-2.141-.561-.565-.375-.923-.921-1.073-1.64l1.233-.309c.117.455.339.797.666 1.024.33.228.761.341 1.293.341.606 0 1.087-.128 1.443-.385.359-.26.539-.573.539-.936a.985.985 0 00-.308-.737c-.206-.202-.521-.353-.947-.452l-1.409-.33c-.774-.183-1.343-.468-1.706-.853-.36-.39-.54-.875-.54-1.459 0-.477.134-.899.402-1.266.272-.367.64-.655 1.106-.864.47-.209 1.002-.314 1.597-.314.836 0 1.493.184 1.97.55.481.368.822.852 1.024 1.454zM164.861 84l-2.576-8.454h1.365l1.828 6.472h.088l1.805-6.472h1.387l1.784 6.45h.088l1.827-6.45h1.365L171.246 84h-1.277l-1.849-6.495h-.132L166.138 84h-1.277zm10.679 0v-8.454h1.299V84h-1.299zm.66-9.864a.923.923 0 01-.655-.258.83.83 0 01-.27-.622c0-.243.09-.45.27-.622a.923.923 0 01.655-.259c.253 0 .47.086.65.259.183.172.275.38.275.622s-.092.45-.275.622a.907.907 0 01-.65.258zm4.317-1.409V84h-1.299V72.727h1.299zm3.678 0V84h-1.299V72.727h1.299zm9.226 11.471a3.436 3.436 0 01-1.458-.303 2.495 2.495 0 01-1.04-.886c-.257-.389-.386-.858-.386-1.409 0-.484.096-.877.286-1.178.191-.304.446-.543.766-.715.319-.173.671-.301 1.056-.386.389-.088.78-.157 1.173-.209.514-.066.93-.115 1.249-.148.323-.037.558-.098.705-.182.15-.084.225-.231.225-.44v-.044c0-.544-.148-.966-.445-1.266-.294-.301-.74-.452-1.338-.452-.62 0-1.106.136-1.459.408-.352.271-.6.561-.743.87l-1.233-.441c.221-.514.514-.914.881-1.2.371-.29.774-.492 1.211-.605.44-.118.873-.177 1.299-.177.272 0 .584.033.936.1.356.062.699.192 1.029.39.334.198.611.498.831.897.22.4.33.936.33 1.608V84h-1.299v-1.145h-.066c-.088.184-.234.38-.44.59-.205.208-.479.386-.82.533-.341.147-.758.22-1.25.22zm.199-1.167c.513 0 .946-.1 1.299-.303a2.06 2.06 0 001.078-1.788v-1.19c-.055.067-.176.127-.363.182a6.128 6.128 0 01-.638.138 29.43 29.43 0 01-1.244.165 4.961 4.961 0 00-.947.215c-.29.095-.525.24-.705.435-.176.19-.264.45-.264.781 0 .452.167.793.501 1.024.338.228.765.341 1.283.341zm6.047 4.14V75.544h1.255v1.343h.155c.095-.146.227-.333.396-.56.172-.232.418-.438.737-.617.323-.184.76-.276 1.31-.276.712 0 1.34.178 1.883.534.543.356.967.86 1.271 1.514.305.653.457 1.424.457 2.312 0 .895-.152 1.671-.457 2.328-.304.653-.726 1.16-1.266 1.52-.539.355-1.161.533-1.866.533-.543 0-.977-.09-1.304-.27-.327-.183-.578-.39-.754-.622a8.213 8.213 0 01-.407-.583h-.111v4.47h-1.299zm1.277-7.398c0 .638.094 1.202.281 1.69.187.484.461.864.82 1.139.36.272.8.407 1.321.407.543 0 .997-.143 1.36-.43.367-.289.642-.678.825-1.166a4.56 4.56 0 00.281-1.64c0-.595-.092-1.13-.275-1.608-.18-.48-.453-.86-.82-1.139-.363-.282-.82-.424-1.371-.424-.528 0-.972.134-1.332.402-.359.264-.631.635-.814 1.112-.184.473-.276 1.026-.276 1.657zm8.169 7.398V75.544h1.255v1.343h.154c.095-.146.227-.333.396-.56.173-.232.418-.438.738-.617.323-.184.759-.276 1.31-.276.712 0 1.339.178 1.882.534.543.356.967.86 1.272 1.514.304.653.457 1.424.457 2.312 0 .895-.153 1.671-.457 2.328-.305.653-.727 1.16-1.266 1.52-.54.355-1.162.533-1.866.533-.543 0-.978-.09-1.305-.27-.326-.183-.578-.39-.754-.622a8.213 8.213 0 01-.407-.583h-.11v4.47h-1.299zm1.277-7.398c0 .638.093 1.202.28 1.69.188.484.461.864.821 1.139.359.272.8.407 1.321.407.543 0 .996-.143 1.359-.43.367-.289.642-.678.826-1.166a4.582 4.582 0 00.281-1.64c0-.595-.092-1.13-.276-1.608a2.477 2.477 0 00-.82-1.139c-.363-.282-.82-.424-1.37-.424-.529 0-.973.134-1.332.402-.36.264-.632.635-.815 1.112-.184.473-.275 1.026-.275 1.657zm11.713 4.403c-.815 0-1.518-.18-2.108-.54a3.621 3.621 0 01-1.36-1.518c-.315-.654-.473-1.413-.473-2.28 0-.865.158-1.628.473-2.289.319-.664.763-1.182 1.332-1.552.573-.374 1.24-.562 2.004-.562.44 0 .875.074 1.304.22.43.147.82.386 1.173.716.352.327.633.76.842 1.3.209.538.314 1.203.314 1.992v.55h-6.518V79.09h5.196a2.77 2.77 0 00-.286-1.277 2.158 2.158 0 00-.803-.886c-.345-.217-.753-.325-1.222-.325-.518 0-.965.129-1.343.386a2.532 2.532 0 00-.865.99 2.921 2.921 0 00-.302 1.31v.749c0 .638.11 1.18.33 1.624.224.44.534.776.93 1.007.397.227.857.341 1.382.341.341 0 .649-.047.925-.143.278-.099.519-.246.721-.44.201-.198.357-.444.467-.738l1.255.352c-.132.426-.354.8-.666 1.123a3.25 3.25 0 01-1.155.749 4.29 4.29 0 01-1.547.264zm7.964.022a3.436 3.436 0 01-1.458-.303 2.495 2.495 0 01-1.04-.886c-.257-.389-.386-.858-.386-1.409 0-.484.096-.877.286-1.178.191-.304.446-.543.766-.715.319-.173.671-.301 1.056-.386.389-.088.78-.157 1.173-.209.514-.066.93-.115 1.249-.148.323-.037.558-.098.705-.182.15-.084.225-.231.225-.44v-.044c0-.544-.148-.966-.445-1.266-.294-.301-.74-.452-1.338-.452-.62 0-1.106.136-1.459.408-.352.271-.6.561-.743.87l-1.233-.441c.221-.514.514-.914.881-1.2.371-.29.774-.492 1.211-.605.44-.118.873-.177 1.299-.177.272 0 .584.033.936.1.356.062.699.192 1.029.39.334.198.611.498.831.897.22.4.33.936.33 1.608V84h-1.299v-1.145h-.066c-.088.184-.234.38-.44.59-.205.208-.479.386-.82.533-.341.147-.758.22-1.25.22zm.199-1.167c.513 0 .946-.1 1.299-.303a2.06 2.06 0 001.078-1.788v-1.19c-.055.067-.176.127-.363.182a6.128 6.128 0 01-.638.138 29.43 29.43 0 01-1.244.165 4.961 4.961 0 00-.947.215c-.29.095-.525.24-.705.435-.176.19-.264.45-.264.781 0 .452.167.793.501 1.024.338.228.765.341 1.283.341zm6.047.969v-8.454h1.255v1.276h.088c.155-.418.433-.757.837-1.018.404-.26.859-.39 1.365-.39.096 0 .215.001.358.005s.251.009.325.016v1.321a3.852 3.852 0 00-.303-.05 2.973 2.973 0 00-.49-.038c-.411 0-.778.087-1.101.259a1.894 1.894 0 00-1.035 1.723V84h-1.299zm13.562.176c-.764 0-1.433-.181-2.009-.545-.573-.363-1.021-.871-1.344-1.525-.319-.653-.478-1.416-.478-2.29 0-.88.159-1.649.478-2.306.323-.656.771-1.166 1.344-1.53.576-.363 1.245-.545 2.009-.545.763 0 1.431.182 2.003.545.576.364 1.024.874 1.343 1.53.323.657.485 1.426.485 2.307 0 .873-.162 1.636-.485 2.29a3.65 3.65 0 01-1.343 1.524c-.572.364-1.24.545-2.003.545zm0-1.167c.579 0 1.056-.148 1.431-.446.374-.297.651-.688.831-1.172.18-.484.27-1.01.27-1.574a4.53 4.53 0 00-.27-1.58 2.666 2.666 0 00-.831-1.183c-.375-.301-.852-.452-1.431-.452-.58 0-1.057.15-1.432.452-.374.3-.651.695-.831 1.183a4.53 4.53 0 00-.269 1.58c0 .565.089 1.09.269 1.574.18.484.457.875.831 1.172.375.298.852.446 1.432.446zm7.112-4.095V84h-1.299v-8.454h1.255v1.32h.11c.199-.429.5-.774.903-1.034.404-.264.925-.397 1.563-.397.573 0 1.074.118 1.503.353.429.23.763.583 1.002 1.056.238.47.358 1.065.358 1.784V84h-1.299v-5.284c0-.664-.173-1.182-.518-1.552-.345-.375-.818-.562-1.42-.562-.415 0-.785.09-1.112.27-.323.18-.578.442-.765.787-.187.345-.281.763-.281 1.255zm15.805-3.368v1.1h-4.382v-1.1h4.382zm-3.105-2.026h1.299v8.058c0 .367.053.642.16.826.11.18.249.3.418.363.173.059.354.088.545.088.143 0 .261-.007.352-.022l.22-.044.265 1.167a2.639 2.639 0 01-.369.099 2.717 2.717 0 01-.6.055c-.367 0-.727-.079-1.079-.237a2.146 2.146 0 01-.87-.72c-.227-.324-.341-.73-.341-1.223v-8.41zm6.539 5.394V84h-1.299V72.727h1.299v4.14h.11a2.39 2.39 0 01.892-1.04c.4-.261.932-.392 1.596-.392.576 0 1.081.116 1.514.347a2.33 2.33 0 011.007 1.052c.242.47.363 1.067.363 1.794V84h-1.299v-5.284c0-.672-.174-1.19-.522-1.558-.345-.37-.824-.556-1.437-.556-.426 0-.807.09-1.145.27-.334.18-.598.442-.793.787-.19.345-.286.763-.286 1.255zM284.085 84v-8.454h1.299V84h-1.299zm.66-9.864a.925.925 0 01-.655-.258.833.833 0 01-.269-.622c0-.243.09-.45.269-.622a.925.925 0 01.655-.259c.254 0 .47.086.65.259.183.172.275.38.275.622s-.092.45-.275.622a.905.905 0 01-.65.258zm9.007 3.303l-1.167.33a2.19 2.19 0 00-.325-.567 1.573 1.573 0 00-.572-.462c-.243-.121-.553-.182-.931-.182-.517 0-.948.12-1.293.358-.341.235-.512.534-.512.897 0 .323.117.578.352.765.235.187.602.343 1.101.468l1.255.308c.756.184 1.319.465 1.69.843.371.374.556.856.556 1.447 0 .485-.14.918-.418 1.3-.276.38-.661.682-1.156.902-.496.22-1.072.33-1.729.33-.862 0-1.576-.187-2.141-.561-.565-.375-.923-.921-1.073-1.64l1.233-.309c.117.455.339.797.666 1.024.33.228.761.341 1.293.341.606 0 1.086-.128 1.442-.385.36-.26.54-.573.54-.936a.985.985 0 00-.308-.737c-.206-.202-.521-.353-.947-.452l-1.409-.33c-.774-.183-1.343-.468-1.707-.853-.359-.39-.539-.875-.539-1.459 0-.477.134-.899.402-1.266a2.73 2.73 0 011.106-.864c.47-.209 1.002-.314 1.596-.314.837 0 1.494.184 1.971.55.481.368.822.852 1.024 1.454zm6.469 9.732V75.544h1.255v1.343h.154c.095-.146.227-.333.396-.56.173-.232.418-.438.738-.617.323-.184.759-.276 1.31-.276.712 0 1.339.178 1.882.534.543.356.967.86 1.272 1.514.304.653.456 1.424.456 2.312 0 .895-.152 1.671-.456 2.328-.305.653-.727 1.16-1.266 1.52-.54.355-1.162.533-1.866.533-.543 0-.978-.09-1.305-.27-.326-.183-.578-.39-.754-.622a8.213 8.213 0 01-.407-.583h-.11v4.47h-1.299zm1.277-7.398c0 .638.093 1.202.28 1.69.188.484.461.864.82 1.139.36.272.8.407 1.322.407.543 0 .996-.143 1.359-.43.367-.289.642-.678.826-1.166.187-.492.28-1.038.28-1.64 0-.595-.091-1.13-.275-1.608-.18-.48-.453-.86-.82-1.139-.363-.282-.82-.424-1.37-.424-.529 0-.973.134-1.333.402-.359.264-.631.635-.814 1.112-.184.473-.275 1.026-.275 1.657zm10.656 4.425a3.438 3.438 0 01-1.459-.303 2.507 2.507 0 01-1.04-.886c-.257-.389-.385-.858-.385-1.409 0-.484.095-.877.286-1.178.191-.304.446-.543.765-.715.319-.173.671-.301 1.057-.386.389-.088.78-.157 1.172-.209.514-.066.93-.115 1.25-.148.323-.037.557-.098.704-.182.151-.084.226-.231.226-.44v-.044c0-.544-.149-.966-.446-1.266-.294-.301-.739-.452-1.337-.452-.621 0-1.107.136-1.459.408-.352.271-.6.561-.743.87l-1.233-.441c.22-.514.514-.914.881-1.2.37-.29.774-.492 1.21-.605a5.036 5.036 0 011.299-.177c.272 0 .584.033.936.1.356.062.699.192 1.029.39.334.198.611.498.832.897.22.4.33.936.33 1.608V84h-1.299v-1.145h-.066c-.088.184-.235.38-.441.59-.205.208-.478.386-.82.533-.341.147-.757.22-1.249.22zm.198-1.167c.514 0 .947-.1 1.299-.303a2.062 2.062 0 001.079-1.788v-1.19c-.055.067-.176.127-.363.182a6.209 6.209 0 01-.639.138 28.039 28.039 0 01-1.244.165 4.979 4.979 0 00-.947.215c-.289.095-.524.24-.704.435-.176.19-.264.45-.264.781 0 .452.167.793.501 1.024.337.228.765.341 1.282.341zm9.46 4.316c-.627 0-1.166-.081-1.618-.243a3.435 3.435 0 01-1.128-.627 3.434 3.434 0 01-.71-.826l1.035-.726c.117.154.266.33.445.528.18.202.426.376.738.523.316.15.728.226 1.238.226.683 0 1.246-.165 1.69-.496.444-.33.666-.847.666-1.552v-1.717h-.11a6.917 6.917 0 01-.407.572c-.173.224-.422.424-.749.6-.323.173-.759.259-1.31.259a3.528 3.528 0 01-1.838-.484c-.54-.323-.967-.793-1.283-1.41-.311-.616-.467-1.365-.467-2.245 0-.866.152-1.62.456-2.263.305-.645.729-1.144 1.272-1.497.543-.356 1.17-.534 1.882-.534.551 0 .987.092 1.31.276.327.18.576.385.749.616.176.228.312.415.407.561h.132v-1.343h1.255v8.697c0 .727-.165 1.317-.495 1.773a2.823 2.823 0 01-1.321 1.007 4.986 4.986 0 01-1.839.325zm-.044-4.646c.522 0 .962-.12 1.321-.358.36-.238.633-.581.821-1.03.187-.447.28-.983.28-1.606 0-.61-.091-1.147-.275-1.613-.183-.466-.455-.831-.815-1.095-.359-.265-.803-.397-1.332-.397-.55 0-1.009.14-1.376.419a2.553 2.553 0 00-.82 1.123c-.18.47-.269.99-.269 1.563 0 .587.091 1.106.275 1.557.187.448.462.8.825 1.057.367.253.822.38 1.365.38zm9.622 1.475c-.815 0-1.517-.18-2.108-.54a3.621 3.621 0 01-1.36-1.518c-.315-.654-.473-1.413-.473-2.28 0-.865.158-1.628.473-2.289.319-.664.763-1.182 1.332-1.552.573-.374 1.241-.562 2.004-.562.44 0 .875.074 1.304.22.43.147.82.386 1.173.716.352.327.633.76.842 1.3.209.538.314 1.203.314 1.992v.55h-6.517V79.09h5.196a2.77 2.77 0 00-.287-1.277 2.158 2.158 0 00-.803-.886c-.345-.217-.752-.325-1.222-.325-.518 0-.965.129-1.343.386a2.522 2.522 0 00-.864.99 2.909 2.909 0 00-.303 1.31v.749c0 .638.11 1.18.33 1.624.224.44.534.776.93 1.007.397.227.857.341 1.382.341.341 0 .649-.047.925-.143.279-.099.519-.246.721-.44a2.01 2.01 0 00.468-.738l1.255.352c-.133.426-.355.8-.666 1.123-.312.32-.698.57-1.156.749a4.29 4.29 0 01-1.547.264z" fill="#3F4245"/></g><defs><filter id="filter0_d_5262_59137" x="0" y="-12" width="478" height="178" filterUnits="userSpaceOnUse" color-interpolation-filters="sRGB"><feFlood flood-opacity="0" result="BackgroundImageFix"/><feColorMatrix in="SourceAlpha" values="0 0 0 0 0 0 0 0 0 0 0 0 0 0 0 0 0 0 127 0" result="hardAlpha"/><feOffset dy="8"/><feGaussianBlur stdDeviation="25"/><feComposite in2="hardAlpha" operator="out"/><feColorMatrix values="0 0 0 0 0.405825 0 0 0 0 0.2 0 0 0 0 1 0 0 0 0.15 0"/><feBlend in2="BackgroundImageFix" result="effect1_dropShadow_5262_59137"/><feBlend in="SourceGraphic" in2="effect1_dropShadow_5262_59137" result="shape"/></filter></defs></svg>