<svg width="629" height="187" viewBox="0 0 629 187" fill="none" xmlns="http://www.w3.org/2000/svg"><g filter="url(#filter0_d_5262_59164)"><rect x="24" y="20.89" width="875" height="138" rx="6.336" fill="#fff"/><path d="M50.744 48.593l2.565 7.273h.102l2.565-7.273h1.097l-3.173 8.64h-1.08l-3.172-8.64h1.096zm9.653 8.775c-.624 0-1.163-.137-1.616-.413a2.776 2.776 0 01-1.042-1.164c-.242-.501-.363-1.083-.363-1.747 0-.664.121-1.249.363-1.755.245-.51.585-.906 1.021-1.19.439-.287.95-.43 1.536-.43.337 0 .67.056 1 .169.329.112.628.295.898.548.27.25.485.582.646.996.16.413.24.922.24 1.527v.422h-4.995v-.86h3.983c0-.366-.073-.693-.22-.98a1.652 1.652 0 00-.616-.679 1.725 1.725 0 00-.936-.249c-.397 0-.74.099-1.03.296a1.943 1.943 0 00-.662.759 2.23 2.23 0 00-.232 1.004v.574c0 .49.084.904.253 1.244.172.338.41.595.713.773a2.09 2.09 0 001.059.261c.261 0 .498-.036.709-.11.213-.076.398-.188.552-.337.155-.152.275-.34.359-.566l.962.27a2.133 2.133 0 01-.51.861c-.24.245-.535.436-.886.574a3.286 3.286 0 01-1.186.202zm5.193-4.033v3.898h-.995v-6.48h.962v1.013h.084c.152-.33.382-.594.692-.793.31-.203.709-.304 1.198-.304.439 0 .823.09 1.152.27.329.177.585.447.767.81.183.36.275.816.275 1.367v4.117h-.996v-4.05c0-.509-.132-.905-.397-1.19-.264-.286-.627-.43-1.088-.43-.318 0-.602.07-.852.207a1.479 1.479 0 00-.587.603c-.143.265-.215.585-.215.962zm8.401 4.033c-.54 0-1.017-.136-1.43-.409-.414-.276-.737-.664-.97-1.164-.234-.504-.35-1.099-.35-1.785 0-.68.116-1.271.35-1.772.233-.5.558-.887.974-1.16.416-.273.897-.409 1.443-.409.422 0 .755.07 1 .21.247.139.436.296.565.473.132.175.235.318.308.43h.084v-3.189h.996v8.64h-.962v-.995h-.118a6.383 6.383 0 01-.312.447 1.854 1.854 0 01-.578.477c-.25.138-.584.206-1 .206zm.135-.894c.4 0 .737-.104 1.012-.312.276-.211.486-.502.63-.873.142-.375.214-.806.214-1.296 0-.483-.07-.907-.21-1.27a1.848 1.848 0 00-.625-.852c-.276-.205-.616-.308-1.021-.308-.422 0-.773.109-1.055.325a1.943 1.943 0 00-.628.873 3.472 3.472 0 00-.207 1.232c0 .462.07.88.21 1.258.144.374.355.672.634.894.281.22.63.329 1.046.329zm7.43.894c-.586 0-1.099-.139-1.54-.417a2.836 2.836 0 01-1.03-1.169c-.245-.5-.367-1.085-.367-1.755 0-.675.122-1.264.367-1.768.248-.503.59-.894 1.03-1.172.441-.279.954-.418 1.54-.418.584 0 1.096.14 1.535.418.442.278.785.669 1.03 1.172.247.504.37 1.093.37 1.768 0 .67-.123 1.255-.37 1.755-.245.5-.588.89-1.03 1.169-.439.278-.95.417-1.536.417zm0-.894c.444 0 .81-.114 1.096-.342.287-.227.5-.527.637-.898.138-.372.207-.774.207-1.207 0-.433-.069-.837-.207-1.21a2.04 2.04 0 00-.637-.908c-.287-.23-.652-.346-1.097-.346-.444 0-.81.116-1.097.346-.287.23-.499.533-.637.907a3.476 3.476 0 00-.206 1.211c0 .433.069.835.206 1.207.138.37.35.67.637.898.287.228.653.342 1.097.342zm4.455.76v-6.48h.962v.978h.068c.118-.32.332-.58.641-.78.31-.2.658-.3 1.046-.3.073 0 .165.002.275.004.11.003.192.007.248.013v1.013a2.937 2.937 0 00-.232-.038 2.283 2.283 0 00-.375-.03c-.315 0-.596.066-.844.198a1.455 1.455 0 00-.793 1.32v4.101h-.996z" fill="#73777A"/><path d="M50.196 68.93h1.915l2.565 6.26h.102l2.565-6.26h1.915v8.64h-1.502v-5.936h-.08l-2.388 5.91h-1.122l-2.388-5.923h-.08v5.948h-1.502v-8.64zm14.71 5.914v-3.755h1.527v6.48h-1.48v-1.151h-.068a1.95 1.95 0 01-.721.89c-.332.23-.741.346-1.228.346-.425 0-.8-.094-1.126-.283a1.965 1.965 0 01-.76-.831c-.183-.366-.274-.807-.274-1.325V71.09h1.527v3.89c0 .41.113.737.338.979.225.242.52.363.886.363.225 0 .443-.055.654-.165.21-.11.383-.273.519-.49.137-.219.206-.493.206-.822zm4.506-1.072v3.797h-1.527v-8.64h1.493v3.261h.076c.152-.365.387-.653.705-.864.32-.214.728-.321 1.223-.321.45 0 .843.094 1.177.283.335.188.594.464.777.826.185.363.278.806.278 1.33v4.125h-1.527v-3.89c0-.435-.113-.774-.338-1.016-.222-.245-.534-.367-.936-.367-.27 0-.512.059-.726.177-.21.115-.377.283-.498.502-.118.22-.177.485-.177.797zm7.505 3.928c-.41 0-.78-.073-1.11-.22a1.81 1.81 0 01-.776-.657c-.189-.29-.283-.647-.283-1.072 0-.366.068-.668.203-.907.135-.24.32-.43.553-.574.233-.143.496-.251.788-.325.296-.075.6-.13.916-.164.38-.04.688-.075.924-.106.236-.033.408-.084.514-.151.11-.07.165-.18.165-.325v-.026c0-.317-.094-.564-.283-.738-.188-.174-.46-.261-.814-.261-.374 0-.67.081-.89.244a1.214 1.214 0 00-.439.578l-1.426-.202c.113-.394.298-.723.557-.987.259-.268.575-.467.95-.6a3.63 3.63 0 011.24-.202c.312 0 .623.037.932.11.31.073.592.194.848.362.256.166.461.393.616.68.157.287.236.645.236 1.075v4.337H78.87v-.89h-.05c-.093.18-.224.349-.393.506-.166.155-.375.28-.629.376-.25.093-.544.14-.881.14zm.396-1.122c.307 0 .573-.06.798-.181a1.34 1.34 0 00.519-.49c.123-.202.185-.423.185-.662v-.764a.718.718 0 01-.244.11c-.113.034-.24.063-.38.089-.14.025-.28.047-.418.067-.138.02-.257.037-.358.05-.228.032-.432.082-.612.153-.18.07-.322.168-.426.295a.721.721 0 00-.156.48c0 .282.102.494.308.638.205.143.467.215.784.215zm4.442.991v-6.48h1.46v1.101h.076c.135-.37.358-.66.67-.869.313-.21.685-.316 1.118-.316.44 0 .81.107 1.11.32.304.212.518.5.641.865h.068c.143-.36.385-.647.725-.86.343-.217.75-.325 1.22-.325.596 0 1.082.188 1.46.565.376.377.565.927.565 1.65v4.35h-1.532v-4.114c0-.402-.107-.696-.32-.882a1.145 1.145 0 00-.785-.282c-.368 0-.657.115-.865.346-.205.227-.308.524-.308.89v4.041H85.56v-4.176c0-.335-.1-.602-.303-.802-.2-.2-.462-.3-.785-.3-.22 0-.42.057-.6.17-.18.11-.323.265-.43.468-.106.2-.16.433-.16.7v3.94h-1.527zm10.543 0v-6.48h1.46v1.101h.076c.135-.37.358-.66.67-.869.313-.21.685-.316 1.119-.316.438 0 .808.107 1.11.32.303.212.517.5.64.865h.068c.143-.36.385-.647.725-.86.344-.217.75-.325 1.22-.325.596 0 1.083.188 1.459.565.377.377.566.927.566 1.65v4.35h-1.532v-4.114c0-.402-.107-.696-.32-.882a1.145 1.145 0 00-.785-.282c-.368 0-.657.115-.865.346-.205.227-.308.524-.308.89v4.041h-1.498v-4.176c0-.335-.1-.602-.303-.802-.2-.2-.462-.3-.785-.3-.22 0-.419.057-.599.17-.18.11-.323.265-.43.468-.107.2-.16.433-.16.7v3.94h-1.528zm12.408.131c-.411 0-.78-.073-1.11-.22a1.81 1.81 0 01-.776-.657c-.188-.29-.282-.647-.282-1.072 0-.366.067-.668.202-.907.135-.24.319-.43.553-.574.233-.143.496-.251.789-.325a6.4 6.4 0 01.915-.164c.38-.04.688-.075.924-.106.236-.033.408-.084.515-.151.109-.07.164-.18.164-.325v-.026c0-.317-.094-.564-.282-.738-.189-.174-.46-.261-.815-.261-.374 0-.67.081-.89.244a1.219 1.219 0 00-.439.578l-1.425-.202c.112-.394.298-.723.556-.987.259-.268.576-.467.95-.6a3.628 3.628 0 011.24-.202c.312 0 .623.037.932.11.31.073.592.194.848.362.256.166.462.393.616.68.158.287.236.645.236 1.075v4.337h-1.468v-.89h-.05c-.093.18-.224.349-.393.506-.166.155-.375.28-.628.376-.251.093-.544.14-.882.14zm.397-1.122c.306 0 .572-.06.797-.181.225-.124.398-.287.519-.49.124-.202.185-.423.185-.662v-.764a.71.71 0 01-.244.11 3.485 3.485 0 01-.38.089c-.141.025-.28.047-.418.067-.137.02-.257.037-.358.05-.228.032-.432.082-.612.153-.18.07-.322.168-.426.295a.722.722 0 00-.156.48c0 .282.103.494.308.638.205.143.467.215.785.215zm6.846 1.105c-.509 0-.965-.13-1.367-.392s-.72-.641-.953-1.14c-.234-.497-.35-1.102-.35-1.813 0-.72.118-1.328.354-1.823.239-.498.561-.873.966-1.126a2.482 2.482 0 011.354-.384c.38 0 .692.065.937.194.244.127.439.28.582.46.143.177.255.344.333.502h.064v-3.232h1.531v8.64h-1.502v-1.02h-.093a2.572 2.572 0 01-.341.501c-.15.175-.346.324-.591.448-.245.123-.553.185-.924.185zm.426-1.253c.324 0 .599-.087.827-.261.228-.177.401-.424.519-.739s.177-.682.177-1.1c0-.42-.059-.784-.177-1.093a1.553 1.553 0 00-.515-.722c-.225-.171-.502-.257-.831-.257-.34 0-.624.089-.852.266a1.613 1.613 0 00-.515.734c-.115.312-.173.67-.173 1.071 0 .405.058.767.173 1.085.118.314.291.563.519.746.231.18.513.27.848.27zm8.539 1.14h-1.671l3.042-8.64h1.932l3.046 8.64h-1.671l-2.307-6.869h-.068l-2.303 6.868zm.054-3.388h4.557v1.257h-4.557v-1.257zm8.774-5.253v8.64h-1.527v-8.64h1.527zm1.451 8.64v-6.48h1.528v6.48h-1.528zm.768-7.4a.89.89 0 01-.624-.24.777.777 0 01-.262-.586c0-.23.088-.426.262-.587a.88.88 0 01.624-.244c.245 0 .453.081.625.244.174.16.261.356.261.587a.776.776 0 01-.261.586.883.883 0 01-.625.24zm9.802 1.135a1.151 1.151 0 00-.497-.86c-.29-.206-.667-.308-1.131-.308-.326 0-.606.049-.84.148a1.238 1.238 0 00-.535.4.974.974 0 00-.068 1.047c.084.132.198.244.342.337.143.09.302.166.477.228.174.062.35.114.527.156l.81.202c.326.076.64.179.941.308.303.13.575.293.814.49.242.197.433.434.574.713.14.278.211.604.211.978 0 .507-.13.953-.389 1.338-.258.382-.632.682-1.122.898-.486.214-1.076.321-1.767.321-.673 0-1.256-.104-1.751-.312a2.607 2.607 0 01-1.156-.911c-.276-.4-.425-.886-.447-1.46h1.54c.022.3.115.551.278.75.163.2.375.35.637.448.264.099.56.148.886.148.34 0 .638-.05.894-.152a1.45 1.45 0 00.608-.43c.146-.186.221-.403.223-.65a.819.819 0 00-.198-.557 1.453 1.453 0 00-.544-.371 5.283 5.283 0 00-.81-.27l-.983-.253c-.712-.183-1.274-.46-1.688-.832-.41-.374-.616-.87-.616-1.489 0-.509.138-.955.414-1.337a2.73 2.73 0 011.135-.89c.478-.214 1.019-.32 1.624-.32.613 0 1.15.106 1.612.32.464.21.828.505 1.092.881.265.375.401.805.409 1.291h-1.506zm4.361 2.468v3.797h-1.527v-8.64h1.493v3.261h.076c.152-.365.387-.653.705-.864.32-.214.728-.321 1.223-.321.45 0 .842.094 1.177.283.335.188.594.464.776.826.186.363.279.806.279 1.33v4.125h-1.527v-3.89c0-.435-.113-.774-.338-1.016-.222-.245-.534-.367-.936-.367-.27 0-.512.059-.726.177a1.241 1.241 0 00-.498.502c-.118.22-.177.485-.177.797zm7.504 3.928c-.41 0-.78-.073-1.109-.22a1.81 1.81 0 01-.776-.657c-.189-.29-.283-.647-.283-1.072 0-.366.067-.668.202-.907.135-.24.32-.43.553-.574.234-.143.497-.251.789-.325.295-.075.601-.13.916-.164.379-.04.687-.075.923-.106.237-.033.408-.084.515-.151.11-.07.165-.18.165-.325v-.026c0-.317-.095-.564-.283-.738-.188-.174-.46-.261-.814-.261-.374 0-.671.081-.89.244a1.212 1.212 0 00-.439.578l-1.426-.202c.112-.394.298-.723.557-.987.259-.268.575-.467.949-.6a3.632 3.632 0 011.24-.202c.313 0 .623.037.933.11.309.073.592.194.848.362.256.166.461.393.616.68.157.287.236.645.236 1.075v4.337h-1.468v-.89h-.051c-.093.18-.224.349-.392.506a1.89 1.89 0 01-.629.376c-.25.093-.544.14-.882.14zm.397-1.122c.307 0 .572-.06.797-.181.225-.124.398-.287.519-.49.124-.202.186-.423.186-.662v-.764a.726.726 0 01-.245.11 3.431 3.431 0 01-.38.089c-.14.025-.279.047-.417.067-.138.02-.258.037-.359.05-.228.032-.431.082-.611.153-.18.07-.323.168-.427.295a.722.722 0 00-.156.48c0 .282.103.494.308.638.206.143.467.215.785.215zm5.969-2.806v3.797h-1.527v-8.64h1.493v3.261h.076c.152-.365.387-.653.705-.864.32-.214.728-.321 1.223-.321.45 0 .842.094 1.177.283.335.188.594.464.776.826.186.363.279.806.279 1.33v4.125h-1.527v-3.89c0-.435-.113-.774-.338-1.016-.222-.245-.534-.367-.936-.367-.27 0-.512.059-.726.177a1.241 1.241 0 00-.498.502c-.118.22-.177.485-.177.797zm5.64 3.797v-6.48h1.527v6.48h-1.527zm.768-7.4a.893.893 0 01-.625-.24.776.776 0 01-.261-.586c0-.23.087-.426.261-.587a.885.885 0 01.625-.244c.244 0 .452.081.624.244.174.16.262.356.262.587a.777.777 0 01-.262.586.882.882 0 01-.624.24zm4.615 7.514c-.509 0-.964-.13-1.367-.392-.402-.262-.72-.641-.953-1.14-.233-.497-.35-1.102-.35-1.813 0-.72.118-1.328.354-1.823.239-.498.561-.873.966-1.126a2.485 2.485 0 011.355-.384c.379 0 .691.065.936.194.245.127.439.28.582.46.144.177.255.344.334.502h.063v-3.232h1.531v8.64h-1.502v-1.02h-.092a2.627 2.627 0 01-.342.501 1.876 1.876 0 01-.591.448c-.244.123-.552.185-.924.185zm.426-1.253c.324 0 .599-.087.827-.261.228-.177.401-.424.519-.739s.177-.682.177-1.1c0-.42-.059-.784-.177-1.093a1.553 1.553 0 00-.515-.722c-.225-.171-.502-.257-.831-.257-.34 0-.624.089-.852.266a1.604 1.604 0 00-.514.734c-.116.312-.173.67-.173 1.071 0 .405.057.767.173 1.085.118.314.291.563.518.746.231.18.514.27.848.27zm7.362 3.57v-8.91h1.502v1.07h.088c.079-.157.19-.324.334-.501.143-.18.337-.334.582-.46.245-.13.557-.194.936-.194.501 0 .952.128 1.355.384.405.253.725.628.962 1.126.239.495.358 1.103.358 1.823 0 .711-.117 1.316-.35 1.814-.233.498-.551.877-.953 1.139a2.454 2.454 0 01-1.367.392c-.372 0-.68-.062-.924-.185a1.876 1.876 0 01-.591-.448 2.938 2.938 0 01-.342-.502h-.063V80h-1.527zm1.498-5.67c0 .418.059.785.177 1.1.121.315.294.561.519.739.227.174.503.261.827.261.337 0 .62-.09.848-.27.227-.183.399-.431.514-.746a3.1 3.1 0 00.177-1.085c0-.402-.057-.76-.173-1.071a1.604 1.604 0 00-.514-.734c-.228-.177-.512-.266-.852-.266-.327 0-.604.086-.832.257-.227.172-.4.412-.518.722a3.11 3.11 0 00-.173 1.092zm9.335-5.806l-2.784 10.345h-1.338l2.785-10.345h1.337zm2.248 7.012l-.004-1.844h.244l2.329-2.603h1.785l-2.865 3.19h-.316l-1.173 1.257zm-1.392 2.033v-8.64h1.527v8.64h-1.527zm4.067 0l-2.11-2.949 1.03-1.075 2.906 4.024h-1.826zm6.105-9.045l-2.785 10.345h-1.337l2.784-10.345h1.338zm2.72 9.176c-.411 0-.78-.073-1.109-.22a1.812 1.812 0 01-.777-.657c-.188-.29-.282-.647-.282-1.072 0-.366.067-.668.202-.907.135-.24.319-.43.553-.574.233-.143.496-.251.789-.325a6.4 6.4 0 01.915-.164c.38-.04.688-.075.924-.106.236-.033.408-.084.515-.151.11-.07.164-.18.164-.325v-.026c0-.317-.094-.564-.282-.738-.189-.174-.46-.261-.815-.261-.374 0-.67.081-.89.244a1.21 1.21 0 00-.438.578l-1.426-.202c.112-.394.298-.723.556-.987.259-.268.576-.467.95-.6a3.628 3.628 0 011.24-.202c.312 0 .623.037.932.11.31.073.592.194.848.362.256.166.462.393.616.68.158.287.237.645.237 1.075v4.337h-1.469v-.89h-.05a1.866 1.866 0 01-1.021.882c-.25.093-.544.14-.882.14zm.397-1.122c.306 0 .572-.06.797-.181.225-.124.398-.287.519-.49.124-.202.186-.423.186-.662v-.764a.726.726 0 01-.245.11 3.485 3.485 0 01-.38.089c-.14.025-.28.047-.417.067-.138.02-.258.037-.359.05-.228.032-.432.082-.612.153-.18.07-.322.168-.426.295a.722.722 0 00-.156.48c0 .282.103.494.308.638.205.143.467.215.785.215zm7.968-8.054l-2.784 10.345h-1.337l2.784-10.345h1.337zm4.861 9.045h-1.671l3.042-8.64h1.932l3.046 8.64h-1.67l-2.308-6.868h-.067l-2.304 6.868zm.055-3.387h4.556v1.257h-4.556v-1.257zm7.771 3.387l-1.831-6.48h1.557l1.139 4.557h.059l1.165-4.557h1.54l1.164 4.531h.063l1.122-4.53h1.561l-1.835 6.48h-1.59l-1.215-4.38h-.089l-1.215 4.38h-1.595zm11.182.127c-.65 0-1.211-.135-1.684-.405a2.745 2.745 0 01-1.084-1.156c-.253-.5-.38-1.09-.38-1.768 0-.666.127-1.251.38-1.755.256-.506.613-.9 1.072-1.181.458-.284.997-.426 1.615-.426.4 0 .777.065 1.131.194.357.127.672.323.945.59.276.268.492.608.65 1.022.157.41.236.9.236 1.468v.468h-5.311v-1.03h3.847a1.642 1.642 0 00-.19-.78 1.377 1.377 0 00-.519-.544 1.456 1.456 0 00-.767-.198c-.313 0-.587.076-.823.227-.236.15-.421.346-.553.591a1.706 1.706 0 00-.198.797v.899c0 .377.069.7.207.97.137.267.33.473.578.616.247.14.537.211.869.211.222 0 .423-.03.603-.093.18-.064.336-.159.468-.282.132-.124.232-.277.3-.46l1.426.16c-.09.377-.262.706-.515.987-.25.279-.571.495-.962.65a3.684 3.684 0 01-1.341.228zm4.054-.127v-6.48h1.527v6.48h-1.527zm.768-7.4a.89.89 0 01-.624-.24.773.773 0 01-.262-.586c0-.23.087-.426.262-.587a.88.88 0 01.624-.244.87.87 0 01.624.244c.175.16.262.356.262.587a.773.773 0 01-.262.586.879.879 0 01-.624.24zm5.029 9.965c-.548 0-1.019-.074-1.413-.223-.394-.147-.71-.343-.949-.59a2.048 2.048 0 01-.498-.823l1.375-.334c.062.127.152.252.27.376.118.126.277.23.477.312.202.084.457.126.764.126.433 0 .791-.105 1.075-.316.284-.208.426-.551.426-1.03v-1.227h-.076c-.078.157-.194.32-.345.485-.15.166-.348.305-.595.418-.245.112-.553.168-.924.168-.498 0-.949-.116-1.354-.35-.403-.236-.723-.588-.962-1.054-.237-.47-.355-1.058-.355-1.764 0-.711.118-1.312.355-1.801.239-.492.561-.865.966-1.118a2.482 2.482 0 011.354-.384c.38 0 .692.065.937.194.247.127.444.28.59.46.146.177.258.344.333.502h.085v-1.072h1.506v6.586c0 .554-.132 1.012-.397 1.375a2.375 2.375 0 01-1.084.814c-.458.18-.979.27-1.561.27zm.013-3.856c.323 0 .599-.078.827-.236.228-.157.401-.384.519-.68.118-.294.177-.649.177-1.062 0-.408-.059-.765-.177-1.072a1.534 1.534 0 00-.515-.713c-.225-.171-.502-.257-.831-.257-.34 0-.625.089-.852.266-.228.177-.4.42-.515.73a2.964 2.964 0 00-.173 1.046c0 .396.058.744.173 1.042.118.295.291.526.519.692.23.163.513.244.848.244zm6.003-2.506v3.797h-1.528v-8.64h1.494v3.261h.076c.152-.365.386-.653.704-.864.321-.214.729-.321 1.224-.321.45 0 .842.094 1.177.283.334.188.593.464.776.826.186.363.278.806.278 1.33v4.125h-1.527v-3.89c0-.435-.112-.774-.337-1.016-.222-.245-.535-.367-.937-.367-.27 0-.512.059-.725.177a1.241 1.241 0 00-.498.502c-.118.22-.177.485-.177.797z" fill="#000"/><path d="M50.744 110.577h-1.096l3.172-8.64h1.08l3.173 8.64h-1.097l-2.582-7.273h-.068l-2.582 7.273zm.405-3.375h4.422v.928h-4.422v-.928zm9.767 3.51c-.608 0-1.13-.143-1.57-.43a2.803 2.803 0 01-1.012-1.186c-.236-.503-.354-1.078-.354-1.725 0-.658.12-1.239.362-1.742a2.864 2.864 0 011.021-1.186c.44-.287.951-.43 1.536-.43.456 0 .866.084 1.232.253.365.169.665.405.898.709.234.303.379.658.435 1.063h-.996a1.542 1.542 0 00-.506-.785c-.259-.231-.607-.346-1.046-.346-.388 0-.729.101-1.021.304-.29.2-.516.482-.68.848-.16.363-.24.789-.24 1.278 0 .501.079.937.236 1.308.16.371.386.659.675.865.293.205.636.308 1.03.308.259 0 .494-.045.704-.135.211-.09.39-.22.536-.388.147-.169.25-.372.312-.608h.996a2.307 2.307 0 01-.418 1.034 2.34 2.34 0 01-.873.725c-.36.178-.779.266-1.257.266zm6.636 0c-.608 0-1.13-.143-1.57-.43a2.803 2.803 0 01-1.012-1.186c-.236-.503-.354-1.078-.354-1.725 0-.658.12-1.239.363-1.742a2.864 2.864 0 011.02-1.186c.44-.287.951-.43 1.536-.43.456 0 .866.084 1.232.253.366.169.665.405.899.709.233.303.378.658.434 1.063h-.995a1.543 1.543 0 00-.507-.785c-.258-.231-.607-.346-1.046-.346-.388 0-.728.101-1.02.304-.29.2-.517.482-.68.848-.16.363-.24.789-.24 1.278 0 .501.078.937.236 1.308.16.371.385.659.675.865.292.205.635.308 1.029.308.259 0 .494-.045.705-.135.21-.09.39-.22.535-.388.147-.169.25-.372.313-.608h.995a2.308 2.308 0 01-.417 1.034c-.22.303-.51.545-.874.725-.36.178-.779.266-1.257.266zm6.636 0c-.585 0-1.098-.139-1.54-.418a2.83 2.83 0 01-1.029-1.168c-.245-.501-.367-1.086-.367-1.755 0-.675.122-1.264.367-1.768.248-.503.59-.894 1.03-1.173.44-.278.954-.417 1.54-.417.584 0 1.096.139 1.535.417a2.8 2.8 0 011.03 1.173c.247.504.37 1.093.37 1.768 0 .669-.123 1.254-.37 1.755-.246.501-.589.89-1.03 1.168-.439.279-.95.418-1.536.418zm0-.894c.445 0 .81-.114 1.097-.342.287-.228.5-.527.637-.899.138-.371.207-.773.207-1.206 0-.433-.07-.837-.207-1.211a2.043 2.043 0 00-.637-.907c-.287-.231-.652-.346-1.097-.346-.444 0-.81.115-1.097.346-.287.231-.499.533-.637.907a3.477 3.477 0 00-.206 1.211c0 .433.069.835.206 1.206.138.372.35.671.637.899.287.228.653.342 1.097.342zm8.54-1.89v-3.831h.996v6.48h-.996v-1.097h-.067a2.13 2.13 0 01-.71.84c-.32.228-.725.342-1.214.342-.405 0-.765-.089-1.08-.266a1.86 1.86 0 01-.743-.81c-.18-.363-.27-.82-.27-1.371v-4.118h.996v4.05c0 .473.132.85.397 1.131.267.281.607.422 1.02.422.248 0 .5-.064.756-.19.258-.127.475-.321.65-.582.177-.262.265-.595.265-1zm3.815-1.249v3.898h-.996v-6.48h.962v1.013h.085c.151-.329.382-.594.691-.794.31-.202.71-.303 1.199-.303.438 0 .822.09 1.151.27.33.177.585.447.768.81.183.36.274.815.274 1.367v4.117h-.995v-4.05c0-.509-.133-.906-.397-1.19-.264-.286-.627-.43-1.088-.43-.318 0-.602.069-.853.207a1.482 1.482 0 00-.586.603c-.143.264-.215.585-.215.962zm8.772-2.582v.844h-3.358v-.844h3.358zm-2.38-1.552h.996v6.176c0 .281.04.492.122.633.085.138.192.23.321.278.132.045.272.068.418.068.11 0 .2-.006.27-.017l.169-.034.202.894a1.896 1.896 0 01-.283.076c-.12.028-.274.043-.46.043-.28 0-.556-.061-.826-.182a1.64 1.64 0 01-.667-.553c-.174-.247-.262-.559-.262-.936v-6.446zm3.877 8.032v-6.48h.996v6.48h-.996zm.507-7.56a.709.709 0 01-.502-.198.637.637 0 01-.207-.477c0-.186.069-.344.207-.477a.709.709 0 01.502-.198c.194 0 .36.066.498.198.14.133.21.291.21.477a.63.63 0 01-.21.477.694.694 0 01-.498.198zm3.308 3.662v3.898h-.995v-6.48h.962v1.013h.084c.152-.329.382-.594.692-.794.309-.202.709-.303 1.198-.303.439 0 .823.09 1.152.27.329.177.585.447.768.81.182.36.274.815.274 1.367v4.117h-.996v-4.05c0-.509-.132-.906-.396-1.19-.265-.286-.628-.43-1.089-.43-.318 0-.602.069-.852.207a1.475 1.475 0 00-.586.603c-.144.264-.216.585-.216.962zm8.57 6.463c-.481 0-.895-.062-1.241-.185a2.644 2.644 0 01-.864-.481 2.634 2.634 0 01-.545-.633l.793-.557c.09.118.204.253.342.405.138.155.326.288.566.401.241.115.558.173.949.173.523 0 .955-.127 1.295-.38.34-.253.51-.65.51-1.19v-1.316h-.084a5.45 5.45 0 01-.312.439 1.78 1.78 0 01-.574.46c-.247.132-.582.198-1.004.198-.523 0-.993-.124-1.409-.371a2.608 2.608 0 01-.983-1.08c-.239-.473-.359-1.047-.359-1.722 0-.663.117-1.241.351-1.734.233-.495.558-.877.974-1.147.416-.273.897-.409 1.443-.409.422 0 .756.07 1.004.211.25.137.442.295.574.472.135.175.239.318.312.43h.101v-1.029h.962v6.666c0 .557-.127 1.009-.38 1.358-.25.352-.587.609-1.012.772a3.82 3.82 0 01-1.409.249zm-.034-3.56c.399 0 .737-.092 1.013-.275.275-.183.485-.445.628-.789.144-.343.215-.753.215-1.232 0-.466-.07-.878-.211-1.236a1.844 1.844 0 00-.624-.839c-.276-.203-.616-.304-1.021-.304-.422 0-.773.107-1.055.321-.278.213-.488.5-.628.86-.138.36-.207.76-.207 1.198 0 .45.07.848.211 1.194.143.344.354.614.633.81.281.194.63.292 1.046.292zm8.134.995v-8.64h.995v3.189h.085c.073-.112.174-.255.304-.43.132-.177.32-.335.565-.472.247-.141.582-.211 1.004-.211.546 0 1.027.136 1.443.409.416.273.741.659.974 1.16.234.501.351 1.091.351 1.772 0 .686-.117 1.281-.351 1.785-.233.5-.557.888-.97 1.164-.413.273-.89.409-1.43.409-.416 0-.75-.069-1-.207a1.85 1.85 0 01-.578-.476 6.363 6.363 0 01-.312-.447h-.118v.995h-.962zm.979-3.24c0 .489.071.921.215 1.295.143.372.353.663.628.874.276.208.613.312 1.013.312.416 0 .763-.11 1.042-.329.281-.222.492-.521.633-.895a3.52 3.52 0 00.215-1.257c0-.456-.07-.866-.211-1.232a1.903 1.903 0 00-.629-.873c-.278-.217-.628-.325-1.05-.325-.405 0-.745.103-1.021.308a1.846 1.846 0 00-.624.852c-.141.363-.211.786-.211 1.27zm8.171 3.392c-.41 0-.783-.077-1.118-.232a1.928 1.928 0 01-.797-.679c-.197-.298-.295-.658-.295-1.08 0-.371.073-.672.219-.903a1.55 1.55 0 01.587-.549c.244-.132.514-.23.81-.295.298-.067.597-.121.898-.16.394-.051.713-.089.958-.114.247-.028.427-.075.54-.139.115-.065.173-.177.173-.338v-.034c0-.416-.114-.739-.342-.97-.225-.23-.567-.346-1.025-.346-.475 0-.848.104-1.118.312-.27.209-.46.431-.57.667l-.945-.338c.169-.393.394-.7.675-.919a2.53 2.53 0 01.929-.464c.337-.09.669-.135.995-.135.208 0 .447.025.717.076.273.047.536.147.789.299.256.152.469.381.637.688.169.306.253.717.253 1.232v4.269h-.995v-.877h-.051c-.067.14-.18.291-.337.451-.158.16-.367.297-.629.409-.262.113-.581.169-.958.169zm.152-.894c.394 0 .726-.078.996-.232.273-.155.478-.355.616-.599.14-.245.211-.502.211-.772v-.912c-.042.051-.135.097-.279.139-.14.04-.303.075-.489.106-.183.028-.361.053-.536.076-.171.02-.311.036-.417.05a3.817 3.817 0 00-.726.165 1.252 1.252 0 00-.54.333c-.135.147-.203.346-.203.599 0 .346.128.608.384.785.259.174.587.262.983.262zm5.631-3.156v3.898h-.995v-6.48h.962v1.013h.084c.152-.329.382-.594.692-.794.309-.202.709-.303 1.198-.303.439 0 .823.09 1.152.27.329.177.585.447.767.81.183.36.275.815.275 1.367v4.117h-.996v-4.05c0-.509-.132-.906-.396-1.19-.265-.286-.628-.43-1.089-.43-.318 0-.602.069-.852.207a1.484 1.484 0 00-.587.603c-.143.264-.215.585-.215.962zm6.882 1.536l-.017-1.232h.203l2.835-2.886h1.232l-3.021 3.054h-.084l-1.148 1.064zm-.928 2.362v-8.64h.996v8.64h-.996zm4.118 0l-2.532-3.206.709-.692 3.088 3.898h-1.265z" fill="#73777A"/><path d="M51.306 130.913h-1.671l3.042-8.64h1.932l3.046 8.64h-1.67l-2.309-6.868h-.067l-2.303 6.868zm.054-3.388h4.557v1.258H51.36v-1.258zm10.338-5.252v8.64h-1.565v-7.117h-.051l-2.02 1.291v-1.434l2.147-1.38h1.489zm5.268 8.805c-.694 0-1.29-.176-1.788-.528-.495-.354-.876-.865-1.144-1.531-.264-.67-.396-1.475-.396-2.418.003-.942.136-1.743.4-2.404.268-.664.649-1.17 1.144-1.519.498-.349 1.093-.523 1.784-.523.692 0 1.287.174 1.785.523.498.349.879.855 1.143 1.519.267.664.401 1.465.401 2.404 0 .945-.134 1.753-.4 2.422-.265.667-.646 1.176-1.144 1.527-.495.352-1.09.528-1.785.528zm0-1.321c.54 0 .967-.266 1.279-.797.315-.535.472-1.321.472-2.359 0-.686-.072-1.262-.215-1.729-.143-.467-.346-.819-.608-1.055a1.33 1.33 0 00-.928-.359c-.537 0-.962.268-1.274.802-.312.532-.47 1.312-.472 2.341-.003.69.066 1.269.207 1.739.143.469.345.824.607 1.063.262.236.572.354.932.354zm4.612 1.156v-1.131l3-2.94a14.3 14.3 0 00.717-.772c.19-.225.334-.443.43-.654.096-.211.143-.436.143-.675 0-.273-.061-.506-.185-.7a1.235 1.235 0 00-.51-.456 1.644 1.644 0 00-.739-.16 1.52 1.52 0 00-.747.177c-.213.115-.38.28-.498.494a1.583 1.583 0 00-.172.763h-1.49c0-.548.125-1.025.376-1.43.25-.405.595-.719 1.033-.941.442-.222.948-.333 1.52-.333.578 0 1.088.108 1.526.325.44.216.78.513 1.021.89.245.377.367.807.367 1.291 0 .323-.062.641-.185.953-.124.312-.342.658-.654 1.038-.31.38-.744.84-1.304 1.38l-1.49 1.514v.059h3.764v1.308h-5.923zm8.217-1.038a.905.905 0 01-.658-.27.883.883 0 01-.27-.658.866.866 0 01.27-.65.905.905 0 01.658-.27.89.89 0 01.646.27.888.888 0 01.148 1.118.965.965 0 01-.338.338.883.883 0 01-.456.122zm0-4.282a.905.905 0 01-.658-.27.883.883 0 01-.27-.658.866.866 0 01.27-.65.9.9 0 01.658-.274c.248 0 .463.092.646.274.185.18.28.397.283.65a.973.973 0 01-.473.802.859.859 0 01-.456.126zm12.678-.405h-1.578a1.954 1.954 0 00-.25-.687 1.836 1.836 0 00-1.066-.832 2.407 2.407 0 00-.739-.109c-.47 0-.886.118-1.249.354-.362.234-.646.577-.852 1.029-.205.451-.308 1-.308 1.65 0 .661.103 1.218.308 1.671.208.45.492.79.852 1.021.363.227.778.341 1.245.341.259 0 .5-.033.726-.101a1.98 1.98 0 00.611-.308 1.88 1.88 0 00.721-1.173l1.579.009c-.06.41-.187.796-.384 1.156a3.398 3.398 0 01-1.87 1.594 4.12 4.12 0 01-1.404.228c-.76 0-1.437-.176-2.034-.527-.596-.352-1.066-.859-1.409-1.523-.343-.664-.514-1.46-.514-2.388 0-.931.173-1.727.519-2.388.346-.664.817-1.171 1.413-1.523.596-.351 1.271-.527 2.025-.527.48 0 .928.067 1.341.202.414.135.782.334 1.106.595.323.259.589.577.797.954.211.374.349.801.414 1.282zm2.32 5.725h-1.671l3.041-8.64h1.933l3.046 8.64h-1.671l-2.308-6.868h-.067l-2.304 6.868zm.054-3.388h4.556v1.258h-4.556v-1.258zm11.87-2.877a1.148 1.148 0 00-.498-.86c-.289-.206-.666-.308-1.13-.308-.327 0-.607.049-.84.147a1.25 1.25 0 00-.536.401.98.98 0 00-.19.578c0 .18.041.336.123.468.084.132.198.245.341.338.144.09.303.166.477.228.175.061.35.114.528.156l.81.202c.326.076.639.179.94.308.304.13.576.293.815.49.241.196.433.434.573.713.141.278.211.604.211.978 0 .507-.129.952-.388 1.338-.259.382-.633.682-1.122.898-.487.214-1.076.321-1.768.321-.672 0-1.256-.104-1.751-.312a2.6 2.6 0 01-1.155-.912c-.276-.399-.425-.886-.448-1.459h1.54c.023.301.116.551.279.751.163.199.375.348.637.447.264.098.559.148.886.148.34 0 .638-.051.894-.152.259-.104.461-.248.608-.431a1.04 1.04 0 00.223-.649.828.828 0 00-.198-.557 1.469 1.469 0 00-.544-.372 5.326 5.326 0 00-.81-.27l-.983-.253c-.712-.182-1.274-.459-1.688-.831-.411-.374-.616-.87-.616-1.489 0-.509.138-.955.414-1.337.278-.383.656-.68 1.134-.89.479-.214 1.02-.321 1.625-.321.613 0 1.15.107 1.611.321.464.21.829.504 1.093.881.264.374.401.805.409 1.291h-1.506zm2.901 6.265v-8.64h1.565v3.658h4.004v-3.658h1.569v8.64h-1.569v-3.67h-4.004v3.67h-1.565zm11.523.127c-.65 0-1.211-.135-1.684-.405a2.746 2.746 0 01-1.084-1.156c-.253-.501-.379-1.09-.379-1.768 0-.667.126-1.252.379-1.755.256-.506.613-.9 1.072-1.181.458-.284.997-.426 1.616-.426.399 0 .776.064 1.13.194.357.126.672.323.945.59.276.268.492.608.65 1.021.157.411.236.9.236 1.468v.469h-5.311v-1.03h3.847a1.642 1.642 0 00-.19-.78 1.37 1.37 0 00-.518-.544 1.455 1.455 0 00-.768-.199c-.312 0-.587.076-.823.228-.236.149-.42.346-.553.591a1.704 1.704 0 00-.198.797v.899c0 .377.069.7.207.97.138.267.33.473.578.616.247.141.537.211.869.211.222 0 .423-.031.603-.093.18-.065.336-.159.468-.283.133-.123.232-.277.3-.459l1.426.16c-.09.377-.262.706-.515.987-.25.279-.571.495-.962.65a3.681 3.681 0 01-1.341.228zm7.29-6.607v1.181h-3.725v-1.181h3.725zm-2.805-1.552h1.527v6.083c0 .205.031.363.093.473a.5.5 0 00.253.219.977.977 0 00.346.059c.095 0 .183-.007.261-.021.082-.014.144-.027.186-.038l.257 1.194a2.96 2.96 0 01-.898.152 2.505 2.505 0 01-1.034-.173 1.615 1.615 0 01-.73-.599c-.177-.27-.264-.608-.261-1.013v-6.336z" fill="#000"/><path d="M152.558 110.577v-8.64h2.919c.678 0 1.232.122 1.663.367.433.242.753.57.961.983.209.414.313.875.313 1.384 0 .509-.104.972-.313 1.388a2.316 2.316 0 01-.953.995c-.43.245-.982.367-1.654.367h-2.092v-.928h2.059c.464 0 .836-.08 1.117-.24.282-.16.486-.377.612-.65.13-.275.194-.586.194-.932 0-.346-.064-.655-.194-.928a1.384 1.384 0 00-.616-.642c-.284-.157-.661-.236-1.13-.236h-1.84v7.712h-1.046zm9.313.152c-.411 0-.783-.077-1.118-.232a1.922 1.922 0 01-.797-.679c-.197-.298-.296-.658-.296-1.08 0-.371.073-.672.22-.903.146-.234.341-.416.586-.549.245-.132.515-.23.81-.295.298-.067.598-.121.899-.16.393-.051.713-.089.957-.114.248-.028.428-.075.54-.139.116-.065.173-.177.173-.338v-.034c0-.416-.114-.739-.341-.97-.225-.23-.567-.346-1.026-.346-.475 0-.848.104-1.118.312-.27.209-.459.431-.569.667l-.945-.338c.169-.393.394-.7.675-.919.284-.222.593-.377.928-.464.338-.09.669-.135.996-.135.208 0 .447.025.717.076.273.047.536.147.789.299.256.152.468.381.637.688.169.306.253.717.253 1.232v4.269h-.996v-.877h-.05a1.76 1.76 0 01-.338.451c-.157.16-.367.297-.628.409-.262.113-.581.169-.958.169zm.152-.894c.394 0 .725-.078.995-.232a1.58 1.58 0 00.827-1.371v-.912c-.042.051-.135.097-.278.139-.141.04-.304.075-.489.106-.183.028-.362.053-.536.076-.172.02-.311.036-.418.05a3.817 3.817 0 00-.726.165 1.252 1.252 0 00-.54.333c-.135.147-.202.346-.202.599 0 .346.128.608.384.785.259.174.586.262.983.262zm5.044 3.172a2.19 2.19 0 01-.451-.042 1.18 1.18 0 01-.274-.076l.253-.877c.242.061.456.084.641.067a.77.77 0 00.494-.249c.146-.146.28-.384.401-.713l.185-.506-2.396-6.514H167l1.789 5.164h.067l1.789-5.164h1.08l-2.751 7.425a2.779 2.779 0 01-.46.831 1.72 1.72 0 01-.637.494c-.239.107-.509.16-.81.16zm5.972-2.43v-6.48h.962v1.013h.084c.135-.346.353-.615.654-.806.301-.194.663-.291 1.085-.291.427 0 .783.097 1.067.291.287.191.51.46.671.806h.067c.166-.335.415-.601.747-.798.332-.199.73-.299 1.194-.299.579 0 1.053.181 1.422.544.368.36.552.921.552 1.683v4.337h-.995v-4.337c0-.478-.131-.82-.393-1.025a1.452 1.452 0 00-.924-.308c-.455 0-.808.138-1.059.414-.25.272-.375.618-.375 1.037v4.219h-1.013v-4.438c0-.368-.119-.665-.358-.89-.239-.228-.547-.342-.924-.342-.259 0-.501.069-.726.207a1.564 1.564 0 00-.54.574 1.689 1.689 0 00-.202.839v4.05h-.996zm13.043.135c-.625 0-1.163-.138-1.616-.413a2.774 2.774 0 01-1.042-1.165c-.242-.5-.363-1.082-.363-1.746 0-.664.121-1.249.363-1.755a2.858 2.858 0 011.021-1.19c.438-.287.95-.43 1.535-.43.338 0 .671.056 1 .168.329.113.629.296.899.549.27.25.485.582.645.996.161.413.241.922.241 1.527v.422h-4.995v-.861h3.982c0-.366-.073-.692-.219-.979a1.657 1.657 0 00-.616-.679 1.727 1.727 0 00-.937-.249c-.396 0-.739.099-1.029.295a1.938 1.938 0 00-.662.76 2.226 2.226 0 00-.232 1.004v.574c0 .489.084.904.253 1.244.171.338.409.595.713.772a2.08 2.08 0 001.059.262c.261 0 .497-.037.708-.11a1.52 1.52 0 00.553-.337c.155-.152.274-.341.359-.566l.961.27a2.13 2.13 0 01-.51.861 2.483 2.483 0 01-.886.574 3.288 3.288 0 01-1.185.202zm5.193-4.033v3.898h-.996v-6.48h.962v1.013h.084c.152-.329.383-.594.692-.794.31-.202.709-.303 1.199-.303.438 0 .822.09 1.151.27.329.177.585.447.768.81.183.36.274.815.274 1.367v4.117h-.995v-4.05c0-.509-.133-.906-.397-1.19-.264-.286-.627-.43-1.088-.43a1.74 1.74 0 00-.853.207 1.481 1.481 0 00-.586.603c-.143.264-.215.585-.215.962zm8.772-2.582v.844h-3.358v-.844h3.358zm-2.38-1.552h.996v6.176c0 .281.041.492.122.633.085.138.192.23.321.278.132.045.271.068.418.068.109 0 .199-.006.27-.017l.168-.034.203.894a1.915 1.915 0 01-.283.076 2.082 2.082 0 01-.46.043 2 2 0 01-.826-.182 1.635 1.635 0 01-.667-.553c-.174-.247-.262-.559-.262-.936v-6.446zm10.037 1.552v.844h-3.358v-.844h3.358zm-2.38-1.552h.996v6.176c0 .281.041.492.122.633.085.138.192.23.321.278.132.045.271.068.418.068.109 0 .199-.006.27-.017l.169-.034.202.894a1.881 1.881 0 01-.283.076 2.082 2.082 0 01-.46.043 2 2 0 01-.826-.182 1.635 1.635 0 01-.667-.553c-.174-.247-.262-.559-.262-.936v-6.446zm4.519 10.462a2.2 2.2 0 01-.452-.042 1.197 1.197 0 01-.274-.076l.253-.877c.242.061.456.084.642.067.185-.017.35-.1.493-.249.146-.146.28-.384.401-.713l.186-.506-2.397-6.514h1.08l1.789 5.164h.068l1.788-5.164h1.08l-2.75 7.425a2.8 2.8 0 01-.46.831 1.728 1.728 0 01-.637.494c-.239.107-.509.16-.81.16zm5.972 0v-8.91h.961v1.029h.119c.073-.112.174-.255.303-.43.132-.177.321-.335.566-.472.247-.141.582-.211 1.004-.211.545 0 1.026.136 1.442.409.417.273.742.659.975 1.16.233.501.35 1.091.35 1.772 0 .686-.117 1.281-.35 1.785-.233.5-.557.888-.97 1.164-.414.273-.89.409-1.43.409-.417 0-.75-.069-1-.207a1.838 1.838 0 01-.578-.476 6.363 6.363 0 01-.312-.447h-.085v3.425h-.995zm.978-5.67c0 .489.072.921.215 1.295.144.372.353.663.629.874.276.208.613.312 1.013.312.416 0 .763-.11 1.042-.329.281-.222.492-.521.632-.895.144-.377.216-.796.216-1.257 0-.456-.071-.866-.211-1.232a1.91 1.91 0 00-.629-.873c-.278-.217-.629-.325-1.05-.325-.405 0-.746.103-1.021.308a1.855 1.855 0 00-.625.852c-.14.363-.211.786-.211 1.27zm8.978 3.375c-.625 0-1.163-.138-1.616-.413a2.781 2.781 0 01-1.042-1.165c-.242-.5-.363-1.082-.363-1.746 0-.664.121-1.249.363-1.755a2.865 2.865 0 011.021-1.19c.439-.287.951-.43 1.536-.43.337 0 .67.056.999.168.33.113.629.296.899.549.27.25.485.582.646.996.16.413.24.922.24 1.527v.422h-4.995v-.861h3.982c0-.366-.073-.692-.219-.979a1.65 1.65 0 00-.616-.679 1.722 1.722 0 00-.936-.249c-.397 0-.74.099-1.03.295a1.946 1.946 0 00-.662.76 2.226 2.226 0 00-.232 1.004v.574c0 .489.084.904.253 1.244.172.338.409.595.713.772.304.175.657.262 1.059.262.261 0 .498-.037.709-.11.213-.076.398-.188.552-.337.155-.152.274-.341.359-.566l.962.27a2.143 2.143 0 01-.511.861 2.483 2.483 0 01-.886.574 3.28 3.28 0 01-1.185.202z" fill="#73777A"/><path d="M159.759 125.188h-1.577a1.952 1.952 0 00-.249-.687 1.838 1.838 0 00-1.068-.832 2.403 2.403 0 00-.738-.109c-.47 0-.886.118-1.249.354-.363.234-.647.577-.852 1.029-.205.451-.308 1-.308 1.65 0 .661.103 1.218.308 1.671.208.45.492.79.852 1.021a2.3 2.3 0 001.245.341c.259 0 .5-.033.725-.101a1.98 1.98 0 00.612-.308 1.877 1.877 0 00.722-1.173l1.577.009c-.059.41-.187.796-.383 1.156-.195.36-.449.678-.764.953a3.512 3.512 0 01-1.105.641 4.125 4.125 0 01-1.405.228c-.76 0-1.437-.176-2.034-.527-.596-.352-1.066-.859-1.409-1.523-.343-.664-.514-1.46-.514-2.388 0-.931.173-1.727.518-2.388.346-.664.817-1.171 1.414-1.523.596-.351 1.271-.527 2.025-.527.481 0 .928.067 1.341.202.414.135.782.334 1.106.595.323.259.589.577.797.954.211.374.349.801.413 1.282zm2.32 5.725h-1.671l3.042-8.64h1.932l3.046 8.64h-1.67l-2.308-6.868h-.067l-2.304 6.868zm.055-3.388h4.556v1.258h-4.556v-1.258zm11.87-2.877a1.148 1.148 0 00-.498-.86c-.29-.206-.666-.308-1.131-.308a2.16 2.16 0 00-.839.147 1.245 1.245 0 00-.536.401.974.974 0 00-.19.578c0 .18.041.336.123.468.084.132.198.245.341.338.144.09.303.166.477.228.174.061.35.114.527.156l.81.202a5.6 5.6 0 01.941.308c.304.13.575.293.814.49.242.196.434.434.574.713.141.278.211.604.211.978 0 .507-.129.952-.388 1.338-.259.382-.633.682-1.122.898-.487.214-1.076.321-1.768.321-.672 0-1.256-.104-1.751-.312a2.608 2.608 0 01-1.156-.912c-.275-.399-.424-.886-.447-1.459h1.54c.023.301.115.551.278.751.164.199.376.348.638.447.264.098.559.148.885.148.341 0 .639-.051.895-.152.259-.104.461-.248.607-.431.147-.185.221-.402.224-.649a.828.828 0 00-.198-.557 1.465 1.465 0 00-.545-.372c-.23-.101-.5-.191-.81-.27l-.983-.253c-.711-.182-1.274-.459-1.687-.831-.411-.374-.616-.87-.616-1.489 0-.509.138-.955.413-1.337.279-.383.657-.68 1.135-.89.478-.214 1.02-.321 1.625-.321.613 0 1.15.107 1.611.321.464.21.828.504 1.093.881.264.374.401.805.409 1.291h-1.506zm2.901 6.265v-8.64h1.565v3.658h4.003v-3.658h1.57v8.64h-1.57v-3.67h-4.003v3.67h-1.565zm8.721 0v-8.64h5.62v1.312h-4.054v2.346h3.763v1.312h-3.763v2.358h4.088v1.312h-5.654zm6.718-7.328v-1.312h6.894v1.312h-2.671v7.328h-1.552v-7.328h-2.671zm8.104 7.328v-8.64h3.24c.664 0 1.22.124 1.67.371a2.48 2.48 0 011.026 1.021c.233.431.35.92.35 1.468 0 .554-.117 1.047-.35 1.477a2.51 2.51 0 01-1.034 1.017c-.456.244-1.017.367-1.683.367h-2.148v-1.287h1.937c.388 0 .706-.068.953-.203.248-.135.43-.32.549-.556.121-.237.181-.508.181-.815 0-.306-.06-.576-.181-.81a1.239 1.239 0 00-.553-.544c-.248-.132-.567-.198-.958-.198h-1.434v7.332h-1.565zm7.673 0h-1.671l3.042-8.64h1.932l3.046 8.64h-1.67l-2.308-6.868h-.068l-2.303 6.868zm.055-3.388h4.556v1.258h-4.556v-1.258zm5.841-5.252h1.768l2.113 3.822h.085l2.113-3.822h1.768l-3.143 5.417v3.223h-1.561v-3.223l-3.143-5.417z" fill="#000"/><path d="M296.96 48.593v8.64h-1.047v-8.64h1.047zm2.958 4.742v3.898h-.996v-6.48h.962v1.013h.085c.152-.33.382-.594.692-.793.309-.203.708-.304 1.198-.304.439 0 .822.09 1.152.27.329.177.585.447.767.81.183.36.275.816.275 1.367v4.117h-.996v-4.05c0-.509-.132-.905-.397-1.19-.264-.286-.627-.43-1.088-.43-.318 0-.602.07-.852.207a1.48 1.48 0 00-.587.603c-.143.265-.215.585-.215.962zm11.021-2.582l-2.397 6.48h-1.012l-2.396-6.48h1.08l1.788 5.164h.068l1.789-5.164h1.08zm3.714 6.615c-.585 0-1.098-.139-1.54-.417a2.845 2.845 0 01-1.029-1.169c-.245-.5-.367-1.085-.367-1.755 0-.675.122-1.264.367-1.768a2.84 2.84 0 011.029-1.172c.442-.279.955-.418 1.54-.418.585 0 1.097.14 1.536.418.442.278.785.669 1.029 1.172.248.504.372 1.093.372 1.768 0 .67-.124 1.255-.372 1.755-.244.5-.587.89-1.029 1.169-.439.278-.951.417-1.536.417zm0-.894c.445 0 .81-.114 1.097-.342.287-.227.499-.527.637-.898.138-.372.207-.774.207-1.207 0-.433-.069-.837-.207-1.21a2.041 2.041 0 00-.637-.908c-.287-.23-.652-.346-1.097-.346-.444 0-.81.116-1.097.346a2.05 2.05 0 00-.637.907 3.494 3.494 0 00-.206 1.211c0 .433.069.835.206 1.207.138.37.351.67.637.898.287.228.653.342 1.097.342zm4.456.76v-6.48h.996v6.48h-.996zm.507-7.56a.707.707 0 01-.502-.199.636.636 0 01-.207-.477c0-.185.069-.344.207-.476a.707.707 0 01.502-.199.69.69 0 01.497.199.63.63 0 01.211.476.63.63 0 01-.211.477.69.69 0 01-.497.198zm4.945 7.694c-.607 0-1.131-.143-1.569-.43a2.802 2.802 0 01-1.013-1.185c-.236-.504-.354-1.079-.354-1.726 0-.658.121-1.239.363-1.742a2.862 2.862 0 011.021-1.186c.438-.287.95-.43 1.535-.43.456 0 .867.084 1.232.253.366.169.665.405.899.709.233.304.378.658.434 1.063h-.995a1.543 1.543 0 00-.507-.785c-.258-.23-.607-.346-1.046-.346a1.75 1.75 0 00-1.021.304c-.29.2-.516.482-.679.848-.16.363-.241.789-.241 1.278 0 .501.079.937.237 1.308.16.371.385.66.675.865.292.205.635.308 1.029.308.259 0 .494-.045.705-.135a1.448 1.448 0 00.848-.996h.995a2.305 2.305 0 01-.417 1.034 2.34 2.34 0 01-.874.726c-.36.177-.779.265-1.257.265zm6.721 0c-.625 0-1.163-.137-1.616-.413a2.778 2.778 0 01-1.042-1.164c-.242-.501-.363-1.083-.363-1.747 0-.664.121-1.249.363-1.755.245-.51.585-.906 1.021-1.19.439-.287.95-.43 1.535-.43.338 0 .671.056 1 .169.329.112.629.295.899.548.27.25.485.582.645.996.161.413.241.922.241 1.527v.422h-4.995v-.86h3.982c0-.366-.073-.693-.219-.98a1.658 1.658 0 00-.616-.679 1.725 1.725 0 00-.937-.249c-.396 0-.739.099-1.029.296a1.935 1.935 0 00-.662.759 2.227 2.227 0 00-.232 1.004v.574c0 .49.084.904.253 1.244.171.338.409.595.713.773.304.174.656.261 1.059.261.261 0 .497-.036.708-.11.214-.076.398-.188.553-.337.155-.152.274-.34.359-.566l.962.27a2.143 2.143 0 01-.511.861 2.484 2.484 0 01-.886.574 3.284 3.284 0 01-1.185.202zm10.762-.135l1.417-8.64h.844l-1.417 8.64h-.844zm-3.932-2.396l.135-.844h6.446l-.135.844h-6.446zm.894 2.396l1.418-8.64h.844l-1.418 8.64h-.844zm-.388-5.4l.135-.843h6.446l-.135.843h-6.446z" fill="#73777A"/><path d="M299.149 68.93v8.64h-1.565v-7.118h-.051l-2.02 1.291V70.31l2.147-1.38h1.489zm5.176 8.757c-.607 0-1.147-.104-1.62-.312a2.709 2.709 0 01-1.114-.869 2.252 2.252 0 01-.434-1.287h1.586c.014.234.091.438.232.612.141.172.328.305.561.401.234.096.495.143.785.143.309 0 .583-.053.822-.16.24-.11.427-.261.562-.456.135-.194.201-.417.198-.67a1.163 1.163 0 00-.203-.692 1.348 1.348 0 00-.599-.469c-.258-.112-.571-.168-.936-.168h-.764v-1.207h.764c.301 0 .564-.052.789-.156.227-.104.406-.25.535-.439.13-.19.193-.412.19-.662a1.153 1.153 0 00-.164-.637 1.11 1.11 0 00-.469-.426 1.534 1.534 0 00-.704-.152c-.264 0-.509.048-.734.143a1.33 1.33 0 00-.544.41 1.04 1.04 0 00-.22.624h-1.506c.011-.484.151-.908.418-1.274.27-.368.63-.655 1.08-.86.45-.209.955-.313 1.514-.313.577 0 1.078.108 1.502.325.428.214.758.502.992.865.233.363.35.763.35 1.202.003.487-.141.895-.431 1.224-.286.329-.663.544-1.13.645v.068c.607.084 1.073.309 1.396.675.327.362.488.814.485 1.354 0 .484-.137.917-.413 1.3-.273.379-.65.677-1.131.894-.478.216-1.026.325-1.645.325zm8.033-8.758v8.64h-1.565v-7.117h-.051l-2.021 1.291V70.31l2.148-1.38h1.489zm5.589 0v8.64h-1.565v-7.117h-.051l-2.02 1.291V70.31l2.147-1.38h1.489zm5.269 8.805c-.695 0-1.291-.176-1.789-.527-.495-.355-.876-.865-1.143-1.532-.265-.67-.397-1.475-.397-2.417.003-.942.137-1.744.401-2.405.267-.664.648-1.17 1.143-1.519.498-.349 1.093-.523 1.785-.523s1.287.174 1.784.523c.498.349.879.855 1.144 1.519.267.664.4 1.465.4 2.405 0 .945-.133 1.752-.4 2.421-.265.667-.646 1.176-1.144 1.528-.495.351-1.09.527-1.784.527zm0-1.32c.54 0 .966-.266 1.278-.798.315-.534.473-1.32.473-2.358 0-.686-.072-1.263-.216-1.73-.143-.467-.345-.818-.607-1.055a1.331 1.331 0 00-.928-.358c-.537 0-.962.267-1.274.801-.312.532-.47 1.312-.473 2.342-.003.689.066 1.268.207 1.738.143.47.346.824.607 1.063.262.236.573.354.933.354zm7.805 1.32c-.695 0-1.291-.176-1.789-.527-.495-.355-.876-.865-1.143-1.532-.264-.67-.397-1.475-.397-2.417.003-.942.137-1.744.401-2.405.267-.664.648-1.17 1.143-1.519.498-.349 1.093-.523 1.785-.523s1.287.174 1.784.523c.498.349.879.855 1.144 1.519.267.664.401 1.465.401 2.405 0 .945-.134 1.752-.401 2.421-.265.667-.646 1.176-1.144 1.528-.495.351-1.089.527-1.784.527zm0-1.32c.54 0 .966-.266 1.278-.798.315-.534.473-1.32.473-2.358 0-.686-.072-1.263-.215-1.73-.144-.467-.346-.818-.608-1.055a1.33 1.33 0 00-.928-.358c-.537 0-.962.267-1.274.801-.312.532-.47 1.312-.473 2.342-.002.689.066 1.268.207 1.738.144.47.346.824.608 1.063.261.236.572.354.932.354zm8.126-7.485v8.64h-1.565v-7.117h-.051l-2.021 1.291V70.31l2.147-1.38h1.49z" fill="#000"/><path d="M361.78 48.593v8.64h-1.046v-8.64h1.046zm2.958 4.742v3.898h-.995v-6.48h.962v1.013h.084c.152-.33.383-.594.692-.793.309-.203.709-.304 1.198-.304.439 0 .823.09 1.152.27.329.177.585.447.768.81.182.36.274.816.274 1.367v4.117h-.996v-4.05c0-.509-.132-.905-.396-1.19-.265-.286-.628-.43-1.089-.43-.318 0-.602.07-.852.207a1.478 1.478 0 00-.586.603c-.144.265-.216.585-.216.962zm11.021-2.582l-2.396 6.48h-1.013l-2.396-6.48h1.08l1.789 5.164h.067l1.789-5.164h1.08zm3.715 6.615c-.585 0-1.099-.139-1.54-.417a2.84 2.84 0 01-1.03-1.169c-.244-.5-.367-1.085-.367-1.755 0-.675.123-1.264.367-1.768a2.836 2.836 0 011.03-1.172c.441-.279.955-.418 1.54-.418.585 0 1.097.14 1.535.418.442.278.785.669 1.03 1.172.247.504.371 1.093.371 1.768 0 .67-.124 1.255-.371 1.755-.245.5-.588.89-1.03 1.169-.438.278-.95.417-1.535.417zm0-.894c.444 0 .81-.114 1.097-.342.286-.227.499-.527.637-.898a3.46 3.46 0 00.206-1.207c0-.433-.069-.837-.206-1.21a2.05 2.05 0 00-.637-.908c-.287-.23-.653-.346-1.097-.346-.445 0-.81.116-1.097.346-.287.23-.499.533-.637.907a3.472 3.472 0 00-.207 1.211c0 .433.069.835.207 1.207.138.37.35.67.637.898.287.228.652.342 1.097.342zm4.456.76v-6.48h.995v6.48h-.995zm.506-7.56a.709.709 0 01-.502-.199.636.636 0 01-.207-.477c0-.185.069-.344.207-.476a.709.709 0 01.502-.199c.194 0 .36.066.498.199.14.132.211.29.211.476a.633.633 0 01-.211.477.694.694 0 01-.498.198zm4.945 7.694c-.607 0-1.13-.143-1.569-.43a2.8 2.8 0 01-1.012-1.185c-.237-.504-.355-1.079-.355-1.726 0-.658.121-1.239.363-1.742a2.869 2.869 0 011.021-1.186c.439-.287.951-.43 1.536-.43.455 0 .866.084 1.231.253.366.169.666.405.899.709.233.304.378.658.435 1.063h-.996a1.547 1.547 0 00-.506-.785c-.259-.23-.608-.346-1.047-.346a1.75 1.75 0 00-1.021.304c-.289.2-.516.482-.679.848-.16.363-.24.789-.24 1.278 0 .501.079.937.236 1.308.16.371.385.66.675.865.293.205.636.308 1.029.308.259 0 .494-.045.705-.135.211-.09.39-.22.536-.388.146-.169.25-.371.312-.608h.996a2.318 2.318 0 01-.418 1.034 2.337 2.337 0 01-.873.726c-.36.177-.779.265-1.258.265zm6.721 0c-.624 0-1.163-.137-1.616-.413a2.778 2.778 0 01-1.042-1.164c-.242-.501-.363-1.083-.363-1.747 0-.664.121-1.249.363-1.755.245-.51.585-.906 1.021-1.19.439-.287.951-.43 1.536-.43.337 0 .671.056 1 .169.329.112.628.295.898.548.27.25.485.582.646.996.16.413.24.922.24 1.527v.422h-4.995v-.86h3.983c0-.366-.074-.693-.22-.98a1.651 1.651 0 00-.616-.679 1.722 1.722 0 00-.936-.249c-.397 0-.74.099-1.03.296a1.943 1.943 0 00-.662.759 2.227 2.227 0 00-.232 1.004v.574c0 .49.084.904.253 1.244.172.338.409.595.713.773.304.174.657.261 1.059.261.262 0 .498-.036.709-.11.213-.076.398-.188.552-.337.155-.152.275-.34.359-.566l.962.27a2.131 2.131 0 01-.511.861 2.484 2.484 0 01-.886.574 3.28 3.28 0 01-1.185.202zm9.446.017c-.411 0-.783-.077-1.118-.232a1.91 1.91 0 01-.797-.679c-.197-.298-.296-.658-.296-1.08 0-.371.073-.672.22-.903.146-.233.341-.416.586-.548.245-.132.515-.23.81-.296.298-.067.598-.12.899-.16.393-.05.713-.089.957-.114.248-.028.428-.074.54-.139.116-.065.173-.177.173-.337v-.034c0-.416-.114-.74-.341-.97-.225-.231-.567-.346-1.026-.346-.475 0-.848.104-1.118.312-.27.208-.459.43-.569.666l-.945-.337c.169-.394.394-.7.675-.92.284-.222.593-.377.928-.464.337-.09.669-.135.996-.135.208 0 .447.025.717.076.273.048.536.148.789.3.256.151.468.38.637.687.168.307.253.717.253 1.232v4.27h-.996v-.878h-.05c-.068.14-.18.291-.338.451-.157.16-.367.297-.628.41-.262.112-.581.168-.958.168zm.152-.894c.393 0 .725-.078.995-.232a1.58 1.58 0 00.827-1.371v-.911c-.042.05-.135.097-.278.139a4.72 4.72 0 01-.49.105 22.014 22.014 0 01-.953.127 3.802 3.802 0 00-.726.164 1.253 1.253 0 00-.54.334c-.135.146-.202.346-.202.599 0 .346.128.607.384.784.258.175.586.262.983.262zm4.635.742v-6.48h.962v1.013h.084c.135-.346.353-.615.654-.806.301-.194.663-.291 1.085-.291.427 0 .783.097 1.067.291.287.191.51.46.671.806h.067c.166-.335.415-.6.747-.797.332-.2.73-.3 1.194-.3.579 0 1.053.181 1.422.544.368.36.552.921.552 1.684v4.336h-.995v-4.336c0-.479-.131-.82-.393-1.026a1.45 1.45 0 00-.924-.308c-.455 0-.808.138-1.059.414-.25.273-.375.619-.375 1.038v4.218h-1.013v-4.438c0-.368-.119-.665-.358-.89-.239-.228-.547-.342-.924-.342-.259 0-.501.07-.726.207a1.564 1.564 0 00-.54.574 1.694 1.694 0 00-.202.84v4.05h-.996zm12.958.135c-.585 0-1.098-.139-1.54-.417a2.838 2.838 0 01-1.029-1.169c-.245-.5-.367-1.085-.367-1.755 0-.675.122-1.264.367-1.768a2.833 2.833 0 011.029-1.172c.442-.279.955-.418 1.54-.418.585 0 1.097.14 1.536.418.441.278.784.669 1.029 1.172.248.504.371 1.093.371 1.768 0 .67-.123 1.255-.371 1.755-.245.5-.588.89-1.029 1.169-.439.278-.951.417-1.536.417zm0-.894c.445 0 .81-.114 1.097-.342.287-.227.499-.527.637-.898.138-.372.207-.774.207-1.207 0-.433-.069-.837-.207-1.21a2.041 2.041 0 00-.637-.908c-.287-.23-.652-.346-1.097-.346-.444 0-.81.116-1.097.346-.287.23-.499.533-.637.907a3.472 3.472 0 00-.207 1.211c0 .433.069.835.207 1.207.138.37.35.67.637.898.287.228.653.342 1.097.342zm8.54-1.89v-3.83h.996v6.48h-.996v-1.098h-.067c-.152.33-.389.61-.709.84-.321.228-.726.342-1.215.342-.405 0-.765-.089-1.08-.266a1.861 1.861 0 01-.743-.81c-.18-.363-.27-.82-.27-1.371v-4.118h.996v4.05c0 .473.132.85.396 1.131.268.281.608.422 1.021.422.248 0 .5-.063.756-.19.258-.127.475-.32.649-.582.177-.262.266-.595.266-1zm3.815-1.249v3.898h-.996v-6.48h.962v1.013h.084c.152-.33.383-.594.692-.793.31-.203.709-.304 1.198-.304.439 0 .823.09 1.152.27.329.177.585.447.768.81.183.36.274.816.274 1.367v4.117h-.995v-4.05c0-.509-.133-.905-.397-1.19-.264-.286-.627-.43-1.088-.43-.318 0-.602.07-.853.207a1.478 1.478 0 00-.586.603c-.143.265-.215.585-.215.962zm8.772-2.582v.844h-3.358v-.844h3.358zm-2.38-1.552h.996v6.176c0 .281.041.492.122.633.085.138.192.23.321.278.132.045.271.068.418.068.109 0 .199-.006.27-.017l.168-.034.203.895c-.068.025-.162.05-.283.076a2.082 2.082 0 01-.46.042c-.281 0-.556-.06-.826-.182a1.638 1.638 0 01-.667-.552c-.174-.248-.262-.56-.262-.937v-6.446z" fill="#73777A"/><path d="M363.97 68.93v8.64h-1.566v-7.118h-.05l-2.021 1.291V70.31l2.147-1.38h1.49zm5.175 8.757c-.607 0-1.147-.104-1.62-.312a2.706 2.706 0 01-1.113-.869 2.253 2.253 0 01-.435-1.287h1.586c.014.234.092.438.232.612.141.172.328.305.561.401.234.096.495.143.785.143.31 0 .584-.053.823-.16.239-.11.426-.261.561-.456.135-.194.201-.417.198-.67a1.17 1.17 0 00-.202-.692 1.359 1.359 0 00-.599-.469c-.259-.112-.571-.168-.937-.168h-.764v-1.207h.764c.301 0 .564-.052.789-.156.228-.104.406-.25.536-.439.129-.19.192-.412.19-.662a1.154 1.154 0 00-.165-.637 1.114 1.114 0 00-.468-.426 1.542 1.542 0 00-.705-.152c-.264 0-.509.048-.734.143a1.337 1.337 0 00-.544.41 1.033 1.033 0 00-.219.624h-1.507c.012-.484.151-.908.418-1.274.27-.368.63-.655 1.08-.86.45-.209.955-.313 1.515-.313.576 0 1.077.108 1.502.325.427.214.758.502.991.865.233.363.35.763.35 1.202.003.487-.14.895-.43 1.224-.287.329-.664.544-1.131.645v.068c.608.084 1.073.309 1.397.675.326.362.488.814.485 1.354 0 .484-.138.917-.414 1.3-.273.379-.649.677-1.13.894-.478.216-1.027.325-1.646.325zm8.033-8.758v8.64h-1.565v-7.117h-.05l-2.021 1.291V70.31l2.147-1.38h1.489zm5.59 0v8.64h-1.566v-7.117h-.05l-2.021 1.291V70.31l2.147-1.38h1.49zm5.268 8.805c-.695 0-1.291-.176-1.789-.527-.495-.355-.876-.865-1.143-1.532-.264-.67-.397-1.475-.397-2.417.003-.942.137-1.744.401-2.405.267-.664.649-1.17 1.144-1.519.497-.349 1.092-.523 1.784-.523s1.287.174 1.785.523c.497.349.879.855 1.143 1.519.267.664.401 1.465.401 2.405 0 .945-.134 1.752-.401 2.421-.264.667-.646 1.176-1.143 1.528-.495.351-1.09.527-1.785.527zm0-1.32c.54 0 .966-.266 1.278-.798.315-.534.473-1.32.473-2.358 0-.686-.072-1.263-.215-1.73-.144-.467-.346-.818-.608-1.055a1.33 1.33 0 00-.928-.358c-.537 0-.962.267-1.274.801-.312.532-.47 1.312-.472 2.342-.003.689.066 1.268.206 1.738.144.47.346.824.608 1.063.261.236.572.354.932.354zm7.805 1.32c-.694 0-1.291-.176-1.789-.527-.495-.355-.876-.865-1.143-1.532-.264-.67-.396-1.475-.396-2.417.002-.942.136-1.744.4-2.405.268-.664.649-1.17 1.144-1.519.498-.349 1.092-.523 1.784-.523s1.287.174 1.785.523c.498.349.879.855 1.143 1.519.267.664.401 1.465.401 2.405 0 .945-.134 1.752-.401 2.421-.264.667-.645 1.176-1.143 1.528-.495.351-1.09.527-1.785.527zm0-1.32c.54 0 .966-.266 1.279-.798.315-.534.472-1.32.472-2.358 0-.686-.072-1.263-.215-1.73-.144-.467-.346-.818-.608-1.055a1.33 1.33 0 00-.928-.358c-.537 0-.962.267-1.274.801-.312.532-.47 1.312-.472 2.342-.003.689.066 1.268.206 1.738.144.47.346.824.608 1.063.261.236.572.354.932.354zm8.126-7.485v8.64h-1.565v-7.117h-.051l-2.021 1.291V70.31l2.148-1.38h1.489z" fill="#000"/><path d="M461.602 48.593v8.64h-1.046v-8.64h1.046zm2.959 4.742v3.898h-.996v-6.48h.962v1.013h.084c.152-.33.383-.594.692-.793.31-.203.709-.304 1.198-.304.439 0 .823.09 1.152.27.329.177.585.447.768.81.183.36.274.816.274 1.367v4.117h-.996v-4.05c0-.509-.132-.905-.396-1.19-.264-.286-.627-.43-1.089-.43a1.74 1.74 0 00-.852.207 1.478 1.478 0 00-.586.603c-.144.265-.215.585-.215.962zm11.02-2.582l-2.396 6.48h-1.013l-2.396-6.48h1.08l1.789 5.164h.067l1.789-5.164h1.08zm3.715 6.615c-.585 0-1.098-.139-1.54-.417a2.83 2.83 0 01-1.029-1.169c-.245-.5-.367-1.085-.367-1.755 0-.675.122-1.264.367-1.768.247-.503.59-.894 1.029-1.172.442-.279.955-.418 1.54-.418.585 0 1.097.14 1.536.418.441.278.784.669 1.029 1.172.247.504.371 1.093.371 1.768 0 .67-.124 1.255-.371 1.755-.245.5-.588.89-1.029 1.169-.439.278-.951.417-1.536.417zm0-.894c.444 0 .81-.114 1.097-.342.287-.227.499-.527.637-.898.138-.372.207-.774.207-1.207 0-.433-.069-.837-.207-1.21a2.041 2.041 0 00-.637-.908c-.287-.23-.653-.346-1.097-.346-.444 0-.81.116-1.097.346-.287.23-.499.533-.637.907a3.472 3.472 0 00-.207 1.211c0 .433.069.835.207 1.207.138.37.35.67.637.898.287.228.653.342 1.097.342zm4.456.76v-6.48h.996v6.48h-.996zm.506-7.56a.709.709 0 01-.502-.199.636.636 0 01-.207-.477c0-.185.069-.344.207-.476a.709.709 0 01.502-.199c.194 0 .36.066.498.199a.63.63 0 01.211.476.63.63 0 01-.211.477.694.694 0 01-.498.198zm4.946 7.694c-.608 0-1.131-.143-1.57-.43a2.807 2.807 0 01-1.012-1.185c-.236-.504-.355-1.079-.355-1.726 0-.658.121-1.239.363-1.742a2.869 2.869 0 011.021-1.186c.439-.287.951-.43 1.536-.43.455 0 .866.084 1.232.253.365.169.665.405.898.709.234.304.379.658.435 1.063h-.996a1.54 1.54 0 00-.506-.785c-.259-.23-.608-.346-1.046-.346-.388 0-.729.102-1.021.304-.29.2-.516.482-.679.848-.161.363-.241.789-.241 1.278 0 .501.079.937.236 1.308.161.371.386.66.675.865.293.205.636.308 1.03.308.258 0 .493-.045.704-.135.211-.09.39-.22.536-.388.146-.169.25-.371.312-.608h.996a2.306 2.306 0 01-1.291 1.76c-.36.177-.779.265-1.257.265zm6.72 0c-.624 0-1.163-.137-1.616-.413a2.778 2.778 0 01-1.042-1.164c-.241-.501-.362-1.083-.362-1.747 0-.664.121-1.249.362-1.755.245-.51.585-.906 1.021-1.19.439-.287.951-.43 1.536-.43.337 0 .671.056 1 .169.329.112.628.295.898.548.27.25.486.582.646.996.16.413.24.922.24 1.527v.422h-4.995v-.86h3.983c0-.366-.073-.693-.219-.98a1.658 1.658 0 00-.616-.679 1.727 1.727 0 00-.937-.249c-.397 0-.74.099-1.029.296a1.946 1.946 0 00-.663.759 2.24 2.24 0 00-.232 1.004v.574c0 .49.085.904.253 1.244.172.338.41.595.713.773.304.174.657.261 1.059.261.262 0 .498-.036.709-.11.214-.076.398-.188.553-.337.154-.152.274-.34.358-.566l.962.27a2.13 2.13 0 01-.51.861 2.493 2.493 0 01-.886.574 3.29 3.29 0 01-1.186.202zm9.986 0c-.54 0-1.017-.136-1.43-.409-.413-.276-.737-.664-.97-1.164-.234-.504-.351-1.099-.351-1.785 0-.68.117-1.271.351-1.772.233-.5.558-.887.974-1.16.416-.273.897-.409 1.443-.409.422 0 .755.07 1 .21.247.139.436.296.565.473.132.175.235.318.308.43h.085v-3.189h.995v8.64h-.962v-.995h-.118a6.336 6.336 0 01-.312.447 1.858 1.858 0 01-.578.477c-.25.138-.584.206-1 .206zm.135-.894c.399 0 .737-.104 1.013-.312.275-.211.485-.502.628-.873.144-.375.215-.806.215-1.296 0-.483-.07-.907-.211-1.27a1.84 1.84 0 00-.624-.852c-.276-.205-.616-.308-1.021-.308-.422 0-.773.109-1.055.325a1.942 1.942 0 00-.628.873 3.467 3.467 0 00-.207 1.232c0 .462.07.88.211 1.258.143.374.354.672.633.894.281.22.63.329 1.046.329zm6.704.911a2.63 2.63 0 01-1.118-.232 1.92 1.92 0 01-.798-.679c-.196-.298-.295-.658-.295-1.08 0-.371.073-.672.22-.903.146-.233.341-.416.586-.548.245-.132.515-.23.81-.296.298-.067.598-.12.899-.16.393-.05.713-.089.957-.114.248-.028.428-.074.54-.139.116-.065.173-.177.173-.337v-.034c0-.416-.114-.74-.342-.97-.225-.231-.566-.346-1.025-.346-.475 0-.848.104-1.118.312-.27.208-.46.43-.569.666l-.945-.337c.169-.394.394-.7.675-.92.284-.222.593-.377.928-.464.337-.09.669-.135.996-.135.208 0 .447.025.717.076.273.048.536.148.789.3.256.151.468.38.637.687.168.307.253.717.253 1.232v4.27h-.996v-.878h-.05c-.068.14-.18.291-.338.451a1.94 1.94 0 01-.629.41c-.261.112-.58.168-.957.168zm.152-.894c.393 0 .725-.078.995-.232a1.58 1.58 0 00.827-1.371v-.911c-.042.05-.135.097-.278.139a4.72 4.72 0 01-.49.105 22.014 22.014 0 01-.953.127 3.802 3.802 0 00-.726.164 1.253 1.253 0 00-.54.334c-.135.146-.202.346-.202.599 0 .346.128.607.384.784.258.175.586.262.983.262zm7.453-5.738v.844h-3.358v-.844h3.358zm-2.379-1.552h.995v6.176c0 .281.041.492.123.633.084.138.191.23.32.278.133.045.272.068.418.068.11 0 .2-.006.27-.017l.169-.034.202.895c-.067.025-.161.05-.282.076a2.088 2.088 0 01-.46.042c-.281 0-.557-.06-.827-.182a1.65 1.65 0 01-.667-.552c-.174-.248-.261-.56-.261-.937v-6.446zm6.524 8.167c-.624 0-1.163-.137-1.616-.413a2.778 2.778 0 01-1.042-1.164c-.242-.501-.362-1.083-.362-1.747 0-.664.12-1.249.362-1.755.245-.51.585-.906 1.021-1.19.439-.287.951-.43 1.536-.43.337 0 .671.056 1 .169.329.112.628.295.898.548.27.25.486.582.646.996.16.413.24.922.24 1.527v.422h-4.995v-.86h3.983c0-.366-.073-.693-.22-.98a1.644 1.644 0 00-.616-.679 1.722 1.722 0 00-.936-.249c-.397 0-.74.099-1.029.296a1.946 1.946 0 00-.663.759 2.227 2.227 0 00-.232 1.004v.574c0 .49.085.904.253 1.244.172.338.409.595.713.773.304.174.657.261 1.059.261.262 0 .498-.036.709-.11.214-.076.398-.188.553-.337.154-.152.274-.34.358-.566l.962.27a2.13 2.13 0 01-.51.861 2.493 2.493 0 01-.886.574 3.29 3.29 0 01-1.186.202z" fill="#73777A"/><path d="M463.792 68.93v8.64h-1.565v-7.118h-.051l-2.021 1.291V70.31l2.148-1.38h1.489zm5.176 8.757c-.608 0-1.148-.104-1.62-.312a2.709 2.709 0 01-1.114-.869 2.253 2.253 0 01-.435-1.287h1.587c.014.234.091.438.232.612.14.172.327.305.561.401.233.096.495.143.784.143.31 0 .584-.053.823-.16.239-.11.426-.261.561-.456.135-.194.201-.417.198-.67a1.162 1.162 0 00-.202-.692 1.359 1.359 0 00-.599-.469c-.259-.112-.571-.168-.937-.168h-.763v-1.207h.763c.301 0 .564-.052.789-.156.228-.104.407-.25.536-.439.129-.19.193-.412.19-.662a1.146 1.146 0 00-.165-.637 1.102 1.102 0 00-.468-.426 1.542 1.542 0 00-.705-.152c-.264 0-.509.048-.734.143a1.337 1.337 0 00-.544.41 1.033 1.033 0 00-.219.624h-1.506a2.19 2.19 0 01.417-1.274c.27-.368.63-.655 1.08-.86.45-.209.955-.313 1.515-.313.576 0 1.077.108 1.502.325.427.214.758.502.991.865.234.363.35.763.35 1.202.003.487-.14.895-.43 1.224-.287.329-.664.544-1.131.645v.068c.608.084 1.073.309 1.397.675.326.362.488.814.485 1.354 0 .484-.138.917-.413 1.3-.273.379-.65.677-1.131.894-.478.216-1.027.325-1.645.325zm8.033-8.758v8.64h-1.566v-7.117h-.05l-2.021 1.291V70.31l2.147-1.38h1.49zm5.589 0v8.64h-1.565v-7.117h-.051l-2.021 1.291V70.31l2.148-1.38h1.489zm5.268 8.805c-.694 0-1.291-.176-1.788-.527-.495-.355-.876-.865-1.144-1.532-.264-.67-.396-1.475-.396-2.417.003-.942.136-1.744.401-2.405.267-.664.648-1.17 1.143-1.519.498-.349 1.093-.523 1.784-.523.692 0 1.287.174 1.785.523.498.349.879.855 1.143 1.519.267.664.401 1.465.401 2.405 0 .945-.134 1.752-.401 2.421-.264.667-.645 1.176-1.143 1.528-.495.351-1.09.527-1.785.527zm0-1.32c.54 0 .966-.266 1.279-.798.315-.534.472-1.32.472-2.358 0-.686-.072-1.263-.215-1.73-.143-.467-.346-.818-.607-1.055a1.332 1.332 0 00-.929-.358c-.537 0-.962.267-1.274.801-.312.532-.469 1.312-.472 2.342-.003.689.066 1.268.207 1.738.143.47.345.824.607 1.063.262.236.572.354.932.354zm7.806 1.32c-.695 0-1.291-.176-1.789-.527-.495-.355-.876-.865-1.144-1.532-.264-.67-.396-1.475-.396-2.417.003-.942.136-1.744.401-2.405.267-.664.648-1.17 1.143-1.519.498-.349 1.093-.523 1.785-.523.691 0 1.286.174 1.784.523.498.349.879.855 1.143 1.519.268.664.401 1.465.401 2.405 0 .945-.133 1.752-.401 2.421-.264.667-.645 1.176-1.143 1.528-.495.351-1.09.527-1.784.527zm0-1.32c.54 0 .966-.266 1.278-.798.315-.534.472-1.32.472-2.358 0-.686-.071-1.263-.215-1.73-.143-.467-.346-.818-.607-1.055a1.331 1.331 0 00-.928-.358c-.538 0-.962.267-1.275.801-.312.532-.469 1.312-.472 2.342-.003.689.066 1.268.207 1.738.143.47.346.824.607 1.063.262.236.573.354.933.354zm8.125-7.485v8.64h-1.565v-7.117h-.051l-2.02 1.291V70.31l2.147-1.38h1.489z" fill="#000"/><path d="M298.58 110.577h-2.667v-8.64h2.785c.838 0 1.555.173 2.151.519a3.396 3.396 0 011.372 1.481c.317.641.476 1.409.476 2.303 0 .9-.16 1.675-.481 2.325a3.422 3.422 0 01-1.4 1.493c-.613.346-1.359.519-2.236.519zm-1.62-.928h1.552c.715 0 1.307-.138 1.776-.413.47-.276.82-.668 1.051-1.177.23-.51.346-1.116.346-1.819 0-.697-.114-1.298-.342-1.801a2.523 2.523 0 00-1.021-1.165c-.453-.272-1.017-.409-1.692-.409h-1.67v6.784zm10.074 1.063c-.624 0-1.163-.138-1.616-.413a2.781 2.781 0 01-1.042-1.165c-.242-.5-.362-1.082-.362-1.746 0-.664.12-1.249.362-1.755a2.865 2.865 0 011.021-1.19c.439-.287.951-.43 1.536-.43.337 0 .671.056 1 .168.329.113.628.296.898.549.27.25.486.582.646.996.16.413.24.922.24 1.527v.422h-4.995v-.861h3.983c0-.366-.073-.692-.22-.979a1.644 1.644 0 00-.616-.679 1.722 1.722 0 00-.936-.249c-.397 0-.74.099-1.029.295a1.948 1.948 0 00-.663.76 2.24 2.24 0 00-.232 1.004v.574c0 .489.085.904.253 1.244.172.338.41.595.713.772.304.175.657.262 1.059.262.262 0 .498-.037.709-.11a1.52 1.52 0 00.553-.337 1.54 1.54 0 00.358-.566l.962.27a2.13 2.13 0 01-.51.861 2.492 2.492 0 01-.886.574 3.29 3.29 0 01-1.186.202zm8.788-5.164l-.894.253a1.708 1.708 0 00-.249-.434 1.21 1.21 0 00-.439-.354c-.186-.093-.423-.14-.713-.14-.397 0-.727.092-.992.275-.261.18-.392.409-.392.687 0 .248.09.443.27.587.18.143.461.263.844.358l.962.236c.579.141 1.011.356 1.295.646.284.287.426.657.426 1.11 0 .371-.107.703-.321.995a2.123 2.123 0 01-.886.692c-.379.169-.821.253-1.324.253-.661 0-1.208-.143-1.641-.43-.433-.287-.708-.706-.823-1.257l.945-.237c.09.349.26.611.51.785.254.174.584.262.992.262.464 0 .832-.099 1.105-.296.276-.199.414-.438.414-.717a.752.752 0 00-.237-.565c-.157-.155-.399-.27-.725-.346l-1.08-.253c-.594-.141-1.03-.359-1.308-.654-.276-.298-.414-.671-.414-1.118 0-.366.103-.689.308-.97.209-.282.491-.503.848-.663.36-.16.768-.24 1.224-.24.641 0 1.145.14 1.51.422.369.281.63.652.785 1.113zm4.249 5.164c-.607 0-1.13-.143-1.569-.43a2.808 2.808 0 01-1.013-1.186c-.236-.503-.354-1.078-.354-1.725 0-.658.121-1.239.363-1.742a2.866 2.866 0 011.021-1.186c.439-.287.95-.43 1.535-.43a2.9 2.9 0 011.232.253c.366.169.665.405.899.709.233.303.378.658.434 1.063h-.995a1.546 1.546 0 00-.506-.785c-.259-.231-.608-.346-1.047-.346-.388 0-.728.101-1.021.304-.289.2-.516.482-.679.848-.16.363-.24.789-.24 1.278 0 .501.078.937.236 1.308.16.371.385.659.675.865.292.205.636.308 1.029.308.259 0 .494-.045.705-.135.211-.09.389-.22.536-.388.146-.169.25-.372.312-.608h.995a2.306 2.306 0 01-.417 1.034c-.22.303-.511.545-.874.725-.36.178-.779.266-1.257.266zm4.004-.135v-6.48h.962v.979h.067c.118-.321.332-.581.642-.781a1.891 1.891 0 011.046-.299c.073 0 .164.001.274.004.11.003.193.007.249.013v1.012a3.281 3.281 0 00-.232-.038 2.36 2.36 0 00-.376-.029 1.76 1.76 0 00-.843.198 1.494 1.494 0 00-.583.54 1.46 1.46 0 00-.21.78v4.101h-.996zm4.42 0v-6.48h.996v6.48h-.996zm.506-7.56a.71.71 0 01-.502-.198.639.639 0 01-.206-.477.64.64 0 01.206-.477.71.71 0 01.502-.198c.194 0 .36.066.498.198a.631.631 0 01.211.477.63.63 0 01-.211.477.695.695 0 01-.498.198zm2.313 9.99v-8.91h.962v1.029h.118a9.74 9.74 0 01.304-.43c.132-.177.321-.335.565-.472.248-.141.583-.211 1.005-.211.545 0 1.026.136 1.442.409.417.273.741.659.975 1.16.233.501.35 1.091.35 1.772 0 .686-.117 1.281-.35 1.785-.234.5-.557.888-.97 1.164a2.54 2.54 0 01-1.431.409c-.416 0-.749-.069-.999-.207a1.838 1.838 0 01-.578-.476 6.43 6.43 0 01-.313-.447h-.084v3.425h-.996zm.979-5.67c0 .489.072.921.215 1.295.144.372.353.663.629.874.276.208.613.312 1.012.312.417 0 .764-.11 1.042-.329.282-.222.493-.521.633-.895.144-.377.215-.796.215-1.257 0-.456-.07-.866-.211-1.232a1.901 1.901 0 00-.628-.873c-.279-.217-.629-.325-1.051-.325-.405 0-.745.103-1.021.308a1.86 1.86 0 00-.624.852c-.141.363-.211.786-.211 1.27zm9.079-3.24v.844h-3.358v-.844h3.358zm-2.379-1.552h.995v6.176c0 .281.041.492.123.633.084.138.191.23.32.278.132.045.272.068.418.068.11 0 .2-.006.27-.017l.169-.034.202.894a1.881 1.881 0 01-.283.076 2.079 2.079 0 01-.459.043c-.282 0-.557-.061-.827-.182a1.635 1.635 0 01-.667-.553c-.174-.247-.261-.559-.261-.936v-6.446zm3.877 8.032v-6.48h.995v6.48h-.995zm.506-7.56a.707.707 0 01-.502-.198.636.636 0 01-.207-.477c0-.186.069-.344.207-.477a.707.707 0 01.502-.198c.194 0 .36.066.498.198.14.133.211.291.211.477a.633.633 0 01-.211.477.695.695 0 01-.498.198zm4.945 7.695c-.585 0-1.098-.139-1.54-.418a2.839 2.839 0 01-1.029-1.168c-.245-.501-.367-1.086-.367-1.755 0-.675.122-1.264.367-1.768a2.847 2.847 0 011.029-1.173c.442-.278.955-.417 1.54-.417.585 0 1.097.139 1.536.417.442.279.785.67 1.029 1.173.248.504.372 1.093.372 1.768 0 .669-.124 1.254-.372 1.755-.244.501-.587.89-1.029 1.168-.439.279-.951.418-1.536.418zm0-.894c.445 0 .81-.114 1.097-.342.287-.228.499-.527.637-.899.138-.371.207-.773.207-1.206 0-.433-.069-.837-.207-1.211a2.043 2.043 0 00-.637-.907c-.287-.231-.652-.346-1.097-.346-.444 0-.81.115-1.097.346a2.051 2.051 0 00-.637.907 3.496 3.496 0 00-.206 1.211c0 .433.069.835.206 1.206.138.372.351.671.637.899.287.228.653.342 1.097.342zm5.452-3.139v3.898h-.996v-6.48h.962v1.013h.085c.152-.329.382-.594.692-.794.309-.202.708-.303 1.198-.303.438 0 .822.09 1.151.27.33.177.585.447.768.81.183.36.274.815.274 1.367v4.117h-.995v-4.05c0-.509-.132-.906-.397-1.19-.264-.286-.627-.43-1.088-.43-.318 0-.602.069-.852.207a1.484 1.484 0 00-.587.603c-.143.264-.215.585-.215.962z" fill="#73777A"/><path d="M300.415 124.648a1.148 1.148 0 00-.498-.86c-.29-.206-.666-.308-1.131-.308a2.16 2.16 0 00-.839.147 1.245 1.245 0 00-.536.401.974.974 0 00-.19.578c0 .18.041.336.123.468.084.132.198.245.341.338.144.09.303.166.477.228.174.061.35.114.527.156l.81.202a5.6 5.6 0 01.941.308c.304.13.575.293.814.49.242.196.434.434.574.713.141.278.211.604.211.978 0 .507-.129.952-.388 1.338-.259.382-.633.682-1.122.898-.487.214-1.076.321-1.768.321-.672 0-1.256-.104-1.751-.312a2.608 2.608 0 01-1.156-.912c-.275-.399-.424-.886-.447-1.459h1.54c.023.301.115.551.278.751.164.199.376.348.638.447.264.098.559.148.885.148.341 0 .639-.051.895-.152.259-.104.461-.248.607-.431.147-.185.221-.402.224-.649a.828.828 0 00-.198-.557 1.465 1.465 0 00-.545-.372c-.23-.101-.5-.191-.81-.27l-.983-.253c-.711-.182-1.274-.459-1.687-.831-.411-.374-.616-.87-.616-1.489 0-.509.138-.955.413-1.337.279-.383.657-.68 1.135-.89.478-.214 1.02-.321 1.625-.321.613 0 1.15.107 1.611.321.464.21.828.504 1.093.881.264.374.401.805.409 1.291h-1.506zm3.782 8.695c-.208 0-.4-.017-.578-.051a2.091 2.091 0 01-.417-.109l.354-1.19c.222.065.421.096.595.093a.731.731 0 00.46-.165c.135-.104.249-.278.342-.523l.13-.35-2.35-6.615h1.621l1.493 4.894h.067l1.498-4.894h1.624l-2.594 7.265a2.911 2.911 0 01-.481.882c-.2.247-.445.435-.734.565-.287.132-.63.198-1.03.198zm7.305-6.227v3.797h-1.528v-6.48h1.46v1.101h.076c.149-.363.387-.651.713-.865.329-.213.735-.32 1.219-.32.447 0 .837.095 1.169.287.335.191.593.468.776.831.186.362.277.803.274 1.32v4.126h-1.527v-3.89c0-.433-.112-.772-.337-1.016-.223-.245-.531-.367-.924-.367-.268 0-.505.059-.713.177a1.217 1.217 0 00-.485.502c-.116.219-.173.485-.173.797zm8.42 3.924c-.647 0-1.203-.142-1.667-.426a2.854 2.854 0 01-1.067-1.177c-.248-.504-.371-1.083-.371-1.739 0-.658.126-1.239.379-1.742.253-.506.611-.9 1.072-1.181.464-.284 1.012-.426 1.645-.426.526 0 .992.097 1.397.291.407.191.732.462.974.814.242.349.38.757.414 1.223h-1.46a1.395 1.395 0 00-.422-.78c-.219-.211-.513-.316-.882-.316-.312 0-.586.084-.822.253a1.616 1.616 0 00-.553.717c-.129.312-.194.686-.194 1.122 0 .442.065.821.194 1.139.129.315.311.558.544.73.236.169.513.253.831.253.225 0 .426-.042.604-.126.18-.088.33-.213.451-.376s.204-.361.249-.595h1.46a2.55 2.55 0 01-.405 1.219 2.396 2.396 0 01-.954.827c-.402.197-.875.296-1.417.296zm5.438-3.924v3.797h-1.527v-8.64h1.493v3.261h.076a1.88 1.88 0 01.705-.865c.32-.213.728-.32 1.223-.32.45 0 .843.094 1.177.282.335.189.594.464.776.827.186.363.279.806.279 1.329v4.126h-1.527v-3.89c0-.436-.113-.774-.338-1.016-.222-.245-.534-.367-.936-.367-.27 0-.512.059-.726.177a1.235 1.235 0 00-.498.502 1.661 1.661 0 00-.177.797zm5.64 3.797v-6.48h1.481v1.08h.067a1.618 1.618 0 011.599-1.173c.084 0 .179.004.283.013.107.005.195.015.266.029v1.405a1.675 1.675 0 00-.308-.059 2.946 2.946 0 00-.401-.029c-.279 0-.529.06-.751.181a1.32 1.32 0 00-.519.494c-.127.211-.19.454-.19.73v3.809H331zm7.151.127c-.633 0-1.181-.14-1.645-.418a2.833 2.833 0 01-1.08-1.169c-.253-.5-.38-1.085-.38-1.755 0-.669.127-1.255.38-1.759a2.838 2.838 0 011.08-1.173c.464-.278 1.012-.417 1.645-.417s1.181.139 1.645.417c.464.279.823.67 1.076 1.173.256.504.384 1.09.384 1.759 0 .67-.128 1.255-.384 1.755a2.805 2.805 0 01-1.076 1.169c-.464.278-1.012.418-1.645.418zm.009-1.224c.343 0 .63-.094.86-.282.231-.192.402-.448.515-.768a3.16 3.16 0 00.173-1.072c0-.396-.058-.755-.173-1.076a1.71 1.71 0 00-.515-.772c-.23-.191-.517-.287-.86-.287-.352 0-.645.096-.878.287a1.733 1.733 0 00-.519.772c-.112.321-.169.68-.169 1.076 0 .394.057.751.169 1.072.115.32.288.576.519.768.233.188.526.282.878.282zm5.801-2.7v3.797h-1.527v-6.48h1.459v1.101h.076c.149-.363.387-.651.713-.865.329-.213.736-.32 1.219-.32.448 0 .837.095 1.169.287.335.191.593.468.776.831.186.362.277.803.274 1.32v4.126h-1.527v-3.89c0-.433-.112-.772-.337-1.016-.222-.245-.53-.367-.924-.367a1.42 1.42 0 00-.713.177 1.223 1.223 0 00-.485.502c-.116.219-.173.485-.173.797zm5.593 3.797v-6.48h1.527v6.48h-1.527zm.768-7.4a.89.89 0 01-.624-.24.774.774 0 01-.262-.587c0-.23.087-.426.262-.586a.881.881 0 01.624-.245c.245 0 .453.082.624.245.175.16.262.356.262.586a.774.774 0 01-.262.587.88.88 0 01-.624.24zm2.127 7.4v-.97l3.341-4.189v-.055h-3.232v-1.266h5.101v1.042l-3.181 4.118v.054h3.291v1.266h-5.32zm8.501.131c-.411 0-.781-.073-1.11-.22a1.807 1.807 0 01-.776-.658c-.188-.289-.283-.647-.283-1.071 0-.366.068-.668.203-.907s.319-.431.553-.574c.233-.143.496-.252.788-.325.296-.076.601-.131.916-.164.38-.04.688-.075.924-.106.236-.034.408-.084.515-.152.109-.07.164-.178.164-.325v-.025c0-.318-.094-.564-.283-.738-.188-.175-.459-.262-.814-.262-.374 0-.671.082-.89.245a1.213 1.213 0 00-.439.578l-1.426-.203c.113-.393.298-.722.557-.987.259-.267.575-.467.949-.599a3.638 3.638 0 011.241-.202c.312 0 .623.036.932.109.31.073.592.194.848.363.256.166.461.393.616.679.158.287.236.646.236 1.076v4.337h-1.468v-.89h-.05a1.858 1.858 0 01-1.021.882 2.56 2.56 0 01-.882.139zm.396-1.122c.307 0 .573-.061.798-.182a1.34 1.34 0 00.519-.489c.123-.203.185-.423.185-.662v-.764a.72.72 0 01-.244.11 3.588 3.588 0 01-.38.088c-.141.026-.28.048-.418.068l-.358.05a2.686 2.686 0 00-.612.152c-.18.071-.322.169-.426.296a.72.72 0 00-.156.48c0 .282.102.494.308.638.205.143.467.215.784.215zm7.678-5.489v1.181h-3.725v-1.181h3.725zm-2.806-1.552h1.528v6.083c0 .205.031.363.092.473.065.106.15.18.254.219a.977.977 0 00.346.059 1.5 1.5 0 00.261-.021c.082-.014.144-.027.186-.038l.257 1.194a2.963 2.963 0 01-.899.152 2.5 2.5 0 01-1.033-.173 1.61 1.61 0 01-.73-.599c-.177-.27-.264-.608-.262-1.013v-6.336zm3.964 8.032v-6.48h1.528v6.48h-1.528zm.768-7.4a.89.89 0 01-.624-.24.774.774 0 01-.262-.587c0-.23.087-.426.262-.586a.881.881 0 01.624-.245c.245 0 .453.082.625.245.174.16.261.356.261.586a.777.777 0 01-.261.587.884.884 0 01-.625.24zm5.038 7.527c-.633 0-1.181-.14-1.645-.418a2.829 2.829 0 01-1.081-1.169c-.253-.5-.379-1.085-.379-1.755 0-.669.126-1.255.379-1.759a2.833 2.833 0 011.081-1.173c.464-.278 1.012-.417 1.645-.417s1.181.139 1.645.417c.464.279.823.67 1.076 1.173.256.504.384 1.09.384 1.759 0 .67-.128 1.255-.384 1.755a2.805 2.805 0 01-1.076 1.169c-.464.278-1.012.418-1.645.418zm.008-1.224c.343 0 .63-.094.861-.282.231-.192.402-.448.515-.768a3.16 3.16 0 00.173-1.072c0-.396-.058-.755-.173-1.076a1.71 1.71 0 00-.515-.772c-.231-.191-.518-.287-.861-.287-.351 0-.644.096-.877.287a1.733 1.733 0 00-.519.772c-.113.321-.169.68-.169 1.076 0 .394.056.751.169 1.072.115.32.288.576.519.768.233.188.526.282.877.282zm5.801-2.7v3.797h-1.527v-6.48h1.46v1.101h.076c.149-.363.387-.651.713-.865.329-.213.735-.32 1.219-.32.447 0 .837.095 1.169.287.334.191.593.468.776.831.186.362.277.803.274 1.32v4.126h-1.527v-3.89c0-.433-.112-.772-.337-1.016-.223-.245-.531-.367-.924-.367-.268 0-.505.059-.713.177a1.226 1.226 0 00-.486.502 1.697 1.697 0 00-.173.797zm8.489 3.797v-8.64h1.566v7.328h3.805v1.312h-5.371zm6.543 0v-6.48h1.527v6.48h-1.527zm.768-7.4a.89.89 0 01-.624-.24.774.774 0 01-.262-.587c0-.23.087-.426.262-.586a.881.881 0 01.624-.245c.245 0 .453.082.624.245.175.16.262.356.262.586a.774.774 0 01-.262.587.88.88 0 01-.624.24zm5.038 7.527c-.647 0-1.203-.142-1.667-.426a2.854 2.854 0 01-1.067-1.177c-.248-.504-.371-1.083-.371-1.739 0-.658.126-1.239.379-1.742.253-.506.611-.9 1.072-1.181.464-.284 1.012-.426 1.645-.426.526 0 .992.097 1.397.291.407.191.732.462.974.814.242.349.38.757.414 1.223h-1.46a1.395 1.395 0 00-.422-.78c-.219-.211-.513-.316-.882-.316-.312 0-.586.084-.822.253a1.616 1.616 0 00-.553.717c-.129.312-.194.686-.194 1.122 0 .442.065.821.194 1.139.129.315.311.558.544.73.236.169.513.253.831.253.225 0 .426-.042.603-.126.18-.088.331-.213.452-.376s.204-.361.249-.595h1.46a2.55 2.55 0 01-.405 1.219 2.396 2.396 0 01-.954.827c-.402.197-.875.296-1.417.296zm6.78 0c-.65 0-1.211-.135-1.684-.405a2.746 2.746 0 01-1.084-1.156c-.253-.501-.38-1.09-.38-1.768 0-.667.127-1.252.38-1.755.256-.506.613-.9 1.072-1.181.458-.284.997-.426 1.615-.426.4 0 .777.064 1.131.194.357.126.672.323.945.59.276.268.492.608.65 1.021.157.411.236.9.236 1.468v.469h-5.311v-1.03h3.847a1.642 1.642 0 00-.19-.78 1.38 1.38 0 00-.519-.544 1.45 1.45 0 00-.768-.199c-.312 0-.586.076-.822.228a1.57 1.57 0 00-.553.591 1.704 1.704 0 00-.198.797v.899c0 .377.069.7.207.97.137.267.33.473.578.616.247.141.537.211.869.211.222 0 .423-.031.603-.093.18-.065.336-.159.468-.283.132-.123.232-.277.3-.459l1.426.16c-.09.377-.262.706-.515.987-.25.279-.571.495-.962.65a3.681 3.681 0 01-1.341.228zm5.581-3.924v3.797h-1.527v-6.48h1.46v1.101h.076c.149-.363.387-.651.713-.865.329-.213.735-.32 1.219-.32.447 0 .837.095 1.169.287.334.191.593.468.776.831.185.362.277.803.274 1.32v4.126h-1.527v-3.89c0-.433-.113-.772-.338-1.016-.222-.245-.53-.367-.924-.367-.267 0-.504.059-.713.177a1.223 1.223 0 00-.485.502 1.697 1.697 0 00-.173.797zm10.715-.97l-1.392.152a1.105 1.105 0 00-.207-.397 1.02 1.02 0 00-.388-.299 1.41 1.41 0 00-.599-.114c-.318 0-.585.069-.801.206-.214.138-.319.317-.317.536a.562.562 0 00.207.46c.143.118.38.215.709.291l1.105.236c.613.133 1.069.342 1.367.629.301.287.453.662.456 1.126a1.764 1.764 0 01-.359 1.08c-.233.31-.558.552-.975.726-.416.174-.894.262-1.434.262-.793 0-1.431-.166-1.915-.498a2.001 2.001 0 01-.865-1.397l1.489-.143c.068.292.211.513.43.662.22.149.505.224.857.224.363 0 .654-.075.873-.224.222-.149.333-.333.333-.552a.574.574 0 00-.215-.46c-.14-.121-.36-.214-.658-.279l-1.105-.232c-.622-.129-1.082-.347-1.38-.654-.298-.309-.445-.7-.443-1.172-.002-.4.106-.746.325-1.038.222-.296.53-.523.924-.684.397-.163.854-.244 1.371-.244.76 0 1.357.161 1.793.485.439.323.71.761.814 1.312zm4.149 4.894c-.65 0-1.211-.135-1.683-.405a2.748 2.748 0 01-1.085-1.156c-.253-.501-.379-1.09-.379-1.768 0-.667.126-1.252.379-1.755.256-.506.614-.9 1.072-1.181.458-.284.997-.426 1.616-.426.399 0 .776.064 1.13.194.358.126.673.323.945.59.276.268.493.608.65 1.021.158.411.236.9.236 1.468v.469h-5.311v-1.03h3.847a1.642 1.642 0 00-.189-.78 1.38 1.38 0 00-.519-.544 1.455 1.455 0 00-.768-.199c-.312 0-.587.076-.823.228-.236.149-.42.346-.552.591-.13.242-.196.507-.199.797v.899c0 .377.069.7.207.97.138.267.33.473.578.616.247.141.537.211.869.211.222 0 .423-.031.603-.093a1.35 1.35 0 00.469-.283 1.17 1.17 0 00.299-.459l1.426.16c-.09.377-.262.706-.515.987-.25.279-.571.495-.962.65-.39.152-.838.228-1.341.228zm8.06-.127h-1.671l3.042-8.64h1.932l3.046 8.64h-1.671l-2.307-6.868h-.068l-2.303 6.868zm.054-3.388h4.557v1.258h-4.557v-1.258zm9.868 5.953c-.549 0-1.02-.074-1.414-.223-.394-.147-.71-.344-.949-.591a2.052 2.052 0 01-.498-.823l1.376-.333c.061.126.151.252.27.375.118.127.277.231.476.313.203.084.457.126.764.126.433 0 .792-.105 1.076-.316.284-.208.426-.552.426-1.03v-1.227h-.076a2.185 2.185 0 01-.346.485 1.782 1.782 0 01-.595.418c-.245.112-.553.168-.924.168-.498 0-.949-.116-1.354-.35-.402-.236-.723-.588-.962-1.055-.236-.469-.354-1.057-.354-1.763 0-.712.118-1.312.354-1.801.239-.493.561-.865.966-1.118a2.481 2.481 0 011.354-.384c.38 0 .692.064.937.194.247.126.444.28.591.46.146.177.257.344.333.502h.084v-1.072h1.506v6.586c0 .554-.132 1.012-.396 1.375a2.381 2.381 0 01-1.085.814c-.458.18-.978.27-1.56.27zm.012-3.856c.324 0 .599-.079.827-.236.228-.158.401-.384.519-.679.118-.296.177-.65.177-1.063 0-.408-.059-.765-.177-1.072a1.526 1.526 0 00-.515-.713c-.225-.172-.502-.257-.831-.257-.34 0-.624.088-.852.265a1.622 1.622 0 00-.515.73 2.97 2.97 0 00-.173 1.047c0 .396.058.743.173 1.042.118.295.291.526.519.691.231.164.513.245.848.245zm4.476 1.291v-6.48h1.48v1.08h.068c.118-.374.321-.662.607-.865.29-.205.621-.308.992-.308.084 0 .178.004.283.013.106.005.195.015.265.029v1.405a1.64 1.64 0 00-.308-.059 2.92 2.92 0 00-.4-.029c-.279 0-.529.06-.751.181a1.32 1.32 0 00-.519.494c-.127.211-.19.454-.19.73v3.809h-1.527zm7.193.127c-.65 0-1.211-.135-1.683-.405a2.74 2.74 0 01-1.084-1.156c-.254-.501-.38-1.09-.38-1.768 0-.667.126-1.252.38-1.755.255-.506.613-.9 1.071-1.181.459-.284.997-.426 1.616-.426.399 0 .776.064 1.131.194.357.126.672.323.945.59.275.268.492.608.649 1.021.158.411.237.9.237 1.468v.469h-5.312v-1.03h3.848a1.654 1.654 0 00-.19-.78 1.38 1.38 0 00-.519-.544 1.453 1.453 0 00-.768-.199 1.49 1.49 0 00-.823.228c-.236.149-.42.346-.552.591-.13.242-.196.507-.199.797v.899c0 .377.069.7.207.97.138.267.331.473.578.616.248.141.537.211.869.211.222 0 .423-.031.603-.093.18-.065.337-.159.469-.283a1.17 1.17 0 00.299-.459l1.426.16a2.22 2.22 0 01-.514.987 2.512 2.512 0 01-.962.65 3.683 3.683 0 01-1.342.228zm6.923 0c-.649 0-1.21-.135-1.683-.405a2.74 2.74 0 01-1.084-1.156c-.253-.501-.38-1.09-.38-1.768 0-.667.127-1.252.38-1.755.256-.506.613-.9 1.072-1.181.458-.284.997-.426 1.615-.426.4 0 .777.064 1.131.194.357.126.672.323.945.59.276.268.492.608.65 1.021.157.411.236.9.236 1.468v.469h-5.312v-1.03h3.848a1.642 1.642 0 00-.19-.78 1.38 1.38 0 00-.519-.544 1.45 1.45 0 00-.768-.199c-.312 0-.586.076-.822.228a1.562 1.562 0 00-.553.591 1.704 1.704 0 00-.198.797v.899c0 .377.069.7.207.97.137.267.33.473.577.616.248.141.538.211.87.211.222 0 .423-.031.603-.093.18-.065.336-.159.468-.283.132-.123.232-.277.3-.459l1.426.16c-.09.377-.262.706-.515.987-.25.279-.571.495-.962.65a3.683 3.683 0 01-1.342.228zm4.055-.127v-6.48h1.46v1.101h.076c.135-.371.358-.661.671-.869.312-.211.684-.316 1.118-.316.438 0 .808.107 1.109.32.304.211.518.5.641.865h.068c.143-.36.385-.647.725-.861.344-.216.75-.324 1.22-.324.596 0 1.082.188 1.459.565.377.377.566.927.566 1.65v4.349h-1.532V126.8c0-.402-.107-.696-.32-.882a1.149 1.149 0 00-.785-.283c-.368 0-.657.116-.865.346-.205.228-.308.525-.308.89v4.042h-1.498v-4.177c0-.334-.101-.601-.303-.801-.2-.2-.462-.3-.785-.3-.219 0-.419.057-.599.169-.18.11-.323.266-.43.468-.107.2-.161.434-.161.701v3.94h-1.527zm13.412.127c-.65 0-1.211-.135-1.683-.405a2.748 2.748 0 01-1.085-1.156c-.253-.501-.379-1.09-.379-1.768 0-.667.126-1.252.379-1.755.256-.506.614-.9 1.072-1.181.459-.284.997-.426 1.616-.426.399 0 .776.064 1.131.194.357.126.672.323.945.59.275.268.492.608.649 1.021.158.411.236.9.236 1.468v.469h-5.311v-1.03h3.848a1.654 1.654 0 00-.19-.78 1.38 1.38 0 00-.519-.544 1.455 1.455 0 00-.768-.199 1.49 1.49 0 00-.823.228c-.236.149-.42.346-.552.591-.13.242-.196.507-.199.797v.899c0 .377.069.7.207.97.138.267.331.473.578.616.248.141.537.211.869.211.222 0 .423-.031.603-.093.18-.065.337-.159.469-.283a1.17 1.17 0 00.299-.459l1.426.16c-.09.377-.261.706-.515.987-.25.279-.57.495-.961.65a3.687 3.687 0 01-1.342.228zm5.582-3.924v3.797h-1.527v-6.48h1.459v1.101h.076c.149-.363.387-.651.713-.865.329-.213.736-.32 1.22-.32.447 0 .836.095 1.168.287.335.191.594.468.776.831.186.362.277.803.275 1.32v4.126h-1.528v-3.89c0-.433-.112-.772-.337-1.016-.222-.245-.53-.367-.924-.367a1.42 1.42 0 00-.713.177 1.223 1.223 0 00-.485.502 1.697 1.697 0 00-.173.797zm8.829-2.683v1.181h-3.725v-1.181h3.725zm-2.805-1.552h1.527v6.083c0 .205.031.363.093.473a.5.5 0 00.253.219.977.977 0 00.346.059c.095 0 .183-.007.261-.021.082-.014.144-.027.186-.038l.257 1.194a2.96 2.96 0 01-.898.152 2.505 2.505 0 01-1.034-.173 1.61 1.61 0 01-.73-.599c-.177-.27-.264-.608-.261-1.013v-6.336z" fill="#000"/><path d="M557.566 57.233H554.9v-8.64h2.784c.838 0 1.556.173 2.152.52a3.4 3.4 0 011.371 1.48c.318.641.477 1.41.477 2.303 0 .9-.161 1.675-.481 2.325a3.43 3.43 0 01-1.401 1.494c-.613.345-1.358.518-2.236.518zm-1.62-.928h1.553c.714 0 1.306-.138 1.776-.413.469-.276.82-.668 1.05-1.177.231-.51.346-1.115.346-1.819 0-.697-.114-1.297-.342-1.8a2.515 2.515 0 00-1.021-1.165c-.452-.273-1.016-.41-1.691-.41h-1.671v6.784zm11.441-1.721v-3.83h.996v6.48h-.996v-1.098h-.067c-.152.33-.388.61-.709.84-.32.228-.725.342-1.215.342-.405 0-.765-.089-1.08-.266a1.859 1.859 0 01-.742-.81c-.18-.363-.27-.82-.27-1.371v-4.118h.995v4.05c0 .473.132.85.397 1.131.267.281.607.422 1.021.422.247 0 .499-.063.755-.19.259-.127.475-.32.65-.582.177-.262.265-.595.265-1zm5.536 2.784c-.624 0-1.162-.137-1.615-.413a2.77 2.77 0 01-1.042-1.164c-.242-.501-.363-1.083-.363-1.747 0-.664.121-1.249.363-1.755.244-.51.585-.906 1.021-1.19.438-.287.95-.43 1.535-.43.338 0 .671.056 1 .169.329.112.629.295.899.548.27.25.485.582.645.996.16.413.241.922.241 1.527v.422h-4.995v-.86h3.982c0-.366-.073-.693-.219-.98a1.658 1.658 0 00-.616-.679 1.727 1.727 0 00-.937-.249c-.396 0-.739.099-1.029.296a1.935 1.935 0 00-.662.759 2.228 2.228 0 00-.233 1.004v.574c0 .49.085.904.254 1.244.171.338.409.595.713.773.303.174.656.261 1.058.261.262 0 .498-.036.709-.11.214-.076.398-.188.553-.337.155-.152.274-.34.359-.566l.961.27a2.13 2.13 0 01-.51.861 2.484 2.484 0 01-.886.574 3.29 3.29 0 01-1.186.202zm9.986 0c-.54 0-1.016-.136-1.43-.409-.413-.276-.737-.664-.97-1.164-.234-.504-.35-1.099-.35-1.785 0-.68.116-1.271.35-1.772.233-.5.558-.887.974-1.16.417-.273.898-.409 1.443-.409.422 0 .755.07 1 .21.248.139.436.296.565.473.133.175.235.318.308.43h.085v-3.189h.995v8.64h-.961v-.995h-.119a6.336 6.336 0 01-.312.447 1.846 1.846 0 01-.578.477c-.25.138-.583.206-1 .206zm.135-.894c.4 0 .737-.104 1.013-.312.276-.211.485-.502.628-.873a3.59 3.59 0 00.216-1.296c0-.483-.071-.907-.211-1.27a1.85 1.85 0 00-.625-.852c-.275-.205-.616-.308-1.021-.308-.422 0-.773.109-1.054.325a1.943 1.943 0 00-.629.873 3.467 3.467 0 00-.207 1.232c0 .462.071.88.211 1.258.144.374.355.672.633.894.281.22.63.329 1.046.329zm6.704.911c-.411 0-.783-.077-1.118-.232a1.916 1.916 0 01-.797-.679c-.197-.298-.296-.658-.296-1.08 0-.371.074-.672.22-.903.146-.233.341-.416.586-.548.245-.132.515-.23.81-.296.298-.067.598-.12.899-.16.394-.05.713-.089.957-.114.248-.028.428-.074.54-.139.116-.065.173-.177.173-.337v-.034c0-.416-.113-.74-.341-.97-.225-.231-.567-.346-1.025-.346-.476 0-.848.104-1.118.312-.27.208-.46.43-.57.666l-.945-.337c.169-.394.394-.7.675-.92.284-.222.593-.377.928-.464.338-.09.67-.135.996-.135.208 0 .447.025.717.076.273.048.536.148.789.3.256.151.468.38.637.687.169.307.253.717.253 1.232v4.27h-.996v-.878h-.05c-.068.14-.18.291-.338.451-.157.16-.367.297-.628.41-.262.112-.581.168-.958.168zm.152-.894c.394 0 .726-.078.996-.232a1.577 1.577 0 00.826-1.371v-.911c-.042.05-.135.097-.278.139-.141.04-.304.074-.489.105a22.805 22.805 0 01-.954.127c-.259.034-.5.088-.725.164a1.24 1.24 0 00-.54.334c-.135.146-.203.346-.203.599 0 .346.128.607.384.784.259.175.586.262.983.262zm7.453-5.738v.844h-3.358v-.844h3.358zm-2.379-1.552h.996v6.176c0 .281.04.492.122.633a.63.63 0 00.321.278c.132.045.271.068.417.068.11 0 .2-.006.27-.017l.169-.034.203.895c-.068.025-.162.05-.283.076a2.082 2.082 0 01-.46.042c-.281 0-.557-.06-.827-.182a1.642 1.642 0 01-.666-.552c-.175-.248-.262-.56-.262-.937v-6.446zm6.524 8.167c-.624 0-1.163-.137-1.615-.413a2.77 2.77 0 01-1.042-1.164c-.242-.501-.363-1.083-.363-1.747 0-.664.121-1.249.363-1.755.244-.51.585-.906 1.021-1.19.438-.287.95-.43 1.535-.43.338 0 .671.056 1 .169.329.112.629.295.899.548.27.25.485.582.645.996.16.413.241.922.241 1.527v.422h-4.995v-.86h3.982c0-.366-.073-.693-.219-.98a1.658 1.658 0 00-.616-.679 1.727 1.727 0 00-.937-.249c-.396 0-.74.099-1.029.296a1.946 1.946 0 00-.663.759 2.24 2.24 0 00-.232 1.004v.574c0 .49.085.904.254 1.244.171.338.409.595.712.773.304.174.657.261 1.059.261.262 0 .498-.036.709-.11.214-.076.398-.188.553-.337.155-.152.274-.34.358-.566l.962.27a2.13 2.13 0 01-.51.861 2.493 2.493 0 01-.886.574 3.29 3.29 0 01-1.186.202z" fill="#73777A"/><path d="M558.136 68.93v8.64h-1.566v-7.118h-.05l-2.021 1.291V70.31l2.147-1.38h1.49zm5.268 8.804c-.695 0-1.291-.176-1.789-.527-.495-.355-.876-.865-1.143-1.532-.264-.67-.396-1.475-.396-2.417.002-.942.136-1.744.4-2.405.268-.664.649-1.17 1.144-1.519.497-.349 1.092-.523 1.784-.523s1.287.174 1.785.523c.498.349.879.855 1.143 1.519.267.664.401 1.465.401 2.405 0 .945-.134 1.752-.401 2.421-.264.667-.645 1.176-1.143 1.528-.495.351-1.09.527-1.785.527zm0-1.32c.54 0 .966-.266 1.278-.798.315-.534.473-1.32.473-2.358 0-.686-.072-1.263-.215-1.73-.144-.467-.346-.818-.608-1.055a1.33 1.33 0 00-.928-.358c-.537 0-.962.267-1.274.801-.312.532-.47 1.312-.472 2.342-.003.689.066 1.268.206 1.738.144.47.346.824.608 1.063.261.236.572.354.932.354zm8.155-7.89l-2.784 10.345h-1.337l2.784-10.345h1.337zm4.033 9.21c-.695 0-1.291-.176-1.789-.527-.495-.355-.876-.865-1.143-1.532-.264-.67-.397-1.475-.397-2.417.003-.942.137-1.744.401-2.405.267-.664.648-1.17 1.143-1.519.498-.349 1.093-.523 1.785-.523s1.287.174 1.785.523c.497.349.878.855 1.143 1.519.267.664.401 1.465.401 2.405 0 .945-.134 1.752-.401 2.421-.265.667-.646 1.176-1.143 1.528-.495.351-1.09.527-1.785.527zm0-1.32c.54 0 .966-.266 1.278-.798.315-.534.473-1.32.473-2.358 0-.686-.072-1.263-.215-1.73-.144-.467-.346-.818-.608-1.055a1.33 1.33 0 00-.928-.358c-.537 0-.962.267-1.274.801-.312.532-.47 1.312-.473 2.342-.002.689.066 1.268.207 1.738.144.47.346.824.608 1.063.261.236.572.354.932.354zm4.696 1.155l3.674-7.273v-.059h-4.265V68.93h5.885v1.338l-3.67 7.302h-1.624zm10.081-9.045l-2.784 10.345h-1.338l2.785-10.345h1.337zm.839 9.045v-1.13l2.999-2.94c.287-.29.526-.548.718-.773.191-.225.334-.443.43-.654a1.61 1.61 0 00.143-.675c0-.273-.061-.506-.185-.7a1.235 1.235 0 00-.511-.456 1.642 1.642 0 00-.738-.16 1.52 1.52 0 00-.747.177 1.23 1.23 0 00-.498.494 1.59 1.59 0 00-.172.763h-1.49c0-.548.125-1.025.376-1.43.25-.405.595-.718 1.033-.94.442-.223.948-.334 1.519-.334.579 0 1.089.108 1.527.325a2.49 2.49 0 011.021.89c.245.377.367.807.367 1.291 0 .324-.062.641-.185.954-.124.312-.342.658-.654 1.037-.31.38-.744.84-1.304 1.38l-1.489 1.514v.06h3.763v1.307h-5.923zm7.26 0v-1.13l2.999-2.94c.287-.29.526-.548.718-.773.191-.225.334-.443.43-.654.095-.21.143-.436.143-.675 0-.273-.062-.506-.185-.7a1.235 1.235 0 00-.511-.456 1.642 1.642 0 00-.738-.16 1.52 1.52 0 00-.747.177c-.214.116-.38.28-.498.494a1.59 1.59 0 00-.173.763h-1.489c0-.548.125-1.025.376-1.43.25-.405.594-.718 1.033-.94.442-.223.948-.334 1.519-.334.579 0 1.088.108 1.527.325a2.49 2.49 0 011.021.89c.245.377.367.807.367 1.291 0 .324-.062.641-.185.954-.124.312-.342.658-.654 1.037-.31.38-.744.84-1.304 1.38l-1.489 1.514v.06h3.763v1.307h-5.923z" fill="#000"/></g><defs><filter id="filter0_d_5262_59164" x="0" y=".89" width="923" height="186" filterUnits="userSpaceOnUse" color-interpolation-filters="sRGB"><feFlood flood-opacity="0" result="BackgroundImageFix"/><feColorMatrix in="SourceAlpha" values="0 0 0 0 0 0 0 0 0 0 0 0 0 0 0 0 0 0 127 0" result="hardAlpha"/><feOffset dy="4"/><feGaussianBlur stdDeviation="12"/><feComposite in2="hardAlpha" operator="out"/><feColorMatrix values="0 0 0 0 0.405825 0 0 0 0 0.2 0 0 0 0 1 0 0 0 0.1 0"/><feBlend in2="BackgroundImageFix" result="effect1_dropShadow_5262_59164"/><feBlend in="SourceGraphic" in2="effect1_dropShadow_5262_59164" result="shape"/></filter></defs></svg>