<svg width="700" height="595" viewBox="0 0 700 595" fill="none" xmlns="http://www.w3.org/2000/svg"><g filter="url(#filter0_d_5262_59143)"><rect x="55" y="44" width="955" height="475" rx="16" fill="#fff" fill-opacity=".7"/><rect x="56" y="45" width="953" height="473" rx="15" stroke="#fff" stroke-width="2"/><g><rect x="95" y="82.017" width="19.008" height="19.008" rx="4" fill="#F8F7FF"/><path d="M102.905 94.674l-3.153-3.153 3.153-3.153.42.42-2.435 2.436h8.366v.594h-8.366l2.435 2.435-.42.42z" fill="#1C1B1F"/></g><path d="M127.487 96.017v-8.19h3.135c.592 0 1.084.094 1.476.28.394.184.689.436.883.756.198.32.296.683.296 1.088 0 .333-.064.618-.192.856a1.612 1.612 0 01-.515.571 2.187 2.187 0 01-.724.316v.08c.29.016.569.105.836.268.269.16.489.386.659.68.171.293.256.648.256 1.063 0 .424-.102.805-.308 1.144-.205.336-.514.601-.927.796-.414.194-.933.292-1.56.292h-3.315zm1.484-1.24h1.595c.539 0 .927-.103 1.164-.308.24-.208.36-.474.36-.8a1.224 1.224 0 00-.692-1.12 1.7 1.7 0 00-.792-.171h-1.635v2.399zm0-3.467h1.467c.256 0 .487-.046.692-.14.205-.096.367-.23.484-.404.12-.175.18-.383.18-.623 0-.317-.112-.579-.336-.784-.221-.205-.55-.308-.988-.308h-1.499v2.26zm7.62 4.83c-.389 0-.74-.069-1.051-.207a1.711 1.711 0 01-.736-.624c-.179-.275-.268-.613-.268-1.016 0-.346.064-.633.192-.86a1.48 1.48 0 01.524-.543c.221-.136.47-.239.747-.308a6.1 6.1 0 01.868-.156c.36-.037.652-.07.876-.1.224-.032.386-.08.488-.144.104-.067.156-.17.156-.308v-.024c0-.301-.09-.534-.268-.7-.179-.165-.436-.248-.772-.248-.355 0-.636.078-.844.232a1.153 1.153 0 00-.416.548l-1.351-.192c.106-.373.282-.685.528-.935.245-.254.545-.443.899-.568a3.448 3.448 0 011.176-.192c.296 0 .59.034.884.104.293.07.561.184.803.344.243.157.437.372.584.643.149.272.224.612.224 1.02v4.11h-1.391v-.843h-.048c-.088.17-.212.33-.372.48a1.796 1.796 0 01-.596.356 2.401 2.401 0 01-.836.132zm.376-1.063c.291 0 .543-.057.756-.172.213-.117.377-.272.492-.464.117-.192.176-.401.176-.628v-.723a.69.69 0 01-.232.104 3.32 3.32 0 01-.36.084c-.134.024-.266.045-.396.064l-.34.047c-.216.03-.409.078-.58.145a.969.969 0 00-.404.28.687.687 0 00-.148.455c0 .267.098.468.292.604.195.136.443.204.744.204zm7.002 1.06c-.614 0-1.14-.135-1.58-.404a2.704 2.704 0 01-1.012-1.116c-.234-.477-.351-1.026-.351-1.647 0-.624.12-1.175.359-1.652.24-.48.579-.853 1.016-1.12.44-.269.96-.403 1.56-.403.498 0 .939.092 1.323.276.387.181.694.438.924.771.229.331.36.718.392 1.16h-1.384a1.32 1.32 0 00-.4-.74c-.208-.2-.486-.3-.835-.3-.296 0-.556.08-.78.24a1.534 1.534 0 00-.524.68c-.123.296-.184.65-.184 1.064 0 .418.061.778.184 1.08.123.298.295.529.516.691.224.16.486.24.788.24.213 0 .403-.04.571-.12.171-.083.314-.201.428-.356.115-.154.193-.342.236-.564h1.384c-.035.435-.163.82-.384 1.156a2.28 2.28 0 01-.904.784c-.381.186-.829.28-1.343.28zm5.139-2.048l-.004-1.747h.232l2.207-2.467h1.691l-2.715 3.023h-.3l-1.111 1.191zm-1.32 1.928v-8.19h1.448v8.19h-1.448zm3.855 0l-1.999-2.795.975-1.02 2.755 3.815h-1.731zm8.416-6.142v1.12h-3.531v-1.12h3.531zm-2.659-1.472h1.447v5.766c0 .195.03.344.088.448a.48.48 0 00.24.208.922.922 0 00.328.056c.091 0 .173-.007.248-.02.077-.013.136-.025.176-.036l.244 1.132a3.27 3.27 0 01-.332.088c-.141.032-.315.05-.52.056a2.365 2.365 0 01-.98-.164 1.522 1.522 0 01-.691-.568c-.168-.256-.251-.576-.248-.96v-6.006zm6.482 7.734c-.599 0-1.119-.132-1.559-.396a2.69 2.69 0 01-1.024-1.108c-.24-.474-.359-1.029-.359-1.663 0-.635.119-1.19.359-1.668a2.685 2.685 0 011.024-1.111c.44-.264.96-.396 1.559-.396.6 0 1.12.132 1.56.396.44.264.78.634 1.02 1.111.242.477.363 1.033.363 1.668 0 .634-.121 1.189-.363 1.663-.24.475-.58.844-1.02 1.108-.44.264-.96.396-1.56.396zm.008-1.16c.326 0 .598-.09.816-.268.219-.181.381-.424.488-.728.109-.304.164-.642.164-1.015 0-.376-.055-.716-.164-1.02a1.614 1.614 0 00-.488-.732c-.218-.181-.49-.272-.816-.272-.333 0-.61.091-.831.272a1.636 1.636 0 00-.492.732c-.107.304-.16.644-.16 1.02 0 .373.053.711.16 1.015.109.304.273.547.492.728.221.179.498.268.831.268zm11.811-3.479l-1.319.144a1.077 1.077 0 00-.196-.376.973.973 0 00-.368-.284 1.342 1.342 0 00-.568-.108c-.301 0-.554.066-.76.196-.202.131-.302.3-.299.508a.53.53 0 00.195.436c.136.112.36.204.672.276l1.048.224c.581.125 1.013.324 1.295.596.286.272.43.627.432 1.067a1.666 1.666 0 01-.34 1.024c-.221.293-.529.522-.923.688-.395.165-.848.248-1.36.248-.752 0-1.357-.158-1.815-.472a1.895 1.895 0 01-.82-1.324l1.412-.136c.064.278.2.487.407.628.208.141.479.212.812.212.344 0 .62-.07.828-.212.21-.141.316-.316.316-.524a.545.545 0 00-.204-.436c-.133-.114-.341-.202-.624-.264l-1.048-.22c-.589-.122-1.025-.329-1.307-.62-.283-.293-.423-.663-.42-1.11-.003-.38.1-.707.308-.985.211-.28.502-.495.876-.647.375-.155.809-.232 1.299-.232.72 0 1.286.153 1.7.46.415.306.673.72.771 1.243zm5.24 1.935v-3.558h1.448v6.142h-1.404v-1.092h-.064a1.843 1.843 0 01-.683.844c-.315.218-.703.328-1.164.328a2.1 2.1 0 01-1.068-.268 1.863 1.863 0 01-.719-.788c-.174-.347-.26-.765-.26-1.256v-3.91h1.447v3.686c0 .39.107.699.32.928.213.23.493.344.84.344.213 0 .42-.052.62-.156.2-.104.364-.259.491-.464.131-.208.196-.468.196-.78zm2.936 2.584v-6.142h1.384v1.043h.072a1.63 1.63 0 01.636-.823c.296-.2.649-.3 1.059-.3.416 0 .767.101 1.052.304.288.2.49.473.608.82h.064a1.68 1.68 0 01.687-.816c.326-.206.711-.308 1.156-.308.565 0 1.026.178 1.383.536.358.357.536.878.536 1.563v4.123h-1.451v-3.899c0-.381-.101-.66-.304-.836a1.087 1.087 0 00-.744-.268c-.349 0-.622.11-.82.328-.194.216-.291.497-.291.844v3.83h-1.42v-3.958c0-.317-.096-.57-.288-.76-.189-.189-.437-.284-.744-.284-.207 0-.397.054-.567.16a1.111 1.111 0 00-.408.444 1.39 1.39 0 00-.152.664v3.735h-1.448zm10.106 0v-6.142h1.383v1.043h.072a1.63 1.63 0 01.636-.823c.296-.2.649-.3 1.06-.3.416 0 .766.101 1.051.304.288.2.491.473.608.82h.064c.136-.342.365-.614.688-.816.325-.206.71-.308 1.155-.308.566 0 1.027.178 1.384.536.357.357.536.878.536 1.563v4.123h-1.452v-3.899c0-.381-.101-.66-.304-.836a1.082 1.082 0 00-.743-.268c-.35 0-.623.11-.82.328-.195.216-.292.497-.292.844v3.83h-1.42v-3.958c0-.317-.095-.57-.287-.76-.19-.189-.438-.284-.744-.284-.208 0-.397.054-.568.16a1.118 1.118 0 00-.408.444 1.39 1.39 0 00-.152.664v3.735h-1.447zm11.873.124c-.39 0-.74-.07-1.052-.208a1.717 1.717 0 01-.736-.624c-.178-.275-.268-.613-.268-1.016 0-.346.064-.633.192-.86.128-.226.303-.407.524-.543.221-.136.471-.239.748-.308.28-.072.569-.124.867-.156.36-.037.652-.07.876-.1.224-.032.387-.08.488-.144.104-.067.156-.17.156-.308v-.024c0-.301-.089-.534-.268-.7-.179-.165-.436-.248-.772-.248-.354 0-.635.078-.843.232a1.147 1.147 0 00-.416.548L204 91.49c.107-.373.283-.685.528-.935.245-.254.545-.443.9-.568a3.438 3.438 0 011.175-.192c.296 0 .591.034.884.104.293.07.561.184.804.344.242.157.437.372.583.643.15.272.224.612.224 1.02v4.11h-1.391v-.843h-.048c-.088.17-.212.33-.372.48a1.786 1.786 0 01-.596.356 2.4 2.4 0 01-.835.132zm.375-1.064c.291 0 .543-.057.756-.172.213-.117.377-.272.492-.464.117-.192.176-.401.176-.628v-.723a.68.68 0 01-.232.104 3.32 3.32 0 01-.36.084c-.133.024-.265.045-.396.064l-.34.047c-.216.03-.409.078-.579.145a.956.956 0 00-.404.28.682.682 0 00-.148.455c0 .267.097.468.292.604.194.136.442.204.743.204zm4.323.94v-6.142h1.403v1.023h.064c.112-.354.304-.627.576-.82.275-.194.588-.291.94-.291.08 0 .169.004.268.012.101.005.185.014.252.028v1.331a1.542 1.542 0 00-.292-.056 2.696 2.696 0 00-.38-.028c-.264 0-.501.058-.712.172a1.259 1.259 0 00-.492.468c-.12.2-.18.43-.18.692v3.61h-1.447zm5.551 2.303a2.934 2.934 0 01-.944-.152l.336-1.128c.211.061.399.09.564.088a.694.694 0 00.436-.156c.128-.098.236-.264.324-.496l.124-.331-2.228-6.27h1.536l1.415 4.638h.064l1.42-4.638h1.539l-2.459 6.885a2.728 2.728 0 01-.456.836 1.853 1.853 0 01-.695.536c-.272.125-.598.188-.976.188z" fill="#000"/><path d="M126.68 98.256h94.267v.767H126.68v-.767zM98.008 152.957h-2.562l4.664-13.248h2.963l4.671 13.248h-2.562l-3.539-10.531h-.103l-3.532 10.531zm.084-5.194h6.986v1.927h-6.986v-1.927zm11.032 5.194v-13.248h4.968c1.018 0 1.872.19 2.562.569.694.38 1.218.901 1.572 1.566.358.659.537 1.41.537 2.251 0 .849-.179 1.604-.537 2.264-.358.66-.886 1.179-1.585 1.559-.699.375-1.559.563-2.581.563h-3.293v-1.973h2.969c.596 0 1.083-.104 1.462-.311.38-.207.66-.492.841-.854.186-.362.279-.778.279-1.248s-.093-.884-.279-1.242a1.891 1.891 0 00-.847-.835c-.38-.202-.869-.304-1.468-.304h-2.2v11.243h-2.4zm20.371-9.936v1.811h-5.712v-1.811h5.712zm-4.302-2.381h2.342v9.328c0 .315.048.557.142.725.1.164.229.276.389.336.159.061.336.091.53.091.147 0 .28-.011.401-.032.125-.022.22-.041.285-.059l.394 1.831a5.071 5.071 0 01-.537.142 4.39 4.39 0 01-.841.091c-.586.017-1.114-.071-1.584-.265a2.473 2.473 0 01-1.12-.919c-.271-.414-.405-.931-.401-1.552v-9.717zm5.896 12.317v-9.936h2.271v1.656h.103c.181-.574.492-1.016.932-1.326a2.562 2.562 0 011.52-.472c.129 0 .274.006.433.019.164.009.3.024.408.045v2.154a2.527 2.527 0 00-.472-.09 4.379 4.379 0 00-.615-.045c-.427 0-.811.092-1.151.278a2.027 2.027 0 00-.796.757 2.13 2.13 0 00-.291 1.119v5.841h-2.342zm9.522.201c-.63 0-1.197-.113-1.701-.337a2.776 2.776 0 01-1.191-1.009c-.289-.444-.433-.992-.433-1.643 0-.561.103-1.024.31-1.391.207-.366.49-.66.848-.88.358-.22.761-.386 1.21-.498.452-.116.92-.2 1.403-.252a51.2 51.2 0 001.417-.162c.362-.051.625-.129.789-.233.168-.107.252-.273.252-.498v-.038c0-.488-.144-.865-.433-1.133-.289-.267-.705-.401-1.248-.401-.574 0-1.029.125-1.365.376-.332.25-.557.545-.673.886l-2.187-.311c.173-.603.458-1.108.854-1.513.397-.41.882-.716 1.456-.919a5.564 5.564 0 011.902-.31c.478 0 .955.056 1.429.168.475.112.908.297 1.3.556.393.255.708.602.945 1.042.241.439.362.989.362 1.649v6.65h-2.251v-1.365h-.078a2.837 2.837 0 01-.601.776 2.894 2.894 0 01-.964.576c-.384.142-.835.214-1.352.214zm.608-1.721c.47 0 .878-.093 1.223-.278.345-.19.61-.44.795-.751.19-.31.285-.649.285-1.015v-1.171c-.073.06-.198.116-.375.168a5.352 5.352 0 01-.582.136c-.216.039-.43.073-.641.103-.211.031-.394.056-.55.078a4.061 4.061 0 00-.938.233 1.556 1.556 0 00-.653.453c-.16.189-.239.435-.239.737 0 .431.157.757.472.977.315.22.716.33 1.203.33zm8.97-4.302v5.822h-2.342v-9.936h2.239v1.688h.116a2.846 2.846 0 011.093-1.326c.505-.328 1.128-.491 1.87-.491.686 0 1.283.146 1.792.439.513.294.91.718 1.19 1.275.285.556.425 1.231.42 2.025v6.326h-2.341v-5.964c0-.664-.173-1.184-.518-1.559-.34-.375-.813-.563-1.416-.563-.41 0-.775.091-1.094.272a1.89 1.89 0 00-.744.769c-.176.337-.265.744-.265 1.223zm16.248-1.488l-2.135.233a1.715 1.715 0 00-.317-.608 1.57 1.57 0 00-.595-.459c-.25-.117-.556-.175-.919-.175-.487 0-.897.106-1.229.317-.327.211-.489.485-.485.822a.859.859 0 00.317.705c.22.181.582.33 1.087.446l1.695.362c.94.203 1.638.524 2.096.964.461.44.694 1.016.698 1.727a2.693 2.693 0 01-.55 1.656c-.358.475-.856.846-1.494 1.113s-1.371.401-2.199.401c-1.216 0-2.195-.254-2.937-.763-.742-.513-1.184-1.227-1.326-2.141l2.283-.22c.104.448.324.787.66 1.015.336.229.774.343 1.313.343.557 0 1.003-.114 1.339-.343.341-.228.511-.511.511-.847 0-.285-.11-.52-.33-.705-.215-.186-.552-.328-1.009-.427l-1.695-.356c-.953-.198-1.658-.533-2.115-1.003-.457-.474-.683-1.073-.679-1.798-.004-.612.162-1.143.498-1.591.341-.453.813-.802 1.417-1.048.608-.25 1.309-.375 2.102-.375 1.164 0 2.081.248 2.749.743.673.496 1.089 1.167 1.249 2.012zm4.639 7.511c-.63 0-1.197-.113-1.701-.337a2.781 2.781 0 01-1.191-1.009c-.288-.444-.433-.992-.433-1.643 0-.561.104-1.024.311-1.391.207-.366.489-.66.847-.88.358-.22.761-.386 1.21-.498.452-.116.92-.2 1.403-.252.583-.06 1.055-.114 1.417-.162.362-.051.625-.129.789-.233.168-.107.253-.273.253-.498v-.038c0-.488-.145-.865-.434-1.133-.289-.267-.705-.401-1.248-.401-.574 0-1.029.125-1.365.376-.332.25-.557.545-.673.886l-2.186-.311a3.492 3.492 0 01.853-1.513c.397-.41.882-.716 1.456-.919a5.564 5.564 0 011.902-.31c.478 0 .955.056 1.429.168.475.112.908.297 1.301.556a2.8 2.8 0 01.944 1.042c.242.439.362.989.362 1.649v6.65h-2.251v-1.365h-.078a2.837 2.837 0 01-.601.776 2.894 2.894 0 01-.964.576c-.384.142-.834.214-1.352.214zm.608-1.721c.47 0 .878-.093 1.223-.278.345-.19.61-.44.795-.751.19-.31.285-.649.285-1.015v-1.171c-.073.06-.198.116-.375.168a5.352 5.352 0 01-.582.136c-.216.039-.429.073-.641.103-.211.031-.394.056-.55.078a4.061 4.061 0 00-.938.233 1.562 1.562 0 00-.653.453c-.16.189-.239.435-.239.737 0 .431.157.757.472.977.315.22.716.33 1.203.33zm10.963 1.714c-.992 0-1.844-.218-2.555-.653a4.361 4.361 0 01-1.637-1.805c-.38-.772-.569-1.66-.569-2.665 0-1.009.194-1.9.582-2.672a4.345 4.345 0 011.643-1.811c.711-.436 1.552-.653 2.523-.653.806 0 1.52.148 2.141.446a3.658 3.658 0 011.494 1.248c.371.535.582 1.16.634 1.876h-2.238a2.14 2.14 0 00-.647-1.196c-.336-.324-.787-.486-1.352-.486-.479 0-.899.13-1.261.389-.363.254-.645.621-.848 1.099-.198.479-.297 1.053-.297 1.721 0 .677.099 1.259.297 1.747.199.483.477.856.835 1.119a2.14 2.14 0 001.274.388c.345 0 .653-.065.925-.194.276-.134.507-.326.692-.576.186-.25.313-.554.382-.912h2.238a3.898 3.898 0 01-.621 1.869 3.675 3.675 0 01-1.462 1.268c-.616.302-1.341.453-2.173.453zm10.776-10.13v1.811h-5.712v-1.811h5.712zm-4.301-2.381h2.341v9.328c0 .315.048.557.143.725a.762.762 0 00.388.336c.159.061.336.091.53.091.147 0 .28-.011.401-.032.125-.022.22-.041.285-.059l.394 1.831a5.071 5.071 0 01-.537.142 4.387 4.387 0 01-.84.091c-.587.017-1.115-.071-1.585-.265a2.47 2.47 0 01-1.119-.919c-.272-.414-.406-.931-.401-1.552v-9.717zm5.895 12.317v-9.936h2.342v9.936h-2.342zm1.178-11.346c-.371 0-.69-.123-.958-.369a1.19 1.19 0 01-.401-.899c0-.354.134-.653.401-.899.268-.25.587-.376.958-.376.375 0 .694.126.957.376.267.246.401.545.401.899 0 .349-.134.649-.401.899a1.35 1.35 0 01-.957.369zm7.542 11.54c-.97 0-1.811-.213-2.523-.64a4.348 4.348 0 01-1.656-1.792c-.388-.768-.582-1.665-.582-2.691 0-1.027.194-1.926.582-2.698a4.333 4.333 0 011.656-1.798c.712-.427 1.553-.64 2.523-.64.97 0 1.811.213 2.523.64a4.298 4.298 0 011.649 1.798c.393.772.589 1.671.589 2.698 0 1.026-.196 1.923-.589 2.691a4.312 4.312 0 01-1.649 1.792c-.712.427-1.553.64-2.523.64zm.013-1.876c.526 0 .966-.144 1.319-.433.354-.294.617-.686.79-1.178a4.844 4.844 0 00.265-1.643c0-.608-.089-1.158-.265-1.649-.173-.496-.436-.891-.79-1.184-.353-.293-.793-.44-1.319-.44-.539 0-.988.147-1.346.44-.353.293-.619.688-.795 1.184a4.94 4.94 0 00-.259 1.649c0 .604.086 1.152.259 1.643.176.492.442.884.795 1.178.358.289.807.433 1.346.433zm8.713-4.14v5.822h-2.342v-9.936h2.238v1.688h.117a2.84 2.84 0 011.093-1.326c.505-.328 1.128-.491 1.87-.491.685 0 1.282.146 1.791.439.514.294.91.718 1.191 1.275.284.556.424 1.231.42 2.025v6.326h-2.342v-5.964c0-.664-.172-1.184-.517-1.559-.341-.375-.813-.563-1.417-.563-.409 0-.774.091-1.093.272a1.883 1.883 0 00-.744.769c-.177.337-.265.744-.265 1.223zm17.542 5.822l2.174-13.248h1.811l-2.173 13.248h-1.812zm-5.97-3.416l.304-1.811h10.195l-.305 1.811h-10.194zm1.313 3.416l2.173-13.248h1.812l-2.174 13.248h-1.811zm-.544-8.021l.298-1.812h10.195l-.298 1.812h-10.195zm13.009 8.163c-.393 0-.729-.138-1.009-.414a1.335 1.335 0 01-.414-1.009 1.32 1.32 0 01.414-.996c.28-.276.616-.414 1.009-.414.379 0 .709.138.989.414a1.358 1.358 0 01.227 1.714 1.485 1.485 0 01-.518.518 1.345 1.345 0 01-.698.187zm0-7.089c-.393 0-.729-.138-1.009-.414a1.35 1.35 0 01-.414-1.01 1.32 1.32 0 01.414-.996c.28-.28.616-.42 1.009-.42.379 0 .709.14.989.42.285.276.43.608.434.996a1.365 1.365 0 01-.207.712 1.474 1.474 0 01-.518.517c-.211.13-.444.195-.698.195zm13.653.465v1.928h-5.964v-1.928h5.964zm8.121 0v1.928h-5.964v-1.928h5.964zm8.121 0v1.928h-5.964v-1.928h5.964z" fill="#000"/><rect x="276.92" y="137.457" width="35.672" height="19" rx="9.5" fill="#C7BAFF"/><path d="M286.368 150.457h-2.342v-6.912h2.39c.686 0 1.275.138 1.768.415.495.275.875.669 1.141 1.185.265.515.398 1.131.398 1.849 0 .72-.134 1.339-.402 1.857a2.778 2.778 0 01-1.15 1.191c-.5.277-1.101.415-1.803.415zm-1.09-1.083h1.03c.481 0 .883-.088 1.204-.264a1.68 1.68 0 00.726-.793c.162-.353.243-.794.243-1.323 0-.529-.081-.967-.243-1.316a1.656 1.656 0 00-.719-.786c-.315-.176-.706-.264-1.174-.264h-1.067v4.746zm5.486 1.083v-5.184h1.184v.864h.054a1.3 1.3 0 01.486-.692c.232-.164.497-.246.794-.246.067 0 .142.003.226.01.085.004.156.012.212.023v1.124a1.32 1.32 0 00-.246-.047 2.23 2.23 0 00-.321-.024 1.23 1.23 0 00-.6.146 1.066 1.066 0 00-.568.978v3.048h-1.221zm5.063.105c-.329 0-.625-.059-.888-.176a1.45 1.45 0 01-.621-.526c-.151-.232-.226-.518-.226-.858 0-.292.054-.534.162-.725.108-.191.255-.344.442-.459a2.21 2.21 0 01.631-.26c.236-.061.48-.105.732-.132.304-.031.551-.059.74-.084.189-.027.326-.068.411-.122.088-.056.132-.143.132-.26v-.02c0-.254-.075-.451-.226-.59-.151-.14-.368-.21-.652-.21-.299 0-.536.066-.712.196a.98.98 0 00-.351.462l-1.14-.162c.09-.315.238-.578.445-.789a1.94 1.94 0 01.759-.48c.3-.108.63-.162.993-.162.249 0 .498.03.746.088.247.059.473.155.678.29.205.133.369.314.493.544.126.229.189.516.189.86v3.47h-1.175v-.712h-.04a1.507 1.507 0 01-.314.405 1.505 1.505 0 01-.503.3c-.2.075-.435.112-.705.112zm.317-.898c.245 0 .458-.048.638-.145.18-.099.318-.23.415-.392a.995.995 0 00.148-.53v-.61a.58.58 0 01-.195.087c-.09.027-.192.051-.304.071-.113.02-.224.038-.334.054l-.287.041a2.117 2.117 0 00-.49.121.808.808 0 00-.34.236.575.575 0 00-.125.385c0 .225.082.395.246.51.164.115.374.172.628.172zm6.179-4.391v.945h-3.065v-.945h3.065zm-2.298 5.184v-5.673c0-.349.072-.639.216-.871.146-.232.342-.405.587-.52.245-.115.517-.172.817-.172a3.113 3.113 0 01.928.142l-.243.945a2.095 2.095 0 00-.196-.048 1.188 1.188 0 00-.263-.027c-.228 0-.388.056-.483.166-.092.108-.138.263-.138.466v5.592h-1.225zm5.748-5.184v.945h-2.98v-.945h2.98zm-2.244-1.242h1.222v4.867c0 .164.025.29.074.378a.399.399 0 00.203.175.762.762 0 00.276.048c.077 0 .147-.006.21-.017.065-.012.114-.022.148-.031l.206.955a2.34 2.34 0 01-.719.122 1.996 1.996 0 01-.827-.138 1.293 1.293 0 01-.584-.48c-.141-.216-.211-.486-.209-.81v-5.069z" fill="#3F4245"/><rect x="357.851" y="126.765" width="184.064" height="40.384" rx="2.772" stroke="#73777A" stroke-opacity=".5" stroke-width=".792"/><path d="M372.001 143.393l2.099 6.347h.083l2.094-6.347h1.607l-2.843 8.064h-1.803l-2.839-8.064h1.602zm6.882 8.064v-6.048h1.425v6.048h-1.425zm.717-6.906a.83.83 0 01-.583-.225.722.722 0 01-.244-.547c0-.215.081-.398.244-.547a.821.821 0 01.583-.229.81.81 0 01.582.229.714.714 0 01.245.547.723.723 0 01-.245.547.82.82 0 01-.582.225zm4.852 7.024c-.607 0-1.13-.126-1.571-.378a2.55 2.55 0 01-1.012-1.079c-.237-.467-.355-1.017-.355-1.65 0-.622.118-1.168.355-1.638.239-.472.572-.84 1-1.102.428-.265.93-.398 1.508-.398.373 0 .724.061 1.055.181.334.118.628.302.882.552.257.249.46.567.607.952.147.384.22.84.22 1.371v.437h-4.957v-.961h3.591a1.54 1.54 0 00-.177-.728 1.282 1.282 0 00-.485-.508 1.354 1.354 0 00-.716-.185c-.292 0-.548.07-.768.212a1.46 1.46 0 00-.516.551 1.59 1.59 0 00-.185.745v.838c0 .352.064.654.193.906.128.249.308.441.539.575.231.131.502.197.811.197.208 0 .395-.029.563-.087.168-.06.314-.148.438-.264.123-.115.216-.258.279-.429l1.331.15a2.071 2.071 0 01-.48.921c-.234.26-.533.462-.898.607a3.455 3.455 0 01-1.252.212zm5.111-.118l-1.709-6.048h1.453l1.063 4.253h.055l1.087-4.253h1.437l1.087 4.229h.059l1.047-4.229h1.457l-1.713 6.048h-1.484l-1.134-4.087h-.083l-1.134 4.087h-1.488zm13.845-6.048v1.102h-3.575v-1.102h3.575zm-2.681 6.048v-6.619c0-.407.084-.745.252-1.016.17-.27.399-.472.685-.606.286-.134.603-.201.953-.201.246 0 .465.02.657.059.192.039.333.075.425.106l-.283 1.103a2.233 2.233 0 00-.229-.055 1.372 1.372 0 00-.307-.032c-.265 0-.452.065-.563.193-.107.126-.161.307-.161.544v6.524h-1.429zm3.797 0v-6.048h1.426v6.048h-1.426zm.717-6.906a.83.83 0 01-.583-.225.722.722 0 01-.244-.547c0-.215.081-.398.244-.547a.821.821 0 01.583-.229c.228 0 .423.076.583.229a.717.717 0 01.244.547.726.726 0 01-.244.547.822.822 0 01-.583.225zm3.6-1.158v8.064h-1.426v-8.064h1.426zm4.143 8.182c-.606 0-1.13-.126-1.571-.378a2.555 2.555 0 01-1.012-1.079c-.236-.467-.354-1.017-.354-1.65 0-.622.118-1.168.354-1.638.239-.472.572-.84 1-1.102.428-.265.931-.398 1.508-.398.373 0 .725.061 1.056.181.333.118.627.302.882.552.257.249.459.567.606.952.147.384.22.84.22 1.371v.437h-4.957v-.961h3.591a1.54 1.54 0 00-.177-.728 1.286 1.286 0 00-.484-.508 1.358 1.358 0 00-.717-.185c-.291 0-.547.07-.768.212-.22.139-.392.323-.516.551-.12.226-.182.474-.185.745v.838c0 .352.065.654.193.906.129.249.309.441.54.575.231.131.501.197.811.197.207 0 .395-.029.563-.087.168-.06.314-.148.437-.264.123-.115.216-.258.279-.429l1.331.15a2.071 2.071 0 01-.48.921c-.234.26-.533.462-.898.607a3.455 3.455 0 01-1.252.212zm8.675-4.567l-1.299.141a1.052 1.052 0 00-.193-.37.962.962 0 00-.362-.279 1.318 1.318 0 00-.559-.107c-.297 0-.546.065-.748.193-.2.129-.298.296-.296.5a.528.528 0 00.193.43c.134.11.355.2.662.271l1.031.221c.573.123.998.319 1.276.586.281.268.423.619.425 1.052-.002.38-.114.716-.334 1.008-.218.289-.521.514-.91.677-.388.163-.835.244-1.339.244-.74 0-1.336-.155-1.787-.464a1.865 1.865 0 01-.807-1.304l1.389-.134a.983.983 0 00.402.619c.205.139.471.208.799.208.339 0 .611-.069.816-.208.207-.14.311-.312.311-.516a.534.534 0 00-.201-.429c-.131-.113-.336-.2-.614-.26l-1.032-.217c-.58-.121-1.009-.324-1.288-.61-.278-.289-.416-.654-.413-1.095a1.547 1.547 0 01.303-.969c.207-.275.495-.488.862-.637.37-.153.797-.229 1.28-.229.709 0 1.267.151 1.674.453.409.302.662.71.759 1.225zm4.411.417c0-.984.129-1.889.389-2.713a7.839 7.839 0 011.17-2.292h1.342c-.199.26-.385.579-.559.957a8.593 8.593 0 00-.452 1.237c-.126.446-.226.909-.3 1.39a9.704 9.704 0 00.079 3.311c.126.638.295 1.23.508 1.776.215.543.457.988.724 1.335h-1.342a7.855 7.855 0 01-1.17-2.288c-.26-.827-.389-1.731-.389-2.713zm7.273-4.032v8.064h-1.461v-6.643h-.047l-1.886 1.205v-1.338l2.004-1.288h1.39zm4.607 4.032c0 .982-.131 1.886-.394 2.713a7.768 7.768 0 01-1.165 2.288h-1.343c.202-.26.389-.578.559-.953.173-.376.323-.788.449-1.237.129-.448.228-.913.299-1.393a9.31 9.31 0 00-.078-3.308 10.099 10.099 0 00-.508-1.776c-.213-.546-.453-.992-.721-1.339h1.343a7.753 7.753 0 011.165 2.292c.263.824.394 1.729.394 2.713z" fill="#6733FF"/><rect x="453.699" y="133.101" width="80.216" height="27.712" rx="2.772" stroke="#73777A" stroke-opacity=".5" stroke-width=".792"/><path d="M464.638 151.457h-1.56l2.839-8.064h1.804l2.843 8.064h-1.56l-2.154-6.41h-.063l-2.149 6.41zm.051-3.162h4.252v1.174h-4.252v-1.174zm9.515-2.886v1.102h-3.477v-1.102h3.477zm-2.619-1.449h1.426v5.678c0 .192.029.339.086.441.061.1.14.168.237.205a.92.92 0 00.323.055c.089 0 .17-.007.244-.02.076-.013.134-.025.173-.035l.24 1.114a2.773 2.773 0 01-.839.142 2.33 2.33 0 01-.964-.162 1.496 1.496 0 01-.681-.559c-.166-.252-.247-.567-.245-.945v-5.914zm6.831 1.449v1.102h-3.477v-1.102h3.477zm-2.618-1.449h1.425v5.678c0 .192.029.339.087.441.06.1.139.168.236.205a.924.924 0 00.323.055c.089 0 .17-.007.244-.02.076-.013.134-.025.173-.035l.24 1.114a2.771 2.771 0 01-.838.142 2.336 2.336 0 01-.965-.162 1.496 1.496 0 01-.681-.559c-.166-.252-.247-.567-.244-.945v-5.914zm5.55 7.619c-.383 0-.728-.068-1.035-.205a1.693 1.693 0 01-.725-.614c-.175-.27-.263-.604-.263-1 0-.341.063-.623.189-.847.126-.223.298-.401.515-.535.218-.134.464-.235.737-.303.275-.071.56-.122.854-.154a34.6 34.6 0 00.863-.098c.22-.032.38-.079.48-.142.102-.066.153-.167.153-.303v-.024c0-.297-.087-.526-.263-.689-.176-.163-.43-.244-.76-.244-.349 0-.626.076-.831.228a1.138 1.138 0 00-.41.54l-1.331-.189c.105-.368.279-.675.52-.922.242-.249.537-.435.886-.559a3.39 3.39 0 011.158-.189c.291 0 .581.034.87.103.289.068.553.181.791.338.239.155.431.366.575.634.147.268.221.603.221 1.004v4.048h-1.37v-.831h-.048a1.72 1.72 0 01-.953.823 2.35 2.35 0 01-.823.13zm.371-1.047c.286 0 .534-.057.744-.17.21-.115.371-.267.484-.456a1.16 1.16 0 00.173-.619v-.712a.646.646 0 01-.228.102 3.206 3.206 0 01-.354.083c-.132.023-.262.044-.39.063l-.335.047a2.485 2.485 0 00-.571.142.95.95 0 00-.398.275.677.677 0 00-.145.449c0 .263.096.461.287.595.192.134.436.201.733.201zm6.894 1.043c-.604 0-1.122-.132-1.555-.398a2.647 2.647 0 01-.996-1.098c-.231-.47-.347-1.011-.347-1.622 0-.615.118-1.157.355-1.627.236-.472.569-.84 1-1.102.433-.265.945-.398 1.535-.398.491 0 .926.091 1.304.272.38.178.684.432.909.76.226.325.355.706.386 1.142h-1.362a1.306 1.306 0 00-.394-.729c-.205-.197-.479-.295-.823-.295-.291 0-.547.079-.768.236a1.52 1.52 0 00-.516.67c-.12.291-.181.64-.181 1.047 0 .412.061.767.181 1.063.121.294.29.521.508.681.221.158.479.237.776.237.21 0 .398-.04.563-.119.168-.081.309-.198.421-.35.113-.152.191-.337.233-.555h1.362c-.034.428-.16.807-.378 1.138a2.242 2.242 0 01-.89.772c-.375.183-.816.275-1.323.275zm5.187-3.662v3.544h-1.425v-8.064h1.393v3.044h.071c.142-.342.361-.611.658-.808.299-.199.68-.299 1.142-.299.42 0 .786.088 1.098.264.313.176.554.433.725.772.173.338.26.752.26 1.24v3.851h-1.426v-3.63c0-.407-.105-.724-.315-.949-.207-.229-.498-.343-.874-.343-.252 0-.478.055-.677.165a1.16 1.16 0 00-.465.469c-.11.205-.165.453-.165.744zm11.188-2.504v1.102h-3.575v-1.102h3.575zm-2.681 6.048v-6.619c0-.407.084-.745.252-1.016a1.6 1.6 0 01.685-.606 2.22 2.22 0 01.953-.201c.247 0 .466.02.658.059.191.039.333.075.425.106l-.284 1.103a2.144 2.144 0 00-.535-.087c-.265 0-.453.065-.563.193-.108.126-.162.307-.162.544v6.524h-1.429zm3.798 0v-6.048h1.425v6.048h-1.425zm.716-6.906a.829.829 0 01-.582-.225.722.722 0 01-.244-.547c0-.215.081-.398.244-.547a.82.82 0 01.582-.229c.229 0 .423.076.583.229a.713.713 0 01.244.547.722.722 0 01-.244.547.82.82 0 01-.583.225zm3.6-1.158v8.064h-1.425v-8.064h1.425zm4.144 8.182c-.607 0-1.131-.126-1.572-.378a2.553 2.553 0 01-1.011-1.079c-.237-.467-.355-1.017-.355-1.65 0-.622.118-1.168.355-1.638.238-.472.572-.84 1-1.102.428-.265.93-.398 1.508-.398.373 0 .724.061 1.055.181.333.118.627.302.882.552.257.249.459.567.606.952.147.384.221.84.221 1.371v.437h-4.957v-.961h3.591a1.529 1.529 0 00-.178-.728 1.28 1.28 0 00-.484-.508 1.358 1.358 0 00-.717-.185c-.291 0-.547.07-.767.212a1.46 1.46 0 00-.516.551 1.578 1.578 0 00-.185.745v.838c0 .352.064.654.193.906.128.249.308.441.539.575.231.131.502.197.811.197.208 0 .395-.029.563-.087.168-.06.314-.148.437-.264.124-.115.217-.258.28-.429l1.331.15a2.063 2.063 0 01-.481.921 2.34 2.34 0 01-.897.607 3.459 3.459 0 01-1.252.212zm8.675-4.567l-1.299.141a1.069 1.069 0 00-.193-.37.966.966 0 00-.363-.279 1.314 1.314 0 00-.559-.107c-.296 0-.546.065-.748.193-.199.129-.298.296-.295.5a.522.522 0 00.193.43c.134.11.354.2.661.271l1.032.221c.572.123.997.319 1.276.586.281.268.422.619.425 1.052-.003.38-.114.716-.335 1.008-.218.289-.521.514-.909.677-.389.163-.835.244-1.339.244-.74 0-1.336-.155-1.788-.464a1.872 1.872 0 01-.807-1.304l1.39-.134a.983.983 0 00.402.619c.204.139.471.208.799.208.339 0 .61-.069.815-.208.207-.14.311-.312.311-.516a.534.534 0 00-.201-.429c-.131-.113-.336-.2-.614-.26l-1.032-.217c-.58-.121-1.009-.324-1.287-.61-.278-.289-.416-.654-.414-1.095a1.553 1.553 0 01.304-.969c.207-.275.494-.488.862-.637.37-.153.797-.229 1.28-.229.708 0 1.266.151 1.673.453.41.302.663.71.76 1.225z" fill="#6733FF"/><rect x="549.044" y="131.517" width="68.88" height="30.88" rx="2.772" stroke="#73777A" stroke-opacity=".5" stroke-width=".792"/><path d="M562.116 143.393h1.787l2.394 5.843h.095l2.394-5.843h1.788v8.064h-1.402v-5.54h-.075l-2.229 5.516h-1.047l-2.229-5.528h-.075v5.552h-1.401v-8.064zm12.623 8.182c-.59 0-1.102-.13-1.535-.39a2.65 2.65 0 01-1.008-1.09c-.236-.468-.355-1.014-.355-1.638 0-.625.119-1.172.355-1.642.239-.47.575-.835 1.008-1.095.433-.26.945-.39 1.535-.39.591 0 1.103.13 1.536.39.433.26.768.625 1.004 1.095.239.47.358 1.017.358 1.642 0 .624-.119 1.17-.358 1.638a2.62 2.62 0 01-1.004 1.09c-.433.26-.945.39-1.536.39zm.008-1.142c.321 0 .588-.088.804-.264.215-.178.375-.417.48-.716a2.93 2.93 0 00.161-1c0-.37-.053-.705-.161-1.004a1.594 1.594 0 00-.48-.721 1.221 1.221 0 00-.804-.268c-.328 0-.601.09-.819.268a1.624 1.624 0 00-.484.721 3.017 3.017 0 00-.158 1.004c0 .367.053.701.158 1 .108.299.269.538.484.716.218.176.491.264.819.264zm4.1 1.024v-6.048h1.382v1.008h.063c.111-.349.3-.618.567-.807a1.56 1.56 0 01.926-.288c.078 0 .166.004.263.012.1.005.183.015.249.028v1.311a1.544 1.544 0 00-.288-.055 2.558 2.558 0 00-.374-.028c-.26 0-.493.057-.701.17-.205.11-.366.263-.484.46a1.3 1.3 0 00-.177.681v3.556h-1.426zm6.825.118c-.606 0-1.13-.126-1.571-.378a2.555 2.555 0 01-1.012-1.079c-.236-.467-.354-1.017-.354-1.65 0-.622.118-1.168.354-1.638.239-.472.572-.84 1-1.102.428-.265.931-.398 1.508-.398.373 0 .725.061 1.055.181.334.118.628.302.882.552.258.249.46.567.607.952.147.384.22.84.22 1.371v.437h-4.957v-.961h3.591a1.54 1.54 0 00-.177-.728 1.286 1.286 0 00-.484-.508 1.358 1.358 0 00-.717-.185c-.291 0-.547.07-.768.212-.22.139-.392.323-.516.551a1.59 1.59 0 00-.185.745v.838c0 .352.064.654.193.906.129.249.309.441.54.575.231.131.501.197.811.197.207 0 .395-.029.563-.087.168-.06.313-.148.437-.264.123-.115.216-.258.279-.429l1.331.15a2.071 2.071 0 01-.48.921c-.234.26-.533.462-.898.607a3.455 3.455 0 01-1.252.212zM601.444 149.34l-4.204-4.204.561-.561 3.643 3.643 3.643-3.643.561.561-4.204 4.204z" fill="#6733FF"/><rect x="624.656" y="131.121" width="52.344" height="31.672" rx="3.168" fill="#6733FF"/><path d="M642.506 145.61a1.074 1.074 0 00-.465-.803c-.27-.192-.622-.288-1.055-.288-.304 0-.566.046-.783.138a1.162 1.162 0 00-.501.374.913.913 0 00-.177.539c0 .168.038.314.114.437.079.124.186.229.319.315.134.084.283.155.445.213.163.058.327.106.493.146l.756.189c.304.071.597.166.878.287.283.121.536.273.76.457.225.184.404.406.535.665.131.26.197.565.197.914 0 .472-.121.889-.362 1.248-.242.357-.591.637-1.048.839-.454.199-1.004.299-1.65.299-.627 0-1.172-.097-1.634-.291a2.433 2.433 0 01-1.078-.851c-.258-.373-.397-.827-.418-1.362h1.437c.021.281.108.514.26.701.152.186.351.325.595.417.247.092.522.138.827.138.317 0 .596-.047.834-.142a1.35 1.35 0 00.567-.401.973.973 0 00.209-.607.773.773 0 00-.185-.52 1.36 1.36 0 00-.508-.346 4.773 4.773 0 00-.756-.252l-.917-.236c-.664-.171-1.189-.43-1.575-.776-.384-.349-.575-.813-.575-1.39 0-.475.128-.891.386-1.248.26-.357.613-.634 1.059-.831.446-.2.951-.299 1.516-.299.572 0 1.073.099 1.504.299.433.197.773.471 1.02.823.246.349.374.751.382 1.205h-1.406zm4.496 5.969c-.384 0-.729-.068-1.036-.205a1.69 1.69 0 01-.724-.614c-.176-.27-.264-.604-.264-1 0-.341.063-.623.189-.847.126-.223.298-.401.516-.535.217-.134.463-.235.736-.303.276-.071.56-.122.854-.154a34.6 34.6 0 00.863-.098c.22-.032.38-.079.48-.142a.337.337 0 00.154-.303v-.024c0-.297-.088-.526-.264-.689-.176-.163-.429-.244-.76-.244-.349 0-.626.076-.831.228a1.13 1.13 0 00-.409.54l-1.331-.189a2.13 2.13 0 01.519-.922c.242-.249.537-.435.886-.559a3.39 3.39 0 011.158-.189c.291 0 .581.034.87.103.289.068.553.181.792.338.239.155.43.366.575.634.147.268.22.603.22 1.004v4.048h-1.37v-.831h-.048a1.72 1.72 0 01-.952.823c-.234.087-.508.13-.823.13zm.37-1.047c.286 0 .534-.057.744-.17.21-.115.371-.267.484-.456a1.16 1.16 0 00.174-.619v-.712a.661.661 0 01-.229.102 3.206 3.206 0 01-.354.083c-.131.023-.261.044-.39.063l-.335.047a2.485 2.485 0 00-.571.142.94.94 0 00-.397.275.677.677 0 00-.146.449c0 .263.096.461.287.595.192.134.436.201.733.201zm9.442-5.123l-2.154 6.048h-1.575l-2.154-6.048h1.52l1.39 4.493h.063l1.394-4.493h1.516zm3.458 6.166c-.606 0-1.13-.126-1.571-.378a2.555 2.555 0 01-1.012-1.079c-.236-.467-.354-1.017-.354-1.65 0-.622.118-1.168.354-1.638.239-.472.572-.84 1-1.102.428-.265.931-.398 1.508-.398.373 0 .725.061 1.056.181.333.118.627.302.882.552.257.249.459.567.606.952.147.384.22.84.22 1.371v.437h-4.957v-.961h3.591a1.528 1.528 0 00-.177-.728 1.286 1.286 0 00-.484-.508 1.358 1.358 0 00-.717-.185c-.291 0-.547.07-.768.212-.22.139-.392.323-.516.551-.12.226-.182.474-.185.745v.838c0 .352.065.654.193.906.129.249.309.441.54.575.231.131.501.197.811.197.207 0 .395-.029.563-.087.168-.06.314-.148.437-.264.123-.115.217-.258.28-.429l1.33.15a2.071 2.071 0 01-.48.921c-.234.26-.533.462-.898.607a3.455 3.455 0 01-1.252.212z" fill="#fff"/></g><defs><filter id="filter0_d_5262_59143" x="-5" y="0" width="1075" height="595" filterUnits="userSpaceOnUse" color-interpolation-filters="sRGB"><feFlood flood-opacity="0" result="BackgroundImageFix"/><feColorMatrix in="SourceAlpha" values="0 0 0 0 0 0 0 0 0 0 0 0 0 0 0 0 0 0 127 0" result="hardAlpha"/><feOffset dy="16"/><feGaussianBlur stdDeviation="30"/><feColorMatrix values="0 0 0 0 0.405825 0 0 0 0 0.2 0 0 0 0 1 0 0 0 0.15 0"/><feBlend in2="BackgroundImageFix" result="effect1_dropShadow_5262_59143"/><feBlend in="SourceGraphic" in2="effect1_dropShadow_5262_59143" result="shape"/></filter></defs></svg>