<svg width="605" height="125" viewBox="0 0 605 125" fill="none" xmlns="http://www.w3.org/2000/svg"><path d="M5.138 11.07V21.44H3.26v-8.541H3.2l-2.425 1.55v-1.722L3.35 11.07h1.787zm7.367 4.43v1.509H7.837V15.5h4.668zm6.124-4.43V21.44H16.75v-8.541h-.061l-2.425 1.55v-1.722l2.577-1.656h1.787zm9.58 10.52c-.759 0-1.417-.167-1.974-.5a3.403 3.403 0 01-1.296-1.403c-.303-.6-.455-1.303-.455-2.106 0-.803.152-1.507.455-2.111a3.397 3.397 0 011.296-1.408c.557-.334 1.215-.5 1.975-.5s1.417.166 1.974.5c.557.335.987.804 1.291 1.408.307.604.46 1.308.46 2.11 0 .804-.153 1.506-.46 2.107a3.37 3.37 0 01-1.29 1.402c-.558.334-1.216.501-1.975.501zm.01-1.468c.413 0 .757-.113 1.034-.339.276-.23.482-.537.617-.921.139-.385.208-.814.208-1.286 0-.476-.07-.906-.208-1.291a2.043 2.043 0 00-.617-.927c-.277-.23-.621-.344-1.033-.344-.422 0-.773.115-1.053.344-.277.23-.484.539-.623.927a3.881 3.881 0 00-.202 1.29c0 .473.067.902.202 1.287.139.384.346.692.623.921.28.226.631.34 1.053.34zm9.21-6.46v1.418h-4.596v-1.418h4.597zm-3.447 7.777v-8.51c0-.524.108-.96.324-1.307a2.05 2.05 0 01.881-.78 2.855 2.855 0 011.225-.258c.318 0 .6.026.846.076s.428.097.547.137l-.365 1.417a3.206 3.206 0 00-.294-.07 1.775 1.775 0 00-.394-.04c-.341 0-.583.082-.724.247-.139.162-.208.395-.208.699v8.389h-1.838zM46.598 11.07V21.44H44.72v-8.541h-.06l-2.426 1.55v-1.722l2.577-1.656h1.787zm6.19 10.369v-7.777h1.776v1.296h.081c.142-.449.385-.794.73-1.037.347-.247.743-.37 1.189-.37.101 0 .214.005.339.015.128.007.235.019.319.036v1.685c-.078-.027-.2-.05-.37-.07a3.404 3.404 0 00-.48-.036c-.335 0-.635.073-.902.218-.263.142-.47.339-.622.592a1.67 1.67 0 00-.228.876v4.572h-1.833zm8.723.151c-.76 0-1.417-.167-1.974-.5a3.403 3.403 0 01-1.296-1.403c-.304-.6-.456-1.303-.456-2.106 0-.803.152-1.507.456-2.111a3.397 3.397 0 011.296-1.408c.557-.334 1.215-.5 1.974-.5.76 0 1.418.166 1.975.5.557.335.987.804 1.29 1.408.308.604.461 1.308.461 2.11 0 .804-.153 1.506-.46 2.107a3.37 3.37 0 01-1.291 1.402c-.557.334-1.215.501-1.975.501zm.01-1.468c.412 0 .756-.113 1.033-.339.277-.23.483-.537.618-.921.138-.385.207-.814.207-1.286 0-.476-.069-.906-.207-1.291a2.043 2.043 0 00-.618-.927c-.277-.23-.62-.344-1.033-.344-.422 0-.773.115-1.053.344-.276.23-.484.539-.622.927a3.881 3.881 0 00-.203 1.29c0 .473.068.902.203 1.287.138.384.346.692.622.921.28.226.631.34 1.053.34zm6.668 1.317l-2.197-7.777h1.868l1.367 5.468h.07l1.398-5.468h1.848L73.94 19.1h.076l1.346-5.438h1.874l-2.203 7.777h-1.908l-1.458-5.255h-.107l-1.458 5.255H68.19zm16.472-5.721l-1.67.182a1.342 1.342 0 00-.249-.476 1.233 1.233 0 00-.466-.36 1.697 1.697 0 00-.718-.136c-.382 0-.702.083-.962.248-.257.165-.383.38-.38.643-.003.226.08.41.248.552.172.142.456.258.85.35l1.327.283c.736.158 1.282.41 1.64.754.361.344.544.795.547 1.352-.003.49-.147.921-.43 1.296-.28.371-.67.661-1.17.87-.5.21-1.073.314-1.721.314-.952 0-1.718-.199-2.298-.597-.58-.402-.927-.96-1.038-1.676l1.787-.172c.08.351.253.616.516.795.263.179.606.268 1.028.268.435 0 .785-.09 1.048-.268.267-.179.4-.4.4-.663a.69.69 0 00-.258-.552c-.17-.145-.432-.257-.79-.334l-1.326-.279c-.746-.155-1.298-.416-1.656-.784-.358-.372-.535-.84-.532-1.408-.003-.479.127-.894.39-1.245.267-.355.636-.628 1.109-.82.476-.196 1.024-.294 1.645-.294.912 0 1.629.194 2.152.582.526.388.852.913.977 1.575zM93.576 18.402v-2.124H95.7v2.124h-2.124zM104.239 12.645V11.07h8.272v1.575h-3.205v8.794h-1.863v-8.794h-3.204zm12.05 8.945c-.759 0-1.418-.167-1.974-.5a3.402 3.402 0 01-1.296-1.403c-.304-.6-.456-1.303-.456-2.106 0-.803.152-1.507.456-2.111a3.395 3.395 0 011.296-1.408c.556-.334 1.215-.5 1.974-.5.759 0 1.418.166 1.974.5.557.335.988.804 1.291 1.408.307.604.461 1.308.461 2.11 0 .804-.154 1.506-.461 2.107a3.365 3.365 0 01-1.291 1.402c-.556.334-1.215.501-1.974.501zm.01-1.468c.412 0 .756-.113 1.033-.339.277-.23.483-.537.618-.921.138-.385.207-.814.207-1.286 0-.476-.069-.906-.207-1.291a2.041 2.041 0 00-.618-.927c-.277-.23-.621-.344-1.033-.344-.422 0-.773.115-1.053.344-.277.23-.484.539-.623.927a3.881 3.881 0 00-.202 1.29c0 .473.067.902.202 1.287.139.384.346.692.623.921.28.226.631.34 1.053.34zm9.154-6.46v1.418h-4.47v-1.418h4.47zm-3.366-1.863h1.833v7.3c0 .247.037.436.111.568a.602.602 0 00.304.263c.125.047.263.07.415.07.115 0 .219-.008.314-.025a2.64 2.64 0 00.222-.045l.309 1.433c-.098.033-.238.07-.42.11-.179.041-.398.065-.658.072a2.984 2.984 0 01-1.24-.208 1.929 1.929 0 01-.876-.719c-.213-.324-.317-.729-.314-1.215V11.8zm7.137 9.796c-.493 0-.937-.087-1.332-.263a2.172 2.172 0 01-.931-.79c-.226-.347-.339-.776-.339-1.286 0-.438.081-.801.243-1.088a1.88 1.88 0 01.663-.688c.28-.173.596-.303.947-.39.354-.091.72-.157 1.098-.198.456-.047.825-.09 1.109-.126.283-.04.489-.101.617-.182.132-.085.198-.215.198-.39v-.03c0-.382-.113-.677-.339-.887-.226-.209-.552-.313-.977-.313-.449 0-.805.097-1.069.293a1.46 1.46 0 00-.526.694l-1.711-.243c.135-.473.358-.868.668-1.185.311-.32.69-.56 1.139-.719a4.359 4.359 0 011.489-.243c.374 0 .747.044 1.118.132.372.088.711.233 1.018.435.307.2.553.471.739.815.189.345.284.775.284 1.291v5.204h-1.762V20.37h-.061a2.221 2.221 0 01-1.225 1.058 3.04 3.04 0 01-1.058.167zm.476-1.346c.368 0 .687-.073.957-.218.27-.148.477-.344.622-.587.149-.243.223-.508.223-.795v-.916a.856.856 0 01-.294.131c-.135.04-.287.076-.455.107-.169.03-.336.057-.501.08-.166.024-.309.045-.431.061a3.207 3.207 0 00-.734.183 1.219 1.219 0 00-.511.354c-.125.148-.188.34-.188.577 0 .338.124.593.37.765.246.172.56.258.942.258zm7.305-9.179V21.44h-1.833V11.07h1.833zm3.013 10.48c-.307 0-.57-.108-.789-.324a1.045 1.045 0 01-.324-.79 1.033 1.033 0 01.324-.78c.219-.215.482-.323.789-.323.297 0 .556.108.775.324a1.062 1.062 0 01.177 1.341 1.158 1.158 0 01-.405.405 1.051 1.051 0 01-.547.147zm0-5.549c-.307 0-.57-.108-.789-.324a1.055 1.055 0 01-.324-.79 1.033 1.033 0 01.324-.78c.219-.218.482-.328.789-.328.297 0 .556.11.775.329.223.216.336.476.339.78a1.064 1.064 0 01-.162.556 1.158 1.158 0 01-.405.405 1.024 1.024 0 01-.547.152z" fill="#000"/><rect x="149.008" y="6.938" width="40.672" height="19" rx="9.5" fill="#C3F7C9"/><path d="M158.672 20.802v-8.64h.553v8.64h-.553zm1.596-5.875a.92.92 0 00-.398-.689c-.232-.164-.533-.246-.905-.246-.261 0-.485.039-.671.118a.994.994 0 00-.429.32.778.778 0 00-.054.837.906.906 0 00.273.27c.115.072.242.133.382.183.139.05.28.09.422.125l.648.162c.261.06.512.142.752.246.243.103.46.234.652.391.193.158.346.348.459.57.112.224.168.485.168.784 0 .405-.103.761-.31 1.07-.207.306-.506.545-.898.719-.389.17-.86.256-1.414.256-.538 0-1.005-.083-1.401-.25a2.085 2.085 0 01-.924-.729c-.221-.32-.34-.708-.358-1.167h1.232c.018.24.092.44.223.6.13.16.3.28.509.358.212.079.448.118.709.118.272 0 .511-.04.715-.121a1.16 1.16 0 00.486-.345.83.83 0 00.179-.52.661.661 0 00-.158-.445 1.168 1.168 0 00-.436-.297 4.16 4.16 0 00-.648-.216l-.786-.202c-.569-.147-1.019-.368-1.35-.665-.329-.3-.493-.697-.493-1.192 0-.407.11-.764.331-1.07.223-.306.525-.543.908-.712a3.147 3.147 0 011.299-.256c.491 0 .92.085 1.289.256.372.17.663.404.875.706.211.299.32.643.327 1.033h-1.205zm4.808 5.143c-.556 0-1.033-.14-1.431-.422-.396-.283-.701-.692-.915-1.225-.211-.535-.317-1.18-.317-1.934.002-.754.109-1.395.321-1.924.214-.53.518-.936.915-1.215.398-.279.874-.418 1.427-.418.554 0 1.03.14 1.428.418.398.28.703.684.914 1.215.214.531.321 1.173.321 1.924 0 .756-.107 1.402-.321 1.938-.211.533-.516.94-.914 1.221-.396.282-.872.422-1.428.422zm0-1.056c.432 0 .773-.213 1.023-.638.252-.428.378-1.056.378-1.887 0-.549-.058-1.01-.172-1.384-.115-.373-.277-.654-.486-.843a1.066 1.066 0 00-.743-.287c-.43 0-.769.213-1.019.641-.25.425-.376 1.05-.378 1.873-.002.551.053 1.015.165 1.39.115.377.277.66.486.851.21.19.458.284.746.284zm4.186.999a.723.723 0 01-.526-.216.701.701 0 01-.216-.527.693.693 0 01.216-.52.723.723 0 01.526-.215c.198 0 .37.072.517.215a.71.71 0 01.118.895.784.784 0 01-.27.27.703.703 0 01-.365.098zm4.181.057c-.555 0-1.032-.14-1.431-.422-.396-.283-.7-.692-.914-1.225-.212-.535-.317-1.18-.317-1.934.002-.754.109-1.395.32-1.924.214-.53.519-.936.915-1.215.398-.279.874-.418 1.427-.418.554 0 1.03.14 1.428.418.398.28.703.684.915 1.215.213.531.32 1.173.32 1.924 0 .756-.107 1.402-.32 1.938-.212.533-.517.94-.915 1.221-.396.282-.872.422-1.428.422zm0-1.056c.432 0 .773-.213 1.023-.638.252-.428.378-1.056.378-1.887 0-.549-.057-1.01-.172-1.384-.115-.373-.277-.654-.486-.843a1.064 1.064 0 00-.743-.287c-.429 0-.769.213-1.019.641-.25.425-.376 1.05-.378 1.873-.002.551.053 1.015.166 1.39.114.377.276.66.486.851.209.19.457.284.745.284zm6.245 1.056c-.556 0-1.033-.14-1.431-.422-.396-.283-.701-.692-.915-1.225-.212-.535-.317-1.18-.317-1.934.002-.754.109-1.395.32-1.924.214-.53.519-.936.915-1.215.398-.279.874-.418 1.428-.418.553 0 1.029.14 1.427.418.398.28.703.684.915 1.215.214.531.32 1.173.32 1.924 0 .756-.106 1.402-.32 1.938-.212.533-.517.94-.915 1.221-.396.282-.872.422-1.427.422zm0-1.056c.432 0 .772-.213 1.022-.638.252-.428.378-1.056.378-1.887 0-.549-.057-1.01-.172-1.384-.115-.373-.277-.654-.486-.843a1.063 1.063 0 00-.742-.287c-.43 0-.77.213-1.02.641-.249.425-.375 1.05-.378 1.873-.002.551.053 1.015.166 1.39.114.377.276.66.486.851.209.19.458.284.746.284z" fill="#3F4245"/><path d="M475.195 20.695a.452.452 0 01-.334-.134.454.454 0 01-.134-.334v-3.39l-3.281-4.15c-.082-.108-.093-.22-.033-.334a.3.3 0 01.286-.17h7.272a.3.3 0 01.286.17c.06.114.049.226-.033.335l-3.281 4.148v3.391a.454.454 0 01-.134.334.452.452 0 01-.334.134h-.28zm.14-4.074l3.01-3.83h-6.02l3.01 3.83zM488.01 20.939v-8.065h5.166V14.1h-3.705v2.19h3.351v1.224h-3.351v3.425h-1.461zm6.212 0V14.89h1.426v6.049h-1.426zm.717-6.907a.832.832 0 01-.583-.224.726.726 0 01-.244-.548c0-.215.082-.397.244-.547a.824.824 0 01.583-.228c.228 0 .423.076.583.228.163.15.244.332.244.547a.723.723 0 01-.244.548.824.824 0 01-.583.224zm3.378-1.158v8.065h-1.425v-8.065h1.425zm4.264 2.016v1.103h-3.477V14.89h3.477zm-2.618-1.449h1.425v5.678c0 .192.029.339.087.441.06.1.139.168.236.205a.908.908 0 00.323.055c.089 0 .171-.006.244-.02.076-.013.134-.024.173-.035l.24 1.114a2.68 2.68 0 01-.838.142 2.324 2.324 0 01-.965-.161 1.5 1.5 0 01-.681-.56c-.165-.251-.247-.566-.244-.944V13.44zm6.201 7.616c-.606 0-1.13-.126-1.571-.378a2.56 2.56 0 01-1.012-1.08c-.236-.466-.354-1.017-.354-1.65 0-.621.118-1.167.354-1.637a2.68 2.68 0 011-1.103c.428-.265.931-.397 1.508-.397.373 0 .725.06 1.056.18.333.119.627.303.882.552.257.25.459.567.606.953.147.383.22.84.22 1.37v.437h-4.957v-.96h3.591a1.531 1.531 0 00-.177-.729 1.294 1.294 0 00-.484-.508 1.363 1.363 0 00-.717-.185c-.291 0-.547.07-.768.213-.22.139-.392.323-.516.55a1.6 1.6 0 00-.185.745v.839c0 .352.065.654.193.905.129.25.309.442.54.575.231.132.501.197.811.197.207 0 .395-.029.563-.086.168-.06.314-.149.437-.264.123-.116.217-.259.28-.43l1.33.15a2.076 2.076 0 01-.48.922c-.234.26-.533.462-.898.606a3.44 3.44 0 01-1.252.213zm3.674-.118V14.89h1.382v1.008h.063c.11-.349.299-.618.567-.807.27-.191.578-.287.925-.287.079 0 .167.004.264.012.1.005.182.014.248.027v1.311a1.507 1.507 0 00-.288-.055 2.645 2.645 0 00-.374-.027c-.26 0-.493.056-.701.169-.204.11-.366.264-.484.46a1.3 1.3 0 00-.177.682v3.556h-1.425zm8.954-4.45l-1.299.142a1.047 1.047 0 00-.193-.37.957.957 0 00-.362-.28 1.323 1.323 0 00-.559-.106c-.297 0-.546.064-.749.193-.199.128-.298.295-.295.5a.523.523 0 00.193.429c.134.11.354.2.662.272l1.031.22c.572.124.998.32 1.276.587.281.268.423.618.425 1.051-.002.38-.114.717-.335 1.008-.217.289-.521.515-.909.677a3.444 3.444 0 01-1.339.245c-.74 0-1.336-.155-1.787-.465a1.868 1.868 0 01-.808-1.303l1.39-.134a.979.979 0 00.402.618c.205.14.471.209.799.209.339 0 .611-.07.815-.209.208-.14.311-.311.311-.516a.539.539 0 00-.2-.429c-.132-.113-.336-.2-.615-.26l-1.031-.216c-.58-.121-1.01-.325-1.288-.61-.278-.29-.416-.654-.413-1.095a1.546 1.546 0 01.303-.97c.207-.275.495-.487.862-.637.37-.152.797-.228 1.28-.228.709 0 1.266.15 1.673.453.41.301.663.71.76 1.224zM550.311 18.867l-2.403-2.402.481-.489 1.582 1.583v-5.873h.679v5.873l1.582-1.583.481.489-2.402 2.402zm-3.656 2.324a1.06 1.06 0 01-.782-.314 1.06 1.06 0 01-.314-.783v-1.645h.678v1.645a.4.4 0 00.131.287.4.4 0 00.287.13h7.311c.105 0 .2-.043.287-.13a.4.4 0 00.131-.287v-1.645h.679v1.645c0 .312-.105.573-.314.783-.21.209-.471.314-.783.314h-7.311zM565.239 12.874v8.065h-1.461v-8.065h1.461zm1.297 8.065V14.89h1.362v1.028h.071c.126-.346.335-.617.626-.811.291-.197.639-.295 1.044-.295.409 0 .754.1 1.035.299.284.197.483.466.599.807h.063c.134-.336.359-.604.677-.803.32-.202.699-.303 1.138-.303.556 0 1.01.176 1.362.527.352.352.528.865.528 1.54v4.06h-1.429v-3.84c0-.375-.1-.65-.3-.823a1.066 1.066 0 00-.732-.263c-.344 0-.613.107-.807.322-.192.213-.288.49-.288.831v3.773h-1.398V17.04c0-.312-.094-.561-.283-.748-.186-.186-.431-.28-.732-.28-.205 0-.392.053-.56.158a1.1 1.1 0 00-.401.437c-.1.187-.15.404-.15.654v3.678h-1.425zm9.729 2.267V14.89h1.402v1h.083a2.59 2.59 0 01.311-.468c.134-.168.315-.311.543-.43.228-.12.52-.18.874-.18.467 0 .889.12 1.264.358.378.236.677.587.898 1.051.223.462.335 1.03.335 1.701 0 .665-.109 1.229-.327 1.694-.218.464-.515.819-.89 1.063a2.291 2.291 0 01-1.276.366c-.346 0-.634-.058-.862-.174a1.745 1.745 0 01-.551-.417 2.67 2.67 0 01-.319-.468h-.059v3.22h-1.426zm1.398-5.292c0 .392.055.734.165 1.028.113.294.275.524.485.69.212.162.47.243.771.243.315 0 .579-.084.792-.252.212-.17.373-.403.48-.697.111-.296.166-.633.166-1.012 0-.375-.054-.708-.162-1a1.501 1.501 0 00-.48-.685c-.213-.165-.478-.248-.796-.248-.304 0-.563.08-.775.24a1.48 1.48 0 00-.485.674 2.933 2.933 0 00-.161 1.02zm7.949 3.143c-.591 0-1.103-.13-1.536-.39a2.65 2.65 0 01-1.008-1.09c-.236-.468-.354-1.014-.354-1.639s.118-1.172.354-1.642c.239-.47.575-.835 1.008-1.095.433-.26.945-.39 1.536-.39.59 0 1.102.13 1.535.39.433.26.768.625 1.004 1.095.239.47.359 1.017.359 1.642s-.12 1.17-.359 1.638a2.62 2.62 0 01-1.004 1.09c-.433.26-.945.39-1.535.39zm.007-1.142c.321 0 .588-.088.804-.264.215-.179.375-.418.48-.717.108-.299.162-.632.162-1 0-.37-.054-.705-.162-1.004a1.59 1.59 0 00-.48-.72c-.216-.179-.483-.268-.804-.268-.328 0-.601.089-.819.267a1.62 1.62 0 00-.484.721c-.105.3-.157.634-.157 1.004 0 .368.052.701.157 1 .108.3.269.538.484.717.218.176.491.264.819.264zm3.879 1.024V14.89h1.382v1.008h.063c.11-.349.299-.618.567-.807a1.56 1.56 0 01.925-.287c.079 0 .167.004.264.012.1.005.182.014.248.027v1.311a1.494 1.494 0 00-.287-.055 2.67 2.67 0 00-.375-.027 1.44 1.44 0 00-.7.169c-.205.11-.367.264-.485.46a1.3 1.3 0 00-.177.682v3.556h-1.425zm7.519-6.049v1.103h-3.477V14.89h3.477zm-2.618-1.449h1.425v5.678c0 .192.029.339.087.441.06.1.139.168.236.205a.908.908 0 00.323.055c.089 0 .17-.006.244-.02.076-.013.134-.024.173-.035l.24 1.114a2.69 2.69 0 01-.838.142 2.324 2.324 0 01-.965-.161 1.5 1.5 0 01-.681-.56c-.166-.251-.247-.566-.244-.944V13.44z" fill="#6733FF"/><g clip-path="url(#clip0_5262_59208)"><path fill="#fff" fill-opacity=".8" d="M0 38.61h876.849v85.877H0z"/><g><mask id="a" fill="#fff"><path d="M0 39.007h36.008V66.84H0V39.007z"/></mask><path d="M0 39.007h36.008V66.84H0V39.007z" fill="#F6F8FA"/><path d="M0 39.007v-.693h-.691v.693H0zm36.008 0h.692v-.693h-.692v.693zM0 39.699h36.008v-1.385H0V39.7zm35.315-.692V66.84H36.7V39.007h-1.385zM.691 66.84V39.007H-.69V66.84H.69z" fill="#DFE3E5" mask="url(#a)"/><rect x="11.081" y="46.692" width="13.157" height="13.157" rx="2.424" fill="#fff" stroke="#C1C6C9" stroke-width=".692"/><mask id="b" fill="#fff"><path d="M36.008 38.61h88.787v28.626H36.008V38.61z"/></mask><path d="M36.008 38.61h88.787v28.626H36.008V38.61z" fill="#F6F8FA"/><path d="M124.795 38.61h.692v-.692h-.692v.692zm-88.787.693h88.787v-1.385H36.008v1.385zm88.094-.693v28.626h1.385V38.61h-1.385z" fill="#DFE3E5" mask="url(#b)"/><path d="M45.688 56.266H44.52l2.127-6.044H48l2.13 6.044h-1.168l-1.614-4.804H47.3l-1.611 4.804zm.039-2.37h3.187v.88h-3.187v-.88zm10.087-1.635h-1.103a1.374 1.374 0 00-.175-.48 1.295 1.295 0 00-.746-.582 1.68 1.68 0 00-.516-.077c-.329 0-.62.083-.874.248a1.627 1.627 0 00-.596.72c-.144.315-.215.7-.215 1.154 0 .462.072.852.215 1.169.146.314.344.552.596.714.254.159.544.239.87.239.182 0 .35-.024.508-.071.16-.05.302-.121.428-.216a1.314 1.314 0 00.505-.82l1.103.006c-.041.287-.13.557-.268.809a2.385 2.385 0 01-.534.666c-.22.191-.478.34-.773.449-.296.106-.623.16-.983.16a2.747 2.747 0 01-1.422-.37 2.574 2.574 0 01-.986-1.065c-.24-.464-.36-1.02-.36-1.67 0-.651.121-1.208.363-1.67.242-.464.571-.82.989-1.065.416-.246.889-.37 1.416-.37.336 0 .649.048.938.142.29.095.547.233.773.416.227.181.413.404.558.667.148.262.244.561.29.897zm.737-1.12v-.919h4.822v.918h-1.868v5.126h-1.086V51.14h-1.868z" fill="#54595C"/><path d="M65.565 53.912l.09-1.593-1.337.877-.48-.834 1.428-.716-1.428-.716.48-.834 1.338.877-.091-1.593h.956l-.087 1.593 1.338-.877.48.834-1.432.716 1.432.716-.48.834-1.338-.877.087 1.593h-.956z" fill="#F2461B"/><mask id="c" fill="#fff"><path d="M124.795 38.61h55.212v28.626h-55.212V38.61z"/></mask><path d="M124.795 38.61h55.212v28.626h-55.212V38.61z" fill="#F6F8FA"/><path d="M180.007 38.61h.693v-.692h-.693v.692zm-55.212.693h55.212v-1.385h-55.212v1.385zm54.52-.693v28.626h1.385V38.61h-1.385z" fill="#DFE3E5" mask="url(#c)"/><path d="M136.984 51.884a.809.809 0 00-.348-.602c-.203-.144-.467-.216-.791-.216-.228 0-.424.035-.587.104a.862.862 0 00-.375.28.68.68 0 00-.047.732.774.774 0 00.239.236c.1.063.211.116.333.16.122.042.245.079.369.108l.566.142c.229.053.448.125.659.215.212.09.402.205.569.343.169.137.303.304.401.498.099.195.148.423.148.685 0 .354-.091.666-.272.935a1.79 1.79 0 01-.785.629c-.34.15-.752.224-1.236.224-.47 0-.878-.073-1.224-.218a1.822 1.822 0 01-.809-.638c-.193-.279-.297-.62-.313-1.02h1.077c.016.21.081.385.195.525s.263.244.446.312c.185.07.391.104.619.104.238 0 .447-.036.626-.106.181-.073.322-.174.425-.302a.729.729 0 00.156-.454.575.575 0 00-.139-.39 1.01 1.01 0 00-.38-.26 3.681 3.681 0 00-.567-.188l-.687-.177c-.498-.128-.891-.322-1.181-.581-.287-.262-.43-.61-.43-1.042 0-.356.096-.668.289-.935.194-.268.459-.475.794-.623.334-.15.713-.224 1.136-.224.428 0 .804.075 1.127.224.324.148.579.353.764.617.185.261.28.562.286.903h-1.053zm2.112 4.382v-6.044h3.93v.918h-2.835v1.64h2.632v.918h-2.632v1.65h2.859v.918h-3.954zm4.782-5.126v-.918h4.821v.918h-1.868v5.126h-1.086V51.14h-1.867z" fill="#54595C"/><mask id="d" fill="#fff"><path d="M180.008 38.61h61.12v28.626h-61.12V38.61z"/></mask><path d="M180.008 38.61h61.12v28.626h-61.12V38.61z" fill="#F6F8FA"/><path d="M241.128 38.61h.693v-.692h-.693v.692zm-61.12.693h61.12v-1.385h-61.12v1.385zm60.428-.693v28.626h1.385V38.61h-1.385z" fill="#DFE3E5" mask="url(#d)"/><path d="M188.912 56.266v-6.044h3.872v.918h-2.777v1.64h2.511v.918h-2.511v2.568h-1.095zm4.869 0v-6.044h3.872v.918h-2.777v1.64h2.511v.918h-2.511v2.568h-1.095zm7.268-6.044v6.044h-1.095v-4.978h-.035l-1.413.903v-1.004l1.501-.965h1.042z" fill="#54595C"/><mask id="e" fill="#fff"><path d="M241.127 38.61h61.12v28.626h-61.12V38.61z"/></mask><path d="M241.127 38.61h61.12v28.626h-61.12V38.61z" fill="#F6F8FA"/><path d="M302.247 38.61h.693v-.692h-.693v.692zm-61.12.693h61.12v-1.385h-61.12v1.385zm60.428-.693v28.626h1.385V38.61h-1.385z" fill="#DFE3E5" mask="url(#e)"/><path d="M252.431 50.222v6.044h-1.095v-4.978h-.036l-1.413.903v-1.004l1.502-.965h1.042zm3.768 6.159c-.486 0-.903-.123-1.251-.37-.347-.247-.613-.604-.8-1.07-.185-.469-.277-1.032-.277-1.691.002-.66.095-1.22.28-1.682.187-.464.453-.818.8-1.062.348-.244.764-.366 1.248-.366s.9.122 1.248.366.615.598.8 1.062c.187.464.28 1.025.28 1.682 0 .66-.093 1.225-.28 1.694-.185.466-.452.822-.8 1.068-.346.246-.762.369-1.248.369zm0-.924c.377 0 .676-.186.894-.558.22-.373.33-.923.33-1.65 0-.48-.05-.882-.15-1.209-.1-.326-.242-.572-.425-.738a.93.93 0 00-.649-.25c-.376 0-.673.186-.891.56-.219.372-.329.918-.331 1.638-.002.482.046.887.145 1.216.1.328.242.576.425.743a.94.94 0 00.652.248zm5.406-5.317c.29.002.571.053.844.153.276.099.524.26.744.484.22.222.395.52.525.894s.195.836.195 1.387c.002.52-.053.984-.165 1.393a3.1 3.1 0 01-.475 1.033 2.102 2.102 0 01-.747.643 2.143 2.143 0 01-.983.221c-.381 0-.72-.075-1.015-.224a1.907 1.907 0 01-1.044-1.505h1.077c.055.24.167.43.336.572.171.14.387.21.646.21.419 0 .742-.182.968-.546.227-.364.34-.87.34-1.517h-.042a1.552 1.552 0 01-.374.449c-.154.124-.328.22-.523.286-.193.067-.397.1-.613.1-.355 0-.673-.084-.957-.253a1.85 1.85 0 01-.669-.697 2.07 2.07 0 01-.248-1.012c0-.393.09-.746.271-1.06.183-.314.438-.562.764-.743.327-.183.709-.272 1.145-.268zm.003.885c-.212 0-.404.052-.575.156a1.108 1.108 0 00-.401.42 1.19 1.19 0 00-.145.587c.002.214.05.409.145.584.096.175.227.314.392.416.167.102.358.153.573.153a1.087 1.087 0 00.805-.345c.104-.11.185-.235.242-.375a1.09 1.09 0 00.086-.442c0-.207-.05-.398-.148-.573a1.137 1.137 0 00-.398-.422 1.05 1.05 0 00-.576-.159zm5.386-.885c.289.002.57.053.843.153.276.099.524.26.744.484.22.222.396.52.525.894.13.374.195.836.195 1.387.002.52-.053.984-.165 1.393a3.1 3.1 0 01-.475 1.033 2.102 2.102 0 01-.747.643 2.139 2.139 0 01-.982.221c-.382 0-.72-.075-1.015-.224a1.903 1.903 0 01-1.045-1.505h1.077c.055.24.167.43.336.572.172.14.387.21.647.21.419 0 .741-.182.967-.546.227-.364.34-.87.34-1.517h-.042a1.552 1.552 0 01-.374.449c-.154.124-.328.22-.523.286-.192.067-.397.1-.613.1-.354 0-.673-.084-.956-.253a1.845 1.845 0 01-.67-.697 2.081 2.081 0 01-.248-1.012c0-.393.09-.746.271-1.06a1.97 1.97 0 01.765-.743c.326-.183.708-.272 1.145-.268zm.003.885c-.213 0-.405.052-.576.156a1.108 1.108 0 00-.401.42 1.19 1.19 0 00-.145.587c.002.214.05.409.145.584.096.175.227.314.392.416.167.102.358.153.573.153a1.084 1.084 0 00.805-.345 1.187 1.187 0 00.18-1.39 1.137 1.137 0 00-.398-.422 1.05 1.05 0 00-.575-.159z" fill="#54595C"/><mask id="f" fill="#fff"><path d="M302.248 38.61h88.705v28.626h-88.705V38.61z"/></mask><path d="M302.248 38.61h88.705v28.626h-88.705V38.61z" fill="#F6F8FA"/><path d="M390.953 38.61h.692v-.692h-.692v.692zm-88.705.693h88.705v-1.385h-88.705v1.385zm88.012-.693v28.626h1.385V38.61h-1.385z" fill="#DFE3E5" mask="url(#f)"/><path d="M313.552 50.222v6.044h-1.095v-4.978h-.035l-1.414.903v-1.004l1.502-.965h1.042zm3.768 6.159c-.486 0-.903-.123-1.251-.37-.346-.247-.613-.604-.8-1.07-.185-.469-.277-1.032-.277-1.691.002-.66.095-1.22.28-1.682.187-.464.453-.818.8-1.062.348-.244.764-.366 1.248-.366s.9.122 1.248.366.615.598.8 1.062c.187.464.28 1.025.28 1.682 0 .66-.093 1.225-.28 1.694-.185.466-.452.822-.8 1.068-.346.246-.762.369-1.248.369zm0-.924c.378 0 .676-.186.894-.558.22-.373.33-.923.33-1.65 0-.48-.05-.882-.15-1.209-.1-.326-.242-.572-.425-.738a.93.93 0 00-.649-.25c-.376 0-.673.186-.891.56-.219.372-.329.918-.331 1.638-.002.482.046.887.145 1.216.1.328.242.576.425.743a.94.94 0 00.652.248zm5.406-5.317c.29.002.571.053.844.153.276.099.524.26.744.484.22.222.395.52.525.894s.195.836.195 1.387c.002.52-.053.984-.165 1.393a3.1 3.1 0 01-.475 1.033 2.102 2.102 0 01-.747.643 2.142 2.142 0 01-.982.221c-.382 0-.72-.075-1.016-.224a1.907 1.907 0 01-1.044-1.505h1.077c.055.24.167.43.336.572a.99.99 0 00.647.21c.419 0 .741-.182.967-.546.227-.364.34-.87.34-1.517h-.042a1.552 1.552 0 01-.374.449c-.154.124-.328.22-.523.286-.192.067-.397.1-.613.1-.354 0-.673-.084-.956-.253a1.845 1.845 0 01-.67-.697 2.07 2.07 0 01-.248-1.012c0-.393.09-.746.271-1.06a1.97 1.97 0 01.765-.743c.326-.183.708-.272 1.144-.268zm.003.885c-.212 0-.404.052-.575.156a1.108 1.108 0 00-.401.42 1.19 1.19 0 00-.145.587c.002.214.05.409.145.584.096.175.227.314.392.416.167.102.358.153.573.153a1.084 1.084 0 00.805-.345c.104-.11.185-.235.242-.375a1.09 1.09 0 00.086-.442c0-.207-.049-.398-.148-.573a1.137 1.137 0 00-.398-.422 1.05 1.05 0 00-.576-.159zm5.386-.885c.289.002.57.053.844.153.275.099.523.26.743.484.221.222.396.52.525.894.13.374.195.836.195 1.387.002.52-.053.984-.165 1.393a3.1 3.1 0 01-.475 1.033 2.102 2.102 0 01-.747.643 2.139 2.139 0 01-.982.221c-.382 0-.72-.075-1.015-.224a1.903 1.903 0 01-1.045-1.505h1.077c.055.24.167.43.336.572.172.14.387.21.647.21.419 0 .741-.182.968-.546.226-.364.339-.87.339-1.517h-.041a1.571 1.571 0 01-.375.449 1.72 1.72 0 01-.522.286c-.193.067-.398.1-.614.1-.354 0-.673-.084-.956-.253a1.845 1.845 0 01-.67-.697 2.081 2.081 0 01-.248-1.012c0-.393.091-.746.271-1.06a1.97 1.97 0 01.765-.743c.326-.183.708-.272 1.145-.268zm.003.885c-.213 0-.405.052-.576.156a1.108 1.108 0 00-.401.42 1.19 1.19 0 00-.145.587c.002.214.05.409.145.584.096.175.227.314.392.416.168.102.358.153.573.153a1.084 1.084 0 00.805-.345 1.187 1.187 0 00.18-1.39 1.137 1.137 0 00-.398-.422 1.05 1.05 0 00-.575-.159zm6.215-.803l1.573 4.757h.062l1.57-4.757h1.204l-2.131 6.044h-1.351l-2.128-6.044h1.201zm6.677 6.132c-.454 0-.846-.094-1.177-.283a1.921 1.921 0 01-.758-.809c-.177-.35-.266-.762-.266-1.236 0-.466.089-.875.266-1.228.179-.354.429-.63.749-.826.321-.199.698-.298 1.13-.298.28 0 .543.045.791.136.25.088.47.226.661.413.193.187.344.425.455.714.11.287.165.63.165 1.027v.328h-3.715v-.72h2.691a1.145 1.145 0 00-.133-.546.957.957 0 00-.363-.381 1.018 1.018 0 00-.537-.139c-.218 0-.41.053-.575.16a1.098 1.098 0 00-.387.413c-.09.169-.137.355-.139.557v.629c0 .264.049.49.145.679.096.186.231.33.404.43.173.099.376.148.608.148.156 0 .296-.022.422-.065a.941.941 0 00.328-.198.826.826 0 00.209-.321l.998.112a1.556 1.556 0 01-.36.69c-.176.195-.4.347-.673.455a2.58 2.58 0 01-.939.16zm3.988-2.744v2.656h-1.069v-4.533h1.021v.77h.054c.104-.253.27-.455.498-.605.23-.15.515-.224.853-.224.313 0 .585.067.817.2.235.135.415.328.543.582.13.254.194.562.192.924v2.886h-1.068v-2.721c0-.303-.079-.54-.236-.711-.155-.171-.371-.257-.646-.257a.994.994 0 00-.499.124.852.852 0 00-.339.351c-.081.154-.121.34-.121.558zm5.677 2.735c-.356 0-.675-.091-.956-.274a1.866 1.866 0 01-.667-.797c-.163-.348-.245-.771-.245-1.269 0-.503.083-.928.248-1.274.167-.349.392-.611.676-.788.283-.18.599-.269.947-.269.266 0 .484.045.655.136.171.088.307.196.407.322.101.123.178.24.233.35h.045v-2.26h1.071v6.044h-1.051v-.715h-.065a1.79 1.79 0 01-.239.352 1.314 1.314 0 01-.413.313c-.171.086-.386.13-.646.13zm.298-.876a.923.923 0 00.578-.183c.16-.124.281-.296.363-.516a2.18 2.18 0 00.124-.77 2.13 2.13 0 00-.124-.765c-.08-.216-.2-.384-.36-.504a.93.93 0 00-.581-.18.94.94 0 00-.596.185 1.13 1.13 0 00-.36.514 2.147 2.147 0 00-.121.75c0 .283.04.535.121.758.083.22.204.394.363.522a.934.934 0 00.593.189zm5.231.885c-.443 0-.826-.097-1.151-.292a1.986 1.986 0 01-.755-.817c-.177-.35-.266-.76-.266-1.228 0-.468.089-.878.266-1.23.179-.352.431-.626.755-.82.325-.195.708-.293 1.151-.293.443 0 .826.098 1.151.292.324.195.575.468.752.82.179.353.269.763.269 1.231 0 .468-.09.877-.269 1.228-.177.35-.428.622-.752.817-.325.195-.708.292-1.151.292zm.006-.856a.92.92 0 00.602-.197c.161-.134.281-.313.36-.537.081-.225.121-.474.121-.75 0-.277-.04-.528-.121-.752a1.196 1.196 0 00-.36-.54.91.91 0 00-.602-.2.936.936 0 00-.614.2 1.217 1.217 0 00-.363.54 2.28 2.28 0 00-.118.752c0 .276.04.525.118.75.081.224.202.403.363.537a.946.946 0 00.614.197zm3.073.768v-4.533h1.035v.756h.047a1.136 1.136 0 011.119-.82c.059 0 .125.002.198.008.074.004.136.01.185.02v.983a1.122 1.122 0 00-.215-.04 1.974 1.974 0 00-.28-.022c-.195 0-.37.043-.526.127a.934.934 0 00-.495.856v2.665h-1.068z" fill="#54595C"/><mask id="g" fill="#fff"><path d="M390.953 38.61H657.86v28.626H390.953V38.61z"/></mask><path d="M390.953 38.61H657.86v28.626H390.953V38.61z" fill="#F6F8FA"/><path d="M657.86 38.61h.692v-.692h-.692v.692zm-266.907.693H657.86v-1.385H390.953v1.385zm266.214-.693v28.626h1.385V38.61h-1.385z" fill="#DFE3E5" mask="url(#g)"/><path d="M401.906 56.266h-2.048v-6.044h2.089c.6 0 1.115.121 1.546.363.433.24.765.586.998 1.036.232.45.348.99.348 1.617 0 .63-.117 1.17-.351 1.623-.233.453-.568.8-1.007 1.042-.436.242-.962.363-1.575.363zm-.953-.948h.9c.421 0 .772-.076 1.053-.23a1.47 1.47 0 00.634-.693c.142-.309.213-.695.213-1.157 0-.462-.071-.846-.213-1.15a1.446 1.446 0 00-.628-.688c-.276-.154-.618-.23-1.027-.23h-.932v4.148zm6.885 1.036c-.454 0-.847-.094-1.177-.283a1.915 1.915 0 01-.758-.809c-.178-.35-.266-.762-.266-1.236 0-.466.088-.875.266-1.228.179-.354.428-.63.749-.826.321-.199.697-.298 1.13-.298.28 0 .543.045.791.136.25.088.47.226.661.413.193.187.344.425.454.714.111.287.166.63.166 1.027v.328h-3.715v-.72h2.691a1.156 1.156 0 00-.133-.546.971.971 0 00-.363-.381 1.018 1.018 0 00-.537-.139c-.218 0-.41.053-.575.16a1.09 1.09 0 00-.387.413c-.091.169-.137.355-.139.557v.629c0 .264.048.49.145.679.096.186.231.33.404.43.173.099.376.148.608.148.155 0 .296-.022.422-.065a.928.928 0 00.327-.198.817.817 0 00.21-.321l.997.112a1.556 1.556 0 01-.36.69 1.756 1.756 0 01-.672.455c-.274.106-.587.16-.939.16zm6.502-3.423l-.974.106a.788.788 0 00-.145-.277.717.717 0 00-.271-.21.988.988 0 00-.419-.08c-.223 0-.409.05-.561.145-.149.097-.223.222-.221.375a.393.393 0 00.144.322c.101.083.266.15.496.204l.773.165c.429.092.748.239.956.44.211.2.317.463.319.787a1.235 1.235 0 01-.251.756c-.163.216-.39.385-.681.507a2.583 2.583 0 01-1.004.183c-.555 0-1.001-.116-1.339-.348a1.398 1.398 0 01-.605-.977l1.041-.1a.739.739 0 00.301.463c.154.104.353.157.599.157.254 0 .458-.053.611-.157.156-.104.233-.233.233-.386 0-.13-.05-.237-.15-.322-.099-.085-.252-.15-.461-.195l-.773-.162c-.434-.09-.756-.243-.965-.457a1.126 1.126 0 01-.309-.82c-.002-.28.073-.522.227-.727.155-.206.371-.365.646-.478.277-.114.597-.17.959-.17.531 0 .949.112 1.254.339.307.226.497.532.57.917zm2.955 3.423c-.453 0-.841-.1-1.166-.298a1.992 1.992 0 01-.746-.823 2.723 2.723 0 01-.26-1.216c0-.46.089-.866.266-1.219.177-.354.426-.63.749-.826.325-.199.708-.298 1.151-.298.368 0 .693.068.977.204.285.134.512.323.681.57.169.243.266.529.289.855h-1.021a.97.97 0 00-.295-.546c-.153-.147-.359-.221-.616-.221a.966.966 0 00-.576.177 1.13 1.13 0 00-.386.502c-.091.218-.136.48-.136.784 0 .31.045.575.136.797.09.22.217.39.38.51a.976.976 0 00.582.178.97.97 0 00.422-.089.84.84 0 00.315-.263.997.997 0 00.174-.415h1.021c-.025.32-.12.604-.283.852a1.672 1.672 0 01-.667.579 2.23 2.23 0 01-.991.206zm2.819-.088v-4.533h1.035v.756h.048a1.13 1.13 0 011.118-.82c.059 0 .125.002.198.008.074.004.136.01.185.02v.983a1.122 1.122 0 00-.215-.04 1.974 1.974 0 00-.28-.022c-.195 0-.37.043-.526.127a.925.925 0 00-.362.346.968.968 0 00-.133.51v2.665h-1.068zm3.294 0v-4.533h1.068v4.533h-1.068zm.537-5.176a.624.624 0 01-.437-.168.541.541 0 01-.182-.41c0-.162.06-.298.182-.41a.618.618 0 01.437-.172c.171 0 .317.057.437.171a.536.536 0 01.183.41c0 .16-.061.297-.183.41a.617.617 0 01-.437.169zm1.63 6.875v-6.232h1.05v.75h.062c.055-.11.133-.227.233-.351.101-.126.236-.234.408-.322.171-.09.389-.136.655-.136.35 0 .666.09.947.269.283.177.507.44.673.788.167.346.25.77.25 1.274 0 .498-.081.921-.244 1.27a1.873 1.873 0 01-.667.796c-.282.183-.6.274-.956.274-.26 0-.476-.043-.647-.13a1.314 1.314 0 01-.413-.312 2.04 2.04 0 01-.239-.352h-.044v2.414h-1.068zM426.622 54c0 .293.042.55.124.77.085.22.206.393.363.517.16.122.352.183.579.183a.928.928 0 00.593-.189 1.17 1.17 0 00.36-.522c.082-.223.124-.475.124-.759a2.17 2.17 0 00-.121-.75 1.13 1.13 0 00-.36-.513.942.942 0 00-.596-.185.94.94 0 00-.582.18c-.159.12-.28.288-.363.504-.08.217-.121.471-.121.764zm6.409-2.266v.826h-2.605v-.826h2.605zm-1.962-1.086h1.068v4.255c0 .144.022.254.065.33a.357.357 0 00.177.154.683.683 0 00.242.042c.067 0 .128-.005.183-.015.057-.01.101-.019.13-.027l.18.835a1.998 1.998 0 01-.628.106 1.74 1.74 0 01-.723-.12 1.124 1.124 0 01-.511-.42c-.124-.188-.185-.424-.183-.708v-4.432zm2.856 5.619v-4.533h1.068v4.533h-1.068zm.537-5.176a.624.624 0 01-.437-.168.542.542 0 01-.183-.41c0-.162.061-.298.183-.41a.618.618 0 01.437-.172c.171 0 .317.057.437.171a.536.536 0 01.183.41c0 .16-.061.297-.183.41a.617.617 0 01-.437.169zm3.606 5.264c-.442 0-.826-.097-1.15-.292a1.982 1.982 0 01-.756-.817c-.177-.35-.265-.76-.265-1.228 0-.468.088-.878.265-1.23.179-.352.431-.626.756-.82.324-.195.708-.293 1.15-.293.443 0 .827.098 1.151.292.325.195.576.468.753.82.179.353.268.763.268 1.231 0 .468-.089.877-.268 1.228-.177.35-.428.622-.753.817-.324.195-.708.292-1.151.292zm.006-.856a.92.92 0 00.602-.197c.162-.134.282-.313.36-.537.081-.225.121-.474.121-.75 0-.277-.04-.528-.121-.752a1.18 1.18 0 00-.36-.54.91.91 0 00-.602-.2.934.934 0 00-.613.2 1.2 1.2 0 00-.363.54 2.254 2.254 0 00-.118.752c0 .276.039.525.118.75.08.224.201.403.363.537a.943.943 0 00.613.197zm4.141-1.888v2.656h-1.068v-4.533h1.021v.77h.053a1.29 1.29 0 01.499-.605c.23-.15.514-.224.852-.224.313 0 .586.067.818.2.234.135.415.328.543.582.13.254.194.562.192.924v2.886h-1.069v-2.721c0-.303-.078-.54-.236-.711-.155-.171-.371-.257-.646-.257a.994.994 0 00-.499.124.864.864 0 00-.339.351c-.081.154-.121.34-.121.558z" fill="#54595C"/><path d="M449.442 53.912l.09-1.593-1.337.877-.48-.834 1.428-.716-1.428-.716.48-.834 1.337.877-.09-1.593h.956l-.087 1.593 1.338-.877.48.834-1.432.716 1.432.716-.48.834-1.338-.877.087 1.593h-.956z" fill="#F2461B"/></g><mask id="h" fill="#fff"><path d="M0 67.633h36.008v27.833H0V67.633z"/></mask><path d="M0 67.633v-.693h-.691v.693H0zm36.008 0h.692v-.693h-.692v.693zM0 68.325h36.008V66.94H0v1.385zm35.315-.692v27.833H36.7V67.633h-1.385zM.691 95.466V67.633H-.69v27.833H.69z" fill="#DFE3E5" mask="url(#h)"/><rect x="11.081" y="75.314" width="13.157" height="13.157" rx="2.424" fill="#fff" stroke="#C1C6C9" stroke-width=".692"/><mask id="i" fill="#fff"><path d="M36.008 67.236h88.787v28.626H36.008V67.236z"/></mask><path d="M124.795 67.236h.692v-.692h-.692v.692zm-88.787.693h88.787v-1.385H36.008v1.385zm88.094-.693v28.626h1.385V67.236h-1.385z" fill="#DFE3E5" mask="url(#i)"/><mask id="j" fill="#fff"><path d="M124.795 67.236h55.212v28.626h-55.212V67.236z"/></mask><path d="M180.007 67.236h.693v-.692h-.693v.692zm-55.212.693h55.212v-1.385h-55.212v1.385zm54.52-.693v28.626h1.385V67.236h-1.385z" fill="#DFE3E5" mask="url(#j)"/><mask id="k" fill="#fff"><path d="M180.008 67.236h61.12v28.626h-61.12V67.236z"/></mask><path d="M241.128 67.236h.693v-.692h-.693v.692zm-61.12.693h61.12v-1.385h-61.12v1.385zm60.428-.693v28.626h1.385V67.236h-1.385z" fill="#DFE3E5" mask="url(#k)"/><mask id="l" fill="#fff"><path d="M241.127 67.236h61.12v28.626h-61.12V67.236z"/></mask><path d="M302.247 67.236h.693v-.692h-.693v.692zm-61.12.693h61.12v-1.385h-61.12v1.385zm60.428-.693v28.626h1.385V67.236h-1.385z" fill="#DFE3E5" mask="url(#l)"/><mask id="m" fill="#fff"><path d="M302.248 67.236h88.705v28.626h-88.705V67.236z"/></mask><path d="M390.953 67.236h.692v-.692h-.692v.692zm-88.705.693h88.705v-1.385h-88.705v1.385zm88.012-.693v28.626h1.385V67.236h-1.385z" fill="#DFE3E5" mask="url(#m)"/><mask id="n" fill="#fff"><path d="M390.953 67.236H657.86v28.626H390.953V67.236z"/></mask><path d="M657.86 67.236h.692v-.692h-.692v.692zm-266.907.693H657.86v-1.385H390.953v1.385zm266.214-.693v28.626h1.385V67.236h-1.385z" fill="#DFE3E5" mask="url(#n)"/><path d="M404.504 79.993a1.143 1.143 0 00-.516-.86c-.302-.205-.682-.308-1.14-.308a2.13 2.13 0 00-.852.156 1.308 1.308 0 00-.558.422.991.991 0 00-.196.606c0 .19.044.354.133.492.091.138.21.254.355.348.149.09.308.168.477.23.169.06.332.11.488.149l.782.203a6 6 0 01.785.254c.268.106.517.247.746.421.229.175.414.391.555.649.143.258.214.566.214.926 0 .453-.117.855-.351 1.207-.232.351-.569.629-1.012.832-.44.203-.973.304-1.598.304-.599 0-1.117-.095-1.554-.285-.438-.19-.78-.46-1.028-.808a2.347 2.347 0 01-.41-1.25h1.211c.024.289.117.53.281.722.167.19.379.332.637.426.261.091.546.137.856.137.341 0 .644-.054.91-.16.268-.11.479-.26.633-.453.153-.196.23-.424.23-.684a.841.841 0 00-.203-.582 1.505 1.505 0 00-.543-.375 5.314 5.314 0 00-.77-.262l-.945-.258c-.641-.174-1.148-.43-1.523-.77-.373-.338-.559-.786-.559-1.343 0-.46.125-.863.375-1.207.25-.344.589-.61 1.016-.8.427-.193.909-.29 1.445-.29.542 0 1.02.095 1.434.285.416.19.744.452.984.786.24.33.365.71.375 1.14h-1.164zm3.36 8.149c-.174 0-.333-.015-.476-.043a1.508 1.508 0 01-.321-.086l.282-.957c.213.057.403.082.57.074a.68.68 0 00.441-.188c.131-.117.245-.308.344-.574l.145-.398-2.196-6.078h1.25l1.52 4.656h.062l1.52-4.656h1.254l-2.473 6.8c-.114.313-.26.577-.437.793a1.696 1.696 0 01-.633.493c-.245.109-.529.164-.852.164zm6.66-5.813v3.563h-1.168v-6h1.122v.976h.074c.138-.317.354-.573.648-.765.297-.193.671-.29 1.121-.29.409 0 .767.086 1.075.258.307.17.545.422.714.758.17.336.254.751.254 1.246v3.817h-1.168v-3.676c0-.435-.113-.775-.34-1.02-.226-.247-.537-.37-.933-.37-.271 0-.512.058-.723.175a1.263 1.263 0 00-.496.516 1.7 1.7 0 00-.18.812zm7.934 3.684c-.581 0-1.081-.132-1.5-.395a2.61 2.61 0 01-.961-1.097c-.224-.467-.336-1-.336-1.602 0-.61.115-1.147.344-1.613a2.63 2.63 0 01.969-1.098c.416-.263.907-.394 1.472-.394.456 0 .862.084 1.219.253.357.167.645.401.863.704.222.302.353.654.395 1.058h-1.137a1.36 1.36 0 00-.43-.726c-.221-.204-.518-.305-.89-.305-.326 0-.611.086-.856.258-.242.169-.431.411-.566.726-.135.313-.203.683-.203 1.11 0 .437.066.815.199 1.132.133.318.32.564.563.739.244.174.532.261.863.261.221 0 .422-.04.601-.12a1.22 1.22 0 00.457-.356c.125-.154.213-.339.262-.555h1.137a2.211 2.211 0 01-.379 1.04 2.183 2.183 0 01-.848.718c-.351.174-.764.262-1.238.262zm4.882-3.684v3.563h-1.168v-8h1.152v2.976h.074c.141-.323.356-.58.645-.77.289-.19.667-.284 1.133-.284.411 0 .771.084 1.078.253.31.17.549.422.719.758.172.334.257.75.257 1.25v3.817h-1.167v-3.676c0-.44-.114-.781-.34-1.024-.227-.244-.542-.367-.946-.367-.276 0-.523.059-.742.176a1.269 1.269 0 00-.512.516 1.677 1.677 0 00-.183.812zm5.449 3.563v-6h1.129v.953h.062c.11-.323.303-.577.579-.762a1.65 1.65 0 01.945-.281 5.005 5.005 0 01.496.027v1.117a2.088 2.088 0 00-.25-.043 2.394 2.394 0 00-.359-.027c-.276 0-.523.059-.739.176a1.307 1.307 0 00-.695 1.175v3.665h-1.168zm6.534.12c-.562 0-1.053-.128-1.472-.386a2.605 2.605 0 01-.977-1.082c-.232-.464-.348-1.005-.348-1.625 0-.623.116-1.167.348-1.633a2.6 2.6 0 01.977-1.086c.419-.258.91-.386 1.472-.386.563 0 1.054.128 1.473.386.419.258.745.62.976 1.086.232.466.348 1.01.348 1.633 0 .62-.116 1.161-.348 1.625a2.603 2.603 0 01-.976 1.082c-.419.258-.91.387-1.473.387zm.004-.98c.365 0 .667-.096.906-.289.24-.192.417-.45.532-.77.117-.32.175-.672.175-1.058 0-.383-.058-.734-.175-1.055a1.72 1.72 0 00-.532-.777c-.239-.195-.541-.293-.906-.293-.367 0-.672.098-.914.293a1.748 1.748 0 00-.535.777 3.1 3.1 0 00-.172 1.055c0 .385.057.738.172 1.059.117.32.296.576.535.77.242.192.547.288.914.288zm5.265-2.703v3.563h-1.168v-6h1.121v.976h.074c.138-.317.354-.573.649-.765.296-.193.67-.29 1.121-.29.409 0 .767.086 1.074.258.307.17.545.422.715.758.169.336.254.751.254 1.246v3.817h-1.168v-3.676c0-.435-.114-.775-.34-1.02-.227-.247-.538-.37-.934-.37a1.46 1.46 0 00-.722.175 1.266 1.266 0 00-.497.516 1.712 1.712 0 00-.179.812zm5.406 3.563v-6h1.168v6h-1.168zm.59-6.926a.744.744 0 01-.524-.203.66.66 0 01-.214-.493c0-.192.071-.356.214-.492a.737.737 0 01.524-.207.72.72 0 01.519.207c.146.136.219.3.219.492 0 .19-.073.355-.219.493a.727.727 0 01-.519.203zm2.024 6.926v-.801l3.25-4.13v-.054h-3.144v-1.015h4.601v.851l-3.125 4.078v.055h3.235v1.016h-4.817zm7.941.132c-.38 0-.724-.07-1.032-.21a1.74 1.74 0 01-.73-.622c-.177-.27-.266-.602-.266-.996 0-.338.065-.617.196-.836.13-.218.306-.392.527-.52.221-.127.469-.223.742-.288.274-.065.552-.115.836-.149l.875-.101c.224-.029.387-.075.488-.137.102-.063.153-.164.153-.305v-.027c0-.341-.097-.605-.289-.793-.19-.188-.474-.281-.852-.281-.393 0-.703.087-.93.261a1.406 1.406 0 00-.464.575l-1.098-.25c.13-.365.32-.66.57-.883.253-.227.543-.39.871-.492a3.412 3.412 0 011.036-.156c.239 0 .493.028.761.085.271.055.524.157.758.305.237.149.431.36.582.637.151.273.227.629.227 1.066v3.985h-1.141v-.82h-.047c-.075.15-.189.299-.34.445a1.806 1.806 0 01-.582.363 2.259 2.259 0 01-.851.144zm.254-.937c.323 0 .599-.064.828-.192a1.34 1.34 0 00.527-.5c.123-.208.184-.43.184-.667v-.774a.616.616 0 01-.242.117 3.833 3.833 0 01-.403.09c-.151.024-.298.046-.441.067l-.36.046a2.914 2.914 0 00-.621.145 1.066 1.066 0 00-.445.293c-.109.125-.164.292-.164.5 0 .289.107.508.32.656.214.146.486.219.817.219zm7.063-5.195v.937h-3.277v-.937h3.277zm-2.398-1.438h1.168v5.676c0 .226.034.397.101.512a.53.53 0 00.262.23c.109.04.228.059.355.059.094 0 .176-.007.246-.02l.165-.031.21.965a2.287 2.287 0 01-.757.125 2.06 2.06 0 01-.86-.164 1.476 1.476 0 01-.644-.532c-.164-.24-.246-.54-.246-.902v-5.918zm3.69 7.438v-6h1.168v6h-1.168zm.59-6.926a.74.74 0 01-.523-.203.658.658 0 01-.215-.493.65.65 0 01.215-.492.733.733 0 01.523-.207.72.72 0 01.519.207c.146.136.219.3.219.492 0 .19-.073.355-.219.493a.727.727 0 01-.519.203zm4.677 7.047c-.563 0-1.054-.13-1.473-.387a2.612 2.612 0 01-.977-1.082c-.231-.464-.347-1.005-.347-1.625 0-.623.116-1.167.347-1.633.232-.466.558-.828.977-1.086.419-.258.91-.386 1.473-.386.562 0 1.053.128 1.472.386.42.258.745.62.977 1.086.232.466.348 1.01.348 1.633 0 .62-.116 1.161-.348 1.625a2.605 2.605 0 01-.977 1.082c-.419.258-.91.387-1.472.387zm.004-.98c.364 0 .666-.097.906-.29.239-.192.417-.45.531-.77.117-.32.176-.672.176-1.058 0-.383-.059-.734-.176-1.055a1.717 1.717 0 00-.531-.777c-.24-.195-.542-.293-.906-.293-.368 0-.672.098-.914.293a1.75 1.75 0 00-.536.777c-.114.32-.171.672-.171 1.055 0 .385.057.738.171 1.059.118.32.296.576.536.77.242.192.546.288.914.288zm5.264-2.704v3.563h-1.168v-6h1.121v.976h.075c.138-.317.354-.573.648-.765.297-.193.671-.29 1.121-.29.409 0 .767.086 1.074.258.308.17.546.422.715.758.169.336.254.751.254 1.246v3.817h-1.168v-3.676c0-.435-.113-.775-.34-1.02-.226-.247-.537-.37-.933-.37-.271 0-.512.058-.723.175a1.263 1.263 0 00-.496.516 1.7 1.7 0 00-.18.812zm8.411 3.563v-8h1.207v6.96h3.625v1.04h-4.832zm6.116 0v-6h1.168v6h-1.168zm.589-6.926a.742.742 0 01-.523-.203.661.661 0 01-.215-.493c0-.192.072-.356.215-.492a.734.734 0 01.523-.207.72.72 0 01.52.207c.146.136.219.3.219.492 0 .19-.073.355-.219.493a.728.728 0 01-.52.203zm4.677 7.047c-.58 0-1.08-.132-1.5-.395a2.617 2.617 0 01-.961-1.097c-.224-.467-.336-1-.336-1.602 0-.61.115-1.147.344-1.613a2.63 2.63 0 01.969-1.098c.417-.263.907-.394 1.473-.394.455 0 .861.084 1.218.253a2.13 2.13 0 011.258 1.762h-1.137a1.358 1.358 0 00-.429-.726c-.222-.204-.519-.305-.891-.305-.325 0-.611.086-.855.258-.243.169-.431.411-.567.726-.135.313-.203.683-.203 1.11 0 .437.066.815.199 1.132.133.318.321.564.563.739.245.174.532.261.863.261.221 0 .422-.04.602-.12.182-.084.334-.203.457-.356a1.33 1.33 0 00.261-.555h1.137a2.211 2.211 0 01-.379 1.04 2.18 2.18 0 01-.847.718c-.352.174-.765.262-1.239.262zm6.3 0c-.591 0-1.1-.127-1.527-.38a2.57 2.57 0 01-.985-1.073c-.229-.464-.343-1.007-.343-1.63 0-.614.114-1.156.343-1.624.232-.47.555-.835.969-1.098.417-.263.904-.394 1.461-.394.339 0 .667.056.984.167.318.112.603.288.856.528.252.24.452.55.598.933.145.38.218.843.218 1.387v.414h-4.769v-.875h3.625c0-.307-.063-.58-.188-.816a1.42 1.42 0 00-1.316-.774c-.328 0-.615.081-.86.242a1.628 1.628 0 00-.562.626c-.13.255-.195.532-.195.832v.683c0 .401.07.742.211 1.024.143.28.342.496.597.644.255.146.554.219.895.219.221 0 .423-.031.605-.094a1.262 1.262 0 00.778-.762l1.105.2a2 2 0 01-.477.855 2.3 2.3 0 01-.855.567 3.2 3.2 0 01-1.168.199zm5.038-3.684v3.563h-1.168v-6h1.121v.976h.074c.138-.317.355-.573.649-.765.297-.193.67-.29 1.121-.29.409 0 .767.086 1.074.258.308.17.546.422.715.758.169.336.254.751.254 1.246v3.817H513.5v-3.676c0-.435-.113-.775-.34-1.02-.226-.247-.538-.37-.933-.37-.271 0-.512.058-.723.175a1.263 1.263 0 00-.496.516 1.7 1.7 0 00-.18.812zm9.902-.973l-1.058.188a1.256 1.256 0 00-.211-.387 1.043 1.043 0 00-.383-.3 1.384 1.384 0 00-.605-.118c-.331 0-.607.075-.828.223-.222.146-.333.334-.333.566 0 .2.075.362.223.485.149.122.388.222.719.3l.953.22c.552.127.964.323 1.234.59.271.265.407.61.407 1.034 0 .36-.105.68-.313.961a2.046 2.046 0 01-.863.656c-.367.16-.793.239-1.277.239-.672 0-1.221-.144-1.645-.43-.424-.29-.685-.7-.781-1.23l1.129-.172c.07.294.215.517.433.668.219.148.504.222.856.222.383 0 .689-.08.918-.238.229-.162.343-.358.343-.59a.614.614 0 00-.21-.472c-.139-.128-.351-.225-.637-.29l-1.016-.222c-.56-.128-.974-.33-1.242-.61-.266-.278-.398-.631-.398-1.058 0-.354.098-.664.296-.93.198-.266.472-.472.821-.621a2.992 2.992 0 011.199-.227c.648 0 1.159.141 1.531.422.373.279.619.653.738 1.121zm3.988 4.657c-.591 0-1.1-.127-1.528-.38a2.574 2.574 0 01-.984-1.073c-.229-.464-.344-1.007-.344-1.63 0-.614.115-1.156.344-1.624.232-.47.555-.835.969-1.098.416-.263.903-.394 1.461-.394.338 0 .666.056.984.167.318.112.603.288.856.528.252.24.451.55.597.933.146.38.219.843.219 1.387v.414h-4.77v-.875h3.625c0-.307-.062-.58-.187-.816a1.42 1.42 0 00-1.316-.774c-.329 0-.615.081-.86.242a1.62 1.62 0 00-.562.626 1.795 1.795 0 00-.196.832v.683c0 .401.071.742.211 1.024.144.28.343.496.598.644.255.146.553.219.894.219.222 0 .424-.031.606-.094.182-.065.34-.161.473-.289a1.26 1.26 0 00.304-.473l1.106.2a2.01 2.01 0 01-.477.855 2.309 2.309 0 01-.855.567c-.341.132-.731.199-1.168.199zm7.551-.121h-1.282l2.879-8h1.395l2.879 8h-1.282l-2.261-6.547h-.063l-2.265 6.547zm.214-3.133h4.157v1.015h-4.157V82.76zm9.137 5.508c-.476 0-.887-.063-1.23-.188a2.384 2.384 0 01-.836-.496 2.09 2.09 0 01-.485-.676l1.004-.414c.071.115.164.236.281.363.12.13.282.241.485.333.206.09.47.136.793.136.443 0 .808-.108 1.097-.324.29-.214.434-.555.434-1.023v-1.18h-.074c-.07.127-.172.27-.305.426-.13.156-.31.291-.539.406-.229.115-.527.172-.894.172-.474 0-.901-.11-1.282-.332a2.356 2.356 0 01-.898-.989c-.219-.437-.328-.975-.328-1.613s.108-1.185.324-1.64c.219-.456.518-.805.898-1.047a2.34 2.34 0 011.293-.367c.373 0 .674.062.903.187.229.122.407.266.535.43.13.164.23.308.301.433h.086v-.972h1.144v6.132c0 .516-.12.94-.359 1.27-.24.33-.564.576-.973.734a3.747 3.747 0 01-1.375.239zm-.012-3.434c.336 0 .62-.078.852-.234.234-.16.411-.386.531-.68.123-.297.184-.652.184-1.066 0-.404-.06-.76-.18-1.067a1.584 1.584 0 00-.527-.719c-.232-.174-.518-.261-.86-.261-.351 0-.644.09-.879.273-.234.18-.411.425-.531.735-.117.31-.176.656-.176 1.039 0 .393.06.738.18 1.035.12.297.297.528.531.695.237.167.529.25.875.25zm4.286 1.059v-6h1.128v.953h.063c.109-.323.302-.577.578-.762.279-.188.594-.281.945-.281a5.005 5.005 0 01.496.027v1.117a2.05 2.05 0 00-.25-.043 2.374 2.374 0 00-.359-.027c-.276 0-.522.059-.738.176a1.303 1.303 0 00-.695 1.175v3.665h-1.168zm6.592.12c-.591 0-1.1-.126-1.527-.378a2.568 2.568 0 01-.984-1.074c-.23-.464-.344-1.007-.344-1.63 0-.614.114-1.156.344-1.624.231-.47.554-.835.968-1.098.417-.263.904-.394 1.461-.394.339 0 .667.056.985.167.317.112.603.288.855.528.253.24.452.55.598.933.146.38.219.843.219 1.387v.414h-4.77v-.875h3.625c0-.307-.062-.58-.187-.816a1.416 1.416 0 00-.528-.567 1.473 1.473 0 00-.789-.207c-.328 0-.614.081-.859.242a1.63 1.63 0 00-.563.626c-.13.255-.195.532-.195.832v.683c0 .401.07.742.211 1.024.143.28.342.496.598.644.255.146.553.219.894.219.221 0 .423-.031.606-.094a1.25 1.25 0 00.777-.762l1.105.2c-.088.325-.247.61-.476.855a2.313 2.313 0 01-.856.567 3.2 3.2 0 01-1.168.199zm6.456 0c-.591 0-1.1-.126-1.527-.378a2.568 2.568 0 01-.984-1.074c-.23-.464-.344-1.007-.344-1.63 0-.614.114-1.156.344-1.624.231-.47.554-.835.968-1.098.417-.263.904-.394 1.461-.394.339 0 .667.056.985.167.317.112.603.288.855.528.253.24.452.55.598.933.146.38.219.843.219 1.387v.414h-4.77v-.875h3.625c0-.307-.062-.58-.187-.816a1.416 1.416 0 00-.528-.567 1.473 1.473 0 00-.789-.207c-.328 0-.614.081-.859.242a1.63 1.63 0 00-.563.626c-.13.255-.195.532-.195.832v.683c0 .401.07.742.211 1.024.143.28.342.496.598.644.255.146.553.219.894.219.221 0 .423-.031.606-.094a1.25 1.25 0 00.777-.762l1.105.2c-.088.325-.247.61-.476.855a2.313 2.313 0 01-.856.567 3.2 3.2 0 01-1.168.199zm3.871-.12v-6h1.121v.976h.074c.125-.33.329-.588.613-.773.284-.188.624-.281 1.02-.281.401 0 .737.093 1.007.28.274.188.476.446.606.774h.062c.144-.32.372-.575.684-.765.312-.193.685-.29 1.117-.29.544 0 .988.171 1.332.512.347.341.52.856.52 1.543v4.024h-1.168v-3.914c0-.407-.111-.701-.332-.883a1.21 1.21 0 00-.793-.274c-.38 0-.676.118-.887.352-.211.232-.316.53-.316.894v3.825h-1.164v-3.989c0-.325-.102-.587-.305-.785-.203-.198-.468-.297-.793-.297-.221 0-.426.059-.613.176a1.295 1.295 0 00-.45.48 1.472 1.472 0 00-.168.715v3.7h-1.167zm12.307.12c-.591 0-1.1-.126-1.527-.378a2.57 2.57 0 01-.985-1.074c-.229-.464-.343-1.007-.343-1.63 0-.614.114-1.156.343-1.624.232-.47.555-.835.969-1.098.417-.263.904-.394 1.461-.394.339 0 .667.056.984.167.318.112.603.288.856.528.253.24.452.55.598.933.145.38.218.843.218 1.387v.414h-4.769v-.875h3.625c0-.307-.063-.58-.188-.816-.125-.24-.3-.429-.527-.567a1.473 1.473 0 00-.789-.207c-.328 0-.615.081-.859.242-.243.16-.43.368-.563.626-.13.255-.195.532-.195.832v.683c0 .401.07.742.211 1.024.143.28.342.496.597.644.256.146.554.219.895.219.221 0 .423-.031.605-.094a1.262 1.262 0 00.778-.762l1.105.2c-.088.325-.247.61-.476.855a2.313 2.313 0 01-.856.567 3.2 3.2 0 01-1.168.199zm5.038-3.683v3.563h-1.168v-6h1.121v.976h.075c.138-.317.354-.573.648-.765.297-.193.671-.29 1.121-.29.409 0 .767.086 1.074.258.308.17.546.422.715.758.169.336.254.751.254 1.246v3.817h-1.168v-3.676c0-.435-.113-.775-.34-1.02-.226-.247-.538-.37-.933-.37-.271 0-.512.058-.723.175a1.263 1.263 0 00-.496.516 1.7 1.7 0 00-.18.812zm8.207-2.437v.937h-3.277v-.937h3.277zm-2.398-1.438h1.168v5.676c0 .226.034.397.101.512a.53.53 0 00.262.23c.109.04.228.059.356.059.093 0 .175-.007.246-.02l.164-.031.211.965a2.298 2.298 0 01-.758.125 2.063 2.063 0 01-.86-.164 1.476 1.476 0 01-.644-.532c-.164-.24-.246-.54-.246-.902v-5.918z" fill="#000"/><mask id="o" fill="#fff"><path d="M0 96.259h36.008v27.833H0V96.259z"/></mask><path d="M0 96.259v-.693h-.691v.693H0zm36.008 0h.692v-.693h-.692v.693zM0 96.95h36.008v-1.385H0v1.385zm35.315-.692v27.833H36.7V96.259h-1.385zM.691 124.092V96.259H-.69v27.833H.69z" fill="#DFE3E5" mask="url(#o)"/><rect x="11.081" y="103.942" width="13.157" height="13.157" rx="2.424" fill="#fff" stroke="#C1C6C9" stroke-width=".692"/><mask id="p" fill="#fff"><path d="M36.008 95.862h88.787v28.626H36.008V95.862z"/></mask><path d="M124.795 95.862h.692v-.692h-.692v.692zm-88.787.693h88.787V95.17H36.008v1.385zm88.094-.693v28.626h1.385V95.862h-1.385z" fill="#DFE3E5" mask="url(#p)"/><mask id="q" fill="#fff"><path d="M124.795 95.862h55.212v28.626h-55.212V95.862z"/></mask><path d="M180.007 95.862h.693v-.692h-.693v.692zm-55.212.693h55.212V95.17h-55.212v1.385zm54.52-.693v28.626h1.385V95.862h-1.385z" fill="#DFE3E5" mask="url(#q)"/><mask id="r" fill="#fff"><path d="M180.008 95.862h61.12v28.626h-61.12V95.862z"/></mask><path d="M241.128 95.862h.693v-.692h-.693v.692zm-61.12.693h61.12V95.17h-61.12v1.385zm60.428-.693v28.626h1.385V95.862h-1.385z" fill="#DFE3E5" mask="url(#r)"/><mask id="s" fill="#fff"><path d="M241.127 95.862h61.12v28.626h-61.12V95.862z"/></mask><path d="M302.247 95.862h.693v-.692h-.693v.692zm-61.12.693h61.12V95.17h-61.12v1.385zm60.428-.693v28.626h1.385V95.862h-1.385z" fill="#DFE3E5" mask="url(#s)"/><mask id="t" fill="#fff"><path d="M302.248 95.862h88.705v28.626h-88.705V95.862z"/></mask><path d="M390.953 95.862h.692v-.692h-.692v.692zm-88.705.693h88.705V95.17h-88.705v1.385zm88.012-.693v28.626h1.385V95.862h-1.385z" fill="#DFE3E5" mask="url(#t)"/><mask id="u" fill="#fff"><path d="M390.953 95.862H657.86v28.626H390.953V95.862z"/></mask><path d="M657.86 95.862h.692v-.692h-.692v.692zm-266.907.693H657.86V95.17H390.953v1.385zm266.214-.693v28.626h1.385V95.862h-1.385z" fill="#DFE3E5" mask="url(#u)"/></g><path stroke="#DFE3E5" stroke-width=".67" d="M.335 38.945h876.179v85.208H.335z"/><defs><clipPath id="clip0_5262_59208"><path fill="#fff" d="M0 38.61h876.849v85.877H0z"/></clipPath></defs></svg>