<svg width="101" height="110" viewBox="0 0 101 110" fill="none" xmlns="http://www.w3.org/2000/svg"><g filter="url(#filter0_d_5262_59352)"><path fill-rule="evenodd" clip-rule="evenodd" d="M38.398 42.356c-.972-1.228-2.152-3.74-4.253-6.788-1.19-1.724-4.143-4.971-5.023-6.62-.763-1.458-.68-2.111-.5-3.319.322-2.149 2.526-3.822 4.876-3.596 1.776.168 3.282 1.341 4.636 2.45.818.667 1.824 1.964 2.43 2.696.557.67.694.948 1.29 1.741.786 1.05 1.033 1.57.732.414-.243-1.697-.64-4.595-1.215-7.157-.438-1.944-.544-2.248-.961-3.74-.442-1.587-.668-2.7-1.082-4.383-.287-1.19-.804-3.623-.944-4.991-.195-1.872-.297-4.924.903-6.327.941-1.098 3.1-1.43 4.438-.752 1.752.886 2.747 3.431 3.202 4.447.818 1.827 1.325 3.939 1.766 6.71.561 3.527 1.594 8.423 1.628 9.453.083-1.262-.232-3.92-.013-5.132.198-1.098 1.122-2.374 2.278-2.72.979-.29 2.125-.397 3.134-.188 1.071.219 2.2.985 2.621 1.707 1.239 2.135 1.263 6.498 1.314 6.265.294-1.287.243-4.205.972-5.42.479-.8 1.7-1.522 2.35-1.639 1.006-.178 2.241-.232 3.298-.027.852.168 2.005 1.18 2.317 1.666.746 1.177 1.17 4.506 1.296 5.673.052.482.254-1.341 1.003-2.518 1.39-2.186 6.306-2.61 6.494 2.186.085 2.238.068 2.135.068 3.64 0 1.77-.04 2.833-.137 4.113-.106 1.369-.4 4.462-.828 5.96-.294 1.03-1.269 3.346-2.23 4.735 0 0-3.675 4.277-4.075 6.203-.404 1.923-.27 1.937-.35 3.302-.078 1.362.415 3.155.415 3.155s-2.744.355-4.222.12c-1.338-.216-2.994-2.878-3.422-3.692-.588-1.122-1.844-.907-2.333-.079-.77 1.31-2.426 3.66-3.596 3.808-2.285.287-7.028.106-10.74.069 0 0 .633-3.46-.777-4.647-1.043-.886-2.84-2.682-3.914-3.627l-2.846-3.15z" fill="#fff"/><path clip-rule="evenodd" d="M38.398 42.356c-.972-1.228-2.152-3.74-4.253-6.788-1.19-1.724-4.143-4.971-5.023-6.62-.763-1.458-.68-2.111-.5-3.319.322-2.149 2.526-3.822 4.876-3.596 1.776.168 3.282 1.341 4.636 2.45.818.667 1.824 1.964 2.43 2.696.557.67.694.948 1.29 1.741.786 1.05 1.033 1.57.732.414-.243-1.697-.64-4.595-1.215-7.157-.438-1.944-.544-2.248-.961-3.74-.442-1.587-.668-2.7-1.082-4.383-.287-1.19-.804-3.623-.944-4.991-.195-1.872-.297-4.924.903-6.327.941-1.098 3.1-1.43 4.438-.752 1.752.886 2.747 3.431 3.202 4.447.818 1.827 1.325 3.939 1.766 6.71.561 3.527 1.594 8.423 1.628 9.453.083-1.262-.232-3.92-.013-5.132.198-1.098 1.122-2.374 2.278-2.72.979-.29 2.125-.397 3.134-.188 1.071.219 2.2.985 2.621 1.707 1.239 2.135 1.263 6.498 1.314 6.265.294-1.287.243-4.205.972-5.42.479-.8 1.7-1.522 2.35-1.639 1.006-.178 2.241-.232 3.298-.027.852.168 2.005 1.18 2.317 1.666.746 1.177 1.17 4.506 1.296 5.673.052.482.254-1.341 1.003-2.518 1.39-2.186 6.306-2.61 6.494 2.186.085 2.238.068 2.135.068 3.64 0 1.77-.04 2.833-.137 4.113-.106 1.369-.4 4.462-.828 5.96-.294 1.03-1.269 3.346-2.23 4.735 0 0-3.675 4.277-4.075 6.203-.404 1.923-.27 1.937-.35 3.302-.078 1.362.415 3.155.415 3.155s-2.744.355-4.222.12c-1.338-.216-2.994-2.878-3.422-3.692-.588-1.122-1.844-.907-2.333-.079-.77 1.31-2.426 3.66-3.596 3.808-2.285.287-7.028.106-10.74.069 0 0 .633-3.46-.777-4.647-1.043-.886-2.84-2.682-3.914-3.627l-2.846-3.15z" stroke="#000" stroke-width="2.053" stroke-linecap="round" stroke-linejoin="round"/><path d="M66.574 43.57V31.735M59.678 43.61l-.055-11.883M52.846 31.836l.072 11.722" stroke="#000" stroke-width="2.053" stroke-linecap="round"/></g><defs><filter id="filter0_d_5262_59352" x="-.371" y="0" width="109.485" height="112.907" filterUnits="userSpaceOnUse" color-interpolation-filters="sRGB"><feFlood flood-opacity="0" result="BackgroundImageFix"/><feColorMatrix in="SourceAlpha" values="0 0 0 0 0 0 0 0 0 0 0 0 0 0 0 0 0 0 127 0" result="hardAlpha"/><feOffset dy="27.371"/><feGaussianBlur stdDeviation="13.686"/><feComposite in2="hardAlpha" operator="out"/><feColorMatrix values="0 0 0 0 0 0 0 0 0 0 0 0 0 0 0 0 0 0 0.15 0"/><feBlend in2="BackgroundImageFix" result="effect1_dropShadow_5262_59352"/><feBlend in="SourceGraphic" in2="effect1_dropShadow_5262_59352" result="shape"/></filter></defs></svg>