<svg width="41" height="22" viewBox="0 0 41 22" fill="none" xmlns="http://www.w3.org/2000/svg"><rect x=".65" y=".881" width="39.36" height="20.36" rx="10.18" fill="#F6F8FA"/><rect x=".65" y=".881" width="39.36" height="20.36" rx="10.18" stroke="#DFE3E5" stroke-width=".64"/><path d="M12.192 7.179h1.26v5.942c0 .538-.106.998-.319 1.38a2.13 2.13 0 01-.888.875c-.382.2-.829.3-1.342.3a3.03 3.03 0 01-1.273-.259 2.094 2.094 0 01-.888-.749c-.215-.33-.323-.73-.323-1.203h1.256c0 .232.053.433.16.602.109.169.258.301.446.397.191.092.41.139.655.139.267 0 .494-.056.68-.168.187-.115.33-.282.429-.503.098-.221.147-.491.147-.81V7.178zm3.101 8.381V7.18h5.255v1.089h-3.99v2.553h3.716v1.085h-3.716v2.566h4.04v1.088h-5.305z" fill="#000"/><path d="M27.6 14.045l-.465-.466 2.526-2.526-2.526-2.511.465-.465 2.527 2.526 2.51-2.526.466.465-2.527 2.51 2.527 2.527-.466.466-2.51-2.527-2.527 2.527z" fill="#1C1B1F"/></svg>