<svg width="62" height="11" viewBox="0 0 62 11" fill="none" xmlns="http://www.w3.org/2000/svg"><path d="M3.646.572v8.382H2.378V1.84h-.05L.324 3.15V1.938L2.414.572h1.232zm2.268 8.382v-.917L8.75 5.098c.303-.319.552-.598.749-.839.199-.242.348-.473.446-.691.098-.219.147-.45.147-.696 0-.278-.065-.518-.196-.72a1.284 1.284 0 00-.536-.47 1.705 1.705 0 00-.766-.169c-.3 0-.562.062-.785.184a1.262 1.262 0 00-.516.52c-.12.224-.18.486-.18.786H5.905c0-.51.118-.956.352-1.338a2.39 2.39 0 01.966-.888A2.98 2.98 0 018.62.457c.526 0 .99.105 1.391.316.404.207.72.49.946.85.226.358.34.762.34 1.212 0 .311-.06.615-.177.913-.114.297-.315.629-.601.994-.287.363-.685.804-1.195 1.322L7.657 7.808v.061h3.773v1.085H5.914zM16.19.179L13.49 10.214h-1.093L15.097.18h1.093zm3.941 8.89c-.562 0-1.064-.098-1.506-.291a2.556 2.556 0 01-1.043-.807 2.14 2.14 0 01-.41-1.203h1.285c.017.248.1.464.25.647.153.18.352.319.598.417.245.098.518.148.818.148.33 0 .622-.058.876-.172.256-.115.457-.275.602-.48.144-.207.216-.445.216-.715 0-.281-.072-.528-.216-.741a1.413 1.413 0 00-.627-.508c-.273-.122-.603-.184-.99-.184h-.708V4.15h.708c.311 0 .584-.056.818-.168.238-.112.423-.267.557-.466.134-.202.2-.438.2-.708 0-.26-.058-.485-.175-.676a1.182 1.182 0 00-.492-.454 1.595 1.595 0 00-.744-.164c-.273 0-.528.05-.766.152-.234.098-.425.24-.573.425a1.095 1.095 0 00-.237.66h-1.224c.014-.454.148-.852.401-1.196a2.594 2.594 0 011.015-.806c.42-.194.887-.29 1.4-.29.537 0 1.001.104 1.391.315.393.207.696.484.91.83.215.347.321.726.318 1.138.003.47-.128.868-.393 1.195a1.905 1.905 0 01-1.047.659v.065c.556.085.987.306 1.293.663.308.358.461.801.458 1.33a2.07 2.07 0 01-.384 1.24 2.618 2.618 0 01-1.052.864c-.445.208-.954.311-1.527.311zm7.69-8.497v8.382h-1.268V1.84h-.05l-2.005 1.31V1.938L26.59.572h1.232zm5.476-.393l-2.701 10.035h-1.093L32.204.18h1.093zm1.023 8.775v-.917l2.837-2.939c.302-.319.552-.598.748-.839.2-.242.348-.473.447-.691.098-.219.147-.45.147-.696 0-.278-.066-.518-.197-.72a1.285 1.285 0 00-.536-.47 1.705 1.705 0 00-.765-.169c-.3 0-.562.062-.786.184a1.261 1.261 0 00-.516.52c-.12.224-.18.486-.18.786h-1.207c0-.51.117-.956.352-1.338a2.39 2.39 0 01.966-.888 2.98 2.98 0 011.395-.32c.527 0 .99.105 1.392.316.404.207.719.49.945.85.227.358.34.762.34 1.212 0 .311-.059.615-.176.913-.115.297-.315.629-.602.994a16.97 16.97 0 01-1.195 1.322l-1.665 1.744v.061h3.773v1.085H34.32zm9.986.139c-.646-.003-1.199-.173-1.657-.512-.459-.338-.81-.83-1.052-1.477-.243-.647-.364-1.426-.364-2.337 0-.909.121-1.685.364-2.329.245-.644.597-1.135 1.056-1.473.46-.338 1.012-.508 1.653-.508s1.191.17 1.65.512c.458.338.808.83 1.051 1.473.246.641.369 1.416.369 2.325 0 .914-.122 1.694-.365 2.34-.242.645-.593 1.137-1.051 1.478-.459.339-1.01.508-1.654.508zm0-1.093c.568 0 1.011-.277 1.33-.83.322-.555.483-1.355.483-2.403 0-.696-.073-1.284-.22-1.764-.145-.483-.354-.849-.627-1.097a1.37 1.37 0 00-.966-.376c-.565 0-1.008.278-1.33.835-.322.556-.484 1.357-.487 2.402 0 .698.072 1.29.217 1.772.147.48.356.844.626 1.093.27.245.595.368.974.368zm4.522.954v-.917l2.836-2.939c.303-.319.552-.598.749-.839.199-.242.348-.473.446-.691.098-.219.147-.45.147-.696 0-.278-.065-.518-.196-.72a1.285 1.285 0 00-.537-.47 1.705 1.705 0 00-.765-.169c-.3 0-.562.062-.786.184a1.262 1.262 0 00-.515.52c-.12.224-.18.486-.18.786h-1.208c0-.51.118-.956.352-1.338a2.39 2.39 0 01.966-.888 2.98 2.98 0 011.396-.32c.526 0 .99.105 1.391.316.404.207.72.49.946.85.226.358.34.762.34 1.212 0 .311-.06.615-.177.913-.114.297-.315.629-.601.994a16.97 16.97 0 01-1.195 1.322L50.57 7.808v.061h3.773v1.085h-5.517zm6.711-1.637V6.293L59.161.572h.806v1.506h-.511l-2.59 4.1v.066h4.964v1.073h-6.29zm3.974 1.637V7.006l.008-.467V.572h1.2v8.382h-1.208z" fill="#000"/></svg>