<svg width="63" height="11" viewBox="0 0 63 11" fill="none" xmlns="http://www.w3.org/2000/svg"><path d="M4.068.572v8.382H2.8V1.84h-.05L.745 3.15V1.938L2.836.572h1.232zm5.186 8.52c-.647-.002-1.2-.172-1.658-.51-.458-.34-.809-.832-1.052-1.478-.243-.647-.364-1.426-.364-2.337 0-.909.121-1.685.364-2.329.246-.644.598-1.135 1.056-1.473C8.061.627 8.612.457 9.254.457c.64 0 1.19.17 1.649.512.458.338.809.83 1.052 1.473.245.641.368 1.416.368 2.325 0 .914-.121 1.694-.364 2.34-.243.645-.594 1.137-1.052 1.478-.458.339-1.01.508-1.653.508zm0-1.092c.567 0 1.01-.277 1.33-.83.322-.555.482-1.355.482-2.403 0-.696-.073-1.284-.22-1.764-.145-.483-.354-.849-.627-1.097a1.37 1.37 0 00-.965-.376c-.565 0-1.009.278-1.33.835-.323.556-.485 1.357-.488 2.402 0 .698.073 1.29.217 1.772.148.48.356.844.626 1.093.27.245.595.368.975.368zm7.73-7.82l-2.702 10.034H13.19L15.89.18h1.093zm3.94 8.913c-.646-.003-1.199-.173-1.657-.512-.458-.338-.809-.83-1.052-1.477-.243-.647-.364-1.426-.364-2.337 0-.909.121-1.685.364-2.329.246-.644.598-1.135 1.056-1.473.461-.338 1.012-.508 1.654-.508.64 0 1.19.17 1.649.512.458.338.809.83 1.052 1.473.245.641.368 1.416.368 2.325 0 .914-.121 1.694-.364 2.34-.243.645-.594 1.137-1.052 1.478-.458.339-1.01.508-1.653.508zm0-1.093c.568 0 1.011-.277 1.33-.83.323-.555.484-1.355.484-2.403 0-.696-.074-1.284-.221-1.764-.145-.483-.354-.849-.627-1.097a1.37 1.37 0 00-.965-.376c-.565 0-1.009.278-1.33.835-.322.556-.485 1.357-.487 2.402 0 .698.072 1.29.216 1.772.148.48.356.844.627 1.093.27.245.594.368.974.368zM28.627.572v8.382h-1.269V1.84h-.049l-2.005 1.31V1.938l2.09-1.367h1.233zm5.476-.393L31.4 10.214h-1.093L33.009.18h1.093zm1.023 8.775v-.917l2.836-2.939c.303-.319.553-.598.749-.839.2-.242.348-.473.446-.691.098-.219.147-.45.147-.696 0-.278-.065-.518-.196-.72a1.284 1.284 0 00-.536-.47 1.705 1.705 0 00-.765-.169c-.3 0-.563.062-.786.184a1.263 1.263 0 00-.516.52c-.12.224-.18.486-.18.786h-1.207c0-.51.117-.956.352-1.338a2.39 2.39 0 01.965-.888 2.98 2.98 0 011.396-.32c.527 0 .99.105 1.392.316.403.207.718.49.945.85.226.358.34.762.34 1.212 0 .311-.06.615-.176.913-.115.297-.316.629-.602.994-.286.363-.685.804-1.195 1.322l-1.666 1.744v.061h3.774v1.085h-5.517zm9.986.139c-.647-.003-1.2-.173-1.658-.512-.458-.338-.809-.83-1.052-1.477-.242-.647-.364-1.426-.364-2.337 0-.909.122-1.685.364-2.329.246-.644.598-1.135 1.056-1.473.461-.338 1.013-.508 1.654-.508.64 0 1.19.17 1.65.512.457.338.808.83 1.05 1.473.246.641.37 1.416.37 2.325 0 .914-.122 1.694-.365 2.34-.243.645-.594 1.137-1.052 1.478-.458.339-1.01.508-1.653.508zm0-1.093c.567 0 1.01-.277 1.33-.83.322-.555.483-1.355.483-2.403 0-.696-.074-1.284-.221-1.764-.145-.483-.354-.849-.626-1.097a1.37 1.37 0 00-.966-.376c-.565 0-1.008.278-1.33.835-.322.556-.485 1.357-.487 2.402 0 .698.072 1.29.217 1.772.147.48.356.844.626 1.093.27.245.594.368.974.368zm4.521.954v-.917l2.836-2.939c.303-.319.553-.598.75-.839.198-.242.347-.473.445-.691.099-.219.148-.45.148-.696 0-.278-.066-.518-.197-.72a1.283 1.283 0 00-.536-.47 1.705 1.705 0 00-.765-.169c-.3 0-.562.062-.786.184a1.263 1.263 0 00-.516.52c-.12.224-.18.486-.18.786h-1.207c0-.51.117-.956.352-1.338.235-.382.556-.678.966-.888a2.98 2.98 0 011.395-.32c.527 0 .99.105 1.392.316.404.207.719.49.945.85.227.358.34.762.34 1.212 0 .311-.059.615-.176.913-.115.297-.315.629-.602.994-.286.363-.685.804-1.195 1.322l-1.665 1.744v.061h3.773v1.085h-5.517zm6.712-1.637V6.293L59.966.572h.806v1.506h-.511l-2.591 4.1v.066h4.964v1.073h-6.29zm3.974 1.637V7.006l.008-.467V.572h1.2v8.382h-1.208z" fill="#000"/></svg>