<svg width="389" height="22" viewBox="0 0 389 22" fill="none" xmlns="http://www.w3.org/2000/svg"><path d="M2.243 6.666h1.67v11.663c0 .67-.115 1.25-.346 1.74-.227.491-.571.871-1.033 1.14-.458.269-1.036.404-1.734.404H.46v-1.558h.311c.51 0 .883-.15 1.119-.452.236-.298.353-.722.353-1.274V6.666zm.821-1.812c-.325 0-.606-.11-.842-.332a1.069 1.069 0 01-.347-.8c0-.311.116-.578.347-.8.236-.222.517-.332.842-.332.326 0 .604.11.835.332.236.222.354.489.354.8 0 .311-.118.578-.354.8-.23.221-.51.332-.835.332zm8.325 12.909c-.982 0-1.843-.234-2.583-.701-.736-.467-1.312-1.12-1.727-1.96-.41-.84-.616-1.822-.616-2.944 0-1.133.205-2.121.616-2.966.415-.844.99-1.5 1.727-1.967.74-.467 1.601-.7 2.583-.7.981 0 1.84.233 2.576.7.74.467 1.316 1.123 1.726 1.967.416.845.623 1.833.623 2.966 0 1.123-.207 2.104-.623 2.944-.41.84-.986 1.493-1.726 1.96-.736.467-1.595.7-2.576.7zm0-1.5c.745 0 1.358-.192 1.84-.574a3.38 3.38 0 001.068-1.507 5.771 5.771 0 00.347-2.024 5.83 5.83 0 00-.347-2.031 3.424 3.424 0 00-1.068-1.522c-.482-.387-1.095-.58-1.84-.58-.746 0-1.36.193-1.84.58a3.423 3.423 0 00-1.069 1.522 5.83 5.83 0 00-.347 2.03c0 .727.116 1.402.347 2.025a3.38 3.38 0 001.069 1.507c.48.382 1.094.573 1.84.573zm14.325-3.171V6.666h1.67v10.87h-1.67v-1.84h-.113a3.565 3.565 0 01-1.189 1.408c-.538.383-1.217.574-2.038.574-.68 0-1.283-.149-1.812-.446-.528-.302-.943-.755-1.245-1.359-.302-.609-.453-1.375-.453-2.3V6.666h1.67v6.794c0 .792.222 1.425.665 1.896.448.472 1.02.708 1.713.708.415 0 .837-.106 1.267-.318a2.761 2.761 0 001.09-.977c.297-.439.445-.998.445-1.677zm4.73 4.444V6.666h1.613v1.642h.113c.198-.538.557-.974 1.076-1.31A3.166 3.166 0 0135 6.497c.123 0 .276.002.46.007s.323.012.417.021v1.699a4.945 4.945 0 00-.389-.064 3.83 3.83 0 00-.63-.05c-.528 0-1 .112-1.415.333a2.51 2.51 0 00-.977.906 2.441 2.441 0 00-.353 1.31v6.878h-1.67zm9.084-6.539v6.54h-1.67V6.665h1.614v1.698h.141a3.104 3.104 0 011.16-1.33c.52-.34 1.19-.51 2.01-.51.737 0 1.38.151 1.933.453.552.298.981.75 1.288 1.36.306.603.46 1.367.46 2.292v6.907h-1.67v-6.794c0-.854-.222-1.519-.666-1.995-.443-.482-1.052-.722-1.825-.722-.534 0-1.01.115-1.43.346a2.481 2.481 0 00-.984 1.012c-.24.444-.36.982-.36 1.614zm13.187 6.794c-.69 0-1.315-.13-1.876-.39a3.218 3.218 0 01-1.337-1.139c-.33-.5-.496-1.104-.496-1.811 0-.623.123-1.128.368-1.515.245-.392.573-.698.984-.92a5.17 5.17 0 011.359-.495c.5-.114 1.002-.203 1.507-.27.66-.084 1.196-.148 1.607-.19.415-.047.717-.125.905-.234.194-.108.29-.297.29-.566v-.057c0-.698-.19-1.24-.573-1.627-.377-.387-.95-.58-1.72-.58-.797 0-1.422.174-1.875.523-.453.35-.771.722-.955 1.118l-1.585-.566c.283-.66.66-1.175 1.132-1.543a4.244 4.244 0 011.557-.778 6.465 6.465 0 011.67-.227c.35 0 .75.043 1.203.128.458.08.899.247 1.323.502.43.255.786.64 1.07 1.154.282.514.424 1.203.424 2.066v7.162h-1.67v-1.472h-.085c-.114.236-.302.488-.567.757-.264.27-.615.498-1.054.687-.439.189-.974.283-1.606.283zm.254-1.5c.66 0 1.218-.13 1.67-.39.458-.26.802-.594 1.034-1.005a2.56 2.56 0 00.353-1.295v-1.528c-.07.085-.226.162-.467.233-.235.066-.51.125-.82.177-.307.047-.607.09-.9.128a44.02 44.02 0 00-.7.084c-.434.057-.84.15-1.217.277a2.099 2.099 0 00-.906.559c-.226.245-.34.58-.34 1.005 0 .58.215 1.019.644 1.316.434.292.984.439 1.65.439zm9.446-13.248v14.493h-1.67V3.043h1.67zm13.222 14.72c-1.048 0-1.951-.232-2.71-.694a4.655 4.655 0 01-1.749-1.953c-.406-.84-.608-1.817-.608-2.93 0-1.114.203-2.095.608-2.944.41-.854.982-1.52 1.713-1.996.736-.481 1.594-.722 2.576-.722.566 0 1.125.095 1.677.283a4.155 4.155 0 011.507.92c.453.42.814.977 1.083 1.67.27.694.404 1.548.404 2.563v.707h-8.38v-1.444h6.681c0-.613-.122-1.16-.368-1.641a2.773 2.773 0 00-1.033-1.14c-.444-.278-.967-.417-1.571-.417-.665 0-1.24.165-1.727.495-.481.326-.852.75-1.111 1.274a3.742 3.742 0 00-.39 1.684v.963c0 .82.142 1.517.425 2.087.288.567.687.998 1.196 1.295.51.293 1.102.44 1.777.44.439 0 .835-.062 1.189-.185.358-.127.667-.316.927-.566.26-.255.46-.57.601-.948l1.614.453a3.577 3.577 0 01-.856 1.443c-.401.41-.897.732-1.487.963-.59.226-1.252.34-1.988.34zm8.712-6.766v6.54h-1.67V6.665h1.613v1.698h.141a3.104 3.104 0 011.161-1.33c.519-.34 1.189-.51 2.01-.51.736 0 1.38.151 1.932.453.552.298.981.75 1.288 1.36.306.603.46 1.367.46 2.292v6.907h-1.67v-6.794c0-.854-.222-1.519-.666-1.995-.443-.482-1.052-.722-1.825-.722-.534 0-1.01.115-1.43.346a2.481 2.481 0 00-.984 1.012c-.24.444-.36.982-.36 1.614zm14.714-4.331V8.08H93.43V6.666h5.633zm-3.991-2.604h1.67v10.36c0 .472.068.826.205 1.062.142.231.321.387.538.467.222.075.455.113.7.113.185 0 .336-.01.454-.028l.283-.057.34 1.5a3.401 3.401 0 01-.475.128 3.49 3.49 0 01-.771.07c-.472 0-.934-.1-1.387-.304a2.755 2.755 0 01-1.118-.927c-.293-.415-.44-.939-.44-1.57V4.061zm6.504 13.474V6.666h1.613v1.642h.113c.198-.538.557-.974 1.076-1.31a3.166 3.166 0 011.755-.502c.123 0 .276.002.46.007s.323.012.418.021v1.699a5.018 5.018 0 00-.39-.064 3.825 3.825 0 00-.629-.05c-.529 0-1.001.112-1.416.333-.41.217-.736.52-.976.906a2.44 2.44 0 00-.354 1.31v6.878h-1.67zm7.414 0V6.666h1.671v10.87h-1.671zm.85-12.682c-.326 0-.607-.11-.843-.332a1.068 1.068 0 01-.346-.8c0-.311.115-.578.346-.8.236-.222.517-.332.843-.332.325 0 .604.11.835.332.236.222.354.489.354.8 0 .311-.118.578-.354.8-.231.221-.51.332-.835.332zm8.437 12.909c-1.047 0-1.951-.232-2.71-.694a4.651 4.651 0 01-1.748-1.953c-.406-.84-.609-1.817-.609-2.93 0-1.114.203-2.095.609-2.944.41-.854.981-1.52 1.712-1.996.736-.481 1.595-.722 2.576-.722.566 0 1.126.095 1.678.283a4.155 4.155 0 011.507.92c.453.42.814.977 1.083 1.67.269.694.403 1.548.403 2.563v.707h-8.379v-1.444h6.681c0-.613-.123-1.16-.368-1.641a2.772 2.772 0 00-1.034-1.14c-.443-.278-.967-.417-1.571-.417-.665 0-1.241.165-1.727.495-.481.326-.851.75-1.111 1.274a3.748 3.748 0 00-.389 1.684v.963c0 .82.142 1.517.425 2.087.288.567.686.998 1.196 1.295.509.293 1.101.44 1.776.44.439 0 .835-.062 1.189-.185.359-.127.668-.316.927-.566.26-.255.46-.57.602-.948l1.613.453a3.578 3.578 0 01-.856 1.443 4.18 4.18 0 01-1.486.963c-.59.226-1.253.34-1.989.34zM133.018 9.1l-1.5.425a2.774 2.774 0 00-.417-.729 2.036 2.036 0 00-.736-.594c-.312-.156-.711-.234-1.196-.234-.666 0-1.22.153-1.664.46-.438.302-.658.687-.658 1.154 0 .415.151.743.453.983.302.241.774.442 1.416.602l1.613.396c.972.236 1.696.597 2.173 1.083.476.481.715 1.102.715 1.861 0 .623-.18 1.18-.538 1.67-.354.491-.85.878-1.486 1.161-.637.283-1.378.425-2.223.425-1.108 0-2.026-.241-2.753-.722-.726-.482-1.186-1.184-1.38-2.11l1.586-.395c.151.585.436 1.023.856 1.316.425.292.979.439 1.663.439.779 0 1.397-.166 1.854-.496.463-.335.694-.736.694-1.203 0-.377-.132-.693-.397-.948-.264-.26-.669-.453-1.217-.58l-1.811-.425c-.996-.236-1.727-.602-2.194-1.097-.463-.5-.694-1.125-.694-1.875 0-.614.172-1.156.517-1.628.349-.472.823-.842 1.422-1.111.604-.27 1.288-.404 2.053-.404 1.075 0 1.92.236 2.533.708a3.812 3.812 0 011.316 1.868zm13.158-2.434V8.08h-5.859V6.666h5.859zm-4.104 10.87V5.166c0-.623.146-1.142.438-1.557a2.724 2.724 0 011.14-.934 3.6 3.6 0 011.479-.312c.41 0 .745.033 1.005.1.259.065.453.127.58.183l-.481 1.444a8.27 8.27 0 00-.354-.106 2.144 2.144 0 00-.58-.064c-.552 0-.951.14-1.196.418-.241.278-.361.686-.361 1.224v11.974h-1.67zm6.445 0V6.666h1.613v1.642h.114c.198-.538.556-.974 1.075-1.31a3.166 3.166 0 011.755-.502c.123 0 .276.002.46.007s.324.012.418.021v1.699a4.96 4.96 0 00-.389-.064 3.828 3.828 0 00-.63-.05c-.528 0-1 .112-1.415.333a2.51 2.51 0 00-.977.906 2.44 2.44 0 00-.354 1.31v6.878h-1.67zm11.5.227c-.981 0-1.842-.234-2.583-.701-.736-.467-1.312-1.12-1.727-1.96-.41-.84-.616-1.822-.616-2.944 0-1.133.206-2.121.616-2.966.415-.844.991-1.5 1.727-1.967.741-.467 1.602-.7 2.583-.7.981 0 1.84.233 2.576.7.741.467 1.316 1.123 1.727 1.967.415.845.623 1.833.623 2.966 0 1.123-.208 2.104-.623 2.944-.411.84-.986 1.493-1.727 1.96-.736.467-1.595.7-2.576.7zm0-1.5c.745 0 1.359-.192 1.84-.574.481-.382.837-.885 1.069-1.507a5.775 5.775 0 00.346-2.024c0-.727-.115-1.404-.346-2.031-.232-.628-.588-1.135-1.069-1.522s-1.095-.58-1.84-.58c-.745 0-1.359.193-1.84.58-.481.387-.837.894-1.069 1.522a5.834 5.834 0 00-.346 2.03c0 .727.115 1.402.346 2.025.232.622.588 1.125 1.069 1.507.481.382 1.095.573 1.84.573zm7.475 1.273V6.666h1.614v1.698h.141c.227-.58.592-1.03 1.097-1.351.505-.326 1.111-.489 1.819-.489.717 0 1.314.163 1.79.489.481.32.857.771 1.125 1.351h.114a3.167 3.167 0 011.252-1.337c.557-.335 1.225-.503 2.003-.503.972 0 1.767.305 2.385.913.618.604.927 1.545.927 2.824v7.275h-1.67v-7.275c0-.802-.219-1.375-.658-1.72-.439-.344-.956-.516-1.55-.516-.764 0-1.356.23-1.776.693-.42.458-.63 1.038-.63 1.741v7.077h-1.699v-7.445c0-.618-.2-1.116-.601-1.493-.401-.382-.918-.573-1.55-.573-.434 0-.84.115-1.217.346a2.615 2.615 0 00-.906.963c-.227.406-.34.875-.34 1.408v6.794h-1.67zm27.342.227c-.982 0-1.843-.234-2.583-.701-.736-.467-1.312-1.12-1.727-1.96-.411-.84-.616-1.822-.616-2.944 0-1.133.205-2.121.616-2.966.415-.844.991-1.5 1.727-1.967.74-.467 1.601-.7 2.583-.7.981 0 1.84.233 2.576.7.741.467 1.316 1.123 1.727 1.967.415.845.622 1.833.622 2.966 0 1.123-.207 2.104-.622 2.944-.411.84-.986 1.493-1.727 1.96-.736.467-1.595.7-2.576.7zm0-1.5c.745 0 1.359-.192 1.84-.574a3.379 3.379 0 001.068-1.507 5.753 5.753 0 00.347-2.024c0-.727-.115-1.404-.347-2.031-.231-.628-.587-1.135-1.068-1.522-.481-.387-1.095-.58-1.84-.58-.746 0-1.359.193-1.84.58a3.424 3.424 0 00-1.069 1.522 5.834 5.834 0 00-.347 2.03c0 .727.116 1.402.347 2.025a3.38 3.38 0 001.069 1.507c.481.382 1.094.573 1.84.573zm11.891 1.5c-1.019 0-1.897-.241-2.633-.722-.736-.482-1.302-1.144-1.698-1.989-.397-.844-.595-1.81-.595-2.894 0-1.104.203-2.079.609-2.923.41-.85.981-1.512 1.713-1.989.736-.481 1.594-.722 2.576-.722.764 0 1.453.142 2.066.425.613.283 1.116.68 1.507 1.189a3.7 3.7 0 01.729 1.783h-1.67c-.127-.495-.41-.934-.849-1.316-.434-.387-1.019-.58-1.755-.58-.651 0-1.222.17-1.713.51-.486.334-.866.808-1.139 1.422-.269.608-.404 1.323-.404 2.144 0 .84.133 1.571.397 2.194.269.623.646 1.106 1.132 1.45.491.345 1.066.517 1.727.517.434 0 .828-.075 1.182-.226.354-.151.653-.368.898-.651a2.49 2.49 0 00.524-1.02h1.67a3.872 3.872 0 01-.7 1.734c-.368.51-.857.916-1.465 1.218-.604.297-1.307.446-2.109.446zm11.443-11.097V8.08h-5.633V6.666h5.633zm-3.991-2.604h1.67v10.36c0 .472.068.826.205 1.062.142.231.321.387.538.467.222.075.455.113.701.113.184 0 .335-.01.453-.028l.283-.057.339 1.5a3.381 3.381 0 01-.474.128c-.203.047-.46.07-.771.07-.472 0-.934-.1-1.387-.304a2.755 2.755 0 01-1.118-.927c-.293-.415-.439-.939-.439-1.57V4.061zm10.803 13.7c-.982 0-1.843-.233-2.583-.7-.736-.467-1.312-1.12-1.727-1.96-.411-.84-.616-1.822-.616-2.944 0-1.133.205-2.121.616-2.966.415-.844.991-1.5 1.727-1.967.74-.467 1.601-.7 2.583-.7.981 0 1.84.233 2.576.7.741.467 1.316 1.123 1.727 1.967.415.845.622 1.833.622 2.966 0 1.123-.207 2.104-.622 2.944-.411.84-.986 1.493-1.727 1.96-.736.467-1.595.7-2.576.7zm0-1.5c.745 0 1.359-.19 1.84-.573a3.379 3.379 0 001.068-1.507 5.753 5.753 0 00.347-2.024c0-.727-.115-1.404-.347-2.031-.231-.628-.587-1.135-1.068-1.522-.481-.387-1.095-.58-1.84-.58-.746 0-1.359.193-1.84.58a3.424 3.424 0 00-1.069 1.522 5.834 5.834 0 00-.347 2.03c0 .727.116 1.402.347 2.025a3.38 3.38 0 001.069 1.507c.481.382 1.094.573 1.84.573zm7.701 1.274V3.043h1.67v5.35h.142c.123-.189.293-.43.51-.722.221-.297.537-.562.948-.793.415-.236.976-.354 1.684-.354.915 0 1.722.23 2.42.687.699.458 1.244 1.106 1.635 1.946.392.84.588 1.83.588 2.972 0 1.152-.196 2.15-.588 2.994-.391.84-.934 1.49-1.627 1.953-.694.458-1.494.687-2.4.687-.698 0-1.257-.116-1.677-.347-.42-.236-.743-.503-.969-.8a10.664 10.664 0 01-.524-.75h-.198v1.67h-1.614zm1.642-5.435c0 .821.12 1.545.361 2.173.241.622.592 1.11 1.055 1.465.462.349 1.028.523 1.698.523.698 0 1.281-.184 1.748-.552.472-.372.826-.873 1.062-1.5.24-.632.36-1.335.36-2.109 0-.764-.117-1.453-.353-2.066-.232-.618-.583-1.107-1.055-1.465-.467-.364-1.054-.545-1.762-.545-.679 0-1.25.172-1.713.516-.462.34-.811.817-1.047 1.43-.236.608-.354 1.319-.354 2.13zm15.067 5.662c-1.047 0-1.951-.232-2.71-.694a4.651 4.651 0 01-1.748-1.953c-.406-.84-.609-1.817-.609-2.93 0-1.114.203-2.095.609-2.944.41-.854.981-1.52 1.712-1.996.736-.481 1.595-.722 2.576-.722.566 0 1.125.095 1.677.283a4.159 4.159 0 011.508.92c.453.42.814.977 1.083 1.67.268.694.403 1.548.403 2.563v.707h-8.379v-1.444h6.68c0-.613-.122-1.16-.368-1.641a2.77 2.77 0 00-1.033-1.14c-.443-.278-.967-.417-1.571-.417-.665 0-1.241.165-1.727.495-.481.326-.851.75-1.111 1.274a3.748 3.748 0 00-.389 1.684v.963c0 .82.142 1.517.425 2.087.287.567.686.998 1.196 1.295.509.293 1.101.44 1.776.44.439 0 .835-.062 1.189-.185.358-.127.667-.316.927-.566.259-.255.46-.57.602-.948l1.613.453a3.578 3.578 0 01-.856 1.443 4.18 4.18 0 01-1.486.963c-.59.226-1.253.34-1.989.34zm7.042-.227V6.666h1.613v1.642h.113c.198-.538.557-.974 1.076-1.31a3.166 3.166 0 011.755-.502c.123 0 .276.002.46.007s.323.012.418.021v1.699a5.018 5.018 0 00-.39-.064 3.825 3.825 0 00-.629-.05c-.529 0-1.001.112-1.416.333-.41.217-.736.52-.976.906a2.44 2.44 0 00-.354 1.31v6.878h-1.67zm17.747-10.87V8.08h-5.633V6.666h5.633zm-3.992-2.604h1.671v10.36c0 .472.068.826.205 1.062.141.231.321.387.538.467.221.075.455.113.7.113.184 0 .335-.01.453-.028l.283-.057.34 1.5a3.381 3.381 0 01-.474.128c-.203.047-.46.07-.772.07-.471 0-.934-.1-1.387-.304a2.755 2.755 0 01-1.118-.927c-.292-.415-.439-.939-.439-1.57V4.061zm10.803 13.7c-.981 0-1.842-.233-2.583-.7-.736-.467-1.311-1.12-1.727-1.96-.41-.84-.615-1.822-.615-2.944 0-1.133.205-2.121.615-2.966.416-.844.991-1.5 1.727-1.967.741-.467 1.602-.7 2.583-.7.982 0 1.84.233 2.576.7.741.467 1.317 1.123 1.727 1.967.415.845.623 1.833.623 2.966 0 1.123-.208 2.104-.623 2.944-.41.84-.986 1.493-1.727 1.96-.736.467-1.594.7-2.576.7zm0-1.5c.746 0 1.359-.19 1.84-.573a3.373 3.373 0 001.069-1.507 5.776 5.776 0 00.347-2.024c0-.727-.116-1.404-.347-2.031-.231-.628-.587-1.135-1.069-1.522-.481-.387-1.094-.58-1.84-.58-.745 0-1.358.193-1.84.58-.481.387-.837.894-1.068 1.522a5.834 5.834 0 00-.347 2.03c0 .727.116 1.402.347 2.025a3.379 3.379 0 001.068 1.507c.482.382 1.095.573 1.84.573zm17.185 1.5c-.906 0-1.706-.228-2.399-.686-.694-.462-1.236-1.113-1.628-1.953-.391-.845-.587-1.842-.587-2.994 0-1.141.196-2.132.587-2.972.392-.84.937-1.488 1.635-1.946.698-.458 1.505-.687 2.42-.687.708 0 1.267.118 1.677.354.416.231.732.496.949.793.222.292.394.533.516.722h.142v-5.35h1.67v14.493h-1.613v-1.67h-.199c-.122.198-.297.448-.523.75-.227.297-.55.564-.97.8-.42.231-.979.347-1.677.347zm.226-1.5c.67 0 1.237-.174 1.699-.523.462-.354.814-.843 1.054-1.465.241-.628.361-1.352.361-2.173 0-.812-.118-1.522-.354-2.13-.235-.613-.585-1.09-1.047-1.43-.462-.344-1.033-.516-1.713-.516-.707 0-1.297.181-1.769.545-.467.358-.818.847-1.054 1.465-.231.613-.347 1.302-.347 2.066 0 .774.118 1.477.354 2.109.24.627.594 1.128 1.061 1.5.472.368 1.057.552 1.755.552zm12.604 1.5c-1.047 0-1.95-.23-2.71-.693a4.651 4.651 0 01-1.748-1.953c-.406-.84-.609-1.817-.609-2.93 0-1.114.203-2.095.609-2.944.41-.854.981-1.52 1.713-1.996.736-.481 1.594-.722 2.576-.722.566 0 1.125.095 1.677.283a4.155 4.155 0 011.507.92c.453.42.814.977 1.083 1.67.269.694.403 1.548.403 2.563v.707h-8.379v-1.444h6.681c0-.613-.123-1.16-.368-1.641a2.777 2.777 0 00-1.033-1.14c-.444-.278-.968-.417-1.571-.417-.666 0-1.241.165-1.727.495-.481.326-.852.75-1.111 1.274a3.736 3.736 0 00-.39 1.684v.963c0 .82.142 1.517.425 2.087.288.567.687.998 1.196 1.295.51.293 1.102.44 1.776.44.439 0 .836-.062 1.189-.185.359-.127.668-.316.927-.566.26-.255.46-.57.602-.948l1.614.453a3.58 3.58 0 01-.857 1.443 4.17 4.17 0 01-1.486.963c-.59.226-1.253.34-1.989.34zm11.458 0c-1.019 0-1.897-.24-2.633-.721-.736-.482-1.302-1.144-1.698-1.989-.396-.844-.595-1.81-.595-2.894 0-1.104.203-2.079.609-2.923.411-.85.981-1.512 1.713-1.989.736-.481 1.594-.722 2.576-.722.764 0 1.453.142 2.066.425.614.283 1.116.68 1.508 1.189a3.71 3.71 0 01.728 1.783h-1.67c-.127-.495-.41-.934-.849-1.316-.434-.387-1.019-.58-1.755-.58-.651 0-1.222.17-1.713.51-.486.334-.865.808-1.139 1.422-.269.608-.403 1.323-.403 2.144 0 .84.132 1.571.396 2.194.269.623.646 1.106 1.132 1.45.491.345 1.066.517 1.727.517.434 0 .828-.075 1.182-.226.354-.151.653-.368.899-.651.245-.283.42-.623.523-1.02h1.67a3.86 3.86 0 01-.7 1.734c-.368.51-.856.916-1.465 1.218-.604.297-1.307.446-2.109.446zm11.274 0c-1.048 0-1.951-.23-2.711-.693-.755-.467-1.337-1.118-1.748-1.953-.406-.84-.608-1.817-.608-2.93 0-1.114.202-2.095.608-2.944.411-.854.981-1.52 1.713-1.996.736-.481 1.594-.722 2.576-.722.566 0 1.125.095 1.677.283a4.155 4.155 0 011.507.92c.453.42.814.977 1.083 1.67.269.694.404 1.548.404 2.563v.707h-8.38v-1.444h6.681c0-.613-.123-1.16-.368-1.641a2.777 2.777 0 00-1.033-1.14c-.444-.278-.967-.417-1.571-.417-.665 0-1.241.165-1.727.495-.481.326-.852.75-1.111 1.274a3.735 3.735 0 00-.389 1.684v.963c0 .82.141 1.517.424 2.087.288.567.687.998 1.196 1.295.51.293 1.102.44 1.777.44a3.62 3.62 0 001.189-.185c.358-.127.667-.316.927-.566.259-.255.46-.57.601-.948l1.614.453a3.58 3.58 0 01-.857 1.443 4.17 4.17 0 01-1.486.963c-.59.226-1.252.34-1.988.34zm7.041-.226V6.666h1.614v1.698h.141c.227-.58.592-1.03 1.097-1.351.505-.326 1.111-.489 1.819-.489.717 0 1.314.163 1.79.489.482.32.857.771 1.126 1.351h.113a3.164 3.164 0 011.253-1.337c.556-.335 1.224-.503 2.002-.503.972 0 1.767.305 2.385.913.618.604.927 1.545.927 2.824v7.275h-1.67v-7.275c0-.802-.219-1.375-.658-1.72-.439-.344-.955-.516-1.55-.516-.764 0-1.356.23-1.776.693-.42.458-.63 1.038-.63 1.741v7.077h-1.699v-7.445c0-.618-.2-1.116-.601-1.493-.401-.382-.918-.573-1.55-.573-.434 0-.84.115-1.217.346a2.615 2.615 0 00-.906.963c-.226.406-.34.875-.34 1.408v6.794h-1.67zm17.547 0V3.043h1.671v5.35h.141c.123-.189.293-.43.51-.722.221-.297.538-.562.948-.793.415-.236.977-.354 1.684-.354.916 0 1.722.23 2.421.687.698.458 1.243 1.106 1.634 1.946.392.84.588 1.83.588 2.972 0 1.152-.196 2.15-.588 2.994-.391.84-.934 1.49-1.627 1.953-.694.458-1.494.687-2.399.687-.699 0-1.258-.116-1.678-.347-.42-.236-.743-.503-.969-.8a10.664 10.664 0 01-.524-.75h-.198v1.67h-1.614zm1.642-5.435c0 .821.121 1.545.361 2.173.241.622.592 1.11 1.055 1.465.462.349 1.028.523 1.698.523.698 0 1.281-.184 1.748-.552.472-.372.826-.873 1.062-1.5.24-.632.361-1.335.361-2.109 0-.764-.118-1.453-.354-2.066-.231-.618-.583-1.107-1.055-1.465-.467-.364-1.054-.545-1.762-.545-.679 0-1.25.172-1.712.516-.463.34-.812.817-1.048 1.43-.236.608-.354 1.319-.354 2.13zm15.067 5.662c-1.047 0-1.951-.232-2.71-.694a4.651 4.651 0 01-1.748-1.953c-.406-.84-.609-1.817-.609-2.93 0-1.114.203-2.095.609-2.944.41-.854.981-1.52 1.712-1.996.736-.481 1.595-.722 2.576-.722.566 0 1.126.095 1.678.283a4.155 4.155 0 011.507.92c.453.42.814.977 1.083 1.67.269.694.403 1.548.403 2.563v.707h-8.379v-1.444h6.681c0-.613-.123-1.16-.368-1.641a2.772 2.772 0 00-1.034-1.14c-.443-.278-.967-.417-1.571-.417-.665 0-1.241.165-1.726.495-.482.326-.852.75-1.112 1.274a3.748 3.748 0 00-.389 1.684v.963c0 .82.142 1.517.425 2.087.288.567.686.998 1.196 1.295.509.293 1.101.44 1.776.44.439 0 .835-.062 1.189-.185.359-.127.668-.316.927-.566.26-.255.46-.57.602-.948l1.613.453a3.578 3.578 0 01-.856 1.443 4.17 4.17 0 01-1.486.963c-.59.226-1.253.34-1.989.34zm7.042-.227V6.666h1.613v1.642h.113c.199-.538.557-.974 1.076-1.31a3.166 3.166 0 011.755-.502c.123 0 .276.002.46.007s.323.012.418.021v1.699a5.05 5.05 0 00-.389-.064 3.846 3.846 0 00-.63-.05c-.529 0-1 .112-1.416.333-.41.217-.736.52-.976.906a2.44 2.44 0 00-.354 1.31v6.878h-1.67z" fill="#000"/></svg>