<svg width="94" height="98" viewBox="0 0 94 98" fill="none" xmlns="http://www.w3.org/2000/svg"><g filter="url(#filter0_d_5262_56455)"><path fill-rule="evenodd" clip-rule="evenodd" d="M32.398 42.357c-.972-1.228-2.152-3.74-4.253-6.788-1.19-1.725-4.143-4.972-5.023-6.62-.763-1.458-.68-2.112-.5-3.32.322-2.148 2.526-3.821 4.876-3.595 1.776.167 3.281 1.34 4.636 2.45.818.666 1.824 1.963 2.43 2.695.557.671.694.948 1.29 1.742.786 1.05 1.033 1.57.732.414-.243-1.697-.64-4.595-1.215-7.158-.438-1.943-.544-2.248-.961-3.74-.442-1.587-.668-2.699-1.082-4.382-.287-1.19-.804-3.623-.944-4.992-.195-1.872-.297-4.923.903-6.326.941-1.098 3.1-1.43 4.438-.753 1.752.886 2.747 3.432 3.202 4.448.818 1.827 1.325 3.938 1.766 6.71.561 3.527 1.594 8.423 1.628 9.453.083-1.263-.232-3.921-.013-5.132.198-1.099 1.122-2.375 2.278-2.72.979-.291 2.125-.397 3.134-.189 1.071.22 2.2.986 2.621 1.708 1.239 2.135 1.263 6.497 1.314 6.264.294-1.286.243-4.205.972-5.42.479-.8 1.7-1.522 2.35-1.638 1.006-.178 2.241-.233 3.299-.027.851.167 2.005 1.18 2.316 1.666.746 1.177 1.17 4.506 1.297 5.672.05.483.253-1.34 1.002-2.518 1.39-2.186 6.306-2.61 6.494 2.187.085 2.237.068 2.135.068 3.64 0 1.769-.04 2.833-.137 4.113-.106 1.368-.4 4.461-.828 5.96-.294 1.03-1.269 3.346-2.23 4.735 0 0-3.675 4.277-4.075 6.203-.404 1.923-.27 1.936-.35 3.302-.078 1.361.415 3.154.415 3.154s-2.744.356-4.222.12c-1.338-.216-2.994-2.877-3.422-3.692-.588-1.122-1.844-.906-2.333-.078-.77 1.31-2.426 3.66-3.596 3.807-2.285.288-7.028.107-10.74.069 0 0 .633-3.46-.777-4.646-1.043-.886-2.84-2.683-3.914-3.627l-2.846-3.151z" fill="#fff"/><path clip-rule="evenodd" d="M32.398 42.357c-.972-1.228-2.152-3.74-4.253-6.788-1.19-1.725-4.143-4.972-5.023-6.62-.763-1.458-.68-2.112-.5-3.32.322-2.148 2.526-3.821 4.876-3.595 1.776.167 3.281 1.34 4.636 2.45.818.666 1.824 1.963 2.43 2.695.557.671.694.948 1.29 1.742.786 1.05 1.033 1.57.732.414-.243-1.697-.64-4.595-1.215-7.158-.438-1.943-.544-2.248-.961-3.74-.442-1.587-.668-2.699-1.082-4.382-.287-1.19-.804-3.623-.944-4.992-.195-1.872-.297-4.923.903-6.326.941-1.098 3.1-1.43 4.438-.753 1.752.886 2.747 3.432 3.202 4.448.818 1.827 1.325 3.938 1.766 6.71.561 3.527 1.594 8.423 1.628 9.453.083-1.263-.232-3.921-.013-5.132.198-1.099 1.122-2.375 2.278-2.72.979-.291 2.125-.397 3.134-.189 1.071.22 2.2.986 2.621 1.708 1.239 2.135 1.263 6.497 1.314 6.264.294-1.286.243-4.205.972-5.42.479-.8 1.7-1.522 2.35-1.638 1.006-.178 2.241-.233 3.299-.027.851.167 2.005 1.18 2.316 1.666.746 1.177 1.17 4.506 1.297 5.672.05.483.253-1.34 1.002-2.518 1.39-2.186 6.306-2.61 6.494 2.187.085 2.237.068 2.135.068 3.64 0 1.769-.04 2.833-.137 4.113-.106 1.368-.4 4.461-.828 5.96-.294 1.03-1.269 3.346-2.23 4.735 0 0-3.675 4.277-4.075 6.203-.404 1.923-.27 1.936-.35 3.302-.078 1.361.415 3.154.415 3.154s-2.744.356-4.222.12c-1.338-.216-2.994-2.877-3.422-3.692-.588-1.122-1.844-.906-2.333-.078-.77 1.31-2.426 3.66-3.596 3.807-2.285.288-7.028.107-10.74.069 0 0 .633-3.46-.777-4.646-1.043-.886-2.84-2.683-3.914-3.627l-2.846-3.151z" stroke="#000" stroke-width="2.053" stroke-linecap="round" stroke-linejoin="round"/><path d="M60.574 43.57V31.734M53.678 43.61l-.055-11.883M46.846 31.835l.072 11.722" stroke="#000" stroke-width="2.053" stroke-linecap="round"/></g><defs><filter id="filter0_d_5262_56455" x="-.325" y="0" width="97.391" height="100.813" filterUnits="userSpaceOnUse" color-interpolation-filters="sRGB"><feFlood flood-opacity="0" result="BackgroundImageFix"/><feColorMatrix in="SourceAlpha" values="0 0 0 0 0 0 0 0 0 0 0 0 0 0 0 0 0 0 127 0" result="hardAlpha"/><feOffset dy="21.325"/><feGaussianBlur stdDeviation="10.662"/><feComposite in2="hardAlpha" operator="out"/><feColorMatrix values="0 0 0 0 0 0 0 0 0 0 0 0 0 0 0 0 0 0 0.15 0"/><feBlend in2="BackgroundImageFix" result="effect1_dropShadow_5262_56455"/><feBlend in="SourceGraphic" in2="effect1_dropShadow_5262_56455" result="shape"/></filter></defs></svg>