<svg width="541" height="34" viewBox="0 0 541 34" fill="none" xmlns="http://www.w3.org/2000/svg"><g><rect x=".598" y="1" width="668.892" height="32" rx="2.608" fill="#6733FF"/><rect x=".598" y="1" width="668.892" height="32" rx="2.608" stroke="#6733FF" stroke-width=".652"/><path d="M326.981 14.707a1.22 1.22 0 00-.55-.916c-.322-.22-.728-.33-1.217-.33-.35 0-.653.056-.908.167a1.392 1.392 0 00-.596.45 1.062 1.062 0 00-.209.646c0 .203.048.378.142.525.097.147.224.271.379.371.159.097.328.18.509.246.18.064.354.117.52.158l.834.217c.272.067.551.157.838.27.286.115.551.265.796.45.244.187.441.418.591.693.153.275.229.604.229.987 0 .484-.125.913-.375 1.288-.247.375-.607.67-1.079.888-.469.216-1.038.325-1.704.325-.639 0-1.192-.102-1.659-.305a2.553 2.553 0 01-1.096-.862c-.264-.375-.41-.82-.437-1.334h1.291c.025.309.125.566.3.771.178.203.405.355.68.454.278.098.582.146.912.146.364 0 .688-.057.971-.17.286-.117.511-.278.675-.484.164-.208.246-.451.246-.73a.897.897 0 00-.216-.62 1.602 1.602 0 00-.58-.4 5.605 5.605 0 00-.821-.28l-1.008-.274c-.684-.186-1.225-.46-1.625-.821-.398-.362-.596-.84-.596-1.434 0-.492.133-.92.4-1.287a2.632 2.632 0 011.083-.855c.456-.205.97-.308 1.542-.308.578 0 1.088.101 1.53.304.444.203.794.482 1.05.838.255.353.389.758.4 1.216h-1.242zm4.66 6.435c-.406 0-.772-.075-1.1-.225a1.848 1.848 0 01-.779-.663c-.189-.289-.284-.643-.284-1.063 0-.36.07-.658.209-.891a1.53 1.53 0 01.562-.555c.236-.136.5-.239.792-.308.292-.07.589-.122.892-.158.383-.045.694-.08.933-.109.239-.03.413-.079.521-.146.108-.066.163-.175.163-.325v-.029c0-.364-.103-.646-.309-.846-.203-.2-.505-.3-.908-.3-.42 0-.75.093-.992.28a1.496 1.496 0 00-.496.612l-1.171-.267a2.26 2.26 0 01.608-.942c.27-.241.58-.416.93-.525.35-.11.718-.166 1.104-.166.256 0 .526.03.813.091.289.059.558.167.808.325.253.159.46.385.621.68.161.291.242.67.242 1.137V21h-1.217v-.875h-.05c-.081.161-.202.32-.363.475a1.923 1.923 0 01-.621.387 2.403 2.403 0 01-.908.155zm.271-1c.344 0 .639-.069.883-.205.248-.136.435-.314.563-.533.13-.222.196-.46.196-.713v-.825a.655.655 0 01-.259.125 4.029 4.029 0 01-.429.096 47.86 47.86 0 01-.471.07l-.383.051c-.242.03-.463.082-.663.154a1.143 1.143 0 00-.475.313c-.117.133-.175.31-.175.533 0 .309.114.542.342.7.228.156.518.233.871.233zm9.794-5.543L339.385 21h-1.334l-2.325-6.4h1.338l1.621 4.925h.066l1.617-4.926h1.338zm3.7 6.53c-.63 0-1.173-.135-1.629-.404a2.74 2.74 0 01-1.05-1.146c-.245-.495-.367-1.074-.367-1.738 0-.655.122-1.233.367-1.733.247-.5.592-.89 1.033-1.171.445-.28.964-.421 1.559-.421.361 0 .711.06 1.05.179.339.12.643.307.913.563.269.255.482.587.637.995.156.406.234.9.234 1.48v.442h-5.089v-.934h3.868c0-.328-.067-.618-.2-.87a1.516 1.516 0 00-1.405-.826c-.35 0-.655.086-.917.258-.258.17-.458.392-.6.667a1.923 1.923 0 00-.208.888v.73c0 .427.075.79.225 1.09.153.301.365.53.638.688.272.156.59.234.954.234.236 0 .451-.034.646-.1a1.335 1.335 0 00.829-.813l1.179.213a2.135 2.135 0 01-.508.912c-.242.259-.546.46-.913.605a3.417 3.417 0 01-1.246.212z" fill="#fff"/></g></svg>