<svg width="93" height="95" viewBox="0 0 93 95" fill="none" xmlns="http://www.w3.org/2000/svg"><g filter="url(#filter0_d_5262_58909)"><path fill-rule="evenodd" clip-rule="evenodd" d="M33.874 36.699c-.842-1.065-1.864-3.24-3.684-5.882-1.032-1.494-3.59-4.307-4.352-5.736-.661-1.263-.59-1.829-.433-2.875.279-1.862 2.188-3.311 4.224-3.116 1.539.145 2.843 1.162 4.017 2.123.709.578 1.58 1.701 2.105 2.336.483.58.602.82 1.117 1.508.682.91.896 1.361.635.36-.21-1.471-.554-3.982-1.053-6.202-.379-1.684-.47-1.948-.833-3.24-.382-1.376-.578-2.34-.936-3.798-.25-1.031-.697-3.139-.818-4.325-.17-1.621-.258-4.265.782-5.48.815-.952 2.686-1.24 3.845-.653 1.518.768 2.38 2.973 2.775 3.854.708 1.583 1.147 3.412 1.53 5.813.485 3.056 1.38 7.298 1.41 8.19.071-1.093-.201-3.397-.012-4.446.172-.952.973-2.058 1.975-2.357.848-.252 1.84-.344 2.715-.163.928.19 1.906.854 2.27 1.48 1.074 1.849 1.095 5.629 1.139 5.427.255-1.115.21-3.643.842-4.695.415-.694 1.473-1.32 2.036-1.42.872-.155 1.942-.202 2.858-.024.738.145 1.737 1.022 2.007 1.444.646 1.02 1.014 3.904 1.123 4.914.045.418.22-1.162.869-2.181 1.203-1.895 5.463-2.262 5.626 1.894.075 1.938.06 1.85.06 3.154 0 1.532-.036 2.454-.119 3.563-.092 1.186-.347 3.866-.717 5.164-.255.892-1.1 2.9-1.933 4.103 0 0-3.184 3.705-3.53 5.374-.35 1.666-.235 1.678-.303 2.86-.068 1.18.359 2.734.359 2.734s-2.378.308-3.658.104c-1.16-.187-2.594-2.493-2.965-3.199-.51-.972-1.598-.785-2.021-.068-.667 1.135-2.102 3.172-3.116 3.3-1.98.248-6.089.091-9.305.059 0 0 .548-2.998-.673-4.026-.904-.768-2.46-2.324-3.391-3.142l-2.467-2.73z" fill="#fff"/><path clip-rule="evenodd" d="M33.874 36.699c-.842-1.065-1.864-3.24-3.684-5.882-1.032-1.494-3.59-4.307-4.352-5.736-.661-1.263-.59-1.829-.433-2.875.279-1.862 2.188-3.311 4.224-3.116 1.539.145 2.843 1.162 4.017 2.123.709.578 1.58 1.701 2.105 2.336.483.58.602.82 1.117 1.508.682.91.896 1.361.635.36-.21-1.471-.554-3.982-1.053-6.202-.379-1.684-.47-1.948-.833-3.24-.382-1.376-.578-2.34-.936-3.798-.25-1.031-.697-3.139-.818-4.325-.17-1.621-.258-4.265.782-5.48.815-.952 2.686-1.24 3.845-.653 1.518.768 2.38 2.973 2.775 3.854.708 1.583 1.147 3.412 1.53 5.813.485 3.056 1.38 7.298 1.41 8.19.071-1.093-.201-3.397-.012-4.446.172-.952.973-2.058 1.975-2.357.848-.252 1.84-.344 2.715-.163.928.19 1.906.854 2.27 1.48 1.074 1.849 1.095 5.629 1.139 5.427.255-1.115.21-3.643.842-4.695.415-.694 1.473-1.32 2.036-1.42.872-.155 1.942-.202 2.858-.024.738.145 1.737 1.022 2.007 1.444.646 1.02 1.014 3.904 1.123 4.914.045.418.22-1.162.869-2.181 1.203-1.895 5.463-2.262 5.626 1.894.075 1.938.06 1.85.06 3.154 0 1.532-.036 2.454-.119 3.563-.092 1.186-.347 3.866-.717 5.164-.255.892-1.1 2.9-1.933 4.103 0 0-3.184 3.705-3.53 5.374-.35 1.666-.235 1.678-.303 2.86-.068 1.18.359 2.734.359 2.734s-2.378.308-3.658.104c-1.16-.187-2.594-2.493-2.965-3.199-.51-.972-1.598-.785-2.021-.068-.667 1.135-2.102 3.172-3.116 3.3-1.98.248-6.089.091-9.305.059 0 0 .548-2.998-.673-4.026-.904-.768-2.46-2.324-3.391-3.142l-2.467-2.73z" stroke="#000" stroke-width="1.779" stroke-linecap="round" stroke-linejoin="round"/><path d="M58.29 37.75V27.496M52.313 37.785l-.047-10.296M46.395 27.583l.062 10.156" stroke="#000" stroke-width="1.779" stroke-linecap="round"/></g><defs><filter id="filter0_d_5262_58909" x=".285" y="0" width="94.859" height="97.824" filterUnits="userSpaceOnUse" color-interpolation-filters="sRGB"><feFlood flood-opacity="0" result="BackgroundImageFix"/><feColorMatrix in="SourceAlpha" values="0 0 0 0 0 0 0 0 0 0 0 0 0 0 0 0 0 0 127 0" result="hardAlpha"/><feOffset dy="23.715"/><feGaussianBlur stdDeviation="11.857"/><feComposite in2="hardAlpha" operator="out"/><feColorMatrix values="0 0 0 0 0 0 0 0 0 0 0 0 0 0 0 0 0 0 0.15 0"/><feBlend in2="BackgroundImageFix" result="effect1_dropShadow_5262_58909"/><feBlend in="SourceGraphic" in2="effect1_dropShadow_5262_58909" result="shape"/></filter></defs></svg>