<svg width="198" height="12" viewBox="0 0 198 12" fill="none" xmlns="http://www.w3.org/2000/svg"><path d="M.063 1.018h1.233l2.9 7.085h.1l2.901-7.085h1.234v8.535h-.967V3.069H7.38L4.713 9.553H3.78L1.113 3.069H1.03v6.484H.063V1.018zm14.34 5.918V3.152h.984v6.4h-.984V8.47h-.066a2.1 2.1 0 01-.7.83c-.317.225-.717.337-1.2.337-.4 0-.756-.087-1.067-.262a1.837 1.837 0 01-.734-.8c-.178-.359-.267-.81-.267-1.355V3.152h.984v4c0 .467.13.84.392 1.117.264.278.6.417 1.008.417.245 0 .493-.063.746-.188.256-.125.47-.316.642-.575.175-.258.262-.587.262-.987zm3.769-1.234v3.85h-.984V1.019h.984v3.134h.083c.15-.33.375-.593.675-.788.303-.197.706-.295 1.208-.295.437 0 .819.087 1.146.262.328.172.582.438.763.796.183.356.275.808.275 1.359v4.067h-.983v-4c0-.51-.132-.902-.396-1.18-.261-.28-.624-.421-1.088-.421-.322 0-.611.068-.867.204a1.492 1.492 0 00-.6.596c-.144.261-.216.578-.216.95zm7.833 4c-.406 0-.774-.076-1.104-.228a1.895 1.895 0 01-.788-.671c-.194-.295-.292-.65-.292-1.067 0-.367.072-.664.217-.892a1.53 1.53 0 01.58-.542c.24-.13.508-.228.8-.291.294-.067.59-.12.887-.159.389-.05.704-.087.946-.112.244-.028.422-.074.533-.138.114-.064.171-.175.171-.333v-.034c0-.41-.112-.73-.337-.958-.223-.228-.56-.342-1.013-.342-.47 0-.838.103-1.104.309-.267.205-.455.425-.563.658l-.933-.333c.166-.39.389-.692.666-.909.28-.22.587-.372.917-.458.334-.089.661-.133.984-.133.205 0 .441.025.708.075.27.047.53.145.78.295.252.15.462.377.629.68.166.302.25.708.25 1.216v4.218h-.984v-.867h-.05a1.731 1.731 0 01-.333.446 1.922 1.922 0 01-.621.404c-.259.111-.574.167-.946.167zm.15-.883c.389 0 .717-.076.983-.229a1.561 1.561 0 00.817-1.354v-.9c-.041.05-.133.095-.275.137-.139.039-.3.074-.483.104a22.06 22.06 0 01-.942.125 3.758 3.758 0 00-.717.163c-.22.072-.397.182-.533.33-.134.144-.2.34-.2.59 0 .343.126.6.379.776.255.172.58.258.97.258zm4.579.734V3.152h.95v1h.083c.134-.342.349-.607.646-.796.297-.192.654-.287 1.071-.287.422 0 .774.095 1.054.287.284.189.505.454.663.796h.067c.163-.33.41-.593.737-.788.328-.197.721-.295 1.18-.295.572 0 1.04.179 1.404.537.364.356.546.91.546 1.663v4.284h-.984V5.269c0-.472-.129-.81-.387-1.013a1.435 1.435 0 00-.913-.304c-.45 0-.799.136-1.046.408-.247.27-.37.612-.37 1.026v4.167h-1V5.169c0-.364-.119-.657-.355-.88-.236-.225-.54-.337-.913-.337-.255 0-.494.068-.717.204-.219.136-.397.325-.533.567-.133.239-.2.515-.2.83v4h-.983zm10.199 0V3.152h.95v1h.083c.134-.342.35-.607.646-.796.298-.192.655-.287 1.071-.287.423 0 .774.095 1.055.287.283.189.504.454.662.796h.067c.164-.33.41-.593.738-.788.327-.197.72-.295 1.179-.295.572 0 1.04.179 1.404.537.364.356.546.91.546 1.663v4.284h-.983V5.269c0-.472-.13-.81-.388-1.013a1.435 1.435 0 00-.913-.304c-.45 0-.798.136-1.045.408-.248.27-.371.612-.371 1.026v4.167h-1V5.169c0-.364-.119-.657-.355-.88-.236-.225-.54-.337-.912-.337-.256 0-.495.068-.717.204-.22.136-.397.325-.534.567-.133.239-.2.515-.2.83v4h-.983zm12.083.15c-.406 0-.774-.077-1.105-.23a1.895 1.895 0 01-.787-.67c-.195-.295-.292-.65-.292-1.067 0-.367.072-.664.217-.892a1.53 1.53 0 01.58-.542c.24-.13.508-.228.8-.291.294-.067.59-.12.887-.159.389-.05.704-.087.946-.112.244-.028.422-.074.533-.138.114-.064.171-.175.171-.333v-.034c0-.41-.112-.73-.337-.958-.223-.228-.56-.342-1.013-.342-.47 0-.838.103-1.104.309-.267.205-.455.425-.563.658l-.933-.333c.166-.39.389-.692.666-.909.28-.22.587-.372.917-.458.334-.089.661-.133.984-.133.205 0 .441.025.708.075.27.047.53.145.78.295.252.15.462.377.629.68.166.302.25.708.25 1.216v4.218h-.984v-.867h-.05a1.731 1.731 0 01-.333.446 1.922 1.922 0 01-.621.404c-.259.111-.574.167-.946.167zm.15-.884c.389 0 .717-.076.983-.229a1.56 1.56 0 00.817-1.354v-.9c-.042.05-.133.095-.275.137-.139.039-.3.074-.483.104a21.995 21.995 0 01-.942.125 3.758 3.758 0 00-.717.163c-.22.072-.397.182-.533.33-.134.144-.2.34-.2.59 0 .343.126.6.379.776.255.172.58.258.97.258zm6.996.867a2.506 2.506 0 01-1.413-.404c-.409-.272-.728-.656-.959-1.15-.23-.498-.345-1.085-.345-1.763 0-.672.115-1.256.346-1.75.23-.495.55-.877.962-1.146a2.54 2.54 0 011.425-.404c.417 0 .746.069.988.208.244.136.43.292.558.467.13.172.232.314.305.425h.083v-3.15h.983v8.534h-.95v-.984h-.117a6.31 6.31 0 01-.308.442 1.832 1.832 0 01-.57.47c-.248.137-.577.205-.988.205zm.133-.883c.395 0 .728-.103 1-.309.272-.208.48-.496.621-.862.142-.37.213-.796.213-1.28 0-.478-.07-.896-.209-1.254a1.825 1.825 0 00-.617-.842c-.272-.203-.608-.304-1.008-.304-.417 0-.764.107-1.042.32a1.92 1.92 0 00-.62.863 3.428 3.428 0 00-.205 1.217c0 .456.07.87.208 1.242.142.37.35.664.625.884.278.216.623.325 1.034.325zm12.84-5.651a1.308 1.308 0 00-.61-.984c-.355-.233-.791-.35-1.308-.35-.377 0-.708.061-.992.184-.28.122-.5.29-.658.504a1.208 1.208 0 00-.233.73c0 .227.054.423.162.587.111.16.253.296.425.404.172.106.353.193.542.263.189.066.363.12.52.162l.868.233c.222.059.47.14.742.242.275.103.537.243.787.421.253.175.461.4.625.675.164.275.246.613.246 1.013 0 .46-.12.878-.363 1.25-.238.372-.589.668-1.05.888-.458.219-1.015.329-1.67.329-.612 0-1.141-.099-1.588-.296a2.53 2.53 0 01-1.05-.825 2.355 2.355 0 01-.43-1.23h1.067c.028.323.136.59.325.8.192.209.433.364.725.467.295.1.611.15.95.15.395 0 .749-.064 1.063-.191.314-.131.563-.312.746-.542.183-.234.275-.506.275-.817 0-.283-.08-.514-.238-.692a1.743 1.743 0 00-.625-.433 6.573 6.573 0 00-.837-.292l-1.05-.3c-.667-.192-1.195-.465-1.584-.82-.389-.356-.583-.822-.583-1.397 0-.478.129-.894.387-1.25a2.574 2.574 0 011.05-.833c.442-.2.935-.3 1.48-.3.55 0 1.039.098 1.466.295.428.195.767.462 1.017.8.253.34.387.724.4 1.155h-1zm3.665 2.55v3.85h-.983V1.019h.983v3.134h.084c.15-.33.375-.593.675-.788.303-.197.706-.295 1.208-.295.437 0 .819.087 1.146.262.328.172.582.438.763.796.183.356.275.808.275 1.359v4.067h-.983v-4c0-.51-.133-.902-.396-1.18-.262-.28-.624-.421-1.088-.421-.322 0-.611.068-.867.204a1.492 1.492 0 00-.6.596c-.144.261-.217.578-.217.95zm7.834 4a2.6 2.6 0 01-1.105-.228 1.895 1.895 0 01-.787-.671c-.195-.295-.292-.65-.292-1.067 0-.367.072-.664.217-.892.144-.23.337-.411.579-.542.242-.13.508-.228.8-.291.295-.067.59-.12.888-.159.389-.05.704-.087.946-.112.244-.028.422-.074.533-.138.114-.064.171-.175.171-.333v-.034c0-.41-.112-.73-.338-.958-.222-.228-.56-.342-1.012-.342-.47 0-.838.103-1.105.309-.266.205-.454.425-.562.658l-.934-.333c.167-.39.39-.692.667-.909.28-.22.586-.372.917-.458.333-.089.661-.133.984-.133.205 0 .441.025.708.075.27.047.53.145.78.295.252.15.462.377.628.68.167.302.25.708.25 1.216v4.218h-.983v-.867h-.05a1.731 1.731 0 01-.333.446 1.923 1.923 0 01-.621.404c-.259.111-.574.167-.946.167zm.15-.883c.389 0 .716-.076.983-.229a1.56 1.56 0 00.817-1.354v-.9c-.042.05-.133.095-.275.137a4.64 4.64 0 01-.483.104 21.995 21.995 0 01-.942.125 3.757 3.757 0 00-.717.163c-.22.072-.397.182-.533.33-.134.144-.2.34-.2.59 0 .343.126.6.379.776.255.172.579.258.97.258zm5.562-3.117v3.85h-.984V1.019h.984v3.134h.083c.15-.33.375-.593.675-.788.303-.197.706-.295 1.209-.295.436 0 .818.087 1.146.262.328.172.582.438.763.796.183.356.275.808.275 1.359v4.067h-.984v-4c0-.51-.132-.902-.396-1.18-.261-.28-.624-.421-1.088-.421-.322 0-.61.068-.866.204a1.492 1.492 0 00-.6.596c-.145.261-.217.578-.217.95zm5.95 3.85v-6.4h.983v6.4h-.983zm.5-7.467a.7.7 0 01-.496-.196.63.63 0 01-.204-.47.63.63 0 01.204-.472.7.7 0 01.496-.195c.191 0 .355.065.491.195.14.131.209.288.209.471 0 .184-.07.34-.209.471a.685.685 0 01-.491.196zm4.701 7.601a2.504 2.504 0 01-1.412-.404c-.409-.272-.728-.656-.959-1.15-.23-.498-.346-1.085-.346-1.763 0-.672.116-1.256.346-1.75.23-.495.552-.877.963-1.146a2.54 2.54 0 011.425-.404c.417 0 .746.069.988.208.244.136.43.292.558.467.131.172.232.314.304.425h.084v-3.15h.983v8.534h-.95v-.984h-.117a6.323 6.323 0 01-.308.442 1.83 1.83 0 01-.571.47c-.247.137-.576.205-.988.205zm.134-.883c.394 0 .728-.103 1-.309.272-.208.479-.496.621-.862.142-.37.212-.796.212-1.28 0-.478-.069-.896-.208-1.254a1.822 1.822 0 00-.617-.842c-.272-.203-.608-.304-1.008-.304-.417 0-.764.107-1.042.32a1.921 1.921 0 00-.62.863 3.43 3.43 0 00-.205 1.217c0 .456.07.87.208 1.242.142.37.35.664.625.884.278.216.623.325 1.034.325zm9.556.75v.916h-5.334v-.916h5.334zm2.056-8.535v8.535h-1.034V1.018h1.034zm2.922 4.684v3.85h-.983v-6.4h.95v1h.083c.15-.325.378-.586.684-.783.305-.2.7-.3 1.183-.3.433 0 .813.088 1.138.266.325.175.578.442.758.8.181.356.271.806.271 1.35v4.068h-.983v-4c0-.504-.131-.895-.392-1.176-.261-.283-.62-.425-1.075-.425-.314 0-.595.068-.842.204a1.453 1.453 0 00-.579.596c-.142.261-.213.578-.213.95zm10.886-2.55l-2.367 6.4h-1l-2.367-6.4h1.067l1.767 5.1h.066l1.767-5.1h1.067zm4.965 2.284v.916h-3.734v-.917h3.734zm4.714-4.418v8.535h-1.033V2.102h-.05l-2.084 1.383v-1.05l2.134-1.417h1.033zm2.455 8.535v-.75l2.817-3.084c.331-.361.603-.675.817-.942a3.49 3.49 0 00.475-.758c.105-.24.158-.49.158-.75a1.38 1.38 0 00-.8-1.288 1.89 1.89 0 00-.833-.18 1.74 1.74 0 00-.859.205 1.4 1.4 0 00-.562.562 1.757 1.757 0 00-.196.85h-.984c0-.5.116-.938.346-1.316.231-.378.545-.673.942-.884a2.84 2.84 0 011.346-.316c.5 0 .943.105 1.329.316.386.211.689.496.909.855.219.358.329.757.329 1.196 0 .313-.057.62-.171.92-.111.298-.305.63-.583.996a17.78 17.78 0 01-1.146 1.334l-1.917 2.05v.067h3.967v.917h-5.384zm10.105-8.535v8.535h-1.033V2.102h-.05l-2.084 1.383v-1.05l2.134-1.417h1.033zm5.455 0v8.535h-1.033V2.102h-.05l-2.084 1.383v-1.05l2.134-1.417h1.033zm5.239 8.651c-.628 0-1.163-.17-1.605-.512-.441-.345-.779-.843-1.012-1.496-.234-.656-.35-1.448-.35-2.376 0-.922.116-1.71.35-2.362.236-.656.575-1.156 1.016-1.5.445-.348.978-.521 1.601-.521.622 0 1.154.173 1.596.52.444.345.783.845 1.016 1.5.237.654.355 1.441.355 2.363 0 .928-.117 1.72-.35 2.376-.234.653-.571 1.151-1.013 1.496-.442.342-.977.512-1.604.512zm0-.916c.622 0 1.105-.3 1.45-.9.344-.6.517-1.456.517-2.568 0-.739-.08-1.368-.238-1.887-.156-.52-.381-.916-.675-1.188a1.49 1.49 0 00-1.054-.408c-.617 0-1.099.304-1.446.912-.348.606-.521 1.463-.521 2.571 0 .74.077 1.367.233 1.884.156.517.379.91.671 1.18.294.269.649.404 1.063.404zm7.334.916c-.628 0-1.163-.17-1.604-.512-.442-.345-.78-.843-1.013-1.496-.233-.656-.35-1.448-.35-2.376 0-.922.117-1.71.35-2.362.236-.656.575-1.156 1.017-1.5.444-.348.978-.521 1.6-.521.622 0 1.154.173 1.596.52.445.345.783.845 1.017 1.5.236.654.354 1.441.354 2.363 0 .928-.117 1.72-.35 2.376-.233.653-.571 1.151-1.013 1.496-.441.342-.976.512-1.604.512zm0-.916c.622 0 1.106-.3 1.45-.9.345-.6.517-1.456.517-2.568 0-.739-.079-1.368-.238-1.887-.155-.52-.38-.916-.675-1.188a1.489 1.489 0 00-1.054-.408c-.617 0-1.099.304-1.446.912-.347.606-.521 1.463-.521 2.571 0 .74.078 1.367.233 1.884.156.517.38.91.671 1.18.295.269.649.404 1.063.404zm7.551-7.735v8.535h-1.033V2.102h-.05l-2.084 1.383v-1.05l2.134-1.417h1.033zm2.684 8.601a.724.724 0 01-.53-.22.722.722 0 01-.22-.53c0-.205.073-.382.22-.529a.724.724 0 01.53-.22c.205 0 .382.073.529.22a.723.723 0 01.221.53.78.78 0 01-.375.65.714.714 0 01-.375.1zm2.515 2.334V3.152h.95v1.017h.116c.073-.111.173-.253.3-.425.131-.175.317-.331.559-.467.244-.139.575-.208.992-.208a2.54 2.54 0 011.425.404c.411.27.732.651.963 1.146.23.494.345 1.078.345 1.75 0 .678-.115 1.265-.345 1.763-.231.494-.551.878-.959 1.15-.408.27-.879.404-1.413.404-.411 0-.74-.068-.987-.204a1.818 1.818 0 01-.571-.471 6.392 6.392 0 01-.309-.442h-.083v3.384h-.983zm.966-5.6c0 .483.071.91.213 1.279.142.366.349.654.621.862.272.206.606.309 1 .309.411 0 .754-.109 1.029-.325.278-.22.486-.514.625-.884a3.46 3.46 0 00.213-1.242c0-.45-.07-.855-.208-1.217a1.893 1.893 0 00-.621-.862c-.275-.214-.621-.321-1.038-.321-.4 0-.736.101-1.008.304-.273.2-.478.48-.617.842-.139.358-.209.776-.209 1.254zm8.602 3.333a2.505 2.505 0 01-1.413-.404c-.408-.272-.728-.656-.959-1.15-.23-.498-.345-1.085-.345-1.763 0-.672.115-1.256.345-1.75.231-.495.552-.877.963-1.146a2.54 2.54 0 011.425-.404c.417 0 .746.069.988.208.244.136.431.292.558.467.131.172.232.314.305.425h.083v-3.15h.983v8.534h-.95v-.984h-.116a6.392 6.392 0 01-.309.442 1.83 1.83 0 01-.571.47c-.247.137-.576.205-.987.205zm.133-.883c.394 0 .728-.103 1-.309.272-.208.479-.496.621-.862.142-.37.213-.796.213-1.28 0-.478-.07-.896-.209-1.254a1.822 1.822 0 00-.617-.842c-.272-.203-.608-.304-1.008-.304-.417 0-.764.107-1.042.32a1.922 1.922 0 00-.621.863 3.432 3.432 0 00-.204 1.217c0 .456.069.87.208 1.242.142.37.35.664.625.884.278.216.623.325 1.034.325zm7.588-5.651v.833h-3.45v-.833h3.45zm-2.417 6.4V2.269c0-.366.087-.672.259-.916a1.6 1.6 0 01.671-.55 2.12 2.12 0 01.871-.184 2.294 2.294 0 01.933.167l-.283.85a4.876 4.876 0 00-.209-.063 1.26 1.26 0 00-.341-.037c-.325 0-.56.082-.705.246-.141.164-.212.404-.212.72v7.052h-.984z" fill="#000"/></svg>