<svg width="542" height="34" viewBox="0 0 542 34" fill="none" xmlns="http://www.w3.org/2000/svg"><rect x="1" y="1" width="668.892" height="32" rx="2.608" fill="#F6F8FA"/><rect x="1" y="1" width="668.892" height="32" rx="2.608" stroke="#DFE3E5" stroke-width=".652"/><path d="M315.476 14.707a1.214 1.214 0 00-.55-.916c-.322-.22-.728-.33-1.216-.33-.351 0-.653.056-.909.167a1.398 1.398 0 00-.596.45 1.061 1.061 0 00-.208.646c0 .203.047.378.141.525.098.147.224.271.38.371.158.097.328.18.508.246.181.064.354.117.521.158l.833.217c.273.067.552.157.838.27.286.115.552.265.796.45.244.187.442.418.592.693.153.275.229.604.229.987 0 .484-.125.913-.375 1.288-.247.375-.607.67-1.079.888-.47.216-1.038.325-1.705.325-.639 0-1.192-.102-1.658-.305a2.553 2.553 0 01-1.096-.862c-.264-.375-.41-.82-.438-1.334h1.292c.025.309.125.566.3.771.178.203.404.355.679.454.278.098.582.146.913.146.364 0 .687-.057.971-.17.286-.117.511-.278.675-.484.164-.208.246-.451.246-.73a.893.893 0 00-.217-.62 1.606 1.606 0 00-.579-.4 5.688 5.688 0 00-.821-.28l-1.009-.274c-.683-.186-1.225-.46-1.625-.821-.397-.362-.596-.84-.596-1.434 0-.492.134-.92.4-1.287a2.629 2.629 0 011.084-.855 3.705 3.705 0 011.542-.308c.578 0 1.087.101 1.529.304a2.57 2.57 0 011.05.838c.256.353.389.758.4 1.216h-1.242zm4.66 6.435c-.405 0-.772-.075-1.1-.225a1.854 1.854 0 01-.779-.663c-.189-.289-.283-.643-.283-1.063 0-.36.069-.658.208-.891.139-.234.326-.419.563-.555.236-.136.5-.239.791-.308.292-.07.589-.122.892-.158.384-.045.695-.08.934-.109.239-.03.412-.079.521-.146.108-.066.162-.175.162-.325v-.029c0-.364-.103-.646-.308-.846-.203-.2-.506-.3-.909-.3-.419 0-.75.093-.992.28a1.485 1.485 0 00-.495.612l-1.171-.267a2.24 2.24 0 01.608-.942c.269-.241.579-.416.929-.525.35-.11.718-.166 1.105-.166.255 0 .526.03.812.091.289.059.559.167.809.325.252.159.459.385.621.68.161.291.241.67.241 1.137V21h-1.217v-.875h-.05a1.76 1.76 0 01-.362.475 1.923 1.923 0 01-.621.387 2.412 2.412 0 01-.909.155zm.271-1c.345 0 .639-.069.884-.205.247-.136.435-.314.562-.533a1.38 1.38 0 00.196-.713v-.825a.642.642 0 01-.258.125 4.029 4.029 0 01-.429.096 52.83 52.83 0 01-.471.07l-.384.051c-.241.03-.462.082-.662.154a1.13 1.13 0 00-.475.313c-.117.133-.175.31-.175.533 0 .309.114.542.341.7.228.156.518.233.871.233zm9.794-5.543L327.88 21h-1.333l-2.326-6.4h1.338l1.621 4.925h.067l1.617-4.926h1.337zM331.372 21v-6.4h1.246V21h-1.246zm.63-7.389a.794.794 0 01-.559-.216.704.704 0 01-.229-.525c0-.206.076-.38.229-.525a.786.786 0 01.559-.221.77.77 0 01.554.22c.155.145.233.32.233.526a.7.7 0 01-.233.525.778.778 0 01-.554.216zm3.539 3.588V21h-1.246v-6.4h1.196v1.04h.079c.147-.338.378-.61.692-.816.316-.205.715-.308 1.196-.308.436 0 .818.091 1.146.275.327.18.582.45.762.808.181.359.271.802.271 1.33V21h-1.246v-3.921c0-.464-.121-.827-.363-1.088-.241-.264-.573-.396-.995-.396a1.56 1.56 0 00-.771.188 1.348 1.348 0 00-.53.55c-.127.239-.191.527-.191.867zm8.451 6.335c-.509 0-.946-.067-1.313-.2a2.547 2.547 0 01-.892-.53c-.23-.22-.403-.46-.516-.72l1.071-.442c.075.122.175.251.3.387.127.14.3.257.516.355.22.097.502.145.846.145.473 0 .863-.115 1.171-.346.309-.227.463-.591.463-1.091v-1.259h-.079a2.885 2.885 0 01-.325.454 1.763 1.763 0 01-.575.434c-.245.122-.563.183-.955.183-.505 0-.961-.118-1.367-.354-.402-.239-.722-.59-.958-1.054-.233-.467-.35-1.04-.35-1.721s.115-1.264.346-1.75c.233-.487.553-.86.958-1.117a2.496 2.496 0 011.38-.392c.397 0 .718.066.962.2.245.13.435.283.571.458.139.175.246.33.321.463h.092v-1.038h1.221v6.543c0 .55-.128 1.001-.384 1.354a2.251 2.251 0 01-1.037.784c-.434.169-.923.254-1.467.254zm-.013-3.663c.359 0 .661-.084.909-.25.25-.17.439-.412.566-.726.131-.316.196-.695.196-1.137 0-.43-.064-.81-.191-1.138a1.694 1.694 0 00-.563-.767c-.247-.186-.553-.279-.917-.279-.375 0-.687.098-.937.292-.25.192-.439.453-.567.783-.125.331-.188.7-.188 1.109 0 .42.064.788.192 1.104.128.317.317.564.567.742.253.178.564.267.933.267zm5.393 1.208a.81.81 0 01-.588-.242.807.807 0 01-.246-.591c0-.228.082-.422.246-.584a.803.803 0 01.588-.246.8.8 0 01.587.246.788.788 0 01.246.584.793.793 0 01-.117.42.862.862 0 01-.3.3.794.794 0 01-.416.113zm3.323 0a.81.81 0 01-.588-.242.81.81 0 01-.245-.591c0-.228.082-.422.245-.584a.803.803 0 01.588-.246c.228 0 .424.082.588.246a.788.788 0 01.246.584.793.793 0 01-.117.42.862.862 0 01-.3.3.795.795 0 01-.417.113zm3.323 0a.81.81 0 01-.587-.242.807.807 0 01-.246-.591c0-.228.082-.422.246-.584a.802.802 0 01.587-.246c.228 0 .424.082.588.246a.788.788 0 01.246.584.793.793 0 01-.117.42.862.862 0 01-.3.3.795.795 0 01-.417.113zm3.324 0a.81.81 0 01-.588-.242.807.807 0 01-.246-.591c0-.228.082-.422.246-.584a.803.803 0 01.588-.246.8.8 0 01.587.246.788.788 0 01.246.584.8.8 0 01-.116.42.862.862 0 01-.3.3.795.795 0 01-.417.113z" fill="#73777A"/></svg>