<svg width="88" height="91" viewBox="0 0 88 91" fill="none" xmlns="http://www.w3.org/2000/svg"><g filter="url(#filter0_d_5262_56804)"><path fill-rule="evenodd" clip-rule="evenodd" d="M30.684 44.877c-.874-1.105-1.936-3.365-3.826-6.107-1.071-1.552-3.728-4.473-4.519-5.957-.686-1.311-.612-1.899-.45-2.986.29-1.933 2.273-3.438 4.387-3.235 1.598.151 2.952 1.207 4.171 2.204.736.6 1.64 1.767 2.186 2.426.502.603.625.852 1.16 1.567.708.945.93 1.413.659.372-.219-1.527-.576-4.134-1.093-6.44-.394-1.748-.49-2.022-.865-3.364-.397-1.428-.6-2.429-.973-3.943-.258-1.071-.723-3.26-.85-4.491-.174-1.684-.267-4.43.814-5.692.846-.988 2.788-1.287 3.992-.677 1.576.797 2.472 3.087 2.881 4.002.736 1.643 1.192 3.543 1.589 6.036.504 3.174 1.434 7.579 1.465 8.505.074-1.136-.21-3.528-.012-4.617.178-.988 1.01-2.137 2.05-2.448.88-.261 1.911-.357 2.82-.169.963.197 1.978.887 2.357 1.536 1.114 1.921 1.136 5.846 1.182 5.636.265-1.157.219-3.783.874-4.875.431-.72 1.53-1.37 2.115-1.475.905-.16 2.016-.21 2.968-.024.766.15 1.803 1.061 2.083 1.499.672 1.058 1.053 4.054 1.167 5.103.046.434.228-1.206.902-2.265 1.25-1.967 5.673-2.349 5.842 1.967.077 2.013.062 1.92.062 3.275 0 1.591-.037 2.549-.123 3.7-.096 1.231-.36 4.014-.745 5.362-.265.927-1.142 3.01-2.007 4.26 0 0-3.306 3.848-3.666 5.581-.364 1.73-.243 1.742-.314 2.97-.071 1.226.372 2.839.372 2.839s-2.468.32-3.798.107c-1.204-.194-2.694-2.588-3.078-3.32-.53-1.01-1.66-.817-2.1-.072-.692 1.18-2.182 3.294-3.235 3.426-2.056.259-6.323.096-9.663.062 0 0 .57-3.112-.698-4.18-.94-.798-2.555-2.414-3.522-3.263l-2.56-2.835z" fill="#fff"/><path clip-rule="evenodd" d="M30.684 44.877c-.874-1.105-1.936-3.365-3.826-6.107-1.071-1.552-3.728-4.473-4.519-5.957-.686-1.311-.612-1.899-.45-2.986.29-1.933 2.273-3.438 4.387-3.235 1.598.151 2.952 1.207 4.171 2.204.736.6 1.64 1.767 2.186 2.426.502.603.625.852 1.16 1.567.708.945.93 1.413.659.372-.219-1.527-.576-4.134-1.093-6.44-.394-1.748-.49-2.022-.865-3.364-.397-1.428-.6-2.429-.973-3.943-.258-1.071-.723-3.26-.85-4.491-.174-1.684-.267-4.43.814-5.692.846-.988 2.788-1.287 3.992-.677 1.576.797 2.472 3.087 2.881 4.002.736 1.643 1.192 3.543 1.589 6.036.504 3.174 1.434 7.579 1.465 8.505.074-1.136-.21-3.528-.012-4.617.178-.988 1.01-2.137 2.05-2.448.88-.261 1.911-.357 2.82-.169.963.197 1.978.887 2.357 1.536 1.114 1.921 1.136 5.846 1.182 5.636.265-1.157.219-3.783.874-4.875.431-.72 1.53-1.37 2.115-1.475.905-.16 2.016-.21 2.968-.024.766.15 1.803 1.061 2.083 1.499.672 1.058 1.053 4.054 1.167 5.103.046.434.228-1.206.902-2.265 1.25-1.967 5.673-2.349 5.842 1.967.077 2.013.062 1.92.062 3.275 0 1.591-.037 2.549-.123 3.7-.096 1.231-.36 4.014-.745 5.362-.265.927-1.142 3.01-2.007 4.26 0 0-3.306 3.848-3.666 5.581-.364 1.73-.243 1.742-.314 2.97-.071 1.226.372 2.839.372 2.839s-2.468.32-3.798.107c-1.204-.194-2.694-2.588-3.078-3.32-.53-1.01-1.66-.817-2.1-.072-.692 1.18-2.182 3.294-3.235 3.426-2.056.259-6.323.096-9.663.062 0 0 .57-3.112-.698-4.18-.94-.798-2.555-2.414-3.522-3.263l-2.56-2.835z" stroke="#000" stroke-width="1.847" stroke-linecap="round" stroke-linejoin="round"/><path d="M56.035 45.968V35.32M49.828 46.005l-.049-10.691M43.684 35.41l.064 10.547" stroke="#000" stroke-width="1.847" stroke-linecap="round"/></g><defs><filter id="filter0_d_5262_56804" x="-.353" y="-.159" width="90.817" height="93.895" filterUnits="userSpaceOnUse" color-interpolation-filters="sRGB"><feFlood flood-opacity="0" result="BackgroundImageFix"/><feColorMatrix in="SourceAlpha" values="0 0 0 0 0 0 0 0 0 0 0 0 0 0 0 0 0 0 127 0" result="hardAlpha"/><feOffset dy="13.855"/><feGaussianBlur stdDeviation="10.391"/><feComposite in2="hardAlpha" operator="out"/><feColorMatrix values="0 0 0 0 0 0 0 0 0 0 0 0 0 0 0 0 0 0 0.15 0"/><feBlend in2="BackgroundImageFix" result="effect1_dropShadow_5262_56804"/><feBlend in="SourceGraphic" in2="effect1_dropShadow_5262_56804" result="shape"/></filter></defs></svg>