<svg width="303" height="314" viewBox="0 0 303 314" fill="none" xmlns="http://www.w3.org/2000/svg"><rect x=".65" y="238.762" width="39.816" height="20.604" rx="10.302" fill="#F6F8FA"/><rect x=".65" y="238.762" width="39.816" height="20.604" rx="10.302" stroke="#DFE3E5" stroke-width=".64"/><path d="M12.192 245.182h1.26v5.943c0 .537-.106.997-.319 1.379a2.13 2.13 0 01-.888.876c-.382.199-.829.299-1.342.299a3.03 3.03 0 01-1.273-.258 2.097 2.097 0 01-.888-.749c-.215-.33-.323-.731-.323-1.203h1.256c0 .231.053.432.16.601.109.169.258.302.446.397.191.093.41.139.655.139.267 0 .494-.056.68-.167a1.09 1.09 0 00.429-.504 1.99 1.99 0 00.147-.81v-5.943zm3.101 8.382v-8.382h5.255v1.089h-3.99v2.554h3.716v1.084h-3.716v2.566h4.04v1.089h-5.305z" fill="#000"/><path d="M27.6 252.048l-.465-.465 2.526-2.527-2.526-2.511.465-.465 2.527 2.527 2.51-2.527.466.465-2.527 2.511 2.527 2.527-.466.465-2.51-2.527-2.527 2.527z" fill="#1C1B1F"/><path d="M26.068 303.453v8.381H24.8v-7.112h-.049l-2.005 1.309v-1.211l2.091-1.367h1.232zm5.185 8.521c-.646-.003-1.199-.174-1.657-.512-.458-.338-.809-.831-1.052-1.477-.243-.647-.364-1.426-.364-2.337 0-.909.121-1.685.364-2.329.246-.644.598-1.135 1.056-1.473.461-.339 1.012-.508 1.653-.508.642 0 1.191.171 1.65.512.458.338.809.829 1.052 1.473.245.641.368 1.416.368 2.325 0 .914-.121 1.694-.364 2.341-.243.644-.594 1.136-1.052 1.477-.458.338-1.01.508-1.653.508zm0-1.093c.568 0 1.011-.277 1.33-.831.323-.554.483-1.355.483-2.402 0-.696-.073-1.284-.22-1.764-.145-.483-.354-.849-.627-1.097a1.37 1.37 0 00-.966-.376c-.564 0-1.008.278-1.33.834-.321.557-.484 1.358-.487 2.403 0 .698.073 1.289.217 1.772.148.48.356.844.627 1.093a1.4 1.4 0 00.973.368zm7.73-7.821l-2.7 10.035H35.19l2.7-10.035h1.093zm3.942 8.914c-.647-.003-1.2-.174-1.658-.512-.458-.338-.809-.831-1.052-1.477-.243-.647-.364-1.426-.364-2.337 0-.909.121-1.685.364-2.329.246-.644.598-1.135 1.056-1.473.461-.339 1.012-.508 1.654-.508.64 0 1.19.171 1.649.512.458.338.809.829 1.052 1.473.245.641.368 1.416.368 2.325 0 .914-.121 1.694-.364 2.341-.243.644-.594 1.136-1.052 1.477-.458.338-1.01.508-1.653.508zm0-1.093c.567 0 1.01-.277 1.33-.831.322-.554.483-1.355.483-2.402 0-.696-.074-1.284-.221-1.764-.145-.483-.354-.849-.627-1.097a1.37 1.37 0 00-.965-.376c-.565 0-1.009.278-1.33.834-.322.557-.485 1.358-.487 2.403 0 .698.072 1.289.216 1.772.148.48.356.844.627 1.093a1.4 1.4 0 00.974.368zm7.7-7.428v8.381h-1.268v-7.112h-.049l-2.005 1.309v-1.211l2.09-1.367h1.233zm5.477-.393L53.4 313.095h-1.093l2.701-10.035h1.093zm1.023 8.774v-.916l2.836-2.939c.303-.319.553-.599.749-.839.2-.243.348-.473.446-.691a1.68 1.68 0 00.147-.696c0-.278-.065-.519-.196-.72a1.281 1.281 0 00-.536-.471 1.703 1.703 0 00-.765-.168c-.3 0-.563.062-.786.184a1.263 1.263 0 00-.516.52 1.64 1.64 0 00-.18.786h-1.207c0-.51.117-.956.352-1.338.234-.382.556-.678.965-.889a2.99 2.99 0 011.396-.319c.527 0 .99.105 1.392.315.403.208.718.491.945.852.226.357.34.761.34 1.211 0 .311-.06.615-.176.913-.115.297-.316.629-.602.994a16.87 16.87 0 01-1.195 1.322l-1.666 1.744v.061h3.774v1.084h-5.517zm9.986.14c-.647-.003-1.2-.174-1.658-.512-.458-.338-.809-.831-1.052-1.477-.242-.647-.364-1.426-.364-2.337 0-.909.122-1.685.364-2.329.246-.644.598-1.135 1.056-1.473.461-.339 1.013-.508 1.654-.508.64 0 1.19.171 1.65.512.457.338.808.829 1.05 1.473.246.641.37 1.416.37 2.325 0 .914-.122 1.694-.365 2.341-.243.644-.594 1.136-1.052 1.477-.458.338-1.01.508-1.653.508zm0-1.093c.567 0 1.01-.277 1.33-.831.322-.554.483-1.355.483-2.402 0-.696-.074-1.284-.221-1.764-.145-.483-.354-.849-.626-1.097a1.37 1.37 0 00-.966-.376c-.565 0-1.008.278-1.33.834-.322.557-.485 1.358-.487 2.403 0 .698.072 1.289.216 1.772.148.48.357.844.627 1.093a1.4 1.4 0 00.974.368zm4.521.953v-.916l2.836-2.939c.303-.319.553-.599.75-.839.198-.243.347-.473.445-.691a1.68 1.68 0 00.148-.696c0-.278-.066-.519-.197-.72a1.28 1.28 0 00-.536-.471 1.703 1.703 0 00-.765-.168c-.3 0-.562.062-.786.184a1.263 1.263 0 00-.516.52 1.64 1.64 0 00-.18.786h-1.207c0-.51.117-.956.352-1.338a2.4 2.4 0 01.966-.889 2.99 2.99 0 011.395-.319c.527 0 .99.105 1.392.315.403.208.719.491.945.852.227.357.34.761.34 1.211 0 .311-.059.615-.176.913-.115.297-.315.629-.602.994a16.87 16.87 0 01-1.195 1.322l-1.665 1.744v.061h3.773v1.084h-5.517zm6.712-1.637v-1.023l3.622-5.721h.806v1.506h-.512l-2.59 4.101v.065h4.964v1.072h-6.29zm3.974 1.637v-1.948l.008-.466v-5.967h1.2v8.381h-1.208zM242.646 303.453v8.381h-1.268v-7.112h-.049l-2.006 1.309v-1.211l2.091-1.367h1.232zm2.268 8.381v-.916l2.836-2.939c.303-.319.552-.599.749-.839a3.16 3.16 0 00.446-.691c.098-.219.147-.451.147-.696 0-.278-.065-.519-.196-.72a1.284 1.284 0 00-.536-.471 1.707 1.707 0 00-.766-.168c-.3 0-.562.062-.785.184a1.261 1.261 0 00-.516.52 1.64 1.64 0 00-.18.786h-1.208c0-.51.118-.956.352-1.338.235-.382.557-.678.966-.889.41-.212.875-.319 1.396-.319.526 0 .99.105 1.391.315.404.208.719.491.946.852.226.357.339.761.339 1.211 0 .311-.058.615-.176.913-.114.297-.315.629-.601.994-.287.363-.685.804-1.195 1.322l-1.666 1.744v.061h3.773v1.084h-5.516zm10.276-8.774l-2.701 10.035h-1.093l2.701-10.035h1.093zm3.941 8.889c-.562 0-1.064-.097-1.506-.291a2.544 2.544 0 01-1.043-.806 2.135 2.135 0 01-.41-1.203h1.285c.017.248.1.464.25.647.153.18.352.319.598.417.245.098.518.147.818.147.33 0 .622-.057.876-.171.256-.115.457-.275.602-.479.144-.208.216-.446.216-.716a1.29 1.29 0 00-.216-.741 1.413 1.413 0 00-.627-.508c-.272-.123-.603-.184-.99-.184h-.708v-1.031h.708c.311 0 .584-.056.818-.168.238-.112.423-.267.557-.467.134-.201.201-.437.201-.708 0-.259-.059-.484-.176-.675a1.186 1.186 0 00-.491-.454 1.602 1.602 0 00-.745-.164 1.94 1.94 0 00-.766.152c-.234.098-.425.24-.573.425a1.099 1.099 0 00-.237.659h-1.224c.014-.453.148-.851.401-1.195a2.599 2.599 0 011.015-.806 3.303 3.303 0 011.4-.291c.538 0 1.001.105 1.392.315.392.208.695.485.908.831.216.347.322.726.319 1.138.003.469-.128.868-.393 1.195a1.908 1.908 0 01-1.047.659v.065c.556.085.987.306 1.293.663.308.358.461.801.458 1.33.003.462-.125.875-.384 1.24a2.619 2.619 0 01-1.052.864c-.445.207-.954.311-1.527.311zm7.69-8.496v8.381h-1.268v-7.112h-.05l-2.005 1.309v-1.211l2.091-1.367h1.232zm5.476-.393l-2.701 10.035h-1.093l2.701-10.035h1.093zm1.023 8.774v-.916l2.836-2.939c.303-.319.553-.599.749-.839.2-.243.348-.473.446-.691a1.67 1.67 0 00.148-.696c0-.278-.066-.519-.197-.72a1.278 1.278 0 00-.536-.471 1.7 1.7 0 00-.765-.168c-.3 0-.562.062-.786.184a1.259 1.259 0 00-.515.52 1.629 1.629 0 00-.181.786h-1.207c0-.51.117-.956.352-1.338.235-.382.557-.678.966-.889a2.987 2.987 0 011.395-.319c.527 0 .991.105 1.392.315.404.208.719.491.945.852.227.357.34.761.34 1.211 0 .311-.059.615-.176.913-.115.297-.315.629-.602.994-.286.363-.684.804-1.195 1.322l-1.665 1.744v.061h3.773v1.084h-5.517zm9.986.14c-.646-.003-1.199-.174-1.657-.512-.459-.338-.809-.831-1.052-1.477-.243-.647-.364-1.426-.364-2.337 0-.909.121-1.685.364-2.329.245-.644.597-1.135 1.056-1.473.461-.339 1.012-.508 1.653-.508s1.191.171 1.65.512c.458.338.809.829 1.051 1.473.246.641.369 1.416.369 2.325 0 .914-.122 1.694-.365 2.341-.242.644-.593 1.136-1.051 1.477-.459.338-1.01.508-1.654.508zm0-1.093c.568 0 1.011-.277 1.33-.831.322-.554.483-1.355.483-2.402 0-.696-.073-1.284-.221-1.764-.144-.483-.353-.849-.626-1.097a1.37 1.37 0 00-.966-.376c-.565 0-1.008.278-1.33.834-.322.557-.484 1.358-.487 2.403 0 .698.072 1.289.217 1.772.147.48.356.844.626 1.093a1.4 1.4 0 00.974.368zm4.522.953v-.916l2.836-2.939c.303-.319.552-.599.749-.839.199-.243.347-.473.446-.691.098-.219.147-.451.147-.696 0-.278-.065-.519-.196-.72a1.28 1.28 0 00-.537-.471 1.7 1.7 0 00-.765-.168c-.3 0-.562.062-.786.184a1.265 1.265 0 00-.515.52 1.64 1.64 0 00-.18.786h-1.208c0-.51.118-.956.352-1.338.235-.382.557-.678.966-.889a2.991 2.991 0 011.396-.319c.526 0 .99.105 1.391.315.404.208.719.491.946.852.226.357.339.761.339 1.211 0 .311-.058.615-.176.913-.114.297-.315.629-.601.994-.287.363-.685.804-1.195 1.322l-1.666 1.744v.061h3.773v1.084h-5.516zm6.711-1.637v-1.023l3.622-5.721h.807v1.506h-.512l-2.591 4.101v.065h4.965v1.072h-6.291zm3.974 1.637v-1.948l.008-.466v-5.967h1.2v8.381h-1.208z" fill="#000"/></svg>