<svg width="162" height="14" viewBox="0 0 162 14" fill="none" xmlns="http://www.w3.org/2000/svg"><path d="M.902 10.485V3.251h1.112v7.234H.902zm.565-8.44a.79.79 0 01-.56-.22.711.711 0 01-.231-.533c0-.207.077-.385.23-.532a.79.79 0 01.561-.222c.217 0 .402.074.556.222a.705.705 0 01.235.532.705.705 0 01-.235.532.774.774 0 01-.556.221zm7.707 2.826l-.999.283a1.855 1.855 0 00-.278-.485 1.349 1.349 0 00-.49-.396c-.207-.103-.472-.155-.796-.155-.442 0-.811.102-1.106.306-.292.2-.438.457-.438.768 0 .276.1.494.301.654.201.16.515.294.942.4l1.074.264c.647.157 1.129.397 1.446.72.317.321.475.734.475 1.24 0 .414-.119.785-.357 1.111-.236.327-.566.584-.99.773-.423.188-.916.282-1.478.282-.738 0-1.349-.16-1.832-.48-.484-.32-.79-.788-.919-1.404l1.055-.264c.1.39.29.682.57.876.283.195.651.292 1.107.292.518 0 .93-.11 1.234-.33.307-.222.461-.49.461-.8a.841.841 0 00-.263-.631c-.176-.173-.446-.301-.81-.386l-1.206-.283c-.663-.157-1.15-.4-1.46-.73-.308-.333-.462-.749-.462-1.248 0-.408.115-.77.344-1.083a2.34 2.34 0 01.947-.74 3.324 3.324 0 011.365-.268c.716 0 1.278.157 1.687.47.41.315.703.73.876 1.244zm6.646 1.263v4.351H14.71V3.251h1.074v1.13h.094c.17-.367.427-.662.772-.885.345-.226.791-.339 1.338-.339.49 0 .918.1 1.286.301.367.198.653.5.857.905.204.402.306.91.306 1.526v4.596h-1.112V5.964c0-.568-.147-1.011-.442-1.328-.296-.32-.7-.48-1.216-.48a1.94 1.94 0 00-.95.23 1.652 1.652 0 00-.656.674c-.16.295-.24.653-.24 1.074zm9.68 4.502c-.697 0-1.298-.154-1.804-.461a3.099 3.099 0 01-1.163-1.3c-.27-.56-.405-1.21-.405-1.95 0-.741.135-1.394.405-1.96a3.195 3.195 0 011.14-1.328c.49-.32 1.06-.48 1.714-.48.377 0 .749.063 1.116.188.367.126.702.33 1.003.613.302.28.542.65.72 1.111.18.462.27 1.03.27 1.705v.471h-5.577v-.96h4.446c0-.409-.082-.773-.245-1.093-.16-.32-.39-.573-.688-.759-.295-.185-.643-.278-1.045-.278-.443 0-.826.11-1.15.33-.32.217-.566.5-.739.848a2.49 2.49 0 00-.259 1.12v.641c0 .547.095 1.01.283 1.39.191.376.457.664.796.862.339.194.733.292 1.182.292.292 0 .556-.041.791-.123.239-.085.444-.21.617-.377.173-.17.306-.38.4-.63l1.074.3a2.382 2.382 0 01-.57.961 2.78 2.78 0 01-.989.641c-.392.15-.833.226-1.323.226zm6.325-.15L29.621 3.25h1.168l1.564 5.539h.075l1.545-5.539h1.187l1.526 5.52h.075l1.564-5.52h1.168l-2.205 7.234h-1.092l-1.583-5.557H34.5l-1.582 5.557h-1.093zm13.583 2.712c-.188 0-.356-.016-.504-.047a1.328 1.328 0 01-.306-.085l.283-.98c.27.07.508.095.715.076a.858.858 0 00.552-.278c.163-.163.312-.428.447-.796l.207-.565-2.675-7.272h1.206l1.997 5.765h.075l1.997-5.765h1.206l-3.071 8.29c-.138.373-.31.682-.513.927a1.924 1.924 0 01-.712.551c-.267.12-.568.18-.904.18zm9.347-2.562c-.653 0-1.226-.155-1.72-.466a3.168 3.168 0 01-1.149-1.305c-.273-.559-.41-1.212-.41-1.96 0-.753.137-1.41.41-1.972.277-.562.66-.999 1.15-1.31.493-.31 1.066-.466 1.719-.466s1.224.155 1.714.466c.493.311.876.748 1.15 1.31.276.562.414 1.22.414 1.973 0 .747-.139 1.4-.415 1.96a3.124 3.124 0 01-1.149 1.304c-.49.31-1.061.466-1.714.466zm0-.998c.496 0 .904-.128 1.224-.382a2.25 2.25 0 00.711-1.003c.154-.415.231-.864.231-1.347 0-.484-.077-.934-.23-1.352a2.278 2.278 0 00-.712-1.012c-.32-.258-.728-.387-1.224-.387s-.905.13-1.225.387c-.32.257-.557.595-.711 1.012-.154.418-.23.868-.23 1.352 0 .483.076.932.23 1.347.154.414.39.749.711 1.003.32.254.729.382 1.225.382zm4.974.847V3.251h1.074v1.093h.076c.131-.358.37-.649.715-.871a2.107 2.107 0 011.168-.335c.082 0 .184.002.307.005.122.003.215.008.277.014v1.13a3.308 3.308 0 00-.259-.042 2.55 2.55 0 00-.419-.033c-.351 0-.665.074-.942.221a1.625 1.625 0 00-.885 1.474v4.578h-1.112zM65.7 7.848l-.019-1.375h.226l3.165-3.222h1.376l-3.373 3.41h-.094l-1.28 1.187zm-1.036 2.637V.84h1.111v9.645h-1.111zm4.597 0l-2.826-3.58.791-.771 3.448 4.351H69.26zm9.286.151c-.653 0-1.226-.155-1.719-.466a3.168 3.168 0 01-1.149-1.305c-.273-.559-.41-1.212-.41-1.96 0-.753.137-1.41.41-1.972.276-.562.66-.999 1.15-1.31.492-.31 1.065-.466 1.718-.466s1.225.155 1.715.466c.492.311.876.748 1.149 1.31.276.562.414 1.22.414 1.973 0 .747-.138 1.4-.414 1.96a3.124 3.124 0 01-1.15 1.304c-.49.31-1.06.466-1.714.466zm0-.998c.496 0 .904-.128 1.225-.382.32-.254.557-.589.71-1.003a3.84 3.84 0 00.232-1.347c0-.484-.077-.934-.231-1.352a2.278 2.278 0 00-.711-1.012c-.32-.258-.729-.387-1.225-.387-.496 0-.904.13-1.224.387-.32.257-.558.595-.711 1.012-.154.418-.231.868-.231 1.352 0 .483.077.932.23 1.347.154.414.391.749.712 1.003.32.254.728.382 1.224.382zm4.975.847V3.251h1.074v1.093h.075c.132-.358.37-.649.716-.871a2.107 2.107 0 011.168-.335c.082 0 .184.002.306.005.123.003.215.008.278.014v1.13a3.302 3.302 0 00-.259-.042 2.55 2.55 0 00-.42-.033c-.35 0-.665.074-.941.221a1.625 1.625 0 00-.885 1.474v4.578h-1.112zM93.298.84v9.645h-1.111V.84h1.111zm4.975 9.796c-.653 0-1.226-.155-1.72-.466a3.168 3.168 0 01-1.148-1.305c-.273-.559-.41-1.212-.41-1.96 0-.753.136-1.41.41-1.972.276-.562.659-.999 1.149-1.31.493-.31 1.066-.466 1.719-.466s1.224.155 1.714.466c.493.311.876.748 1.149 1.31.277.562.415 1.22.415 1.973 0 .747-.138 1.4-.415 1.96a3.123 3.123 0 01-1.149 1.304c-.49.31-1.061.466-1.714.466zm0-.998c.496 0 .904-.128 1.224-.382a2.25 2.25 0 00.712-1.003 3.86 3.86 0 00.23-1.347 3.9 3.9 0 00-.23-1.352 2.28 2.28 0 00-.712-1.012c-.32-.258-.728-.387-1.224-.387s-.904.13-1.225.387c-.32.257-.557.595-.71 1.012-.155.418-.232.868-.232 1.352 0 .483.077.932.231 1.347.154.414.391.749.711 1.003.32.254.729.382 1.225.382zm10.099-4.767l-.999.283a1.818 1.818 0 00-.278-.485 1.345 1.345 0 00-.489-.396c-.208-.103-.473-.155-.796-.155-.443 0-.812.102-1.107.306-.292.2-.438.457-.438.768 0 .276.1.494.301.654.201.16.515.294.942.4l1.074.264c.647.157 1.129.397 1.446.72.317.321.476.734.476 1.24 0 .414-.12.785-.358 1.111-.236.327-.565.584-.989.773-.424.188-.917.282-1.479.282-.738 0-1.349-.16-1.832-.48-.484-.32-.79-.788-.919-1.404l1.055-.264c.101.39.291.682.57.876.283.195.652.292 1.107.292.518 0 .929-.11 1.234-.33.308-.222.461-.49.461-.8a.84.84 0 00-.263-.631c-.176-.173-.446-.301-.81-.386l-1.206-.283c-.663-.157-1.149-.4-1.46-.73-.308-.333-.462-.749-.462-1.248 0-.408.115-.77.344-1.083.233-.314.548-.56.947-.74a3.324 3.324 0 011.366-.268c.716 0 1.278.157 1.686.47.411.315.703.73.876 1.244zm7.664 5.784c-.459 0-.875-.086-1.248-.26a2.135 2.135 0 01-.89-.757c-.22-.333-.33-.735-.33-1.206 0-.415.081-.75.245-1.008.163-.26.381-.465.654-.612.274-.148.575-.258.905-.33.332-.075.667-.135 1.003-.179.439-.056.796-.099 1.069-.127.276-.031.477-.083.603-.155.129-.073.193-.198.193-.377v-.038c0-.465-.127-.826-.382-1.083-.251-.258-.632-.386-1.144-.386-.531 0-.947.116-1.248.348-.302.232-.513.48-.636.744l-1.055-.377c.188-.44.44-.781.754-1.026a2.82 2.82 0 011.036-.518 4.3 4.3 0 011.111-.151c.233 0 .5.028.801.085.304.053.598.165.881.334.285.17.522.426.711.768.188.342.282.8.282 1.375v4.766h-1.111v-.98h-.057a1.963 1.963 0 01-.376.505c-.176.179-.41.33-.702.457-.292.125-.649.188-1.069.188zm.169-.999c.44 0 .81-.086 1.112-.259a1.76 1.76 0 00.687-.668c.157-.274.236-.56.236-.862V6.849c-.047.057-.151.109-.311.156a5.251 5.251 0 01-.546.118 25.255 25.255 0 01-1.065.14 4.24 4.24 0 00-.81.185 1.398 1.398 0 00-.603.372c-.15.163-.226.386-.226.668 0 .387.143.679.429.876.289.195.655.292 1.097.292zm6.287-3.522v4.351h-1.112V3.251h1.074v1.13h.094c.17-.367.427-.662.773-.885.345-.226.791-.339 1.337-.339.49 0 .919.1 1.286.301.367.198.653.5.857.905.204.402.306.91.306 1.526v4.596h-1.111V5.964c0-.568-.148-1.011-.443-1.328-.295-.32-.7-.48-1.215-.48-.355 0-.672.076-.951.23a1.647 1.647 0 00-.655.674c-.16.295-.24.653-.24 1.074zm9.566 7.215c-.537 0-.998-.07-1.384-.207a2.938 2.938 0 01-.966-.537 2.924 2.924 0 01-.607-.707l.885-.621c.101.132.228.282.382.452.153.172.364.322.631.447.27.129.623.193 1.059.193.584 0 1.066-.141 1.446-.424.38-.282.57-.725.57-1.328v-1.47h-.094a6.029 6.029 0 01-.349.49 1.974 1.974 0 01-.64.514c-.276.148-.65.221-1.121.221a3.019 3.019 0 01-1.573-.414c-.462-.276-.827-.678-1.097-1.206-.267-.527-.401-1.168-.401-1.921 0-.741.131-1.387.391-1.936.261-.553.623-.98 1.088-1.281.465-.305 1.002-.457 1.611-.457.471 0 .844.078 1.121.235.279.154.493.33.64.528.151.195.267.355.349.48h.113V3.251h1.074v7.442c0 .621-.142 1.127-.424 1.516-.28.393-.656.68-1.131.862a4.262 4.262 0 01-1.573.278zm-.037-3.975c.446 0 .822-.102 1.13-.306.308-.204.542-.498.702-.881.16-.383.24-.841.24-1.375 0-.521-.079-.981-.236-1.38a2.061 2.061 0 00-.697-.937c-.307-.227-.687-.34-1.139-.34-.471 0-.864.12-1.178.358a2.179 2.179 0 00-.702.961c-.153.402-.23.848-.23 1.338 0 .502.078.946.235 1.333.16.383.396.684.707.904.314.217.703.325 1.168.325zm8.232 1.262c-.697 0-1.298-.154-1.804-.461a3.099 3.099 0 01-1.163-1.3c-.27-.56-.405-1.21-.405-1.95 0-.741.135-1.394.405-1.96a3.192 3.192 0 011.14-1.328c.49-.32 1.061-.48 1.714-.48.377 0 .749.063 1.117.188.367.126.701.33 1.003.613.301.28.541.65.72 1.111.179.462.269 1.03.269 1.705v.471h-5.577v-.96h4.446c0-.409-.081-.773-.245-1.093a1.845 1.845 0 00-.687-.759c-.295-.185-.644-.278-1.046-.278-.442 0-.825.11-1.149.33-.32.217-.567.5-.739.848a2.486 2.486 0 00-.259 1.12v.641c0 .547.094 1.01.282 1.39.192.376.457.664.796.862.339.194.733.292 1.182.292.292 0 .556-.041.792-.123.238-.085.444-.21.617-.377.172-.17.306-.38.4-.63l1.074.3a2.38 2.38 0 01-.57.961 2.784 2.784 0 01-.989.641c-.393.15-.834.226-1.324.226zM146.051.84v9.645h-1.111V.84h1.111zm5.069 9.796c-.697 0-1.298-.154-1.804-.461a3.099 3.099 0 01-1.163-1.3c-.27-.56-.405-1.21-.405-1.95 0-.741.135-1.394.405-1.96a3.192 3.192 0 011.14-1.328c.489-.32 1.061-.48 1.714-.48.377 0 .749.063 1.116.188.367.126.702.33 1.003.613.302.28.542.65.721 1.111.179.462.268 1.03.268 1.705v.471h-5.576v-.96h4.446c0-.409-.082-.773-.245-1.093a1.84 1.84 0 00-.688-.759c-.295-.185-.643-.278-1.045-.278-.443 0-.826.11-1.149.33-.321.217-.567.5-.74.848a2.5 2.5 0 00-.259 1.12v.641c0 .547.094 1.01.283 1.39.191.376.457.664.796.862.339.194.733.292 1.182.292.292 0 .556-.041.791-.123.239-.085.444-.21.617-.377.173-.17.306-.38.4-.63l1.074.3a2.38 2.38 0 01-.57.961 2.766 2.766 0 01-.989.641c-.392.15-.833.226-1.323.226zm9.81-5.765l-.998.283a1.874 1.874 0 00-.278-.485 1.349 1.349 0 00-.49-.396c-.207-.103-.472-.155-.796-.155-.442 0-.811.102-1.107.306-.292.2-.438.457-.438.768 0 .276.101.494.302.654.201.16.515.294.942.4l1.074.264c.646.157 1.128.397 1.446.72.317.321.475.734.475 1.24 0 .414-.119.785-.358 1.111-.235.327-.565.584-.989.773-.424.188-.917.282-1.479.282-.737 0-1.348-.16-1.832-.48-.483-.32-.789-.788-.918-1.404l1.055-.264c.1.39.29.682.57.876.282.195.651.292 1.107.292.518 0 .929-.11 1.234-.33.307-.222.461-.49.461-.8a.84.84 0 00-.264-.631c-.176-.173-.446-.301-.81-.386l-1.205-.283c-.663-.157-1.15-.4-1.46-.73-.308-.333-.462-.749-.462-1.248 0-.408.115-.77.344-1.083a2.34 2.34 0 01.946-.74 3.327 3.327 0 011.366-.268c.716 0 1.278.157 1.686.47.412.315.704.73.876 1.244z" fill="#000"/></svg>