<svg width="161" height="13" viewBox="0 0 161 13" fill="none" xmlns="http://www.w3.org/2000/svg"><path d="M3.841 10.348c-.678 0-1.262-.16-1.752-.48a3.13 3.13 0 01-1.13-1.324C.695 7.982.563 7.34.563 6.617c0-.734.135-1.383.405-1.945a3.201 3.201 0 011.14-1.323c.49-.32 1.061-.48 1.714-.48.509 0 .967.094 1.375.282.409.188.743.452 1.004.791.26.34.422.735.485 1.187H5.574a1.723 1.723 0 00-.565-.876c-.289-.257-.678-.386-1.168-.386-.433 0-.813.113-1.14.339a2.209 2.209 0 00-.758.947c-.179.405-.269.88-.269 1.427 0 .559.088 1.045.264 1.46.18.414.43.736.754.965.326.23.71.344 1.149.344.289 0 .551-.05.787-.15.235-.101.434-.246.598-.434a1.66 1.66 0 00.348-.678h1.112a2.575 2.575 0 01-.467 1.154c-.245.339-.57.609-.975.81-.401.198-.87.296-1.403.296zm4.47-.151V2.963h1.073v1.092h.076c.132-.358.37-.648.716-.871a2.107 2.107 0 011.168-.334c.081 0 .183.001.306.004.122.003.215.008.278.014v1.13a3.3 3.3 0 00-.26-.042 2.55 2.55 0 00-.419-.033c-.351 0-.665.074-.942.222a1.67 1.67 0 00-.65.603 1.625 1.625 0 00-.235.87v4.579H8.311zm7.747.15c-.697 0-1.298-.153-1.804-.461a3.099 3.099 0 01-1.163-1.3c-.27-.559-.405-1.209-.405-1.95 0-.74.135-1.394.405-1.96a3.195 3.195 0 011.14-1.327c.49-.32 1.061-.48 1.714-.48.377 0 .749.062 1.116.188.368.125.702.33 1.003.612.302.28.542.65.721 1.112.179.461.268 1.03.268 1.704v.471h-5.576v-.96h4.446c0-.409-.081-.773-.245-1.093-.16-.32-.39-.573-.687-.758-.296-.186-.644-.278-1.046-.278-.443 0-.826.11-1.15.33-.32.216-.566.499-.739.847a2.49 2.49 0 00-.259 1.121v.64c0 .547.095 1.01.283 1.39.191.377.457.664.796.862.339.195.733.292 1.182.292.292 0 .556-.04.791-.122.239-.085.445-.21.617-.377.173-.17.306-.38.4-.631l1.075.301a2.382 2.382 0 01-.57.96 2.778 2.778 0 01-.99.641c-.392.151-.833.226-1.323.226zm7.418 0c-.603 0-1.135-.152-1.597-.456-.461-.308-.822-.741-1.083-1.3-.26-.562-.39-1.226-.39-1.992 0-.76.13-1.42.39-1.979.26-.558.623-.99 1.088-1.295.465-.304 1.002-.457 1.61-.457.472 0 .844.079 1.117.236.276.154.487.33.631.527.148.195.262.355.344.48h.094V.552h1.112v9.646h-1.074V9.085h-.132a7.117 7.117 0 01-.349.5c-.15.197-.365.375-.645.532-.28.154-.651.23-1.116.23zm.15-.998c.447 0 .823-.116 1.131-.348.308-.236.542-.561.702-.975.16-.418.24-.9.24-1.446 0-.54-.079-1.013-.236-1.418-.157-.408-.389-.725-.697-.951-.307-.23-.687-.344-1.14-.344-.47 0-.863.12-1.177.363-.31.238-.545.563-.702.974-.153.409-.23.867-.23 1.376 0 .515.078.982.235 1.403.16.418.396.75.707.999.314.245.703.367 1.168.367zm5.356.848V2.963h1.111v7.234h-1.111zm.565-8.44a.79.79 0 01-.56-.221.711.711 0 01-.231-.533c0-.207.076-.384.23-.532a.79.79 0 01.56-.221c.218 0 .403.074.557.221a.705.705 0 01.235.532.705.705 0 01-.235.533.774.774 0 01-.556.22zm5.728 1.206v.942h-3.749v-.942h3.75zM32.62 1.229h1.111v6.895c0 .314.046.55.137.707a.708.708 0 00.358.31c.147.051.303.076.466.076.122 0 .223-.006.301-.019l.189-.037.226.998c-.075.028-.18.057-.316.085a2.323 2.323 0 01-.513.047c-.314 0-.622-.068-.923-.203a1.835 1.835 0 01-.744-.617c-.195-.276-.292-.624-.292-1.045V1.229zm10.997 9.118c-.678 0-1.262-.16-1.752-.48a3.13 3.13 0 01-1.13-1.323c-.264-.562-.396-1.204-.396-1.927 0-.734.135-1.383.405-1.945a3.201 3.201 0 011.14-1.323c.49-.32 1.061-.48 1.714-.48.509 0 .967.094 1.375.282.409.188.743.452 1.004.791.26.34.422.735.485 1.187h-1.112a1.724 1.724 0 00-.565-.876c-.289-.257-.678-.386-1.168-.386-.433 0-.813.113-1.14.339-.323.223-.576.538-.758.947-.179.405-.268.88-.268 1.427 0 .559.087 1.045.263 1.46.18.414.43.736.754.965.326.23.71.344 1.15.344.288 0 .55-.05.786-.15.235-.101.434-.246.598-.434.163-.188.28-.414.348-.678h1.112a2.574 2.574 0 01-.466 1.154c-.245.339-.57.609-.975.81-.402.198-.87.296-1.404.296zm6.599.02a2.94 2.94 0 01-1.249-.26 2.142 2.142 0 01-.89-.758c-.22-.333-.33-.735-.33-1.206 0-.414.082-.75.245-1.008.164-.26.382-.464.655-.612.273-.147.575-.257.904-.33.333-.075.668-.135 1.004-.178.44-.057.795-.1 1.069-.128.276-.031.477-.083.602-.155.13-.072.194-.198.194-.377v-.038c0-.464-.127-.825-.382-1.083-.251-.257-.633-.386-1.144-.386-.531 0-.947.116-1.248.349-.302.232-.514.48-.636.744l-1.055-.377c.188-.44.44-.782.753-1.027.318-.248.663-.42 1.036-.518.377-.1.748-.15 1.112-.15.232 0 .5.028.8.084.305.054.599.165.881.335.286.17.523.425.712.767.188.342.282.8.282 1.376v4.766H52.42v-.98h-.057c-.075.157-.2.325-.377.504-.175.18-.41.331-.701.457-.292.125-.649.188-1.07.188zm.169-1c.44 0 .81-.085 1.111-.258a1.763 1.763 0 00.924-1.53V6.56c-.047.056-.151.108-.311.155-.157.044-.34.083-.546.118a24.834 24.834 0 01-1.065.141 4.247 4.247 0 00-.81.184 1.397 1.397 0 00-.603.372c-.15.163-.226.386-.226.669 0 .386.143.678.429.876.288.195.654.292 1.097.292zm5.175.83V2.963h1.074v1.092h.075c.132-.358.37-.648.716-.871a2.107 2.107 0 011.168-.334c.082 0 .184.001.306.004s.215.008.278.014v1.13a3.306 3.306 0 00-.26-.042 2.548 2.548 0 00-.418-.033c-.352 0-.666.074-.942.222a1.625 1.625 0 00-.885 1.474v4.578h-1.112zm7.446.15c-.603 0-1.135-.152-1.597-.456-.461-.308-.822-.741-1.083-1.3-.26-.562-.39-1.226-.39-1.992 0-.76.13-1.42.39-1.979.26-.558.623-.99 1.088-1.295.465-.304 1.002-.457 1.61-.457.472 0 .844.079 1.117.236.276.154.487.33.631.527.148.195.262.355.344.48h.094V.552h1.112v9.646h-1.074V9.085h-.132a7.124 7.124 0 01-.349.5c-.15.197-.365.375-.645.532-.28.154-.651.23-1.116.23zm.15-.998c.447 0 .823-.116 1.131-.348.308-.236.542-.561.702-.975.16-.418.24-.9.24-1.446 0-.54-.078-1.013-.235-1.418-.157-.408-.39-.725-.697-.951-.308-.23-.688-.344-1.14-.344-.471 0-.864.12-1.178.363a2.17 2.17 0 00-.702.974c-.153.409-.23.867-.23 1.376 0 .515.078.982.235 1.403.16.418.396.75.707.999.314.245.703.367 1.168.367zm12.119.998c-.697 0-1.298-.153-1.804-.461a3.097 3.097 0 01-1.163-1.3c-.27-.559-.405-1.209-.405-1.95 0-.74.135-1.394.405-1.96a3.195 3.195 0 011.14-1.327c.49-.32 1.06-.48 1.714-.48.377 0 .749.062 1.116.188.367.125.702.33 1.003.612.302.28.542.65.72 1.112.18.461.27 1.03.27 1.704v.471h-5.577v-.96h4.446c0-.409-.082-.773-.245-1.093-.16-.32-.39-.573-.688-.758-.295-.186-.643-.278-1.045-.278-.443 0-.826.11-1.15.33-.32.216-.566.499-.739.847a2.49 2.49 0 00-.259 1.121v.64c0 .547.094 1.01.283 1.39.191.377.457.664.796.862.339.195.733.292 1.182.292.292 0 .556-.04.791-.122.239-.085.445-.21.617-.377.173-.17.306-.38.4-.631l1.074.301a2.38 2.38 0 01-.57.96 2.777 2.777 0 01-.989.641c-.392.151-.833.226-1.323.226zm5.32-7.384l1.734 2.957 1.733-2.957h1.281L83.006 6.58l2.336 3.617h-1.28L82.327 7.39l-1.733 2.807h-1.281l2.298-3.617-2.298-3.617h1.28zm6.334 9.947V2.963h1.074v1.149h.132c.082-.126.195-.286.339-.48.148-.198.358-.374.631-.528.276-.157.65-.236 1.121-.236.61 0 1.146.153 1.61.457.466.305.828.737 1.089 1.295.26.56.39 1.219.39 1.979 0 .766-.13 1.43-.39 1.992-.26.559-.622.992-1.084 1.3-.461.304-.993.457-1.596.457-.465 0-.837-.077-1.116-.231a2.068 2.068 0 01-.645-.532 7.124 7.124 0 01-.35-.5h-.093v3.825h-1.112zm1.093-6.33c0 .546.08 1.028.24 1.446.16.414.394.739.702.975.308.232.684.348 1.13.348.465 0 .853-.122 1.163-.367.314-.248.55-.581.707-.999.16-.42.24-.888.24-1.403 0-.509-.078-.967-.235-1.376a2.125 2.125 0 00-.702-.974c-.31-.242-.702-.363-1.173-.363-.452 0-.832.114-1.14.344-.307.226-.54.543-.697.951-.157.405-.235.878-.235 1.418zm10.022 3.768c-.697 0-1.298-.154-1.804-.462a3.099 3.099 0 01-1.163-1.3c-.27-.559-.405-1.209-.405-1.95 0-.74.135-1.394.405-1.96a3.195 3.195 0 011.14-1.327c.49-.32 1.061-.48 1.714-.48.377 0 .75.062 1.116.188.368.125.702.33 1.004.612.301.28.541.65.72 1.112.179.461.269 1.03.269 1.704v.471h-5.577v-.96h4.446c0-.409-.081-.773-.245-1.093-.16-.32-.389-.573-.687-.758-.295-.186-.644-.278-1.046-.278-.443 0-.826.11-1.149.33-.32.216-.567.499-.74.847a2.49 2.49 0 00-.258 1.121v.64c0 .547.094 1.01.282 1.39.192.377.457.664.796.862.34.195.733.292 1.182.292.292 0 .556-.04.791-.122.24-.085.445-.21.617-.377.173-.17.307-.38.4-.631l1.075.301a2.38 2.38 0 01-.57.96 2.78 2.78 0 01-.99.641c-.392.151-.833.226-1.323.226zm5.798-4.503v4.352h-1.112V2.963h1.074v1.13h.095c.169-.367.427-.663.772-.886.345-.226.791-.339 1.337-.339.49 0 .919.1 1.286.302.368.198.653.499.857.904.205.402.307.91.307 1.526v4.597h-1.112V5.675c0-.568-.148-1.01-.443-1.328-.295-.32-.7-.48-1.215-.48-.355 0-.672.077-.951.23a1.653 1.653 0 00-.655.674c-.16.295-.24.653-.24 1.074zm11.771-1.262l-.999.282a1.841 1.841 0 00-.277-.485 1.357 1.357 0 00-.49-.395c-.208-.104-.473-.156-.796-.156-.443 0-.812.102-1.107.306-.292.201-.438.457-.438.768 0 .276.1.495.301.655.201.16.515.293.942.4l1.074.264c.647.157 1.129.397 1.446.72.317.32.476.733.476 1.239 0 .414-.12.785-.358 1.112-.236.326-.565.584-.989.772-.424.188-.917.283-1.479.283-.738 0-1.349-.16-1.832-.48-.484-.321-.79-.789-.919-1.404l1.055-.264c.101.39.291.681.57.876.283.195.652.292 1.107.292.518 0 .929-.11 1.234-.33.308-.223.462-.49.462-.8a.84.84 0 00-.264-.632c-.176-.172-.446-.301-.81-.386l-1.206-.282c-.662-.157-1.149-.4-1.46-.73-.308-.333-.462-.75-.462-1.248 0-.409.115-.77.344-1.084.233-.314.548-.56.947-.74a3.324 3.324 0 011.366-.268c.716 0 1.278.157 1.686.471.411.314.703.729.876 1.244zm4.838 5.764c-.697 0-1.298-.153-1.804-.461a3.099 3.099 0 01-1.163-1.3c-.27-.559-.405-1.209-.405-1.95 0-.74.135-1.394.405-1.96a3.192 3.192 0 011.14-1.327c.489-.32 1.061-.48 1.714-.48.377 0 .749.062 1.116.188.368.125.702.33 1.003.612.302.28.542.65.721 1.112.179.461.268 1.03.268 1.704v.471h-5.576v-.96h4.446c0-.409-.082-.773-.245-1.093a1.845 1.845 0 00-.687-.758 1.93 1.93 0 00-1.046-.278c-.443 0-.826.11-1.149.33-.321.216-.567.499-.74.847a2.5 2.5 0 00-.259 1.121v.64c0 .547.094 1.01.283 1.39.191.377.457.664.796.862.339.195.733.292 1.182.292.292 0 .556-.04.791-.122.239-.085.444-.21.617-.377.173-.17.306-.38.401-.631l1.073.301a2.38 2.38 0 01-.57.96 2.765 2.765 0 01-.989.641c-.392.151-.833.226-1.323.226zm9.81-5.764l-.998.282a1.845 1.845 0 00-.278-.485 1.349 1.349 0 00-.49-.395c-.207-.104-.472-.156-.796-.156-.442 0-.811.102-1.107.306-.292.201-.438.457-.438.768 0 .276.101.495.302.655.201.16.515.293.942.4l1.074.264c.647.157 1.128.397 1.446.72.317.32.475.733.475 1.239 0 .414-.119.785-.358 1.112-.235.326-.565.584-.989.772-.424.188-.917.283-1.479.283-.737 0-1.348-.16-1.832-.48-.483-.321-.789-.789-.918-1.404l1.055-.264c.1.39.29.681.57.876.282.195.651.292 1.107.292.518 0 .929-.11 1.234-.33.307-.223.461-.49.461-.8a.84.84 0 00-.264-.632c-.175-.172-.446-.301-.81-.386l-1.205-.282c-.663-.157-1.15-.4-1.46-.73-.308-.333-.462-.75-.462-1.248 0-.409.115-.77.344-1.084a2.34 2.34 0 01.946-.74 3.327 3.327 0 011.366-.268c.716 0 1.278.157 1.686.471.412.314.704.729.876 1.244zm8.474 5.764c-.653 0-1.226-.155-1.719-.466a3.178 3.178 0 01-1.149-1.304c-.273-.56-.41-1.212-.41-1.96 0-.753.137-1.411.41-1.973.277-.562.66-.998 1.149-1.31.493-.31 1.066-.466 1.719-.466.654 0 1.225.156 1.715.467.493.31.876.747 1.149 1.309.276.562.414 1.22.414 1.973 0 .748-.138 1.4-.414 1.96a3.122 3.122 0 01-1.149 1.304c-.49.311-1.061.466-1.715.466zm0-.998c.497 0 .905-.127 1.225-.381.32-.255.557-.59.711-1.004.154-.414.231-.863.231-1.347 0-.483-.077-.934-.231-1.351a2.281 2.281 0 00-.711-1.013c-.32-.257-.728-.386-1.225-.386-.496 0-.904.129-1.224.386-.32.258-.557.595-.711 1.013a3.876 3.876 0 00-.231 1.351c0 .484.077.933.231 1.347.154.415.391.75.711 1.004.32.254.728.381 1.224.381zm6.087-3.504v4.352h-1.112V2.963h1.074v1.13h.094c.17-.367.427-.663.773-.886.345-.226.791-.339 1.337-.339.49 0 .919.1 1.286.302.367.198.653.499.857.904.204.402.306.91.306 1.526v4.597h-1.111V5.675c0-.568-.148-1.01-.443-1.328-.295-.32-.7-.48-1.215-.48-.355 0-.672.077-.952.23a1.651 1.651 0 00-.654.674c-.16.295-.24.653-.24 1.074zm7.758-5.294v9.646h-1.112V.55h1.112zm2.751 12.359c-.188 0-.356-.016-.503-.047a1.341 1.341 0 01-.307-.085l.283-.98c.27.07.509.094.716.075a.858.858 0 00.551-.277c.163-.164.312-.429.447-.796l.208-.566-2.676-7.271h1.206l1.997 5.764h.075l1.997-5.764h1.206l-3.071 8.289a3.134 3.134 0 01-.513.928 1.923 1.923 0 01-.711.55c-.267.12-.569.18-.905.18z" fill="#000"/></svg>