<svg width="161" height="13" viewBox="0 0 161 13" fill="none" xmlns="http://www.w3.org/2000/svg"><path d="M3.841 10.316c-.678 0-1.262-.16-1.752-.48a3.13 3.13 0 01-1.13-1.324C.695 7.95.563 7.308.563 6.586c0-.735.135-1.383.405-1.946a3.201 3.201 0 011.14-1.323c.49-.32 1.061-.48 1.714-.48.509 0 .967.094 1.375.282.409.189.743.452 1.004.791.26.34.422.735.485 1.187H5.574a1.723 1.723 0 00-.565-.876c-.289-.257-.678-.386-1.168-.386-.433 0-.813.113-1.14.34a2.209 2.209 0 00-.758.946c-.179.405-.269.88-.269 1.427 0 .559.088 1.046.264 1.46.18.414.43.736.754.965.326.23.71.344 1.149.344.289 0 .551-.05.787-.15.235-.1.434-.245.598-.434a1.66 1.66 0 00.348-.678h1.112a2.575 2.575 0 01-.467 1.154c-.245.34-.57.61-.975.81-.401.198-.87.297-1.403.297zm4.47-.151V2.931h1.073v1.093h.076c.132-.358.37-.649.716-.872a2.107 2.107 0 011.168-.334c.081 0 .183.001.306.005.122.003.215.007.278.014v1.13a3.3 3.3 0 00-.26-.042 2.55 2.55 0 00-.419-.033c-.351 0-.665.073-.942.221a1.67 1.67 0 00-.65.603 1.625 1.625 0 00-.235.871v4.578H8.311zm7.747.15c-.697 0-1.298-.153-1.804-.46a3.099 3.099 0 01-1.163-1.3c-.27-.56-.405-1.21-.405-1.95 0-.742.135-1.395.405-1.96a3.196 3.196 0 011.14-1.328c.49-.32 1.061-.48 1.714-.48.377 0 .749.062 1.116.188.368.126.702.33 1.003.612.302.28.542.65.721 1.112.179.461.268 1.03.268 1.705v.47h-5.576v-.96h4.446c0-.408-.081-.772-.245-1.093-.16-.32-.39-.573-.687-.758-.296-.185-.644-.278-1.046-.278-.443 0-.826.11-1.15.33-.32.216-.566.499-.739.848a2.49 2.49 0 00-.259 1.12v.641c0 .546.095 1.01.283 1.39.191.376.457.663.796.861.339.195.733.292 1.182.292.292 0 .556-.04.791-.122.239-.085.445-.21.617-.377.173-.17.306-.38.4-.631l1.075.301a2.382 2.382 0 01-.57.961 2.778 2.778 0 01-.99.64c-.392.151-.833.227-1.323.227zm7.418 0c-.603 0-1.135-.151-1.597-.456-.461-.308-.822-.741-1.083-1.3-.26-.562-.39-1.226-.39-1.992 0-.76.13-1.42.39-1.978.26-.56.623-.99 1.088-1.296.465-.304 1.002-.456 1.61-.456.472 0 .844.078 1.117.235.276.154.487.33.631.528.148.194.262.354.344.48h.094V.52h1.112v9.645h-1.074V9.054h-.132a7.12 7.12 0 01-.349.499 2.07 2.07 0 01-.645.532c-.28.154-.651.23-1.116.23zm.15-.998c.447 0 .823-.116 1.131-.348.308-.236.542-.56.702-.975.16-.418.24-.9.24-1.446 0-.54-.079-1.013-.236-1.418-.157-.408-.389-.725-.697-.951-.307-.23-.687-.344-1.14-.344-.47 0-.863.121-1.177.363-.31.238-.545.563-.702.975-.153.408-.23.866-.23 1.375 0 .515.078.983.235 1.403.16.418.396.75.707.999.314.245.703.367 1.168.367zm5.356.848V2.931h1.111v7.234h-1.111zm.565-8.44a.79.79 0 01-.56-.221.711.711 0 01-.231-.532c0-.208.076-.385.23-.533a.79.79 0 01.56-.221c.218 0 .403.074.557.221a.705.705 0 01.235.533.705.705 0 01-.235.532.774.774 0 01-.556.221zm5.728 1.206v.942h-3.749V2.93h3.75zM32.62 1.198h1.111v6.895c0 .314.046.55.137.706a.708.708 0 00.358.311c.147.05.303.075.466.075.122 0 .223-.006.301-.018l.189-.038.226.998c-.075.029-.18.057-.316.085a2.323 2.323 0 01-.513.047c-.314 0-.622-.067-.923-.202a1.834 1.834 0 01-.744-.617c-.195-.277-.292-.625-.292-1.046V1.198zm10.997 9.118c-.678 0-1.262-.16-1.752-.48a3.13 3.13 0 01-1.13-1.324c-.264-.562-.396-1.204-.396-1.926 0-.735.135-1.383.405-1.946a3.201 3.201 0 011.14-1.323c.49-.32 1.061-.48 1.714-.48.509 0 .967.094 1.375.282.409.189.743.452 1.004.791.26.34.422.735.485 1.187h-1.112a1.724 1.724 0 00-.565-.876c-.289-.257-.678-.386-1.168-.386-.433 0-.813.113-1.14.34-.323.222-.576.538-.758.946-.179.405-.268.88-.268 1.427 0 .559.087 1.046.263 1.46.18.414.43.736.754.965.326.23.71.344 1.15.344.288 0 .55-.05.786-.15.235-.1.434-.245.598-.434.163-.188.28-.414.348-.678h1.112a2.574 2.574 0 01-.466 1.154c-.245.34-.57.61-.975.81-.402.198-.87.297-1.404.297zm6.599.019a2.94 2.94 0 01-1.249-.26 2.142 2.142 0 01-.89-.758c-.22-.333-.33-.734-.33-1.205 0-.415.082-.75.245-1.008.164-.26.382-.465.655-.613.273-.147.575-.257.904-.33.333-.075.668-.134 1.004-.178a45.2 45.2 0 011.069-.127c.276-.032.477-.084.602-.156.13-.072.194-.198.194-.377v-.037c0-.465-.127-.826-.382-1.084-.251-.257-.633-.386-1.144-.386-.531 0-.947.116-1.248.349-.302.232-.514.48-.636.744l-1.055-.377c.188-.44.44-.782.753-1.027.318-.248.663-.42 1.036-.518.377-.1.748-.15 1.112-.15.232 0 .5.028.8.084.305.054.599.165.881.335.286.17.523.425.712.768.188.342.282.8.282 1.375v4.766H52.42v-.98h-.057c-.075.157-.2.325-.377.504-.175.18-.41.332-.701.457-.292.126-.649.189-1.07.189zm.169-.999c.44 0 .81-.086 1.111-.259a1.763 1.763 0 00.924-1.53V6.528c-.047.057-.151.108-.311.156-.157.043-.34.083-.546.117a24.784 24.784 0 01-1.065.142 4.247 4.247 0 00-.81.183 1.397 1.397 0 00-.603.372c-.15.164-.226.387-.226.67 0 .385.143.677.429.875.288.195.654.292 1.097.292zm5.175.829V2.931h1.074v1.093h.075c.132-.358.37-.649.716-.872a2.107 2.107 0 011.168-.334c.082 0 .184.001.306.005.122.003.215.007.278.014v1.13a3.306 3.306 0 00-.26-.042 2.548 2.548 0 00-.418-.033c-.352 0-.666.073-.942.221a1.625 1.625 0 00-.885 1.474v4.578h-1.112zm7.446.15c-.603 0-1.135-.151-1.597-.456-.461-.308-.822-.741-1.083-1.3-.26-.562-.39-1.226-.39-1.992 0-.76.13-1.42.39-1.978.26-.56.623-.99 1.088-1.296.465-.304 1.002-.456 1.61-.456.472 0 .844.078 1.117.235.276.154.487.33.631.528.148.194.262.354.344.48h.094V.52h1.112v9.645h-1.074V9.054h-.132a7.127 7.127 0 01-.349.499c-.15.198-.365.375-.645.532-.28.154-.651.23-1.116.23zm.15-.998c.447 0 .823-.116 1.131-.348.308-.236.542-.56.702-.975.16-.418.24-.9.24-1.446 0-.54-.078-1.013-.235-1.418-.157-.408-.39-.725-.697-.951-.308-.23-.688-.344-1.14-.344-.471 0-.864.121-1.178.363a2.17 2.17 0 00-.702.975c-.153.408-.23.866-.23 1.375 0 .515.078.983.235 1.403.16.418.396.75.707.999.314.245.703.367 1.168.367zm12.119.999c-.697 0-1.298-.154-1.804-.462a3.097 3.097 0 01-1.163-1.3c-.27-.559-.405-1.209-.405-1.95 0-.74.135-1.394.405-1.959a3.195 3.195 0 011.14-1.328c.49-.32 1.06-.48 1.714-.48.377 0 .749.062 1.116.188.367.126.702.33 1.003.612.302.28.542.65.72 1.112.18.461.27 1.03.27 1.705v.47h-5.577v-.96h4.446c0-.408-.082-.772-.245-1.093-.16-.32-.39-.573-.688-.758-.295-.185-.643-.278-1.045-.278-.443 0-.826.11-1.15.33-.32.216-.566.499-.739.848a2.49 2.49 0 00-.259 1.12v.641c0 .546.094 1.01.283 1.39.191.376.457.663.796.861.339.195.733.292 1.182.292.292 0 .556-.04.791-.122.239-.085.445-.21.617-.377.173-.17.306-.38.4-.631l1.074.301a2.38 2.38 0 01-.57.961 2.778 2.778 0 01-.989.64c-.392.151-.833.227-1.323.227zm5.32-7.385l1.734 2.958 1.733-2.958h1.281l-2.336 3.617 2.336 3.617h-1.28l-1.734-2.807-1.733 2.807h-1.281l2.298-3.617-2.298-3.617h1.28zm6.334 9.947V2.93h1.074V4.08h.132c.082-.126.195-.286.339-.48.148-.198.358-.374.631-.528.276-.157.65-.235 1.121-.235.61 0 1.146.152 1.61.456.466.305.828.737 1.089 1.296.26.559.39 1.218.39 1.978 0 .766-.13 1.43-.39 1.992-.26.559-.622.992-1.084 1.3-.461.305-.993.457-1.596.457-.465 0-.837-.077-1.116-.231a2.068 2.068 0 01-.645-.532 7.127 7.127 0 01-.35-.5h-.093v3.825h-1.112zm1.093-6.33c0 .546.08 1.028.24 1.446.16.414.394.74.702.975.308.232.684.348 1.13.348.465 0 .853-.122 1.163-.367.314-.248.55-.58.707-.999.16-.42.24-.888.24-1.403 0-.509-.078-.967-.235-1.375a2.125 2.125 0 00-.702-.975c-.31-.242-.702-.363-1.173-.363-.452 0-.832.115-1.14.344-.307.226-.54.543-.697.951-.157.405-.235.878-.235 1.418zm10.022 3.768c-.697 0-1.298-.154-1.804-.462a3.099 3.099 0 01-1.163-1.3c-.27-.559-.405-1.209-.405-1.95 0-.74.135-1.394.405-1.959a3.196 3.196 0 011.14-1.328c.49-.32 1.061-.48 1.714-.48.377 0 .75.062 1.116.188.368.126.702.33 1.004.612.301.28.541.65.72 1.112.179.461.269 1.03.269 1.705v.47h-5.577v-.96h4.446c0-.408-.081-.772-.245-1.093-.16-.32-.389-.573-.687-.758-.295-.185-.644-.278-1.046-.278-.443 0-.826.11-1.149.33-.32.216-.567.499-.74.848a2.49 2.49 0 00-.258 1.12v.641c0 .546.094 1.01.282 1.39.192.376.457.663.796.861.34.195.733.292 1.182.292.292 0 .556-.04.791-.122.24-.085.445-.21.617-.377.173-.17.307-.38.4-.631l1.075.301a2.38 2.38 0 01-.57.961 2.78 2.78 0 01-.99.64c-.392.151-.833.227-1.323.227zm5.798-4.503v4.352h-1.112V2.931h1.074v1.13h.095c.169-.367.427-.662.772-.885.345-.226.791-.34 1.337-.34.49 0 .919.101 1.286.302.368.198.653.5.857.904.205.402.307.91.307 1.526v4.597h-1.112V5.644c0-.569-.148-1.011-.443-1.328-.295-.32-.7-.48-1.215-.48-.355 0-.672.076-.951.23a1.653 1.653 0 00-.655.673c-.16.296-.24.653-.24 1.074zm11.771-1.262l-.999.283a1.841 1.841 0 00-.277-.486 1.357 1.357 0 00-.49-.395c-.208-.104-.473-.156-.796-.156-.443 0-.812.102-1.107.307-.292.2-.438.456-.438.767 0 .277.1.495.301.655.201.16.515.293.942.4l1.074.264c.647.157 1.129.397 1.446.72.317.32.476.734.476 1.24 0 .414-.12.784-.358 1.11-.236.327-.565.585-.989.773-.424.189-.917.283-1.479.283-.738 0-1.349-.16-1.832-.48-.484-.32-.79-.789-.919-1.404l1.055-.264c.101.39.291.681.57.876.283.195.652.292 1.107.292.518 0 .929-.11 1.234-.33.308-.222.462-.49.462-.8a.84.84 0 00-.264-.631c-.176-.173-.446-.302-.81-.387l-1.206-.282c-.662-.157-1.149-.4-1.46-.73-.308-.333-.462-.749-.462-1.248 0-.408.115-.77.344-1.083.233-.314.548-.56.947-.74a3.324 3.324 0 011.366-.268c.716 0 1.278.157 1.686.47.411.315.703.73.876 1.244zm4.838 5.765c-.697 0-1.298-.154-1.804-.462a3.099 3.099 0 01-1.163-1.3c-.27-.559-.405-1.209-.405-1.95 0-.74.135-1.394.405-1.959a3.192 3.192 0 011.14-1.328c.489-.32 1.061-.48 1.714-.48.377 0 .749.062 1.116.188.368.126.702.33 1.003.612.302.28.542.65.721 1.112.179.461.268 1.03.268 1.705v.47h-5.576v-.96h4.446c0-.408-.082-.772-.245-1.093a1.845 1.845 0 00-.687-.758 1.93 1.93 0 00-1.046-.278c-.443 0-.826.11-1.149.33-.321.216-.567.499-.74.848a2.5 2.5 0 00-.259 1.12v.641c0 .546.094 1.01.283 1.39.191.376.457.663.796.861.339.195.733.292 1.182.292.292 0 .556-.04.791-.122.239-.085.444-.21.617-.377.173-.17.306-.38.401-.631l1.073.301a2.38 2.38 0 01-.57.961 2.766 2.766 0 01-.989.64c-.392.151-.833.227-1.323.227zm9.81-5.765l-.998.283a1.846 1.846 0 00-.278-.486 1.349 1.349 0 00-.49-.395c-.207-.104-.472-.156-.796-.156-.442 0-.811.102-1.107.307-.292.2-.438.456-.438.767 0 .277.101.495.302.655.201.16.515.293.942.4l1.074.264c.647.157 1.128.397 1.446.72.317.32.475.734.475 1.24 0 .414-.119.784-.358 1.11-.235.327-.565.585-.989.773-.424.189-.917.283-1.479.283-.737 0-1.348-.16-1.832-.48-.483-.32-.789-.789-.918-1.404l1.055-.264c.1.39.29.681.57.876.282.195.651.292 1.107.292.518 0 .929-.11 1.234-.33.307-.222.461-.49.461-.8a.84.84 0 00-.264-.631c-.175-.173-.446-.302-.81-.387l-1.205-.282c-.663-.157-1.15-.4-1.46-.73-.308-.333-.462-.749-.462-1.248 0-.408.115-.77.344-1.083a2.34 2.34 0 01.946-.74 3.327 3.327 0 011.366-.268c.716 0 1.278.157 1.686.47.412.315.704.73.876 1.244zm8.474 5.765c-.653 0-1.226-.156-1.719-.467a3.178 3.178 0 01-1.149-1.304c-.273-.559-.41-1.212-.41-1.96 0-.753.137-1.41.41-1.973.277-.562.66-.998 1.149-1.31.493-.31 1.066-.465 1.719-.465.654 0 1.225.155 1.715.466.493.31.876.747 1.149 1.31.276.561.414 1.22.414 1.973 0 .747-.138 1.4-.414 1.959a3.122 3.122 0 01-1.149 1.304c-.49.311-1.061.467-1.715.467zm0-.999c.497 0 .905-.127 1.225-.381.32-.255.557-.589.711-1.003.154-.415.231-.864.231-1.347 0-.484-.077-.934-.231-1.352a2.281 2.281 0 00-.711-1.013c-.32-.257-.728-.386-1.225-.386-.496 0-.904.129-1.224.386-.32.258-.557.595-.711 1.013a3.877 3.877 0 00-.231 1.352c0 .483.077.932.231 1.347.154.414.391.748.711 1.003.32.254.728.381 1.224.381zm6.087-3.504v4.352h-1.112V2.931h1.074v1.13h.094c.17-.367.427-.662.773-.885.345-.226.791-.34 1.337-.34.49 0 .919.101 1.286.302.367.198.653.5.857.904.204.402.306.91.306 1.526v4.597h-1.111V5.644c0-.569-.148-1.011-.443-1.328-.295-.32-.7-.48-1.215-.48-.355 0-.672.076-.952.23a1.65 1.65 0 00-.654.673c-.16.296-.24.653-.24 1.074zM152.579.52v9.646h-1.112V.519h1.112zm2.751 12.359c-.188 0-.356-.016-.503-.047a1.346 1.346 0 01-.307-.085l.283-.98c.27.07.509.095.716.076a.857.857 0 00.551-.278c.163-.163.312-.429.447-.796l.208-.565-2.676-7.272h1.206l1.997 5.765h.075l1.997-5.765h1.206l-3.071 8.289a3.132 3.132 0 01-.513.928 1.922 1.922 0 01-.711.55c-.267.12-.569.18-.905.18z" fill="#000"/></svg>