<svg width="303" height="315" viewBox="0 0 303 315" fill="none" xmlns="http://www.w3.org/2000/svg"><rect x=".65" y="239.794" width="39.816" height="20.604" rx="10.302" fill="#F6F8FA"/><rect x=".65" y="239.794" width="39.816" height="20.604" rx="10.302" stroke="#DFE3E5" stroke-width=".64"/><path d="M12.192 246.214h1.26v5.943c0 .537-.106.997-.319 1.379a2.13 2.13 0 01-.888.876c-.382.199-.829.298-1.342.298a3.03 3.03 0 01-1.273-.258 2.088 2.088 0 01-.888-.748c-.215-.331-.323-.732-.323-1.204h1.256c0 .232.053.433.16.602.109.169.258.301.446.397.191.093.41.139.655.139.267 0 .494-.056.68-.168.187-.114.33-.282.429-.503a1.99 1.99 0 00.147-.81v-5.943zm3.101 8.382v-8.382h5.255v1.089h-3.99v2.553h3.716v1.085h-3.716v2.566h4.04v1.089h-5.305z" fill="#000"/><path d="M27.6 253.08l-.465-.466 2.526-2.526-2.526-2.511.465-.465 2.527 2.526 2.51-2.526.466.465-2.527 2.511 2.527 2.526-.466.466-2.51-2.527-2.527 2.527z" fill="#1C1B1F"/><path d="M26.068 304.485v8.381H24.8v-7.113h-.049l-2.005 1.31v-1.211l2.091-1.367h1.232zm5.185 8.52c-.646-.002-1.199-.173-1.657-.511-.458-.339-.809-.831-1.052-1.478-.243-.646-.364-1.425-.364-2.337 0-.908.121-1.684.364-2.328.246-.644.598-1.135 1.056-1.474.461-.338 1.012-.507 1.653-.507.642 0 1.191.171 1.65.512.458.338.809.829 1.052 1.473.245.641.368 1.416.368 2.324 0 .915-.121 1.695-.364 2.341-.243.644-.594 1.137-1.052 1.478-.458.338-1.01.507-1.653.507zm0-1.092c.568 0 1.011-.277 1.33-.831.323-.554.483-1.355.483-2.403 0-.695-.073-1.283-.22-1.763-.145-.483-.354-.849-.627-1.097a1.37 1.37 0 00-.966-.377c-.564 0-1.008.279-1.33.835-.321.557-.484 1.358-.487 2.402 0 .699.073 1.29.217 1.773.148.48.356.844.627 1.092.27.246.594.369.973.369zm7.73-7.821l-2.7 10.035H35.19l2.7-10.035h1.093zm3.942 8.913c-.647-.002-1.2-.173-1.658-.511-.458-.339-.809-.831-1.052-1.478-.243-.646-.364-1.425-.364-2.337 0-.908.121-1.684.364-2.328.246-.644.598-1.135 1.056-1.474.461-.338 1.012-.507 1.654-.507.64 0 1.19.171 1.649.512.458.338.809.829 1.052 1.473.245.641.368 1.416.368 2.324 0 .915-.121 1.695-.364 2.341-.243.644-.594 1.137-1.052 1.478-.458.338-1.01.507-1.653.507zm0-1.092c.567 0 1.01-.277 1.33-.831.322-.554.483-1.355.483-2.403 0-.695-.074-1.283-.221-1.763-.145-.483-.354-.849-.627-1.097a1.37 1.37 0 00-.965-.377c-.565 0-1.009.279-1.33.835-.322.557-.485 1.358-.487 2.402 0 .699.072 1.29.216 1.773.148.48.356.844.627 1.092.27.246.594.369.974.369zm7.7-7.428v8.381h-1.268v-7.113h-.049l-2.005 1.31v-1.211l2.09-1.367h1.233zm5.477-.393L53.4 314.127h-1.093l2.701-10.035h1.093zm1.023 8.774v-.917l2.836-2.938c.303-.319.553-.599.749-.839.2-.243.348-.473.446-.692.098-.218.147-.45.147-.695 0-.279-.065-.519-.196-.721a1.286 1.286 0 00-.536-.47 1.703 1.703 0 00-.765-.168c-.3 0-.563.061-.786.184a1.263 1.263 0 00-.516.52c-.12.224-.18.485-.18.786h-1.207c0-.511.117-.957.352-1.339a2.39 2.39 0 01.965-.888c.41-.213.875-.319 1.396-.319.527 0 .99.105 1.392.315.403.207.718.491.945.851.226.358.34.762.34 1.212 0 .311-.06.615-.176.912-.115.298-.316.629-.602.995-.286.363-.685.803-1.195 1.322l-1.666 1.743v.062h3.774v1.084h-5.517zm9.986.139c-.647-.002-1.2-.173-1.658-.511-.458-.339-.809-.831-1.052-1.478-.242-.646-.364-1.425-.364-2.337 0-.908.122-1.684.364-2.328.246-.644.598-1.135 1.056-1.474.461-.338 1.013-.507 1.654-.507.64 0 1.19.171 1.65.512.457.338.808.829 1.05 1.473.246.641.37 1.416.37 2.324 0 .915-.122 1.695-.365 2.341-.243.644-.594 1.137-1.052 1.478-.458.338-1.01.507-1.653.507zm0-1.092c.567 0 1.01-.277 1.33-.831.322-.554.483-1.355.483-2.403 0-.695-.074-1.283-.221-1.763-.145-.483-.354-.849-.626-1.097a1.37 1.37 0 00-.966-.377c-.565 0-1.008.279-1.33.835-.322.557-.485 1.358-.487 2.402 0 .699.072 1.29.216 1.773.148.48.357.844.627 1.092.27.246.594.369.974.369zm4.521.953v-.917l2.836-2.938c.303-.319.553-.599.75-.839.198-.243.347-.473.445-.692.099-.218.148-.45.148-.695 0-.279-.066-.519-.197-.721a1.285 1.285 0 00-.536-.47 1.703 1.703 0 00-.765-.168c-.3 0-.562.061-.786.184a1.263 1.263 0 00-.516.52c-.12.224-.18.485-.18.786h-1.207c0-.511.117-.957.352-1.339a2.39 2.39 0 01.966-.888c.409-.213.874-.319 1.395-.319.527 0 .99.105 1.392.315.403.207.719.491.945.851.227.358.34.762.34 1.212 0 .311-.059.615-.176.912-.115.298-.315.629-.602.995-.286.363-.685.803-1.195 1.322l-1.665 1.743v.062h3.773v1.084h-5.517zm6.712-1.637v-1.023l3.622-5.721h.806v1.506h-.512l-2.59 4.1v.066h4.964v1.072h-6.29zm3.974 1.637v-1.948l.008-.466v-5.967h1.2v8.381h-1.208zM242.646 304.485v8.381h-1.268v-7.113h-.049l-2.006 1.31v-1.211l2.091-1.367h1.232zm2.268 8.381v-.917l2.836-2.938c.303-.319.552-.599.749-.839.199-.243.348-.473.446-.692.098-.218.147-.45.147-.695 0-.279-.065-.519-.196-.721a1.289 1.289 0 00-.536-.47 1.707 1.707 0 00-.766-.168 1.6 1.6 0 00-.785.184 1.261 1.261 0 00-.516.52c-.12.224-.18.485-.18.786h-1.208c0-.511.118-.957.352-1.339.235-.382.557-.678.966-.888.41-.213.875-.319 1.396-.319.526 0 .99.105 1.391.315.404.207.719.491.946.851.226.358.339.762.339 1.212 0 .311-.058.615-.176.912-.114.298-.315.629-.601.995a17.2 17.2 0 01-1.195 1.322l-1.666 1.743v.062h3.773v1.084h-5.516zm10.276-8.774l-2.701 10.035h-1.093l2.701-10.035h1.093zm3.941 8.889c-.562 0-1.064-.097-1.506-.291a2.544 2.544 0 01-1.043-.806 2.14 2.14 0 01-.41-1.203h1.285c.017.248.1.464.25.646.153.18.352.32.598.418.245.098.518.147.818.147.33 0 .622-.057.876-.172.256-.114.457-.274.602-.479.144-.207.216-.446.216-.716 0-.281-.072-.528-.216-.741a1.418 1.418 0 00-.627-.507c-.272-.123-.603-.184-.99-.184h-.708v-1.031h.708c.311 0 .584-.056.818-.168.238-.112.423-.268.557-.467a1.25 1.25 0 00.201-.708c0-.259-.059-.484-.176-.675a1.186 1.186 0 00-.491-.454 1.59 1.59 0 00-.745-.164c-.273 0-.528.05-.766.151-.234.099-.425.24-.573.426a1.096 1.096 0 00-.237.659h-1.224c.014-.453.148-.851.401-1.195a2.59 2.59 0 011.015-.806 3.303 3.303 0 011.4-.291c.538 0 1.001.105 1.392.315.392.207.695.484.908.831.216.346.322.726.319 1.138.003.469-.128.867-.393 1.195a1.908 1.908 0 01-1.047.659v.065c.556.085.987.306 1.293.663.308.358.461.801.458 1.33.003.461-.125.875-.384 1.24a2.619 2.619 0 01-1.052.864c-.445.207-.954.311-1.527.311zm7.69-8.496v8.381h-1.268v-7.113h-.05l-2.005 1.31v-1.211l2.091-1.367h1.232zm5.476-.393l-2.701 10.035h-1.093l2.701-10.035h1.093zm1.023 8.774v-.917l2.836-2.938c.303-.319.553-.599.749-.839.2-.243.348-.473.446-.692.099-.218.148-.45.148-.695 0-.279-.066-.519-.197-.721a1.283 1.283 0 00-.536-.47 1.7 1.7 0 00-.765-.168c-.3 0-.562.061-.786.184a1.259 1.259 0 00-.515.52 1.626 1.626 0 00-.181.786h-1.207c0-.511.117-.957.352-1.339s.557-.678.966-.888a2.975 2.975 0 011.395-.319c.527 0 .991.105 1.392.315.404.207.719.491.945.851.227.358.34.762.34 1.212 0 .311-.059.615-.176.912-.115.298-.315.629-.602.995-.286.363-.684.803-1.195 1.322l-1.665 1.743v.062h3.773v1.084h-5.517zm9.986.139c-.646-.002-1.199-.173-1.657-.511-.459-.339-.809-.831-1.052-1.478-.243-.646-.364-1.425-.364-2.337 0-.908.121-1.684.364-2.328.245-.644.597-1.135 1.056-1.474.461-.338 1.012-.507 1.653-.507s1.191.171 1.65.512c.458.338.809.829 1.051 1.473.246.641.369 1.416.369 2.324 0 .915-.122 1.695-.365 2.341-.242.644-.593 1.137-1.051 1.478-.459.338-1.01.507-1.654.507zm0-1.092c.568 0 1.011-.277 1.33-.831.322-.554.483-1.355.483-2.403 0-.695-.073-1.283-.221-1.763-.144-.483-.353-.849-.626-1.097a1.37 1.37 0 00-.966-.377c-.565 0-1.008.279-1.33.835-.322.557-.484 1.358-.487 2.402 0 .699.072 1.29.217 1.773.147.48.356.844.626 1.092.27.246.595.369.974.369zm4.522.953v-.917l2.836-2.938c.303-.319.552-.599.749-.839.199-.243.347-.473.446-.692.098-.218.147-.45.147-.695 0-.279-.065-.519-.196-.721a1.285 1.285 0 00-.537-.47 1.7 1.7 0 00-.765-.168c-.3 0-.562.061-.786.184a1.265 1.265 0 00-.515.52c-.12.224-.18.485-.18.786h-1.208c0-.511.118-.957.352-1.339.235-.382.557-.678.966-.888a2.98 2.98 0 011.396-.319c.526 0 .99.105 1.391.315.404.207.719.491.946.851.226.358.339.762.339 1.212 0 .311-.058.615-.176.912-.114.298-.315.629-.601.995a17.2 17.2 0 01-1.195 1.322l-1.666 1.743v.062h3.773v1.084h-5.516zm6.711-1.637v-1.023l3.622-5.721h.807v1.506h-.512l-2.591 4.1v.066h4.965v1.072h-6.291zm3.974 1.637v-1.948l.008-.466v-5.967h1.2v8.381h-1.208zM11.902 3.798h1.112v7.761c0 .446-.077.832-.231 1.159-.15.326-.38.58-.688.758-.304.18-.689.269-1.154.269h-.226v-1.037h.207c.34 0 .588-.1.745-.301.157-.198.235-.48.235-.848V3.798zm.546-1.206a.79.79 0 01-.56-.222.711.711 0 01-.23-.532c0-.207.076-.384.23-.532a.79.79 0 01.56-.221c.217 0 .402.074.556.221a.704.704 0 01.236.532.704.704 0 01-.236.532.774.774 0 01-.556.222zm5.54 8.59c-.653 0-1.226-.155-1.719-.466a3.168 3.168 0 01-1.149-1.304c-.273-.56-.41-1.212-.41-1.96 0-.753.137-1.411.41-1.973.276-.562.66-.999 1.15-1.31.492-.31 1.065-.466 1.718-.466s1.225.156 1.715.467c.493.31.876.747 1.149 1.309.276.562.414 1.22.414 1.973 0 .748-.138 1.4-.414 1.96a3.125 3.125 0 01-1.15 1.304c-.49.311-1.06.466-1.714.466zm0-.998c.496 0 .904-.127 1.225-.382a2.25 2.25 0 00.711-1.003c.154-.414.23-.863.23-1.347 0-.483-.076-.934-.23-1.351a2.278 2.278 0 00-.711-1.013c-.32-.257-.729-.386-1.225-.386-.496 0-.904.129-1.224.386-.32.257-.558.595-.711 1.013-.154.417-.231.868-.231 1.351 0 .484.077.933.23 1.347.154.415.392.75.712 1.003.32.255.728.382 1.224.382zm9.534-2.11V3.798h1.112v7.234h-1.112V9.807h-.075c-.17.368-.434.68-.792.937-.358.255-.81.382-1.356.382-.452 0-.854-.099-1.206-.297a2.076 2.076 0 01-.829-.904c-.2-.405-.301-.915-.301-1.53V3.797h1.111v4.52c0 .528.148.95.443 1.263.299.314.678.471 1.14.471.276 0 .557-.07.843-.212.289-.141.53-.358.725-.65.198-.292.297-.664.297-1.116zm3.147 2.958V3.798h1.074V4.89h.076c.131-.358.37-.648.715-.871a2.107 2.107 0 011.168-.334c.082 0 .184.001.306.004.123.003.216.008.278.014v1.13a3.3 3.3 0 00-.259-.042 2.55 2.55 0 00-.419-.033c-.351 0-.665.074-.942.222a1.67 1.67 0 00-.65.603 1.625 1.625 0 00-.235.87v4.579h-1.112zm6.046-4.352v4.352h-1.111V3.798h1.074v1.13h.094c.17-.367.427-.663.772-.886.346-.226.792-.339 1.338-.339.49 0 .918.1 1.286.302.367.198.653.499.857.904.204.402.306.91.306 1.526v4.597h-1.112V6.51c0-.568-.147-1.01-.442-1.328-.295-.32-.7-.48-1.215-.48a1.94 1.94 0 00-.952.23 1.651 1.651 0 00-.654.674c-.16.295-.24.653-.24 1.074zm8.776 4.521c-.459 0-.874-.086-1.248-.259a2.143 2.143 0 01-.89-.758c-.22-.333-.33-.735-.33-1.206 0-.414.082-.75.245-1.008.163-.26.381-.464.655-.612a3.44 3.44 0 01.904-.33c.333-.075.667-.135 1.003-.179.44-.056.796-.098 1.07-.127.275-.031.476-.083.602-.155.129-.072.193-.198.193-.377v-.038c0-.464-.127-.825-.381-1.083-.252-.257-.633-.386-1.145-.386-.53 0-.947.116-1.248.349-.301.232-.513.48-.636.744l-1.055-.377c.189-.44.44-.782.754-1.027.317-.248.662-.42 1.036-.518.377-.1.747-.15 1.111-.15.233 0 .5.028.801.084.305.054.598.165.88.335.287.17.524.425.712.767.188.342.283.8.283 1.375v4.767h-1.112v-.98h-.056a1.96 1.96 0 01-.377.504c-.176.179-.41.331-.702.457s-.648.188-1.07.188zm.17-.998c.439 0 .81-.086 1.111-.26a1.764 1.764 0 00.923-1.53V7.396c-.047.056-.15.108-.31.155-.158.044-.34.083-.547.118a24.898 24.898 0 01-1.065.141 4.247 4.247 0 00-.81.184 1.396 1.396 0 00-.602.372c-.151.163-.226.386-.226.669 0 .386.142.678.428.876.289.194.655.292 1.097.292zm6.286-8.817v9.646h-1.112V1.386h1.112zm8.799 9.796c-.697 0-1.299-.153-1.804-.461a3.098 3.098 0 01-1.163-1.3c-.27-.559-.405-1.209-.405-1.95 0-.74.135-1.394.405-1.96a3.196 3.196 0 011.14-1.327c.49-.32 1.06-.48 1.714-.48.377 0 .749.062 1.116.188.367.125.702.33 1.003.612.302.28.542.65.72 1.112.18.461.27 1.03.27 1.704v.471h-5.577v-.96h4.446c0-.409-.082-.773-.245-1.093-.16-.32-.39-.573-.688-.758-.295-.186-.643-.278-1.045-.278-.443 0-.826.11-1.15.33-.32.216-.566.499-.739.847A2.49 2.49 0 0058.485 7v.64c0 .547.094 1.01.283 1.39.191.377.457.664.796.862.339.195.733.292 1.182.292.292 0 .556-.04.791-.122.239-.085.444-.21.617-.377.173-.17.306-.38.4-.631l1.074.301a2.381 2.381 0 01-.57.96 2.78 2.78 0 01-.989.641c-.392.151-.833.226-1.323.226zm5.798-4.502v4.352h-1.112V3.798h1.074v1.13h.094c.17-.367.427-.663.773-.886.345-.226.79-.339 1.337-.339.49 0 .919.1 1.286.302.367.198.653.499.857.904.204.402.306.91.306 1.526v4.597h-1.111V6.51c0-.568-.148-1.01-.443-1.328-.295-.32-.7-.48-1.215-.48a1.94 1.94 0 00-.952.23 1.651 1.651 0 00-.654.674c-.16.295-.24.653-.24 1.074zm9.792-2.882v.941h-3.749v-.941h3.75zM73.68 2.064h1.111V8.96c0 .314.046.55.137.707a.708.708 0 00.358.31c.148.051.303.076.466.076.123 0 .223-.006.302-.019l.188-.037.226.998c-.075.028-.18.057-.315.085a2.324 2.324 0 01-.514.047c-.314 0-.621-.068-.923-.203a1.834 1.834 0 01-.744-.617c-.195-.276-.292-.624-.292-1.045V2.064zm4.328 8.968V3.798h1.074V4.89h.076c.131-.358.37-.648.715-.871a2.107 2.107 0 011.168-.334c.082 0 .184.001.306.004.123.003.216.008.278.014v1.13a3.3 3.3 0 00-.259-.042 2.55 2.55 0 00-.419-.033c-.352 0-.666.074-.942.222a1.67 1.67 0 00-.65.603 1.625 1.625 0 00-.235.87v4.579h-1.112zm4.935 0V3.798h1.112v7.234h-1.112zm.565-8.44a.79.79 0 01-.56-.222.711.711 0 01-.231-.532c0-.207.077-.384.23-.532a.79.79 0 01.561-.221c.217 0 .402.074.556.221a.705.705 0 01.235.532.705.705 0 01-.235.532.774.774 0 01-.556.222zm5.615 8.59c-.697 0-1.298-.153-1.803-.461a3.098 3.098 0 01-1.164-1.3c-.27-.559-.405-1.209-.405-1.95 0-.74.135-1.394.405-1.96a3.195 3.195 0 011.14-1.327c.49-.32 1.061-.48 1.714-.48.377 0 .75.062 1.116.188.368.125.702.33 1.004.612.301.28.541.65.72 1.112.18.461.269 1.03.269 1.704v.471h-5.577v-.96h4.446c0-.409-.081-.773-.245-1.093-.16-.32-.389-.573-.687-.758-.295-.186-.644-.278-1.046-.278-.442 0-.826.11-1.149.33-.32.216-.567.499-.74.847A2.49 2.49 0 0086.864 7v.64c0 .547.094 1.01.282 1.39.192.377.457.664.796.862.34.195.733.292 1.182.292.292 0 .556-.04.792-.122.238-.085.444-.21.617-.377.172-.17.306-.38.4-.631l1.074.301a2.381 2.381 0 01-.57.96 2.78 2.78 0 01-.99.641c-.392.151-.833.226-1.323.226zm9.81-5.764l-.998.282a1.854 1.854 0 00-.278-.485 1.349 1.349 0 00-.49-.395c-.207-.104-.472-.156-.795-.156-.443 0-.812.102-1.107.306-.292.201-.438.457-.438.768 0 .276.1.494.301.655.201.16.515.293.942.4l1.074.264c.647.157 1.129.397 1.446.72.317.32.476.733.476 1.239 0 .414-.12.785-.358 1.111-.236.327-.566.584-.99.773-.423.188-.916.282-1.478.282-.738 0-1.349-.16-1.832-.48-.484-.32-.79-.788-.919-1.403l1.055-.264c.1.39.29.681.57.876.283.194.652.292 1.107.292.518 0 .93-.11 1.234-.33.308-.223.462-.49.462-.8a.842.842 0 00-.264-.632c-.176-.172-.446-.301-.81-.386l-1.206-.282c-.663-.157-1.15-.4-1.46-.73-.308-.333-.462-.75-.462-1.249 0-.408.115-.769.344-1.083a2.34 2.34 0 01.947-.74 3.324 3.324 0 011.366-.268c.716 0 1.278.157 1.686.471.411.314.703.729.876 1.244zm8.757-1.62v.941h-3.899v-.941h3.899zm-2.731 7.234V2.799c0-.414.097-.76.292-1.036.194-.276.447-.484.758-.622s.639-.207.984-.207a2.548 2.548 0 011.055.188l-.32.961a5.401 5.401 0 00-.235-.07 1.433 1.433 0 00-.387-.043c-.367 0-.632.093-.796.278-.16.185-.24.457-.24.815v7.969h-1.111zm4.289 0V3.798h1.074V4.89h.075a1.74 1.74 0 01.716-.871 2.11 2.11 0 011.168-.334c.082 0 .184.001.306.004.123.003.215.008.278.014v1.13a3.24 3.24 0 00-.259-.042 2.544 2.544 0 00-.419-.033c-.352 0-.666.074-.942.222a1.67 1.67 0 00-.65.603 1.624 1.624 0 00-.235.87v4.579h-1.112zm7.654.15c-.654 0-1.227-.155-1.72-.466a3.178 3.178 0 01-1.149-1.304c-.273-.56-.409-1.212-.409-1.96 0-.753.136-1.411.409-1.973.277-.562.66-.999 1.149-1.31.493-.31 1.066-.466 1.72-.466.653 0 1.224.156 1.714.467.493.31.876.747 1.149 1.309.276.562.415 1.22.415 1.973 0 .748-.139 1.4-.415 1.96a3.123 3.123 0 01-1.149 1.304c-.49.311-1.061.466-1.714.466zm0-.998c.496 0 .904-.127 1.224-.382.32-.254.557-.588.711-1.003.154-.414.231-.863.231-1.347 0-.483-.077-.934-.231-1.351a2.281 2.281 0 00-.711-1.013c-.32-.257-.728-.386-1.224-.386-.497 0-.905.129-1.225.386-.32.257-.557.595-.711 1.013a3.877 3.877 0 00-.231 1.351c0 .484.077.933.231 1.347.154.415.391.75.711 1.003.32.255.728.382 1.225.382zm4.974.848V3.798h1.074v1.13h.094a1.82 1.82 0 01.73-.9c.336-.216.74-.325 1.211-.325.477 0 .874.109 1.191.325.32.214.57.514.749.9H127c.186-.374.464-.67.834-.89.371-.223.815-.335 1.333-.335.647 0 1.176.203 1.587.608.411.402.617 1.028.617 1.88v4.84h-1.111v-4.84c0-.535-.146-.916-.438-1.145a1.622 1.622 0 00-1.032-.344c-.509 0-.903.154-1.182.461-.279.305-.419.691-.419 1.159v4.71h-1.131V6.077c0-.411-.133-.742-.4-.994-.267-.254-.611-.381-1.031-.381-.289 0-.559.077-.81.23a1.745 1.745 0 00-.603.641c-.151.27-.226.583-.226.937v4.522h-1.112zm18.196.15c-.653 0-1.226-.155-1.719-.466a3.164 3.164 0 01-1.149-1.304c-.273-.56-.41-1.212-.41-1.96 0-.753.137-1.411.41-1.973a3.158 3.158 0 011.149-1.31c.493-.31 1.066-.466 1.719-.466s1.225.156 1.715.467c.493.31.876.747 1.149 1.309.276.562.414 1.22.414 1.973 0 .748-.138 1.4-.414 1.96a3.123 3.123 0 01-1.149 1.304c-.49.311-1.062.466-1.715.466zm0-.998c.496 0 .905-.127 1.225-.382.32-.254.557-.588.711-1.003.154-.414.231-.863.231-1.347 0-.483-.077-.934-.231-1.351a2.281 2.281 0 00-.711-1.013c-.32-.257-.729-.386-1.225-.386-.496 0-.904.129-1.224.386-.32.257-.557.595-.711 1.013a3.877 3.877 0 00-.231 1.351c0 .484.077.933.231 1.347.154.415.391.75.711 1.003.32.255.728.382 1.224.382zm7.914.998c-.678 0-1.262-.16-1.752-.48a3.124 3.124 0 01-1.13-1.323c-.264-.562-.396-1.205-.396-1.927 0-.734.135-1.383.405-1.945a3.198 3.198 0 011.14-1.323c.49-.32 1.061-.48 1.714-.48.509 0 .967.094 1.375.282.409.188.743.452 1.004.791.26.34.422.735.485 1.187h-1.112a1.725 1.725 0 00-.565-.876c-.289-.257-.678-.386-1.168-.386-.433 0-.813.113-1.14.339a2.21 2.21 0 00-.758.947c-.179.405-.269.88-.269 1.427 0 .559.088 1.045.264 1.46.179.414.43.736.754.965.326.23.709.344 1.149.344.289 0 .551-.05.786-.15.236-.101.435-.246.599-.434.163-.188.279-.414.348-.678h1.112a2.58 2.58 0 01-.467 1.154c-.245.339-.57.609-.975.81-.401.198-.869.296-1.403.296zm7.616-7.384v.941h-3.749v-.941h3.749zm-2.657-1.734h1.112V8.96c0 .314.045.55.136.707a.713.713 0 00.358.31c.148.051.303.076.467.076.122 0 .223-.006.301-.019l.188-.037.227.998a2.299 2.299 0 01-.316.085 2.32 2.32 0 01-.513.047c-.314 0-.622-.068-.924-.203a1.836 1.836 0 01-.744-.617c-.194-.276-.292-.624-.292-1.045V2.064zm7.19 9.119c-.653 0-1.226-.156-1.719-.467a3.164 3.164 0 01-1.149-1.304c-.274-.56-.41-1.212-.41-1.96 0-.753.136-1.411.41-1.973a3.158 3.158 0 011.149-1.31c.493-.31 1.066-.466 1.719-.466s1.224.156 1.714.467c.493.31.876.747 1.149 1.309.277.562.415 1.22.415 1.973 0 .748-.138 1.4-.415 1.96a3.123 3.123 0 01-1.149 1.304c-.49.311-1.061.466-1.714.466zm0-.999c.496 0 .904-.127 1.224-.382.321-.254.558-.588.711-1.003.154-.414.231-.863.231-1.347 0-.483-.077-.934-.231-1.351a2.266 2.266 0 00-.711-1.013c-.32-.257-.728-.386-1.224-.386s-.905.129-1.225.386c-.32.257-.557.595-.711 1.013a3.877 3.877 0 00-.231 1.351c0 .484.077.933.231 1.347.154.415.391.75.711 1.003.32.255.729.382 1.225.382zm5.125.848V1.386h1.112v3.56h.094c.082-.125.195-.285.339-.48.148-.197.358-.373.631-.527.276-.157.65-.236 1.121-.236.609 0 1.146.153 1.611.457.464.305.827.736 1.088 1.295.26.56.391 1.219.391 1.978 0 .767-.131 1.43-.391 1.993-.261.559-.622.992-1.084 1.3-.461.304-.993.456-1.596.456-.465 0-.837-.077-1.116-.23a2.07 2.07 0 01-.646-.533 7.492 7.492 0 01-.348-.499h-.132v1.112h-1.074zm1.093-3.617c0 .546.08 1.028.24 1.446.16.414.394.739.702.974.307.233.684.349 1.13.349.465 0 .853-.122 1.163-.367.314-.248.55-.581.707-.999.16-.42.24-.888.24-1.403 0-.509-.078-.967-.235-1.376a2.126 2.126 0 00-.702-.975c-.311-.241-.702-.362-1.173-.362-.452 0-.832.114-1.14.344-.307.226-.54.543-.697.951-.157.405-.235.878-.235 1.418zm10.027 3.767c-.697 0-1.298-.153-1.804-.461a3.1 3.1 0 01-1.163-1.3c-.27-.559-.405-1.209-.405-1.95 0-.74.135-1.394.405-1.96a3.192 3.192 0 011.14-1.327c.489-.32 1.061-.48 1.714-.48.377 0 .749.062 1.116.188.367.125.702.33 1.003.612.302.28.542.65.721 1.112.179.461.268 1.03.268 1.704v.471h-5.576v-.96h4.446c0-.409-.082-.773-.245-1.093a1.84 1.84 0 00-.688-.758c-.295-.186-.643-.278-1.045-.278-.443 0-.826.11-1.149.33-.321.216-.567.499-.74.847A2.5 2.5 0 00174.119 7v.64c0 .547.094 1.01.283 1.39.191.377.457.664.796.862.339.195.733.292 1.182.292a2.4 2.4 0 00.791-.122c.239-.085.444-.21.617-.377.173-.17.306-.38.4-.631l1.074.301a2.38 2.38 0 01-.57.96 2.767 2.767 0 01-.989.641c-.392.151-.833.226-1.323.226zm4.686-.15V3.798h1.074V4.89h.075a1.74 1.74 0 01.716-.871 2.11 2.11 0 011.168-.334c.082 0 .184.001.306.004.123.003.215.008.278.014v1.13a3.24 3.24 0 00-.259-.042 2.544 2.544 0 00-.419-.033c-.352 0-.666.074-.942.222a1.67 1.67 0 00-.65.603 1.624 1.624 0 00-.235.87v4.579h-1.112zm11.811-7.234v.941h-3.749v-.941h3.749zm-2.656-1.734h1.111V8.96c0 .314.046.55.137.707a.705.705 0 00.358.31c.147.051.303.076.466.076.122 0 .223-.006.301-.019l.189-.037.226.998a2.26 2.26 0 01-.316.085 2.32 2.32 0 01-.513.047c-.314 0-.622-.068-.923-.203a1.836 1.836 0 01-.744-.617c-.195-.276-.292-.624-.292-1.045V2.064zm7.189 9.119c-.653 0-1.226-.156-1.719-.467a3.164 3.164 0 01-1.149-1.304c-.273-.56-.41-1.212-.41-1.96 0-.753.137-1.411.41-1.973a3.158 3.158 0 011.149-1.31c.493-.31 1.066-.466 1.719-.466s1.225.156 1.715.467c.493.31.876.747 1.149 1.309.276.562.414 1.22.414 1.973 0 .748-.138 1.4-.414 1.96a3.123 3.123 0 01-1.149 1.304c-.49.311-1.062.466-1.715.466zm0-.999c.496 0 .904-.127 1.225-.382.32-.254.557-.588.711-1.003.154-.414.231-.863.231-1.347 0-.483-.077-.934-.231-1.351a2.281 2.281 0 00-.711-1.013c-.321-.257-.729-.386-1.225-.386-.496 0-.904.129-1.224.386a2.275 2.275 0 00-.712 1.013 3.9 3.9 0 00-.23 1.351c0 .484.077.933.23 1.347.154.415.391.75.712 1.003.32.255.728.382 1.224.382zm11.437.998c-.603 0-1.135-.152-1.597-.456-.461-.308-.823-.741-1.083-1.3-.261-.562-.391-1.226-.391-1.993 0-.76.13-1.419.391-1.978.26-.559.623-.99 1.088-1.295.464-.304 1.001-.457 1.611-.457.47 0 .843.079 1.116.236.276.154.486.33.631.527.147.195.262.355.344.48h.094v-3.56h1.111v9.646h-1.073V9.92h-.132a7.2 7.2 0 01-.349.5 2.076 2.076 0 01-.645.532c-.28.153-.652.23-1.116.23zm.15-.998c.446 0 .823-.116 1.131-.349.307-.235.541-.56.701-.974.161-.418.241-.9.241-1.446 0-.54-.079-1.013-.236-1.418-.157-.408-.389-.725-.697-.951-.308-.23-.687-.344-1.14-.344-.471 0-.863.12-1.177.362a2.17 2.17 0 00-.702.975 3.872 3.872 0 00-.231 1.376c0 .515.079.982.236 1.403.16.418.396.75.706.999.314.245.704.367 1.168.367zm8.388.998c-.697 0-1.298-.153-1.803-.461a3.095 3.095 0 01-1.164-1.3c-.27-.559-.405-1.209-.405-1.95 0-.74.135-1.394.405-1.96a3.192 3.192 0 011.14-1.327c.49-.32 1.061-.48 1.714-.48.377 0 .749.062 1.117.188.367.125.701.33 1.003.612.301.28.541.65.72 1.112.179.461.269 1.03.269 1.704v.471h-5.576v-.96h4.446c0-.409-.082-.773-.245-1.093a1.854 1.854 0 00-.688-.758c-.295-.186-.644-.278-1.046-.278-.442 0-.825.11-1.149.33-.32.216-.566.499-.739.847A2.486 2.486 0 00215.125 7v.64c0 .547.094 1.01.282 1.39.192.377.457.664.796.862.339.195.733.292 1.182.292.292 0 .556-.04.792-.122.238-.085.444-.21.617-.377.172-.17.306-.38.4-.631l1.074.301a2.38 2.38 0 01-.57.96 2.784 2.784 0 01-.989.641c-.393.151-.834.226-1.324.226zm7.626 0c-.679 0-1.263-.16-1.752-.48a3.133 3.133 0 01-1.131-1.323c-.264-.562-.395-1.205-.395-1.927 0-.734.135-1.383.405-1.945a3.203 3.203 0 011.139-1.323c.49-.32 1.062-.48 1.715-.48.508 0 .967.094 1.375.282a2.63 2.63 0 011.003.791c.261.34.422.735.485 1.187h-1.111a1.725 1.725 0 00-.565-.876c-.289-.257-.679-.386-1.168-.386a1.95 1.95 0 00-1.14.339c-.324.223-.576.538-.758.947-.179.405-.269.88-.269 1.427 0 .559.088 1.045.264 1.46.179.414.43.736.753.965.327.23.71.344 1.15.344.288 0 .551-.05.786-.15a1.616 1.616 0 00.947-1.112h1.111a2.578 2.578 0 01-.466 1.154c-.245.339-.57.609-.975.81-.402.198-.87.296-1.403.296zm7.502 0c-.697 0-1.298-.153-1.804-.461a3.1 3.1 0 01-1.163-1.3c-.27-.559-.405-1.209-.405-1.95 0-.74.135-1.394.405-1.96a3.192 3.192 0 011.14-1.327c.49-.32 1.061-.48 1.714-.48.377 0 .749.062 1.116.188.368.125.702.33 1.004.612.301.28.541.65.72 1.112.179.461.269 1.03.269 1.704v.471h-5.577v-.96h4.446c0-.409-.081-.773-.245-1.093a1.845 1.845 0 00-.687-.758c-.295-.186-.644-.278-1.046-.278-.443 0-.826.11-1.149.33-.32.216-.567.499-.739.847A2.486 2.486 0 00230.253 7v.64c0 .547.094 1.01.282 1.39.192.377.457.664.796.862.339.195.733.292 1.182.292a2.4 2.4 0 00.791-.122c.239-.085.445-.21.617-.377.173-.17.307-.38.401-.631l1.074.301a2.38 2.38 0 01-.57.96 2.784 2.784 0 01-.989.641c-.393.151-.834.226-1.324.226zm4.686-.15V3.798h1.074v1.13h.094c.151-.386.395-.686.73-.9.336-.216.74-.325 1.211-.325.477 0 .874.109 1.191.325.321.214.57.514.749.9h.076c.185-.374.463-.67.833-.89.371-.223.815-.335 1.333-.335.647 0 1.176.203 1.587.608.412.402.617 1.028.617 1.88v4.84h-1.111v-4.84c0-.535-.146-.916-.438-1.145a1.622 1.622 0 00-1.032-.344c-.508 0-.902.154-1.182.461-.279.305-.419.691-.419 1.159v4.71h-1.13V6.077c0-.411-.134-.742-.401-.994-.267-.254-.61-.381-1.031-.381-.289 0-.559.077-.81.23a1.745 1.745 0 00-.603.641c-.151.27-.226.583-.226.937v4.522h-1.112zm11.678 0V1.386h1.112v3.56h.094c.082-.125.195-.285.339-.48.148-.197.358-.373.631-.527.277-.157.65-.236 1.121-.236.609 0 1.146.153 1.611.457.465.305.827.736 1.088 1.295.26.56.391 1.219.391 1.978 0 .767-.131 1.43-.391 1.993-.261.559-.622.992-1.083 1.3-.462.304-.994.456-1.597.456-.465 0-.837-.077-1.116-.23a2.053 2.053 0 01-.645-.533 7.2 7.2 0 01-.349-.499h-.132v1.112h-1.074zm1.093-3.617c0 .546.08 1.028.24 1.446.16.414.394.739.702.974.308.233.684.349 1.13.349.465 0 .853-.122 1.164-.367.314-.248.549-.581.706-.999.16-.42.24-.888.24-1.403 0-.509-.078-.967-.235-1.376a2.126 2.126 0 00-.702-.975c-.311-.241-.702-.362-1.173-.362-.452 0-.832.114-1.14.344-.307.226-.54.543-.697.951-.157.405-.235.878-.235 1.418zm10.027 3.767c-.697 0-1.298-.153-1.804-.461a3.1 3.1 0 01-1.163-1.3c-.27-.559-.405-1.209-.405-1.95 0-.74.135-1.394.405-1.96a3.192 3.192 0 011.14-1.327c.489-.32 1.061-.48 1.714-.48.377 0 .749.062 1.116.188.368.125.702.33 1.003.612.302.28.542.65.721 1.112.179.461.268 1.03.268 1.704v.471h-5.576v-.96h4.446c0-.409-.082-.773-.245-1.093a1.845 1.845 0 00-.687-.758 1.93 1.93 0 00-1.046-.278c-.443 0-.826.11-1.149.33-.32.216-.567.499-.74.847A2.5 2.5 0 00257.736 7v.64c0 .547.095 1.01.283 1.39.191.377.457.664.796.862.339.195.733.292 1.182.292a2.4 2.4 0 00.791-.122c.239-.085.445-.21.617-.377.173-.17.306-.38.401-.631l1.073.301a2.39 2.39 0 01-.569.96 2.78 2.78 0 01-.99.641c-.392.151-.833.226-1.323.226zm4.686-.15V3.798h1.074V4.89h.075a1.74 1.74 0 01.716-.871 2.11 2.11 0 011.168-.334c.082 0 .184.001.306.004.123.003.216.008.278.014v1.13a3.24 3.24 0 00-.259-.042 2.544 2.544 0 00-.419-.033c-.352 0-.666.074-.942.222a1.67 1.67 0 00-.65.603 1.624 1.624 0 00-.235.87v4.579h-1.112z" fill="#000"/></svg>